<?xml version="1.0" encoding="utf-8"?>
<!-- Generator: Adobe Illustrator 26.1.0, SVG Export Plug-In . SVG Version: 6.00 Build 0)  -->
<svg version="1.1" id="Layer_1" xmlns="http://www.w3.org/2000/svg" xmlns:xlink="http://www.w3.org/1999/xlink" x="0px" y="0px"
	 viewBox="0 0 70 70" style="enable-background:new 0 0 70 70;" xml:space="preserve">
<style type="text/css">
	.st0{fill-rule:evenodd;clip-rule:evenodd;fill:#FB5151;}
</style>
<g>
	<g>
		<defs>
			<path id="SVGID_1_" d="M35,70L35,70C15.67,70,0,54.33,0,35l0,0C0,15.67,15.67,0,35,0l0,0c19.33,0,35,15.67,35,35v0
				C70,54.33,54.33,70,35,70z"/>
		</defs>
		<use xlink:href="#SVGID_1_"  style="overflow:visible;fill:#FFFFFF;"/>
		<clipPath id="SVGID_00000060722761124408633600000015895534537305733012_">
			<use xlink:href="#SVGID_1_"  style="overflow:visible;"/>
		</clipPath>
	</g>
	<path class="st0" d="M47.08,41.09l-15.74,9.09l0,9.09l23.62-13.63L47.08,41.09z M47.08,22.91L31.34,32l0,9.09l23.62-13.63
		L47.08,22.91z M23.47,27.46l27.56-15.91L43.15,7L15.59,22.91l0,31.83l7.87,4.54C23.47,28.13,23.47,34.75,23.47,27.46z"/>
</g>
</svg>
