<?xml version="1.0" encoding="utf-8"?>
<!-- Generator: Adobe Illustrator 26.1.0, SVG Export Plug-In . SVG Version: 6.00 Build 0)  -->
<svg version="1.1" id="Layer_1" xmlns="http://www.w3.org/2000/svg" xmlns:xlink="http://www.w3.org/1999/xlink" x="0px" y="0px"
	 viewBox="0 0 23 23" style="enable-background:new 0 0 23 23;" xml:space="preserve">
<style type="text/css">
	.st0{fill:#557EBF;}
	.st1{fill:#36A852;}
	.st2{fill:#F9BC15;}
	.st3{fill:#EB4535;}
	.st4{display:none;}
	.st5{display:inline;fill-rule:evenodd;clip-rule:evenodd;fill:#4373B9;}
	.st6{display:inline;fill-rule:evenodd;clip-rule:evenodd;fill:#FFFFFF;}
</style>
<g>
	<path class="st0" d="M22.3,11.7c0-0.9-0.1-1.6-0.2-2.4h-9.9v3.5h5.7c-0.1,1.7-0.8,3.2-2.3,4.2l0,0.1l3.3,2.5l0.2,0
		C21.1,17.9,22.3,15.1,22.3,11.7"/>
	<path class="st1" d="M11.7,22.5c3,0,5.5-1,7.3-2.7l-3.5-2.7c-0.9,0.6-2.2,1.1-3.8,1.1c-2.9,0-5.4-1.9-6.3-4.6l-0.1,0l-3.4,2.6
		l0,0.1C3.7,20.1,7.4,22.5,11.7,22.5"/>
	<path class="st2" d="M5.4,13.7c-0.2-0.7-0.4-1.4-0.4-2.2c0-0.8,0.1-1.5,0.4-2.2l0-0.1L2,6.5L1.9,6.5c-0.7,1.5-1.2,3.2-1.2,5
		s0.4,3.5,1.2,5L5.4,13.7"/>
	<path class="st3" d="M11.7,4.7c2.1,0,3.5,0.9,4.3,1.6l3.1-3c-1.9-1.8-4.4-2.9-7.4-2.9c-4.3,0-8,2.5-9.9,6.1l3.6,2.8
		C6.3,6.7,8.8,4.7,11.7,4.7"/>
</g>
<g class="st4">
	
		<ellipse id="XMLID_2_" transform="matrix(0.1026 -0.9947 0.9947 0.1026 -0.954 21.6094)" class="st5" cx="11.5" cy="11.3" rx="11" ry="11"/>
	<path id="XMLID_1_" class="st6" d="M9.3,18.5c0-1.3,0-2.6,0-4c0-0.2-0.1-0.3-0.3-0.3c-0.4,0-0.8,0-1.2,0c-0.2,0-0.2,0-0.2-0.2
		c0-0.8,0-1.7,0-2.5c0-0.2,0-0.2,0.2-0.2c0.4,0,0.8,0,1.3,0c0.2,0,0.3-0.1,0.3-0.3c0-0.6,0-1.3,0-1.9C9.3,8.4,9.5,7.6,10,7
		c0.6-0.8,1.4-1.2,2.4-1.2c1,0,2,0,2.9,0c0.1,0,0.2,0,0.2,0.2c0,0.8,0,1.7,0,2.5c0,0.1,0,0.2-0.2,0.2c-0.5,0-0.9,0-1.4,0
		c-0.6,0-1,0.3-1,0.9c0,0.5,0,1,0,1.5c0,0.2,0.1,0.2,0.2,0.2c0.7,0,1.4,0,2.1,0c0.2,0,0.3,0,0.3,0.3c-0.1,0.8-0.2,1.7-0.2,2.5
		c0,0.2-0.1,0.2-0.3,0.2c-0.6,0-1.1,0-1.7,0c-0.4,0-0.4-0.1-0.4,0.4c0,2.6,0,5.2,0,7.8c0,0.3-0.1,0.3-0.3,0.3c-1,0-1.9,0-2.9,0
		c-0.3,0-0.3-0.1-0.3-0.3C9.3,21.1,9.3,19.8,9.3,18.5z"/>
</g>
</svg>
