<?xml version="1.0" encoding="utf-8"?>
<!-- Generator: Adobe Illustrator 26.1.0, SVG Export Plug-In . SVG Version: 6.00 Build 0)  -->
<svg version="1.1" id="Layer_1" xmlns="http://www.w3.org/2000/svg" xmlns:xlink="http://www.w3.org/1999/xlink" x="0px" y="0px"
	 viewBox="0 0 299.7 328" style="enable-background:new 0 0 299.7 328;" xml:space="preserve">
<style type="text/css">
	.st0{fill:none;stroke:#FFFFFF;stroke-width:6;stroke-miterlimit:10;}
	.st1{fill:none;stroke:#FFFFFF;stroke-width:3;stroke-miterlimit:10;}
	.st2{fill:none;stroke:#FFFFFF;stroke-miterlimit:10;}
	.st3{fill:none;stroke:#FFFFFF;stroke-width:8;stroke-miterlimit:10;}
	.st4{fill:none;stroke:#FFFFFF;stroke-width:5;stroke-miterlimit:10;}
	.st5{fill:none;stroke:#FFFFFF;stroke-width:2;stroke-miterlimit:10;}
</style>
<path class="st0" d="M181.3,96.5c0.9,3,2.3,5.8,4.2,8.5c4.5,6.3,11.1,10.9,18.2,14c13,5.8,28.9,8.1,43,5.8c6.8-1.1,13.5-4,18.1-9.1
	c4.2-4.6,6.2-10.7,10-15.6c3.8-4.9,9.2-8.3,13.2-13.1c8.5-10.2,8.7-26.9-0.9-36c-3.6-3.4-8.4-5.7-11.6-9.5
	C265.6,30,265.4,16,249.9,8.8c-31.2-14.5-49.7,16-60.2,40.1C183.7,62.8,176.5,81.2,181.3,96.5z"/>
<path class="st1" d="M263.5,67.3c-4-18.1-17.2-38.8-33.7-35c-23.3,5.4-26.8,35.8-27.2,55.4c-0.3,15.6,11.8,26.6,27.4,23.8
	c6.8-1.2,12.9-4.6,18.6-8.5c6.8-4.6,13.4-10.5,15.4-18.5C265.2,79.9,264.9,73.8,263.5,67.3z"/>
<path class="st2" d="M230.7,97.4c12.4-4.1,20.8-31.5-1.1-20c-5.4,2.9-14.4,14-7,18.9C225.3,98.1,228.1,98.3,230.7,97.4z"/>
<path class="st2" d="M0,274.8c31.3-8.2,70.5-2.2,99.3,1.7c25.2,3.4,72.6,24.1,91.3-3.1c8.1-11.8,7.7-27.6-0.5-39.3
	c-21.2-30.4-71.6-45.8-74.2-87.3c-1.7-26.5,9.1-66.2-31.6-62.2c-25.5,2.5-48.4,18.7-73,25.5c-3.7,1-7.5,1.4-11.4,1.5"/>
<path class="st2" d="M0,128.7c3.7-0.7,7.4-1.5,11-2.7c14.2-4.3,27.9-10.2,42-15c15.1-5.1,37.9-15,42.8,7.1c3,13.6-2.7,26.5-2.4,40.1
	c0.3,13.6,5,27.2,13.6,37.9c14.5,18.3,38.4,25.8,53.3,43.5c12,14.2,8.3,32.5-12.2,33.1c-20,0.6-42.5-8.2-62.5-11.1
	c-19.7-2.8-39.7-4.5-59.6-3.4c-8.6,0.5-17.3,1-25.8,2"/>
<path class="st3" d="M0,313.6c24.2-5.7,50.9-4.4,75.9-2.1c36.9,3.4,74.6,17.1,111.7,8.1c29.1-7.1,50.2-32.9,55-61.9
	c4.3-25.8-6.2-50.5-24.7-68.3c-17.1-16.5-42.1-25.6-55.3-46c-14.7-22.7-0.5-51-7-75.7c-4.8-18-18.4-31-36.8-34.6
	C76.9,24.8,47.4,50.6,10.7,63.8c-3.5,1.3-7,2.1-10.7,2.6"/>
<path class="st2" d="M0,91.6c9.2-0.1,18.2-0.9,27.1-4c19.6-6.8,36.6-18.4,55.8-26.1c12.9-5.1,28.4-6.9,40.2,0.5
	c8.6,5.4,14,15.1,15.9,25.1c2.8,14.7-2.4,28.3-3.1,42.9c-1.4,28.3,17.9,46.3,41.5,57.3c32,14.9,53.7,49.8,34.4,83.8
	c-16.4,28.9-52,33.2-81.6,26c-32.1-7.8-67.6-11.2-100.5-6.9c-12,1.6-21.6,3.8-29.7,7.3"/>
<path class="st4" d="M0,297.5c8.1-3.5,17.7-5.7,29.7-7.3c32.9-4.3,68.4-0.9,100.5,6.9c29.6,7.2,65.2,2.9,81.6-26
	c19.3-34-2.4-68.8-34.4-83.8c-23.7-11-42.9-29-41.5-57.3c0.7-14.5,5.9-28.1,3.1-42.9c-1.9-10-7.3-19.7-15.9-25.1
	c-11.8-7.4-27.3-5.7-40.2-0.5c-19.1,7.6-36.2,19.2-55.8,26.1c-8.9,3.1-18,3.9-27.1,4"/>
<path class="st5" d="M0,111.6c3.8,0,7.6-0.4,11.4-1.5c24.6-6.8,47.5-23,73-25.5c40.6-4,29.9,35.7,31.6,62.2
	c2.6,41.5,53,56.9,74.2,87.3c8.1,11.7,8.6,27.5,0.5,39.3c-18.7,27.2-66.1,6.5-91.3,3.1c-28.7-3.9-68-9.9-99.3-1.7"/>
<path class="st2" d="M0,260.2c8.4-1,17.1-1.6,25.8-2c19.9-1.1,39.9,0.6,59.6,3.4c20,2.9,42.6,11.7,62.5,11.1
	c20.5-0.6,24.2-18.9,12.2-33.1c-14.9-17.6-38.7-25.2-53.3-43.5c-8.5-10.7-13.2-24.3-13.6-37.9c-0.3-13.6,5.5-26.5,2.4-40.1
	C90.9,96,68.1,105.9,53,111.1c-14.1,4.8-27.7,10.6-42,15c-3.7,1.1-7.3,2-11,2.7"/>
</svg>
