<?xml version="1.0" encoding="utf-8"?>
<!-- Generator: Adobe Illustrator 26.1.0, SVG Export Plug-In . SVG Version: 6.00 Build 0)  -->
<svg version="1.1" id="Layer_1" xmlns="http://www.w3.org/2000/svg" xmlns:xlink="http://www.w3.org/1999/xlink" x="0px" y="0px"
	 viewBox="0 0 98.9 17.8" style="enable-background:new 0 0 98.9 17.8;" xml:space="preserve">
<style type="text/css">
	.st0{fill:#FFFFFF;}
</style>
<g>
	<g>
		<path class="st0" d="M71.6,2.2c-0.7,0.3-1.4,0.5-2.2,0.6c0.4-0.1,0.9-0.7,1.1-0.9c0.3-0.4,0.6-0.8,0.7-1.3c0,0,0-0.1,0-0.1
			c0,0-0.1,0-0.1,0c-0.8,0.4-1.7,0.8-2.6,1c-0.1,0-0.1,0-0.2,0c-0.1-0.1-0.1-0.2-0.2-0.2c-0.4-0.3-0.8-0.6-1.3-0.8
			C66.3,0.1,65.6,0,65,0.1c-0.6,0-1.3,0.2-1.8,0.5c-0.6,0.3-1.1,0.7-1.5,1.2c-0.4,0.5-0.7,1.1-0.9,1.8c-0.2,0.6-0.1,1.2,0,1.9
			c0,0.1,0,0.1-0.1,0.1C57.1,5,54.2,3.7,51.8,1c-0.1-0.1-0.2-0.1-0.2,0c-1,1.6-0.5,4.1,0.8,5.3c0.2,0.2,0.4,0.3,0.5,0.5
			c-0.1,0-0.9-0.1-1.7-0.5c-0.1-0.1-0.2,0-0.2,0.1c0,0.2,0,0.3,0,0.5c0.2,1.6,1.3,3.1,2.8,3.6c0.2,0.1,0.4,0.1,0.6,0.2
			c-0.3,0.1-0.7,0.1-1.7,0.1c-0.1,0-0.2,0-0.1,0.2c0.7,2,2.3,2.6,3.5,3c0.2,0,0.3,0,0.5,0.1c0,0,0,0,0,0c-0.4,0.6-1.8,1.1-2.4,1.3
			c-1.2,0.4-2.4,0.6-3.7,0.5c-0.2,0-0.2,0-0.3,0c-0.1,0,0,0.1,0.1,0.1c0.2,0.2,0.5,0.3,0.8,0.5c0.8,0.4,1.6,0.7,2.4,1
			c4.4,1.2,9.3,0.3,12.6-3c2.6-2.6,3.5-6.1,3.5-9.7c0-0.1,0.2-0.2,0.3-0.3c0.7-0.5,1.2-1.1,1.7-1.8C71.7,2.4,71.7,2.3,71.6,2.2
			C71.7,2.2,71.7,2.2,71.6,2.2C71.7,2.1,71.7,2.1,71.6,2.2z"/>
	</g>
	<g>
		<g>
			<g>
				<path class="st0" d="M33.8,3.2c-0.6,0-1,0.5-1,1c0,0.6,0.5,1,1,1c0.6,0,1-0.5,1-1C34.9,3.6,34.4,3.2,33.8,3.2z"/>
				<path class="st0" d="M29.2,4.5c-2.4,0-4.4,2-4.4,4.4c0,2.4,2,4.4,4.4,4.4c2.4,0,4.4-2,4.4-4.4C33.6,6.5,31.6,4.5,29.2,4.5z
					 M29.2,11.7c-1.5,0-2.8-1.3-2.8-2.8s1.3-2.8,2.8-2.8c1.5,0,2.8,1.3,2.8,2.8S30.7,11.7,29.2,11.7z"/>
				<path class="st0" d="M32.7,17.8h-7.1c-2.9,0-5.3-2.4-5.3-5.3V5.3c0-2.9,2.4-5.3,5.3-5.3h7.1C35.6,0,38,2.4,38,5.3v7.1
					C38,15.4,35.6,17.8,32.7,17.8z M25.6,1.7c-2,0-3.7,1.6-3.7,3.7v7.1c0,2,1.6,3.7,3.7,3.7h7.1c2,0,3.7-1.6,3.7-3.7V5.3
					c0-2-1.6-3.7-3.7-3.7H25.6z"/>
			</g>
		</g>
	</g>
	<g>
		<path class="st0" d="M8.8,10l0.5-3.2H6.2V4.7C6.2,3.8,6.7,3,8,3h1.4V0.3c0,0-1.3-0.2-2.5-0.2c-2.5,0-4.2,1.5-4.2,4.3v2.4H0V10h2.8
			v7.7c0.6,0.1,1.1,0.1,1.7,0.1c0.6,0,1.2,0,1.7-0.1V10H8.8z"/>
	</g>
	<g>
		<path class="st0" d="M81.4,5.9h3.7v11.8h-3.7V5.9z M83.3,0.1c1.2,0,2.1,1,2.1,2.1c0,1.2-1,2.1-2.1,2.1c-1.2,0-2.1-1-2.1-2.1
			C81.2,1,82.1,0.1,83.3,0.1"/>
		<path class="st0" d="M87.4,5.9H91v1.6h0c0.5-0.9,1.7-1.9,3.5-1.9c3.7,0,4.4,2.5,4.4,5.6v6.5h-3.7V12c0-1.4,0-3.1-1.9-3.1
			c-1.9,0-2.2,1.5-2.2,3v5.9h-3.7V5.9z"/>
	</g>
</g>
</svg>
