<svg xmlns="http://www.w3.org/2000/svg" xml:space="preserve" style="enable-background:new 0 0 265.71 12.02" viewBox="0 0 265.71 12.02"><path d="M0 3.83c8.3-.01 8.31 5.99 16.61 5.98 8.3-.01 8.3-6.01 16.6-6.02 8.3-.01 8.31 5.99 16.61 5.98 8.3-.01 8.3-6.01 16.6-6.02 8.3-.01 8.31 5.99 16.61 5.98 8.3-.01 8.3-6.01 16.6-6.02 8.3-.01 8.31 5.99 16.61 5.98 8.3-.01 8.3-6.01 16.6-6.02 8.3-.01 8.31 5.99 16.61 5.98 8.3-.01 8.3-6.01 16.6-6.02 8.3-.01 8.31 5.99 16.61 5.98 8.3-.01 8.3-6.01 16.6-6.02 8.3-.01 8.31 5.99 16.62 5.98 8.31-.01 8.3-6.01 16.61-6.02 8.31-.01 8.31 5.99 16.62 5.98 8.31-.01 8.3-6.01 16.61-6.02" style="fill:none;stroke:#0097a7;stroke-width:2;stroke-miterlimit:10"/></svg>