<?xml version="1.0" encoding="utf-8"?>
<!-- Generator: Adobe Illustrator 26.1.0, SVG Export Plug-In . SVG Version: 6.00 Build 0)  -->
<svg version="1.1" id="Layer_1" xmlns="http://www.w3.org/2000/svg" xmlns:xlink="http://www.w3.org/1999/xlink" x="0px" y="0px"
	 viewBox="0 0 60 60" style="enable-background:new 0 0 60 60;" xml:space="preserve">
<style type="text/css">
	.st0{fill:#22323D;}
	.st1{fill:#04694B;}
</style>
<g>
	<g>
		<path class="st0" d="M58.93,50.43c-0.59,0-1.07-0.48-1.07-1.07c0-0.59,0.48-1.07,1.07-1.07c0.59,0,1.07,0.47,1.07,1.06
			c0.02,0.59-0.45,1.07-1.03,1.09C58.95,50.43,58.94,50.43,58.93,50.43 M58.93,48.38c-0.54,0-0.98,0.43-0.98,0.97
			c0,0.54,0.43,0.98,0.97,0.98c0.54,0,0.98-0.43,0.98-0.97c0,0,0,0,0,0c0.01-0.53-0.41-0.97-0.94-0.98
			C58.94,48.38,58.93,48.38,58.93,48.38 M59.18,50.04l-0.28-0.6h-0.22v0.6h-0.16v-1.36h0.4c0.3,0,0.42,0.13,0.42,0.38
			c0,0.2-0.09,0.32-0.27,0.36l0.29,0.62L59.18,50.04z M58.69,49.3h0.24c0.19,0,0.26-0.06,0.26-0.24c0-0.17-0.07-0.23-0.28-0.23
			h-0.21V49.3z M42.94,49.45c0.29,0.23,0.87,0.33,1.38,0.33c0.66,0,1.31-0.12,1.95-0.7c0.65-0.59,1.09-1.49,1.09-2.93
			c0-1.38-0.53-2.5-1.6-3.16c-0.61-0.38-1.4-0.53-2.3-0.53c-0.26,0-0.53,0.01-0.68,0.08c-0.06,0.05-0.11,0.12-0.12,0.19
			c-0.03,0.25-0.03,2.12-0.03,3.23c0,1.14,0,2.72,0.03,2.91C42.67,49.04,42.76,49.33,42.94,49.45 M40.18,41.85
			c0.24,0,1.13,0.04,1.54,0.04c0.78,0,1.31-0.04,2.77-0.04c1.22,0,2.24,0.33,2.97,0.96c0.89,0.77,1.36,1.83,1.36,3.13
			c0,1.85-0.84,2.91-1.69,3.52c-0.84,0.63-1.94,0.98-3.5,0.98c-0.83,0-2.26-0.03-3.45-0.04h-0.02c-0.06-0.11,0.1-0.54,0.2-0.55
			c0.32-0.04,0.41-0.05,0.56-0.11c0.25-0.1,0.31-0.23,0.34-0.68c0.04-0.85,0.03-1.86,0.03-3.01c0-0.82,0.01-2.42-0.01-2.93
			c-0.04-0.42-0.22-0.53-0.58-0.62c-0.26-0.05-0.52-0.1-0.78-0.12C39.89,42.3,40.1,41.93,40.18,41.85 M52.25,42.54
			c-0.06,0.01-0.12,0.15-0.12,0.22c-0.01,0.49-0.03,1.78-0.03,2.67c0.01,0.03,0.03,0.06,0.07,0.07c0.18,0.01,0.62,0.03,1,0.03
			c0.53,0,0.83-0.07,1-0.15c0.44-0.22,0.65-0.7,0.65-1.22c0-1.19-0.83-1.64-2.06-1.64C52.58,42.51,52.41,42.52,52.25,42.54
			 M55.39,48.01c0-1.2-0.89-1.89-2.5-1.89c-0.07,0-0.58-0.01-0.71,0.01c-0.04,0.01-0.08,0.04-0.08,0.07c0,0.86-0.01,2.24,0.03,2.79
			c0.03,0.23,0.19,0.56,0.4,0.66c0.22,0.12,0.72,0.15,1.07,0.15C54.54,49.8,55.39,49.27,55.39,48.01 M49.75,41.87
			c0.12,0,0.49,0.04,1.43,0.04c0.89,0,1.6-0.03,2.46-0.03c1.07,0,2.53,0.38,2.53,1.97c0,0.78-0.55,1.41-1.27,1.71
			c-0.04,0.01-0.04,0.04,0,0.05c1.02,0.26,1.92,0.89,1.92,2.09c0,1.18-0.73,1.92-1.8,2.38c-0.65,0.29-1.45,0.38-2.27,0.38
			c-0.62,0-2.29-0.06-3.22-0.05c-0.1-0.04,0.09-0.48,0.17-0.55c0.21-0.01,0.42-0.04,0.63-0.1c0.33-0.08,0.37-0.19,0.41-0.68
			c0.03-0.42,0.03-1.94,0.03-3.02c0-1.48,0.01-2.48,0-2.97c-0.01-0.38-0.15-0.51-0.42-0.57c-0.21-0.04-0.55-0.08-0.83-0.12
			C49.47,42.33,49.68,41.92,49.75,41.87 M0.13,50.43c-0.04-0.09-0.05-0.18-0.04-0.28c0-0.06,0.01-0.13,0.04-0.18
			c0.18-0.03,0.36-0.06,0.53-0.11C0.91,49.8,1,49.67,1.01,49.35c0.04-0.74,0.04-2.12,0.03-3.09v-0.03c0-0.1,0-0.25-0.13-0.35
			c-0.23-0.14-0.47-0.25-0.73-0.32C0.06,45.53,0,45.47,0,45.39c0-0.07,0.08-0.16,0.23-0.19c0.4-0.04,1.45-0.29,1.86-0.48
			c0.04,0.06,0.06,0.12,0.06,0.19c0,0.04-0.01,0.09-0.01,0.13c-0.01,0.14-0.02,0.29-0.02,0.45c0.01,0.06,0.06,0.1,0.12,0.09
			c0.02,0,0.04-0.01,0.06-0.03c0.79-0.62,1.49-0.84,1.85-0.84c0.59,0,1.06,0.28,1.41,0.87c0.02,0.03,0.05,0.05,0.08,0.05
			c0.03,0,0.06-0.02,0.08-0.04c0.72-0.55,1.44-0.87,1.92-0.87c1.13,0,1.81,0.85,1.81,2.27c0,0.41,0,0.93-0.01,1.41
			c0,0.42-0.01,0.82-0.01,1.1c0,0.06,0.09,0.25,0.22,0.29c0.17,0.08,0.4,0.12,0.71,0.17h0.01c0.02,0.08-0.03,0.4-0.07,0.46
			c-0.08,0-0.18-0.01-0.31-0.01c-0.24-0.01-0.56-0.03-0.93-0.03c-0.75,0-1.15,0.01-1.52,0.04c-0.03-0.09-0.04-0.4,0-0.46
			c0.16-0.02,0.31-0.06,0.46-0.1c0.24-0.08,0.31-0.19,0.32-0.51c0.01-0.23,0.05-2.22-0.03-2.69c-0.07-0.49-0.44-1.06-1.25-1.06
			c-0.3,0-0.78,0.12-1.24,0.47c-0.03,0.03-0.04,0.07-0.05,0.12v0.01c0.05,0.26,0.05,0.55,0.05,1c0,0.26,0,0.53,0,0.8
			c0,0.55-0.01,1.07,0,1.46c0,0.27,0.16,0.33,0.29,0.38c0.07,0.02,0.13,0.03,0.18,0.04c0.11,0.03,0.22,0.05,0.39,0.08
			c0.02,0.11,0.02,0.23-0.01,0.34c-0.01,0.04-0.02,0.08-0.05,0.12c-0.42-0.01-0.85-0.03-1.47-0.03c-0.19,0-0.49,0.01-0.76,0.01
			c-0.22,0.01-0.43,0.01-0.54,0.01c-0.03-0.08-0.05-0.16-0.04-0.24c-0.01-0.08,0.01-0.15,0.04-0.22l0.17-0.03
			c0.15-0.03,0.27-0.05,0.39-0.08c0.2-0.06,0.28-0.18,0.3-0.44c0.04-0.61,0.07-2.36-0.01-2.8c-0.15-0.7-0.55-1.06-1.19-1.06
			c-0.38,0-0.85,0.18-1.24,0.47c-0.08,0.07-0.12,0.18-0.11,0.28v0.72c0,0.88-0.01,1.98,0.02,2.45c0.01,0.15,0.06,0.32,0.34,0.38
			c0.06,0.02,0.16,0.03,0.28,0.05c0.07,0.01,0.15,0.02,0.22,0.04c0.02,0.16,0.01,0.31-0.04,0.46c-0.12,0-0.27-0.01-0.44-0.01
			c-0.26-0.01-0.58-0.03-0.95-0.03c-0.43,0-0.73,0.01-0.98,0.03C0.41,50.42,0.27,50.43,0.13,50.43 M14.02,45.31
			c-0.23,0-0.46,0.06-0.66,0.19c-0.48,0.29-0.73,0.88-0.73,1.73c0,1.6,0.8,2.73,1.95,2.73c0.31,0.01,0.61-0.1,0.84-0.3
			c0.35-0.29,0.54-0.88,0.54-1.7C15.97,46.38,15.18,45.31,14.02,45.31 M14.24,50.55c-2.08,0-2.82-1.53-2.82-2.95
			c0-1,0.41-1.78,1.21-2.32c0.56-0.35,1.21-0.54,1.87-0.55c1.59,0,2.69,1.14,2.69,2.77c0,1.11-0.44,1.99-1.28,2.53
			C15.51,50.29,14.81,50.55,14.24,50.55 M35.18,45.31c-0.23-0.01-0.46,0.06-0.66,0.19c-0.48,0.29-0.73,0.88-0.73,1.73
			c0,1.6,0.8,2.73,1.95,2.73c0.31,0.01,0.61-0.1,0.85-0.3c0.35-0.29,0.54-0.88,0.54-1.7C37.13,46.38,36.35,45.31,35.18,45.31
			 M35.4,50.55c-2.08,0-2.82-1.53-2.82-2.95c0-1,0.41-1.78,1.21-2.32c0.56-0.35,1.21-0.54,1.87-0.55c1.59,0,2.69,1.14,2.69,2.77
			c0,1.11-0.44,1.99-1.28,2.53C36.68,50.29,35.98,50.55,35.4,50.55 M28.18,45.26c-0.64,0-1.05,0.51-1.05,1.29s0.36,1.71,1.36,1.71
			c0.17,0,0.48-0.08,0.64-0.25c0.23-0.21,0.39-0.66,0.39-1.12C29.51,45.87,29.02,45.26,28.18,45.26 M28.1,50.66
			c-0.18,0-0.36,0.04-0.52,0.13c-0.51,0.32-0.74,0.65-0.74,1.02c0,0.35,0.14,0.63,0.43,0.88c0.36,0.3,0.84,0.45,1.47,0.45
			c1.24,0,1.8-0.67,1.8-1.33c0-0.46-0.23-0.77-0.71-0.94C29.46,50.74,28.85,50.66,28.1,50.66 M28.19,53.84
			c-0.75,0-1.28-0.16-1.74-0.51c-0.45-0.34-0.65-0.86-0.65-1.21c0-0.23,0.09-0.45,0.24-0.62c0.13-0.15,0.43-0.42,1.13-0.9
			c0.02-0.01,0.04-0.03,0.04-0.06c0-0.03-0.02-0.05-0.04-0.06c-0.57-0.22-0.75-0.58-0.8-0.78c0-0.01,0-0.02-0.01-0.03
			c-0.02-0.08-0.03-0.15,0.07-0.22c0.08-0.06,0.21-0.13,0.35-0.21c0.19-0.11,0.38-0.23,0.56-0.36c0.03-0.04,0.03-0.09,0-0.13
			c-0.01-0.01-0.01-0.01-0.02-0.01c-0.85-0.28-1.28-0.92-1.28-1.88c-0.01-0.61,0.29-1.18,0.78-1.54c0.34-0.27,1.2-0.59,1.75-0.59
			h0.03c0.57,0.01,0.89,0.13,1.34,0.3c0.25,0.09,0.52,0.13,0.79,0.13c0.47,0,0.68-0.15,0.86-0.32c0.03,0.08,0.04,0.16,0.05,0.24
			c0.01,0.2-0.04,0.4-0.15,0.56c-0.1,0.13-0.32,0.23-0.53,0.23c-0.02,0-0.04,0-0.06,0c-0.11-0.01-0.22-0.03-0.32-0.05l-0.05,0.02
			c-0.02,0.02-0.01,0.05,0.01,0.09c0,0.01,0.01,0.01,0.01,0.02c0.04,0.17,0.06,0.35,0.08,0.52c0,1.01-0.4,1.45-0.83,1.77
			c-0.42,0.31-0.91,0.5-1.42,0.55c-0.01,0-0.06,0-0.17,0.01c-0.06,0.01-0.15,0.01-0.16,0.01H28c-0.09,0.03-0.34,0.14-0.34,0.36
			c0,0.18,0.11,0.4,0.64,0.44l0.34,0.02c0.69,0.05,1.56,0.11,1.97,0.25c0.56,0.2,0.92,0.72,0.91,1.31c0,0.9-0.64,1.75-1.72,2.27
			C29.3,53.71,28.74,53.83,28.19,53.84 M25,49.95c-0.3-0.04-0.53-0.08-0.79-0.21c-0.05-0.05-0.09-0.12-0.1-0.19
			c-0.03-0.42-0.03-1.66-0.03-2.46c0-0.66-0.11-1.23-0.39-1.64c-0.33-0.47-0.8-0.74-1.41-0.74c-0.54,0-1.26,0.37-1.85,0.88
			c-0.01,0.01-0.11,0.1-0.1-0.03c0-0.13,0.02-0.41,0.04-0.58c0.01-0.09-0.02-0.19-0.09-0.25c-0.39,0.19-1.48,0.45-1.88,0.49
			c-0.29,0.06-0.37,0.34-0.05,0.44h0c0.25,0.07,0.49,0.17,0.71,0.31c0.12,0.1,0.11,0.23,0.11,0.34c0.01,0.92,0.01,2.33-0.03,3.09
			c-0.01,0.3-0.1,0.41-0.32,0.47l0.02-0.01c-0.17,0.04-0.34,0.07-0.51,0.1c-0.07,0.07-0.07,0.46,0,0.55c0.14,0,0.84-0.04,1.42-0.04
			c0.8,0,1.22,0.04,1.42,0.04c0.08-0.1,0.11-0.46,0.06-0.55c-0.19-0.01-0.38-0.04-0.57-0.08c-0.22-0.05-0.28-0.16-0.29-0.41
			c-0.03-0.64-0.03-2.01-0.03-2.94c0-0.26,0.07-0.38,0.15-0.45c0.28-0.25,0.73-0.41,1.13-0.41c0.39,0,0.65,0.12,0.84,0.29
			c0.23,0.2,0.37,0.47,0.4,0.77c0.06,0.52,0.04,1.56,0.04,2.46c0,0.49-0.04,0.62-0.22,0.67c-0.08,0.04-0.3,0.08-0.57,0.11
			c-0.08,0.08-0.06,0.46,0,0.55c0.36,0,0.78-0.04,1.38-0.04c0.76,0,1.25,0.04,1.44,0.04C25.03,50.4,25.06,50.04,25,49.95"/>
	</g>
	<path class="st1" d="M32.68,9.59c-1.29-1.53-2.41-3.09-2.63-3.41c-0.02-0.02-0.05-0.03-0.07-0.01c-0.01,0-0.01,0.01-0.01,0.01
		c-0.23,0.32-1.34,1.88-2.63,3.41c-11.09,14.12,1.75,23.65,1.75,23.65l0.1,0.07c0.1,1.47,0.34,3.59,0.34,3.59h0.97
		c0,0,0.24-2.11,0.34-3.58l0.1-0.08C30.93,33.25,43.76,23.72,32.68,9.59z M30,33.04L30,33.04c0,0-0.58-0.49-0.73-0.74l0-0.03
		l0.7-15.38c0-0.02,0.02-0.04,0.04-0.03c0.02,0,0.03,0.02,0.03,0.03l0.7,15.38l0,0.03C30.58,32.55,30,33.04,30,33.04z"/>
</g>
</svg>
