<?xml version="1.0" encoding="utf-8"?>
<!-- Generator: Adobe Illustrator 26.1.0, SVG Export Plug-In . SVG Version: 6.00 Build 0)  -->
<svg version="1.1" id="Layer_1" xmlns="http://www.w3.org/2000/svg" xmlns:xlink="http://www.w3.org/1999/xlink" x="0px" y="0px"
	 viewBox="0 0 60 60" style="enable-background:new 0 0 60 60;" xml:space="preserve">
<style type="text/css">
	.st0{fill:#5E2F90;}
	.st1{fill:#FFFFFF;}
	.st2{fill:#F3F3F3;}
</style>
<g>
	<circle class="st0" cx="30" cy="30" r="30"/>
	<path class="st1" d="M6.94,34.92C6.58,34.93,6.24,34.78,6,34.53c-0.25-0.25-0.39-0.59-0.38-0.94c0-0.35,0.14-0.69,0.38-0.94
		c0.24-0.26,0.58-0.41,0.94-0.4c0.35,0,0.69,0.15,0.94,0.4c0.25,0.25,0.39,0.58,0.39,0.94c0,0.35-0.14,0.69-0.39,0.94
		C7.63,34.78,7.29,34.92,6.94,34.92z M25.57,34.69h-2.46l-8.78-13.63c-0.22-0.34-0.4-0.69-0.54-1.07h-0.07
		c0.08,0.78,0.11,1.56,0.09,2.34v12.36h-2V17.6h2.6l8.55,13.39c0.36,0.56,0.59,0.94,0.69,1.14h0.05c-0.1-0.83-0.14-1.67-0.12-2.51
		V17.6h2L25.57,34.69z M39.08,34.69H30V17.6h8.66v1.81h-6.62v5.68h6.17v1.8h-6.17v5.92h7.05L39.08,34.69z M52.5,19.41h-4.97v15.28
		h-2V19.41h-4.91V17.6H52.5V19.41z"/>
	<path class="st2" d="M24.49,46.31c-0.68,0.33-1.42,0.49-2.17,0.46c-1.01,0.05-1.99-0.35-2.69-1.08c-0.69-0.77-1.05-1.78-1.01-2.81
		c-0.05-1.13,0.36-2.23,1.13-3.06c0.76-0.78,1.8-1.2,2.89-1.16c0.64-0.02,1.28,0.09,1.88,0.33v0.94c-0.57-0.32-1.22-0.48-1.88-0.47
		c-0.84-0.02-1.64,0.32-2.2,0.94c-0.58,0.67-0.89,1.53-0.84,2.42c-0.04,0.84,0.24,1.66,0.79,2.3c0.53,0.57,1.29,0.88,2.07,0.85
		c0.72,0.02,1.43-0.16,2.05-0.52L24.49,46.31z M28.32,46.77c-0.76,0.02-1.48-0.28-2-0.83c-0.51-0.57-0.78-1.32-0.74-2.09
		c-0.05-0.81,0.23-1.61,0.78-2.21c0.56-0.54,1.31-0.83,2.09-0.8c0.74-0.04,1.45,0.25,1.96,0.78c0.5,0.6,0.75,1.37,0.7,2.15
		c0.04,0.79-0.23,1.56-0.76,2.16C29.83,46.48,29.09,46.8,28.32,46.77z M28.39,41.64c-0.52-0.02-1.03,0.2-1.37,0.59
		c-0.36,0.46-0.54,1.04-0.51,1.63c-0.03,0.57,0.15,1.13,0.51,1.57c0.35,0.39,0.85,0.6,1.37,0.58c0.51,0.03,1-0.18,1.34-0.56
		c0.34-0.47,0.51-1.04,0.47-1.61c0.04-0.58-0.13-1.15-0.47-1.62C29.4,41.83,28.9,41.62,28.39,41.64z M35.49,41.92
		c-0.2-0.13-0.44-0.2-0.68-0.18c-0.38,0.01-0.73,0.22-0.94,0.54c-0.28,0.44-0.41,0.96-0.38,1.48v2.87h-0.94v-5.62h0.94v1.17
		c0.1-0.36,0.31-0.69,0.59-0.94c0.24-0.21,0.56-0.33,0.88-0.33c0.18-0.01,0.36,0.02,0.53,0.08V41.92z M40.99,44.06h-3.97
		c-0.03,0.52,0.14,1.04,0.48,1.44c0.35,0.35,0.84,0.53,1.33,0.51c0.64-0.01,1.25-0.23,1.74-0.63v0.84
		c-0.58,0.38-1.27,0.57-1.96,0.53c-0.71,0.04-1.4-0.25-1.88-0.77c-0.49-0.61-0.73-1.38-0.68-2.16c-0.03-0.78,0.23-1.54,0.74-2.14
		c0.47-0.54,1.16-0.85,1.88-0.83c0.65-0.04,1.28,0.23,1.71,0.71c0.43,0.57,0.64,1.27,0.6,1.99L40.99,44.06z M40.05,43.3
		c0.02-0.43-0.11-0.86-0.38-1.21c-0.26-0.29-0.64-0.45-1.03-0.43c-0.41-0.01-0.8,0.16-1.08,0.46c-0.31,0.33-0.5,0.74-0.55,1.19
		L40.05,43.3z"/>
</g>
</svg>
