<?xml version="1.0" encoding="utf-8"?>
<!-- Generator: Adobe Illustrator 26.1.0, SVG Export Plug-In . SVG Version: 6.00 Build 0)  -->
<svg version="1.1" id="Layer_1" xmlns="http://www.w3.org/2000/svg" xmlns:xlink="http://www.w3.org/1999/xlink" x="0px" y="0px"
	 viewBox="0 0 60 60" style="enable-background:new 0 0 60 60;" xml:space="preserve">
<style type="text/css">
	.st0{clip-path:url(#SVGID_00000103982433404528659250000001248640886680575121_);}
	.st1{fill:url(#SVGID_00000037687361998830557250000010260877766892136860_);}
	.st2{fill:#787BB3;}
	.st3{fill:#010101;}
	.st4{fill:#FFFFFF;}
</style>
<g>
	<g>
		<defs>
			<path id="SVGID_1_" d="M0,30c0,8.72,13.43,15.78,30,15.78S60,38.72,60,30c0-8.72-13.43-15.78-30-15.78S0,21.28,0,30"/>
		</defs>
		<clipPath id="SVGID_00000157288748321750743480000012197917728953111172_">
			<use xlink:href="#SVGID_1_"  style="overflow:visible;"/>
		</clipPath>
		
			<g transform="matrix(1.25 0 0 -1.25 -4.4 394.299)" style="clip-path:url(#SVGID_00000157288748321750743480000012197917728953111172_);">
			
				<radialGradient id="SVGID_00000138574729064792828140000007173725903820480431_" cx="-209.961" cy="-44.7672" r="0.0868" gradientTransform="matrix(453.8224 0 0 -453.8224 95302.9219 -20016.7227)" gradientUnits="userSpaceOnUse">
				<stop  offset="0" style="stop-color:#AFB2D5"/>
				<stop  offset="0.3" style="stop-color:#AFB2D5"/>
				<stop  offset="0.75" style="stop-color:#484D8A"/>
				<stop  offset="1" style="stop-color:#484D8A"/>
			</radialGradient>
			<path style="fill:url(#SVGID_00000138574729064792828140000007173725903820480431_);" d="M3.52,291.44
				c0-6.97,10.75-12.62,24-12.62s24,5.65,24,12.62c0,6.97-10.75,12.62-24,12.62S3.52,298.41,3.52,291.44"/>
		</g>
	</g>
	<g>
		<g transform="matrix(1.25 0 0 -1.25 -4.4 394.299)">
			<path class="st2" d="M27.52,279.75c12.74,0,23.06,5.23,23.06,11.69c0,6.45-10.33,11.69-23.06,11.69s-23.06-5.23-23.06-11.69
				C4.46,284.98,14.78,279.75,27.52,279.75"/>
		</g>
	</g>
	<g>
		<g transform="matrix(1.25 0 0 -1.25 -4.4 394.299)">
			<path class="st3" d="M16.56,289.99c1.05,0,1.83,0.19,2.32,0.57c0.49,0.38,0.83,1.03,1,1.94c0.17,0.85,0.1,1.45-0.19,1.77
				c-0.3,0.33-0.94,0.49-1.9,0.49h-1.67l-0.93-4.77H16.56L16.56,289.99z M11.09,284.11c-0.14,0-0.26,0.12-0.26,0.26
				c0,0.02,0,0.03,0,0.05l2.46,12.65c0.02,0.12,0.13,0.21,0.26,0.21h5.3c1.67,0,2.91-0.45,3.68-1.34c0.78-0.9,1.03-2.15,0.72-3.73
				c-0.12-0.64-0.34-1.24-0.64-1.77c-0.3-0.53-0.69-1.03-1.17-1.47c-0.57-0.54-1.22-0.93-1.93-1.16c-0.69-0.23-1.59-0.34-2.65-0.34
				h-2.15l-0.61-3.15c-0.02-0.12-0.13-0.21-0.26-0.21H11.09L11.09,284.11z"/>
			<path class="st4" d="M16.34,294.5h1.46c1.16,0,1.57-0.26,1.71-0.41c0.23-0.25,0.27-0.79,0.12-1.54
				c-0.16-0.85-0.47-1.45-0.91-1.78c-0.45-0.34-1.18-0.52-2.17-0.52h-1.04L16.34,294.5L16.34,294.5z M18.84,297.54h-5.3
				c-0.25,0-0.46-0.18-0.51-0.42l-2.46-12.65c-0.05-0.28,0.13-0.56,0.41-0.61c0.03-0.01,0.07-0.01,0.1-0.01h2.76
				c0.25,0,0.46,0.18,0.51,0.42l0.57,2.94h1.93c1.09,0,2.01,0.12,2.73,0.35c0.74,0.24,1.42,0.65,2.03,1.21
				c0.5,0.46,0.91,0.98,1.22,1.53c0.31,0.56,0.54,1.18,0.67,1.85c0.32,1.66,0.06,2.99-0.78,3.95
				C21.89,297.06,20.59,297.54,18.84,297.54 M14.88,289.73h1.68c1.11,0,1.94,0.21,2.48,0.63c0.54,0.42,0.91,1.12,1.1,2.1
				c0.18,0.94,0.1,1.6-0.25,1.99c-0.35,0.39-1.05,0.58-2.09,0.58h-1.89L14.88,289.73 M18.84,297.02c1.59,0,2.76-0.42,3.49-1.26
				c0.73-0.84,0.95-2.01,0.66-3.5c-0.12-0.62-0.32-1.18-0.61-1.69c-0.29-0.51-0.66-0.98-1.12-1.4c-0.55-0.52-1.16-0.88-1.83-1.1
				c-0.67-0.22-1.53-0.33-2.57-0.33H14.5l-0.65-3.36h-2.76l2.46,12.65L18.84,297.02"/>
			<path class="st3" d="M29.57,287.47c-0.08,0-0.15,0.03-0.2,0.09c-0.05,0.06-0.07,0.14-0.05,0.22l1.09,5.6
				c0.1,0.53,0.08,0.91-0.07,1.08c-0.09,0.1-0.37,0.26-1.18,0.26h-1.97l-1.37-7.04c-0.02-0.12-0.13-0.21-0.26-0.21h-2.73
				c-0.14,0-0.26,0.12-0.26,0.26c0,0.02,0,0.03,0,0.05l2.46,12.65c0.02,0.12,0.13,0.21,0.26,0.21h2.73c0.14,0,0.26-0.12,0.26-0.26
				c0-0.02,0-0.03,0-0.05l-0.59-3.05h2.12c1.62,0,2.71-0.28,3.35-0.87c0.65-0.6,0.85-1.55,0.6-2.84l-1.14-5.89
				c-0.02-0.12-0.13-0.21-0.26-0.21H29.57L29.57,287.47z"/>
			<path class="st4" d="M28.01,300.91h-2.73c-0.25,0-0.46-0.18-0.51-0.42l-2.46-12.65c-0.05-0.28,0.13-0.56,0.41-0.61
				c0.03-0.01,0.07-0.01,0.1-0.01h2.73c0.25,0,0.46,0.18,0.51,0.42l1.33,6.83h1.76c0.81,0,0.98-0.17,0.99-0.18
				c0.05-0.05,0.11-0.3,0.01-0.85l-1.09-5.6c-0.05-0.28,0.13-0.56,0.41-0.61c0.03-0.01,0.07-0.01,0.1-0.01h2.78
				c0.25,0,0.46,0.18,0.51,0.42l1.14,5.89c0.27,1.38,0.04,2.42-0.68,3.08c-0.69,0.63-1.84,0.94-3.52,0.94h-1.8l0.53,2.74
				c0.05,0.28-0.13,0.56-0.41,0.61C28.08,300.9,28.04,300.91,28.01,300.91 M28.01,300.39l-0.65-3.36h2.44c1.53,0,2.59-0.27,3.17-0.8
				c0.58-0.53,0.76-1.4,0.52-2.6l-1.14-5.89h-2.78l1.09,5.6c0.12,0.64,0.08,1.07-0.14,1.3c-0.22,0.23-0.67,0.35-1.37,0.35h-2.19
				l-1.41-7.25h-2.73l2.46,12.65H28.01"/>
			<path class="st3" d="M38.07,289.99c1.05,0,1.83,0.19,2.32,0.57c0.49,0.38,0.83,1.03,1,1.94c0.17,0.85,0.1,1.45-0.19,1.77
				c-0.3,0.33-0.94,0.49-1.9,0.49h-1.67l-0.93-4.77H38.07L38.07,289.99z M32.6,284.11c-0.14,0-0.26,0.12-0.26,0.26
				c0,0.02,0,0.03,0,0.05l2.46,12.65c0.02,0.12,0.13,0.21,0.26,0.21h5.3c1.67,0,2.91-0.45,3.68-1.34c0.78-0.9,1.03-2.15,0.72-3.73
				c-0.12-0.64-0.34-1.24-0.64-1.77c-0.3-0.53-0.69-1.03-1.17-1.47c-0.57-0.54-1.22-0.93-1.93-1.16c-0.69-0.23-1.59-0.34-2.65-0.34
				h-2.15l-0.61-3.15c-0.02-0.12-0.13-0.21-0.26-0.21H32.6L32.6,284.11z"/>
			<path class="st4" d="M37.85,294.5h1.46c1.17,0,1.57-0.26,1.71-0.41c0.23-0.25,0.27-0.79,0.12-1.54
				c-0.16-0.85-0.47-1.45-0.91-1.78c-0.45-0.34-1.18-0.52-2.16-0.52h-1.04L37.85,294.5L37.85,294.5z M40.36,297.54h-5.3
				c-0.25,0-0.46-0.18-0.51-0.42l-2.46-12.65c-0.05-0.28,0.13-0.56,0.41-0.61c0.03-0.01,0.07-0.01,0.1-0.01h2.76
				c0.25,0,0.46,0.18,0.51,0.42l0.57,2.94h1.93c1.09,0,2.01,0.12,2.73,0.35c0.74,0.24,1.42,0.65,2.03,1.21
				c0.5,0.46,0.91,0.97,1.22,1.53c0.31,0.56,0.54,1.18,0.67,1.85c0.32,1.66,0.06,2.99-0.78,3.95
				C43.41,297.06,42.1,297.54,40.36,297.54 M36.39,289.73h1.68c1.11,0,1.94,0.21,2.48,0.63c0.54,0.42,0.91,1.12,1.1,2.1
				c0.18,0.94,0.1,1.6-0.25,1.99c-0.35,0.39-1.05,0.58-2.09,0.58h-1.89L36.39,289.73 M40.36,297.02c1.59,0,2.76-0.42,3.49-1.26
				c0.73-0.84,0.95-2.01,0.66-3.5c-0.12-0.62-0.32-1.18-0.61-1.69c-0.29-0.51-0.66-0.98-1.12-1.4c-0.55-0.52-1.16-0.88-1.83-1.1
				c-0.67-0.22-1.53-0.33-2.57-0.33h-2.36l-0.65-3.36H32.6l2.46,12.65L40.36,297.02"/>
		</g>
	</g>
</g>
</svg>
