<?xml version="1.0" encoding="utf-8"?>
<!-- Generator: Adobe Illustrator 26.1.0, SVG Export Plug-In . SVG Version: 6.00 Build 0)  -->
<svg version="1.1" id="Layer_1" xmlns="http://www.w3.org/2000/svg" xmlns:xlink="http://www.w3.org/1999/xlink" x="0px" y="0px"
	 viewBox="0 0 60 60" style="enable-background:new 0 0 60 60;" xml:space="preserve">
<style type="text/css">
	.st0{fill:url(#SVGID_1_);}
	.st1{fill:url(#SVGID_00000126293170127097428680000010452880995227395518_);}
</style>
<g>
	
		<linearGradient id="SVGID_1_" gradientUnits="userSpaceOnUse" x1="232.2767" y1="-260.8349" x2="290.4756" y2="-310.9075" gradientTransform="matrix(0.5625 0 0 -0.568 -131.7928 -146.4374)">
		<stop  offset="0" style="stop-color:#5C9FD3"/>
		<stop  offset="1" style="stop-color:#316A99"/>
	</linearGradient>
	<path class="st0" d="M29.65,0c-2.45,0.01-4.78,0.22-6.84,0.58c-6.06,1.07-7.16,3.31-7.16,7.44v5.46h14.31v1.82H10.28
		c-4.16,0-7.8,2.5-8.94,7.26c-1.31,5.45-1.37,8.85,0,14.55c1.02,4.24,3.45,7.26,7.61,7.26h4.92v-6.54c0-4.72,4.09-8.89,8.94-8.89
		h14.3c3.98,0,7.16-3.28,7.16-7.27V8.03c0-3.88-3.27-6.79-7.16-7.44C34.65,0.18,32.09-0.01,29.65,0L29.65,0z M21.91,4.39
		c1.48,0,2.69,1.23,2.69,2.74c0,1.5-1.21,2.72-2.69,2.72c-1.48,0-2.69-1.22-2.69-2.72C19.22,5.62,20.42,4.39,21.91,4.39L21.91,4.39z
		"/>
	
		<linearGradient id="SVGID_00000138538330388076855910000011308597882055163828_" gradientUnits="userSpaceOnUse" x1="312.9759" y1="-341.2134" x2="292.1929" y2="-311.8091" gradientTransform="matrix(0.5625 0 0 -0.568 -131.7928 -146.4374)">
		<stop  offset="0" style="stop-color:#FFD53D"/>
		<stop  offset="1" style="stop-color:#FEE875"/>
	</linearGradient>
	<path style="fill:url(#SVGID_00000138538330388076855910000011308597882055163828_);" d="M46.05,15.3v6.36
		c0,4.93-4.18,9.08-8.94,9.08h-14.3c-3.92,0-7.16,3.35-7.16,7.27v13.63c0,3.88,3.37,6.16,7.16,7.27c4.53,1.33,8.88,1.57,14.3,0
		c3.6-1.04,7.16-3.14,7.16-7.27v-5.46h-14.3v-1.82h21.45c4.16,0,5.71-2.9,7.16-7.26c1.49-4.48,1.43-8.8,0-14.55
		c-1.03-4.14-2.99-7.26-7.16-7.26H46.05z M38,49.82c1.48,0,2.69,1.22,2.69,2.72c0,1.51-1.2,2.74-2.69,2.74
		c-1.48,0-2.69-1.23-2.69-2.74C35.32,51.03,36.53,49.82,38,49.82z"/>
</g>
</svg>
