<?xml version="1.0" encoding="utf-8"?>
<!-- Generator: Adobe Illustrator 26.1.0, SVG Export Plug-In . SVG Version: 6.00 Build 0)  -->
<svg version="1.1" id="Layer_1" xmlns="http://www.w3.org/2000/svg" xmlns:xlink="http://www.w3.org/1999/xlink" x="0px" y="0px"
	 viewBox="0 0 60 60" style="enable-background:new 0 0 60 60;" xml:space="preserve">
<style type="text/css">
	.st0{fill:#FCB315;}
	.st1{fill:#E86E24;}
	.st2{fill:#FBAD18;}
	.st3{fill:#FCD234;}
	.st4{fill:#FEEEB8;}
</style>
<g>
	<path class="st0" d="M13.09,4.64L30,2.85l16.91,1.79L60,22.21L30,57.15L0,22.21L13.09,4.64z"/>
	<path class="st1" d="M12.15,22.21L30,57.15L0,22.21H12.15z"/>
	<path class="st1" d="M47.85,22.21L30,57.15l30-34.93H47.85z"/>
	<path class="st2" d="M12.15,22.21h35.7L30,57.15L12.15,22.21z"/>
	<path class="st3" d="M30,2.85L13.09,4.64l-0.94,17.57L30,2.85z"/>
	<path class="st3" d="M30,2.85l16.91,1.79l0.94,17.57L30,2.85z"/>
	<path class="st2" d="M60,22.21L46.91,4.64l0.94,17.57H60z M0,22.21L13.09,4.64l-0.94,17.57H0z"/>
	<path class="st4" d="M30,2.85L12.15,22.21h35.7L30,2.85z"/>
</g>
</svg>
