<?xml version="1.0" encoding="utf-8"?>
<!-- Generator: Adobe Illustrator 26.1.0, SVG Export Plug-In . SVG Version: 6.00 Build 0)  -->
<svg version="1.1" id="Layer_1" xmlns="http://www.w3.org/2000/svg" xmlns:xlink="http://www.w3.org/1999/xlink" x="0px" y="0px"
	 viewBox="0 0 598.4 53" style="enable-background:new 0 0 598.4 53;" xml:space="preserve">
<style type="text/css">
	.st0{opacity:0.5;}
	.st1{fill:#242630;}
	.st2{opacity:0.5;fill:#242630;enable-background:new    ;}
</style>
<g class="st0">
	<path class="st1" d="M10.8,30.1l-0.2-0.4L10.4,30c-0.9,1.4-2.2,2.1-3.9,2.1c-2.6,0-4.6-2.1-4.6-4.9C2,24.5,4,22.4,6.5,22.4
		c1.8,0,3.1,0.6,4,2.1l0.2,0.3l0.1-0.3c0.2-0.5,0.4-1.2,0.7-1.7l0.1-0.1l-0.1-0.1c-1.2-1.4-2.9-2.1-4.8-2.1c-3.8,0-6.8,3-6.8,6.9
		C0,31.1,3,34,6.7,34c2,0,3.7-0.7,4.9-2.1l0.1-0.1l-0.1-0.1C11.2,31.2,10.9,30.7,10.8,30.1z M23.2,22.5c-1.1-1.3-2.6-2-4.6-2
		c-3.8,0-6.8,3-6.8,6.8s2.9,6.7,6.6,6.7c1.9,0,3.6-0.7,4.6-2v1.7H25V20.8h-1.9v1.7L23.2,22.5L23.2,22.5z M18.6,22.4
		c2.4,0,4.6,2.2,4.6,4.8c0,3-2.3,5-4.5,5c-2.5,0-4.6-2.1-4.6-4.8C14,24.6,16,22.4,18.6,22.4z M33.6,20.6c-1.8,0-3.5,0.7-4.5,2v-1.8
		h-1.9v18.5h1.9v-7.2c1.1,1.3,2.8,2,4.7,2c3.8,0,6.6-2.9,6.6-6.7C40.4,23.5,37.5,20.6,33.6,20.6z M38.4,27.5c0,2.6-2.1,4.8-4.7,4.8
		c-2.8,0-4.5-2.6-4.5-5c0-2.5,2.1-4.8,4.5-4.8C36.3,22.4,38.4,24.6,38.4,27.5z M43.4,29.7c0,1.7,1.4,2.9,2.9,2.9s3-0.9,3-2.1
		c0-1.4-1.2-2-3.1-2.5c-2.4-0.7-4.1-1.4-4.1-3.7c0-2,2-3.6,4.5-3.6c2.6,0,4.3,1.3,4.4,3.5h-2.1c-0.1-1.3-1-1.9-2.4-1.9
		c-1.4,0-2.4,0.9-2.4,1.9c0,0.7,0.4,1.3,1.3,1.7c1,0.5,2,0.7,3.1,1.1c2,0.7,2.9,1.7,2.9,3.5c0,2.2-2.1,3.8-5,3.8s-4.9-1.7-4.9-4.3
		C41.4,29.8,43.4,29.7,43.4,29.7z M61.5,27.2c0,1.5,0,2.5-0.5,3.4c-0.6,1.1-1.7,1.6-3.1,1.6c-2.4,0-3.4-1.3-3.4-4.5v-6.8h-1.9v6.7
		c0,4.7,1.5,6.5,5.3,6.5c1.6,0,2.6-0.4,3.6-1.4v1.1h1.9V20.8h-1.9V27.2z M66.3,16.1h1.9v17.7h-1.9V16.1z"/>
	<path class="st1" d="M74.9,22.4c-2.3,0-4,1.5-4.4,3.9h9.1C78.9,23.7,77.3,22.4,74.9,22.4z"/>
	<path class="st1" d="M80.1,17.7c-3,0-5.6,1.3-7.4,3.4c0.7-0.3,1.6-0.4,2.4-0.4c3.9,0,6.6,3,6.6,7.2v0.3H70.3
		c0.3,2.5,2.1,4.2,4.7,4.2c1.5,0,2.9-0.6,3.7-1.9H81c-1.3,2.3-3.4,3.6-5.9,3.6c-1.1,0-2-0.2-2.9-0.6c1.8,2.3,4.7,3.9,7.8,3.9
		c5.4,0,9.8-4.4,9.8-9.8C89.9,22,85.5,17.7,80.1,17.7z"/>
</g>
<g class="st0">
	<path id="path1002" class="st1" d="M147.4,19.9c-3.6,0-4.5,1.8-4.5,4.2v10.2c0,0.3,0.1,0.3,0.3,0.3h2.6c0.1,0,0.2-0.1,0.2-0.3v-4.4
		c0-0.2,0.1-0.3,0.3-0.3h1c0.1,0,0.2,0.1,0.3,0.2l2.6,4.5c0.1,0.2,0.3,0.2,0.4,0.3h2.7c0.2,0,0.3-0.1,0.2-0.2l-3.1-5.4
		c-0.1-0.1,0-0.2,0-0.2c1.2-0.7,2-1.8,2-4.1c0-2.7-0.7-4.7-4.8-4.7C147.6,19.9,147.5,19.9,147.4,19.9L147.4,19.9z M147.7,22.7
		c1.1,0,1.8,0.5,1.8,2c0,1.7-0.9,2-1.9,2h-1.3c-0.1,0-0.2,0-0.2-0.3v-2.3C146,22.9,146.8,22.8,147.7,22.7z"/>
	<path id="path1002-0" class="st1" d="M207,19.9c-3.6,0-4.5,1.8-4.5,4.2v10.2c0,0.3,0.1,0.3,0.3,0.3h2.6c0.1,0,0.2-0.1,0.2-0.3v-4.4
		c0-0.2,0.1-0.3,0.3-0.3h1c0.1,0,0.2,0.1,0.3,0.2l2.6,4.5c0.1,0.2,0.3,0.2,0.4,0.3h2.7c0.2,0,0.3-0.1,0.2-0.2l-3.1-5.4
		c-0.1-0.1,0-0.2,0-0.2c1.2-0.7,2-1.8,2-4.1c0-2.7-0.7-4.7-4.8-4.7C207.2,19.9,207.1,19.9,207,19.9L207,19.9z M207.3,22.7
		c1.1,0,1.8,0.5,1.8,2c0,1.7-0.9,2-1.9,2h-1.3c-0.1,0-0.2,0-0.2-0.3v-2.3C205.6,22.9,206.5,22.7,207.3,22.7z"/>
	<path id="path1061" class="st1" d="M172.2,4.8l-2.7,4.7c-14.6,3.4-15,17.2-12.8,22.2l1.7-2.9v-8.3c0-0.2,0.1-0.4,0.4-0.4h2.5
		c0.2,0,0.3,0.1,0.3,0.4v2.8l6.5-11.3l0.5,0.3l4.1-7.2L172.2,4.8z"/>
	<path id="path1065" class="st1" d="M172,12c-0.2,0-0.4,0-0.5,0c-0.9,0-1.9,0.1-2.9,0.3l-7.1,12.2v9.8c0,0.2-0.1,0.3-0.3,0.3h-2.6
		c-0.2,0-0.3-0.1-0.3-0.3v-4.3l-2.5,4.3c1.6,4.5,4.1,6.8,6.9,8.7l-2.8,4.8l0.5,0.3l4.2-7.2l-0.5-0.3l3.9-6.9c-0.6-0.6-1-1.4-1-2.6
		V20.5c0-0.2,0-0.3,0.3-0.4h2.5c0.2,0,0.3,0.1,0.3,0.4v9.5l9.2-16C177.1,12.7,174.7,12,172,12z"/>
	<path id="path1069" class="st1" d="M181.4,11.7L170.3,31c0.1,0.5,0.5,0.7,1.2,0.7h3.4c0.2,0,0.4,0.1,0.4,0.4v2
		c0,0.2-0.1,0.4-0.3,0.4h-3.6c-1.1,0-2.1-0.1-2.8-0.5l-3.9,6.8c3,1.6,6.6,2.3,10.9,1.6l4.7-8.1c-1.3-0.5-2-1.5-2.1-3.3V20.5
		c0-0.2,0-0.3,0.3-0.4h2.5c0.2,0,0.3,0.1,0.3,0.4v9.9c0,0.6,0.1,1,0.5,1.3l5.1-8.9l0.5,0.3l4.1-7.2l-0.5-0.3l-2.8,4.9
		C186.9,16.7,184.6,13.8,181.4,11.7z"/>
	<path id="path1073" class="st1" d="M187.5,23l-5,8.8c0.1,0,0.1,0,0.2,0h3.4c0.2,0,0.4,0.1,0.4,0.4v2c0,0.2-0.1,0.4-0.3,0.4h-3.6
		c-0.6,0-1.1,0-1.6-0.1l-6.2,10.8C181.3,44.5,191.7,36,187.5,23L187.5,23z"/>
	<path id="path848-0" class="st1" d="M130.1,20.4L130.1,20.4L130.1,20.4v2.2l0,0c0,0,0,0.1,0,0.1l0,0c0,0,0,0.1,0.1,0.1l0,0
		c0,0,0.1,0.1,0.1,0.1l0,0c0,0,0.1,0,0.1,0l0,0h2.8l0,0c0,0,0,0,0.1,0l0,0c0,0,0,0,0,0l0,0c0,0,0,0,0,0l0,0c0,0,0,0,0,0.1l0,0v11.1
		l0,0c0,0.1,0,0.1,0,0.2l0,0c0,0,0,0.1,0.1,0.1l0,0c0,0,0.1,0.1,0.1,0.1l0,0c0.1,0,0.1,0,0.2,0l0,0h2.4l0,0c0.1,0,0.1,0,0.2,0l0,0
		c0.1,0,0.1,0,0.1-0.1l0,0c0,0,0.1-0.1,0.1-0.1l0,0c0,0,0-0.1,0-0.2l0,0V23.1l0,0c0,0,0-0.1,0-0.1l0,0c0,0,0,0,0-0.1l0,0
		c0,0,0,0,0.1,0l0,0c0,0,0.1,0,0.1,0l0,0h2.7l0,0c0.1,0,0.1,0,0.2,0l0,0c0.1,0,0.1,0,0.1-0.1l0,0c0,0,0.1-0.1,0.1-0.1l0,0
		c0-0.1,0-0.1,0-0.2l0,0v-2l0,0c0-0.1,0-0.1,0-0.2l0,0c0,0,0,0,0-0.1l0,0c0,0,0,0-0.1-0.1l0,0c0,0,0,0-0.1,0l0,0c0,0,0,0-0.1,0l0,0
		c-0.1,0-0.1,0-0.1,0l0,0h-9l0,0c-0.1,0-0.1,0-0.1,0l0,0c0,0-0.1,0-0.1,0.1l0,0c0,0,0,0,0,0l0,0c0,0,0,0,0,0.1l0,0
		C130.1,20.3,130.1,20.4,130.1,20.4L130.1,20.4z M130.1,20.5L130.1,20.5v2.1l0,0c0,0,0,0.1,0,0.1l0,0c0,0,0,0.1,0,0.1l0,0
		c0,0,0,0,0.1,0.1l0,0c0,0,0.1,0,0.1,0l0,0h2.8l0,0c0,0,0.1,0,0.1,0l0,0c0,0,0,0,0.1,0l0,0c0,0,0,0,0,0.1l0,0c0,0,0,0.1,0,0.1l0,0
		v11.1l0,0c0,0,0,0.1,0,0.2l0,0c0,0,0,0.1,0.1,0.1l0,0c0,0,0.1,0.1,0.1,0.1l0,0c0,0,0.1,0,0.2,0l0,0h2.4l0,0c0.1,0,0.1,0,0.1,0l0,0
		c0,0,0.1,0,0.1-0.1l0,0c0,0,0.1-0.1,0.1-0.1l0,0c0,0,0-0.1,0-0.2l0,0V23.1l0,0c0,0,0-0.1,0-0.1l0,0c0,0,0-0.1,0.1-0.1l0,0
		c0,0,0.1,0,0.1-0.1l0,0c0,0,0.1,0,0.1,0l0,0h2.7l0,0c0.1,0,0.1,0,0.2,0l0,0c0.1,0,0.1,0,0.1-0.1l0,0c0,0,0.1-0.1,0.1-0.1l0,0
		c0,0,0-0.1,0-0.2l0,0v-2l0,0c0-0.1,0-0.1,0-0.2l0,0c0,0,0,0,0-0.1l0,0c0,0,0,0,0,0l0,0c0,0,0,0-0.1,0l0,0c0,0,0,0-0.1,0l0,0
		c0,0-0.1,0-0.1,0l0,0h-9l0,0c0,0-0.1,0-0.1,0l0,0c0,0-0.1,0-0.1,0l0,0c0,0,0,0,0,0l0,0c0,0,0,0,0,0l0,0
		C130.1,20.3,130.1,20.4,130.1,20.5L130.1,20.5C130.1,20.5,130.1,20.4,130.1,20.5"/>
	<path id="path1023-5" class="st1" d="M199.4,22.4v-2.1c0-0.3-0.1-0.4-0.4-0.4h-3.7c-2.1,0.1-3.8,0.7-3.9,3.7v7.1
		c0.2,3.3,2.3,3.7,4.7,3.7h3c0.2,0,0.3-0.1,0.3-0.3V32c0-0.2-0.1-0.4-0.3-0.4h-3c-0.9,0-1.6-0.1-1.6-1.4v-1.5c0-0.1,0.1-0.2,0.2-0.2
		h3.2c0.1,0,0.3,0,0.3-0.3V26c0-0.2-0.1-0.3-0.3-0.3h-3.3c-0.1,0-0.2-0.1-0.2-0.2v-1.4c0-1.2,0.7-1.4,1.7-1.4h2.9
		C199.2,22.7,199.4,22.7,199.4,22.4L199.4,22.4z"/>
</g>
<g id="Layer_2_00000134971832269254004500000013484381636816372105_" class="st0">
	<g id="Layer_1-2">
		<g id="Bragi-Logo-landscape-BLK_BLK">
			<path class="st1" d="M312.4,26.5c1.1-0.5,1.8-1.6,1.7-2.8c0-2.3-1.6-3.5-4.7-3.5h-5v13h5.3c3.1,0,4.8-1.3,4.8-3.7
				C314.4,28.2,313.6,27,312.4,26.5z M309.3,25.8H306v-4h3.3c2.1,0,3,0.6,3,2C312.3,25.2,311.4,25.8,309.3,25.8z M312.6,29.5
				c0,1.5-0.9,2.1-3,2.1H306v-4.1h3.5C311.6,27.4,312.6,28.1,312.6,29.5L312.6,29.5z M352,26.1h-5.8v1.6h4c-0.3,2.5-1.9,4-4.4,4
				c-2.8,0-4.8-2.1-4.8-5s2.1-5,4.9-5c1.5,0,2.8,0.6,3.8,1.7l0.1,0.1l1.3-1.2l-0.1-0.1c-1.3-1.4-3.1-2.2-5-2.2
				c-3.6-0.1-6.6,2.6-6.7,6.2c0,0.2,0,0.3,0,0.5c0,1.9,0.7,3.6,2,4.9c1.2,1.1,2.9,1.8,4.6,1.8c3.7,0,6.3-2.8,6.3-6.7v-0.4L352,26.1z
				 M354,20.2h1.7v13H354V20.2z M333.7,20.2h-2l-5.3,13h1.8l1.5-3.5h6.1l1.5,3.5h1.8L333.7,20.2L333.7,20.2z M335.1,28h-4.8l2.4-5.9
				L335.1,28z M325.9,23.9c0-2.4-1.7-3.7-4.6-3.7h-5.1v13h1.7v-5.5h1.4l4.5,5.5h2.1l-4.6-5.5C324.1,27.6,325.9,26.2,325.9,23.9
				L325.9,23.9z M317.9,21.8h3.4c1.9,0,2.8,0.7,2.8,2.1s-1,2.1-2.8,2.1h-3.4V21.8z M281,38.7c1.1-1.5,1.9-3.2,2.2-5
				c0.9-4-1.1-7.5-4.2-8.8c4.2-1.5,6.7-5,6.7-9.2c0-5.4-4.7-8.9-12-8.9h-14.2l-7.6,35.9L281,38.7z"/>
		</g>
	</g>
</g>
<g class="st0">
	<path class="st1" d="M466.7,1.2c-0.2-0.9-0.7-1.6-1.4-2.2l-0.1-0.1h-0.2c-0.1,0.1-0.2,0.1-0.2,0.3c-0.3,0.8-0.3,1.6-0.1,2.4
		c0.2,0.8,0.4,1.5,0.6,2.3c0,0.1,0.1,0.3,0.1,0.4c0.1,0.1,0.3,0.1,0.4,0.3c0.4-0.1,0.9-0.2,1.3-0.3c0.1-0.2,0.1-0.3,0.2-0.5
		C467.2,2.9,466.9,2,466.7,1.2z M465.7,1.5c-0.2,0-0.4-0.3-0.5-0.5c-0.1-0.3-0.2-0.7,0-0.9c0.2-0.1,0.3,0,0.5,0.2
		c0.2,0.3,0.3,0.6,0.2,0.9C465.9,1.4,465.9,1.4,465.7,1.5z"/>
	<path class="st1" d="M467.1,1.6c0.1,0,0.2,0.1,0.3,0.1c0.4,0.2,0.6,0.5,0.8,0.9c0.2,0.5,0.3,0.9,0.3,1.4c0,0.3,0.1,0.5-0.1,0.7
		c-0.3-0.3-0.6-0.6-0.7-1c-0.1-0.6-0.3-1.2-0.5-1.9C467.1,1.8,467.1,1.7,467.1,1.6z"/>
	<path class="st1" d="M464.6,2.3c0.2,0.7,0.4,1.4,0.6,2.1c0.2,0.4,0,0.9-0.1,1.3c-0.1-0.1-0.3-0.2-0.4-0.4c-0.2-0.5-0.4-1-0.5-1.5
		C464.2,3.2,464.2,2.6,464.6,2.3z"/>
	<path class="st1" d="M466.9,4.6c0.1,0.1,0.2,0.2,0.2,0.3c0.1,0.6,0.2,1.3,0.3,1.9c0,0.4,0.2,0.9,0.1,1.3c-0.1-0.1-0.2-0.1-0.2-0.3
		c-0.4-0.8-0.7-1.7-1-2.5c-0.1-0.2-0.2-0.4,0-0.6C466.5,4.7,466.7,4.7,466.9,4.6z"/>
	<path class="st1" d="M467.8,9.2L467.8,9.2L467.8,9.2c0.7,1.7,0.9,3.6,0.9,5.4c0,2.5-0.5,5-1.2,7.4c-0.6,1.8-1.4,3.6-2.5,5.2
		c1.5,2,3,4,4.5,5.9c-1,0-2,0-3,0c-1-1.3-2-2.7-3-4c-1.3,1.5-2.8,2.8-4.4,3.9c-1.3,0.9-2.7,1.7-4.2,2.1c-0.9,0.3-2,0.4-2.9,0.2
		c-1-0.2-1.9-0.7-2.5-1.4c-0.7-0.7-1-1.6-1.2-2.6c-0.3-2,0.2-4,1-5.9c0.9-1.9,2.2-3.5,3.8-4.8c-0.5,0.8-1,1.5-1.4,2.4
		c-1,2-1.8,4.4-1.7,6.7c0,0.9,0.3,1.9,0.9,2.6c0.5,0.5,1.1,0.8,1.8,0.8c1,0,2-0.3,2.9-0.8c1.8-0.9,3.3-2,4.8-3.3
		c0.7-0.6,1.3-1.1,1.9-1.8c0.4-0.5,0.9-1,1.2-1.6c-0.5,0.6-0.9,1-1.6,1.4c-1.9-2.6-3.9-5.1-5.8-7.7c1.4,0,2.8,0.5,3.8,1.5
		c0.5,0.5,0.9,1,1.3,1.6c0.8,1,1.5,2,2.3,3c2.1-3.1,3.4-6.7,4.1-10.4C468,13.1,468.1,11.1,467.8,9.2z"/>
	<path class="st1" d="M474.3,19.3c0.9,0,1.8,0,2.7,0c0,4.6,0,9.2,0,13.8c-0.9,0-1.8,0-2.8,0c0-4.4,0-8.7,0-13.1
		C474.3,19.7,474.3,19.5,474.3,19.3z"/>
	<path class="st1" d="M443.1,23.3c-0.5-1.3-1.5-2.5-2.7-3.2c-1.5-0.9-3.5-1.2-5.2-0.9c-1.6,0.2-3.1,1-4.1,2.3c-1.6,2-2,4.9-1.1,7.3
		c0.5,1.5,1.5,2.7,2.9,3.5c1.4,0.8,3.2,1.1,4.8,0.9c1.5-0.2,2.8-0.8,3.9-1.8c1.1-1.1,1.8-2.5,2.1-4.1
		C443.7,26,443.6,24.6,443.1,23.3z M440.6,26.9c-0.2,1.3-1,2.5-2.3,3.1c-1.5,0.6-3.5,0.4-4.7-0.8c-1.5-1.5-1.6-4.2-0.3-5.9
		c0.5-0.7,1.4-1.2,2.2-1.4c1.2-0.2,2.5-0.1,3.5,0.7C440.3,23.6,440.9,25.4,440.6,26.9z"/>
	<path class="st1" d="M404.5,20.2c-0.7-0.7-1.7-1-2.7-1c-1.8,0-3.6,0-5.4,0V33c0.9,0,1.8,0,2.8,0c0-1.8,0-3.5,0-5.3
		c0.9,0,1.8,0,2.7,0c0.9,0,1.8-0.3,2.5-0.9c1-0.8,1.5-2.1,1.4-3.4C405.9,22.3,405.4,21,404.5,20.2z M402.7,24.6
		c-0.2,0.3-0.6,0.5-1,0.5c-0.8,0-1.6,0-2.5,0c0-1,0-2,0-3.1c0.8,0,1.6,0,2.5,0c0.5,0,0.9,0.2,1.1,0.6
		C403.1,23.2,403.1,24,402.7,24.6z"/>
	<path class="st1" d="M419.9,27.4c0.7-0.2,1.4-0.6,1.8-1.2c1.2-1.5,1.2-3.8,0.1-5.4c-0.7-1-1.9-1.5-3.1-1.5c-1.8,0-3.7,0-5.5,0
		c0,0.2,0,0.5,0,0.7c0,4.4,0,8.7,0,13.1c0.9,0,1.8,0,2.8,0c0-1.8,0-3.5,0-5.3c0.4,0,0.9,0,1.3,0c0.9,1.7,1.8,3.5,2.8,5.2l0.1,0
		c1,0,2.1,0,3.1,0C422,31.1,420.9,29.2,419.9,27.4z M419.3,24.6c-0.2,0.3-0.6,0.5-1,0.5c-0.8,0-1.7,0-2.5,0c0-1,0-2.1,0-3.1
		c0.8,0,1.7,0,2.5,0c0.4,0,0.8,0.2,1,0.5C419.8,23.1,419.8,24,419.3,24.6z"/>
	<path class="st1" d="M511.9,21.3c-1.2-1.4-3-2-4.8-2.1c-1.5,0-2.9,0-4.4,0c0,4.6,0,9.2,0,13.8c1.4,0,2.8,0,4.1,0
		c1.2,0,2.4-0.2,3.5-0.8c1.2-0.6,2.1-1.6,2.7-2.8C514.2,26.8,513.9,23.5,511.9,21.3z M510,28.8c-0.5,0.7-1.2,1.2-2,1.4
		c-0.8,0.2-1.7,0.1-2.5,0.1c0-2.7,0-5.5,0-8.3c0.5,0,0.9,0,1.4,0c0.7,0,1.3,0.1,1.9,0.4c0.7,0.4,1.2,0.9,1.6,1.6
		C511.1,25.5,511,27.4,510,28.8z"/>
	<path class="st1" d="M490,18.8c-0.1,0-0.2,0-0.3,0c-2,4.7-3.9,9.5-5.8,14.3c1,0,2.1,0,3.1,0c0.2-0.5,0.4-1,0.6-1.5c1.5,0,3,0,4.5,0
		c0.2,0.5,0.4,1,0.6,1.5c1,0,2.1,0,3.1,0C493.9,28.3,491.9,23.5,490,18.8z M488.6,29c0.4-1.1,0.8-2.3,1.2-3.4c0-0.1,0.1-0.1,0.1,0
		c0.4,1.1,0.8,2.3,1.2,3.4C490.3,29,489.4,29,488.6,29z"/>
</g>
<g>
	<path class="st2" d="M560.4,9.2h0.2C560.8,9.8,560.1,9.8,560.4,9.2z"/>
	<path class="st2" d="M586.7,9.5c1.6-0.1,3.1,0.9,3.7,2.4c0.4,0.9,0.3,1.7,0.3,2.7c0,1.7,0.1,3.4,0,5c-1.1,0.5-2.1,1-3.2,1.4
		c0-2,0-4-0.1-6c-0.1-0.8,0.2-1.7-0.5-2.3c-0.7-0.6-1.6-0.6-2.3,0c-0.4,0.4-0.5,0.9-0.5,1.5c0,7.2,0,14.5,0,21.7
		c0,0.6,0,1.1,0.4,1.5c0.6,0.7,1.6,0.8,2.3,0.2c0.8-0.6,0.5-1.6,0.6-2.5c0.1-2.8,0.1-5.6,0-8.4c-0.3,0-0.7,0-1-0.1
		c-0.5-1-1-2.1-1.4-3.1c1.9,0,3.8,0,5.7,0c0,4.4-0.1,8.8-0.1,13.1c0.1,1.6-0.7,3-2.1,3.7c-1.1,0.6-2.5,0.4-3.7,0.4
		c-1.6,0.1-3.1-1-3.7-2.5c-0.2-0.6-0.3-1.3-0.3-1.9c0-7,0-14,0-20.9c0-0.9-0.1-1.9,0.1-2.8c0.2-1.2,1-2.3,2.1-2.8
		C584.1,9.4,585.5,9.6,586.7,9.5z"/>
	<path class="st2" d="M569.1,9.8c3.1,0,6.1,0,9.2,0c-0.4,1.1-1,2.1-1.4,3.2c-1.5,0.1-3.1,0-4.6,0c0,3.5,0,7.1,0,10.6c2,0,4,0,6,0
		c-0.4,1.1-1,2.1-1.4,3.1c-1.5,0-3.1,0-4.6,0c0,3.6,0,7.1,0,10.7c2,0,4,0,6,0c-0.5,1-0.9,2.1-1.4,3.1c-0.3,0.1-0.8,0.1-1.2,0.1
		c-2.2,0-4.4,0-6.6,0c0-9.5,0-18.9,0-28.4C569,11.5,569,10.6,569.1,9.8z"/>
	<path class="st2" d="M595.2,9.8c1,0,2.1,0,3.1,0v30.9c-1.1,0-2.1,0-3.2,0c0-9.7,0-19.4,0-29.2C595.2,10.9,595.2,10.4,595.2,9.8z"/>
	<path class="st2" d="M559.6,11.6c0.4-0.3,0.7,0.4,0.2,0.5C559.5,12,559.5,11.8,559.6,11.6z"/>
	<path class="st2" d="M560.2,12.6c0.4-0.3,0.7,0.4,0.2,0.5C560.1,13,560,12.8,560.2,12.6z"/>
	<path class="st2" d="M559.2,13.1c0.4-0.3,0.7,0.4,0.2,0.5C559.1,13.5,559,13.4,559.2,13.1z"/>
	<path class="st2" d="M560.6,13.9c0.5-0.3,0.7,0.4,0.2,0.5C560.5,14.3,560.4,14.2,560.6,13.9z"/>
	<path class="st2" d="M559.6,14.5c0.5-0.3,0.8,0.4,0.2,0.5C559.5,14.9,559.4,14.7,559.6,14.5z"/>
	<path class="st2" d="M558.8,14.6h0.2l0.1,0.2L559,15h-0.2l-0.1-0.2L558.8,14.6z"/>
	<path class="st2" d="M559.6,15.1c0.3,0.5,0.5,0.9,0.8,1.4c-0.3,0.2-0.6,0.3-1,0.5c-0.1,0.3-0.2,0.7-0.3,1c0.6-0.4,1.2-0.8,1.8-1.2
		c0.2,0.3,0.3,0.6,0.5,0.9c-0.2-0.1-0.5-0.2-0.7-0.3c0.1,0.2,0.2,0.5,0.3,0.7c-0.1,1.5-0.6,2.9-1,4.4c-0.9,3-1.8,6.1-2.6,9.1
		c1,0,2,0,3.1,0c0-0.8,0-1.7,0-2.5c0-1.2,0.3-2.3,0.1-3.5c0.2-0.1,0.3-0.3,0.5-0.4c0.5,0.5,0.9,1.1,1.3,1.7c0-0.3,0-0.6,0-0.9
		c-0.1-0.4-0.5-0.7-0.8-1.1c0.2-0.2,0.4-0.4,0.6-0.6c0.2,0.2,0.4,0.4,0.6,0.6c0.2,0,0.4-0.1,0.6-0.2c0.2,2.3,0.1,4.5,0.1,6.8
		c1.2,0,2.3,0,3.5,0c-0.5,1.1-1,2.1-1.5,3.2c-0.7,0-1.3,0-2,0c0,1.9,0,3.9,0,5.8c-1.1,0-2.1,0-3.2,0c0-1.9,0-3.9,0-5.8
		c-1.3,0-2.7,0-4,0c-0.8-1.1-1.6-2.1-2.4-3.2c1.3-4.5,2.6-9,3.9-13.5c0.2-0.8,0.6-1.6,0.8-2.5c0.2,0.2,0.4,0.4,0.6,0.6
		C559.4,15.9,559.5,15.5,559.6,15.1z"/>
	<path class="st2" d="M560.6,15.2c0.5-0.3,0.8,0.4,0.2,0.5C560.6,15.6,560.5,15.4,560.6,15.2z"/>
	<path class="st2" d="M561.7,15.1h0.2v0.2h-0.2V15.1z"/>
	<path class="st2" d="M559.6,16.2l0.2,0l0,0.2l-0.2,0L559.6,16.2z"/>
	<path class="st2" d="M561.2,16.1c0.4-0.3,0.7,0.4,0.2,0.5C561.1,16.6,561.1,16.4,561.2,16.1z"/>
	<path class="st2" d="M558.6,17h0.2l0.1,0.2l-0.1,0.2h-0.2l-0.1-0.2L558.6,17z"/>
	<path class="st2" d="M558.3,17.8c0.4-0.3,0.6,0.3,0.2,0.4C558.2,18.2,558.2,18,558.3,17.8z"/>
	<path class="st2" d="M560.1,17.7l0.2,0l0,0.2l-0.2,0L560.1,17.7z"/>
	<path class="st2" d="M563.2,17.7h0.2l0.1,0.2l-0.1,0.2h-0.2l-0.1-0.2L563.2,17.7z"/>
	<path class="st2" d="M559.6,19c0.4-0.3,0.7,0.4,0.2,0.5C559.5,19.4,559.4,19.2,559.6,19z"/>
	<path class="st2" d="M562.3,21.3c0.4-0.3,0.7,0.4,0.2,0.5C562.2,21.7,562.1,21.5,562.3,21.3z"/>
	<path class="st2" d="M563.2,22.1h0.2l0.1,0.2l-0.1,0.2h-0.2l-0.1-0.2L563.2,22.1z"/>
	<path class="st2" d="M561.4,22.5c0.4-0.3,0.8,0.4,0.2,0.5C561.4,22.9,561.3,22.7,561.4,22.5z"/>
	<path class="st2" d="M560.7,23.3c0.4-0.3,0.8,0.4,0.2,0.5C560.6,23.7,560.5,23.5,560.7,23.3z"/>
	<path class="st2" d="M562.2,23.3c0.4-0.3,0.8,0.4,0.2,0.5C562.2,23.7,562.1,23.5,562.2,23.3z"/>
	<path class="st2" d="M561.5,23.6c0.5-0.3,0.7,0.4,0.2,0.5C561.4,24.1,561.3,23.9,561.5,23.6z"/>
	<path class="st2" d="M563,23.6c0.5-0.3,0.8,0.4,0.2,0.5C562.9,24.1,562.9,23.9,563,23.6z"/>
	<path class="st2" d="M560.7,24c0.4-0.3,0.8,0.4,0.2,0.5C560.6,24.5,560.5,24.3,560.7,24z"/>
	<path class="st2" d="M562.4,25.4h0.2v0.2h-0.2V25.4z"/>
	<path class="st2" d="M561.2,26.1l0.2,0l0,0.2l-0.2,0L561.2,26.1z"/>
	<path class="st2" d="M562.7,26.1l0.2-0.1l0.2,0.1v0.2l-0.2,0.1l-0.2-0.1V26.1z"/>
	<path class="st2" d="M562.6,26.8c0.5-0.3,0.8,0.4,0.2,0.5C562.6,27.2,562.5,27.1,562.6,26.8z"/>
	<path class="st2" d="M561.1,27.6c0.5-0.3,0.7,0.4,0.2,0.5C561,28,560.9,27.9,561.1,27.6z"/>
</g>
</svg>
