<?xml version="1.0" encoding="utf-8"?>
<!-- Generator: Adobe Illustrator 26.1.0, SVG Export Plug-In . SVG Version: 6.00 Build 0)  -->
<svg version="1.1" id="Layer_1" xmlns="http://www.w3.org/2000/svg" xmlns:xlink="http://www.w3.org/1999/xlink" x="0px" y="0px"
	 viewBox="0 0 60 60" style="enable-background:new 0 0 60 60;" xml:space="preserve">
<style type="text/css">
	.st0{fill-rule:evenodd;clip-rule:evenodd;fill:#CB2026;}
</style>
<g>
	<path class="st0" d="M52.23,37.81v2.74h4.96c1.02,0,2.76-0.74,2.82-2.82v-1.06c0-1.77-1.45-2.82-2.82-2.82h-2.47v-1.27h4.9v-2.76
		h-4.7c-1.21,0-2.83,1-2.83,2.86v0.95c0,1.86,1.61,2.82,2.83,2.82c3.41,0.02-0.82,0,2.33,0v1.33 M25.67,37.14
		c0,0,2.65-0.23,2.65-3.65s-3.21-3.74-3.21-3.74h-5.79v10.81h2.91v-2.61l2.52,2.61h4.3L25.67,37.14z M24.55,34.93h-2.32v-2.47h2.33
		c0,0,0.65,0.24,0.65,1.23S24.55,34.93,24.55,34.93L24.55,34.93z M35.51,29.82h-2.96c-2.11,0-2.82,1.91-2.82,2.82v7.91h2.96v-1.89
		h2.77v1.89h2.86v-7.91C38.33,30.33,36.24,29.82,35.51,29.82z M35.46,35.59h-2.79v-2.62c0,0,0-0.59,0.92-0.59h1.02
		c0.82,0,0.83,0.59,0.83,0.59v2.62H35.46L35.46,35.59z M39.68,29.82h3.08v10.73h-3.08V29.82z M47.07,37.77v-7.96h-3.06v10.73h7.2
		v-2.77H47.07z"/>
	<path class="st0" d="M1.06,40.55h11.97c0,0-2.29-10.44,5.29-14.67c1.65-0.8,6.91-3.8,15.52,2.56c0.27-0.23,0.53-0.41,0.53-0.41
		s-7.88-7.87-16.66-6.99c-4.41,0.39-9.84,4.41-13.02,9.71S1.06,40.55,1.06,40.55z"/>
	<path class="st0" d="M1.06,40.55h11.97c0,0-2.29-10.44,5.29-14.67c1.65-0.8,6.91-3.8,15.52,2.56c0.27-0.23,0.53-0.41,0.53-0.41
		s-7.88-7.87-16.66-6.99c-4.41,0.39-9.84,4.41-13.02,9.71S1.06,40.55,1.06,40.55z"/>
	<path class="st0" d="M1.06,40.55h11.97c0,0-2.29-10.44,5.29-14.67c1.65-0.8,6.91-3.8,15.52,2.56c0.27-0.23,0.53-0.41,0.53-0.41
		s-7.88-7.87-16.66-6.99c-4.43,0.39-9.85,4.41-13.03,9.71S1.06,40.55,1.06,40.55L1.06,40.55z M26.01,21.89l0.06-1.02
		c-0.14-0.08-0.52-0.26-1.47-0.53l-0.06,1C25.04,21.51,25.52,21.69,26.01,21.89z"/>
	<path class="st0" d="M24.57,25.1l-0.06,0.95c0.5,0.02,1,0.08,1.5,0.18l0.06-0.94C25.55,25.2,25.05,25.14,24.57,25.1z M18.96,20.38
		h0.15l-0.3-0.92c-0.47,0-0.95,0.03-1.45,0.09l0.29,0.89C18.08,20.39,18.52,20.38,18.96,20.38z M19.69,25.95L20.04,27
		c0.44-0.21,0.88-0.39,1.32-0.53l-0.33-1C20.51,25.62,20.07,25.79,19.69,25.95z M12.81,21.97l-0.68-1.05
		c-0.38,0.2-0.77,0.41-1.18,0.65l0.7,1.06C12.03,22.39,12.41,22.16,12.81,21.97z M15.91,28.79l0.73,1.09
		c0.26-0.38,0.56-0.73,0.89-1.08l-0.68-1.03C16.5,28.09,16.19,28.44,15.91,28.79z M13.72,33.67l1.23,0.97
		c0.06-0.59,0.17-1.18,0.32-1.77L14.17,32C13.97,32.56,13.84,33.12,13.72,33.67z M7.08,26.47L6,25.53
		c-0.39,0.38-0.77,0.76-1.12,1.14l1.17,1C6.37,27.26,6.71,26.85,7.08,26.47z M2.5,33.24l-1.74-0.64C0.47,33.26,0.15,34.02,0,34.43
		l1.74,0.64C1.94,34.55,2.26,33.8,2.5,33.24z M13.49,37.52c0.03,0.8,0.11,1.45,0.18,1.91l1.82,0.65c-0.14-0.59-0.27-1.26-0.36-1.97
		L13.49,37.52z"/>
</g>
</svg>
