<?xml version="1.0" encoding="utf-8"?>
<!-- Generator: Adobe Illustrator 26.1.0, SVG Export Plug-In . SVG Version: 6.00 Build 0)  -->
<svg version="1.1" id="Layer_1" xmlns="http://www.w3.org/2000/svg" xmlns:xlink="http://www.w3.org/1999/xlink" x="0px" y="0px"
	 viewBox="0 0 60 60" style="enable-background:new 0 0 60 60;" xml:space="preserve">
<style type="text/css">
	.st0{fill:url(#SVGID_1_);}
	.st1{fill:url(#SVGID_00000002379675252434342280000004683627439781411512_);}
	.st2{fill:url(#SVGID_00000132057202909976974690000002846862734593088439_);}
	.st3{fill:#23201F;}
</style>
<g>
	
		<linearGradient id="SVGID_1_" gradientUnits="userSpaceOnUse" x1="-266.2156" y1="448.1627" x2="-266.2111" y2="448.1627" gradientTransform="matrix(539.015 -318.4933 318.4933 539.015 783.9417 -326318.6875)">
		<stop  offset="0" style="stop-color:#909CA9"/>
		<stop  offset="1" style="stop-color:#EEEDED"/>
	</linearGradient>
	<path class="st0" d="M40.69,21.18l-6.63,2.17l-5.77,2.55l-1.61,0.43c-0.41,0.39-0.84,0.79-1.32,1.18
		c-0.51,0.44-0.99,0.84-1.35,1.13c-0.41,0.33-1,0.92-1.32,1.3c-0.46,0.58-0.82,1.18-0.97,1.64c-0.28,0.84-0.15,1.69,0.39,2.48
		c0.67,1,2.04,2.02,3.62,2.71c0.81,0.36,2.17,0.81,3.19,1.07c1.69,0.43,4.98,0.9,6.79,0.97c0.36,0.02,0.86,0.02,0.87,0
		c0.03-0.03,0.33-0.56,0.64-1.23c1.12-2.27,1.91-4.41,2.35-6.22c0.26-1.1,0.46-2.57,0.61-4.31c0.03-0.49,0.05-2.12,0.02-2.66
		c-0.05-0.9-0.13-1.63-0.25-2.35c-0.02-0.1-0.03-0.2-0.02-0.2c0.02-0.02,0.08-0.03,0.9-0.26L40.69,21.18z M39.18,22.06
		c0.07,0,0.21,1.55,0.26,2.52c0.02,0.2,0,0.35,0,0.35c-0.03,0-0.84-0.48-1.43-0.84c-0.49-0.31-1.45-0.95-1.6-1.07
		c-0.05-0.03-0.05-0.03,0.36-0.18C37.47,22.59,39.11,22.06,39.18,22.06z M35.79,23.18c0.05,0,0.16,0.07,0.44,0.23
		c1.04,0.64,2.43,1.43,3.04,1.69c0.18,0.08,0.2,0.05-0.21,0.35c-0.9,0.62-2.06,1.23-3.44,1.84c-0.25,0.12-0.44,0.2-0.46,0.2
		c-0.02,0,0.02-0.13,0.07-0.28c0.33-1.25,0.53-2.52,0.54-3.52C35.74,23.18,35.74,23.18,35.79,23.18L35.79,23.18z M35.1,23.45
		c0.03,0.03,0.02,1.15-0.03,1.46c-0.08,0.72-0.23,1.41-0.46,2.19c-0.05,0.18-0.1,0.35-0.12,0.35c-0.02,0.03-0.71-0.64-0.94-0.9
		c-0.39-0.44-0.69-0.9-0.92-1.35c-0.12-0.23-0.3-0.67-0.28-0.67C32.43,24.45,35.08,23.43,35.1,23.45L35.1,23.45z M31.82,24.73
		c0.03,0.02,0.07,0.1,0.08,0.18c0.16,0.44,0.53,1.09,0.84,1.48c0.35,0.44,0.79,0.94,1.15,1.25c0.12,0.1,0.23,0.2,0.25,0.21
		c0.03,0.03,0.03,0.03-0.77,0.33c-0.95,0.36-1.97,0.72-3.16,1.1c-0.28,0.1-0.56,0.18-0.84,0.28c-0.05,0.02-0.03-0.02,0.1-0.21
		c0.59-0.92,1.48-2.71,1.97-4c0.08-0.21,0.16-0.44,0.18-0.49c0.02-0.07,0.05-0.1,0.12-0.13C31.78,24.75,31.81,24.73,31.82,24.73
		L31.82,24.73z M30.82,25.14c0.02,0.02-0.25,0.54-0.49,1.04c-0.49,0.95-1.02,1.87-1.73,3.01c-0.12,0.2-0.23,0.38-0.25,0.39
		c-0.03,0.03-0.03,0.03-0.12-0.13c-0.16-0.33-0.31-0.77-0.38-1.17c-0.08-0.39-0.07-1.07,0.03-1.5c0.07-0.31,0.07-0.31,0.21-0.38
		C28.72,26.09,30.79,25.12,30.82,25.14L30.82,25.14z M39.46,25.5v0.21c0,1.12-0.12,2.65-0.3,3.77c-0.03,0.2-0.05,0.36-0.07,0.36
		c0,0-0.15-0.03-0.31-0.08c-0.76-0.23-1.56-0.58-2.3-0.99c-0.49-0.26-1.2-0.71-1.17-0.72c0,0,0.21-0.12,0.46-0.25
		c0.99-0.51,1.92-1.07,2.75-1.61c0.31-0.2,0.77-0.54,0.87-0.62L39.46,25.5z M27.04,26.98c0.02,0,0.02,0.03-0.02,0.21
		c-0.02,0.13-0.05,0.38-0.05,0.54c-0.03,0.72,0.08,1.27,0.44,2.01c0.1,0.2,0.18,0.38,0.18,0.38c-0.03,0.03-3.36,1-4.39,1.28
		c-0.31,0.08-0.58,0.16-0.61,0.16c-0.03,0.02-0.03,0-0.03-0.08c0.12-0.74,0.67-1.69,1.46-2.52c0.53-0.54,0.94-0.86,1.64-1.27
		C26.18,27.44,26.96,27,27.04,26.98C27.02,26.98,27.02,26.98,27.04,26.98L27.04,26.98z M34.85,28.38c0,0,0.13,0.07,0.26,0.15
		c1.07,0.62,2.57,1.2,3.83,1.5l0.12,0.03l-0.16,0.08c-0.67,0.38-2.86,1.28-5.1,2.12c-0.33,0.12-0.64,0.25-0.71,0.26
		c-0.07,0.03-0.12,0.03-0.12,0.03s0.08-0.18,0.2-0.39c0.62-1.17,1.25-2.6,1.58-3.59C34.82,28.46,34.85,28.38,34.85,28.38
		L34.85,28.38z M34.06,28.64c0,0-0.03,0.12-0.08,0.23c-0.44,1.05-1,2.2-1.74,3.5c-0.18,0.33-0.35,0.59-0.35,0.59
		s-0.15-0.08-0.33-0.2c-1.07-0.66-2.01-1.45-2.62-2.24l-0.08-0.12l0.46-0.13c1.63-0.44,3.03-0.92,4.41-1.51
		C33.88,28.71,34.05,28.64,34.06,28.64L34.06,28.64z M39.01,30.37c0,0.12-0.25,1.15-0.46,1.89c-0.18,0.62-0.33,1.12-0.61,1.99
		c-0.12,0.38-0.23,0.69-0.23,0.69s-0.03,0-0.07-0.02c-1.48-0.26-2.83-0.64-4.08-1.15c-0.35-0.15-0.86-0.36-0.89-0.39
		c-0.02-0.02,0.3-0.15,0.67-0.31c2.29-1,4.64-2.12,5.46-2.62C38.91,30.4,39,30.37,39.01,30.37L39.01,30.37z M27.58,30.76
		c0.02,0.02-0.62,0.92-1.51,2.17c-0.31,0.44-0.67,0.95-0.81,1.13c-0.13,0.2-0.35,0.49-0.46,0.67l-0.21,0.33l-0.23-0.2
		c-0.26-0.21-0.72-0.69-0.94-0.95c-0.43-0.54-0.72-1.1-0.84-1.61c-0.05-0.25-0.05-0.36,0-0.38c0.08-0.02,1.41-0.33,2.66-0.62
		c0.69-0.16,1.5-0.35,1.79-0.43C27.33,30.81,27.57,30.76,27.58,30.76L27.58,30.76z M28.22,31.01l0.16,0.18
		c0.72,0.81,1.46,1.4,2.35,1.92c0.16,0.08,0.28,0.16,0.26,0.18c-0.03,0.03-3.09,1.12-4.52,1.6c-0.79,0.28-1.45,0.51-1.46,0.51
		l-0.1-0.07l-0.08-0.07l0.15-0.21c0.48-0.67,1.07-1.43,2.35-2.98L28.22,31.01z M32.22,33.87c0,0,0.23,0.08,0.49,0.18
		c0.66,0.25,1.17,0.39,1.86,0.58c0.86,0.21,2.09,0.43,2.81,0.49c0.12,0.02,0.16,0.02,0.15,0.03c-0.03,0.02-0.77,0.26-1.32,0.44
		c-0.86,0.26-3.49,1.05-5.64,1.66c-0.39,0.12-0.74,0.21-0.76,0.21c-0.05,0.02-0.21-0.03-0.21-0.05c0-0.02,0.12-0.16,0.26-0.33
		c0.72-0.86,1.43-1.83,2.04-2.73C32.07,34.07,32.22,33.87,32.22,33.87L32.22,33.87z M31.33,33.89c0,0-0.35,0.58-0.97,1.56
		c-0.26,0.41-0.56,0.89-0.67,1.05c-0.1,0.16-0.25,0.41-0.33,0.56l-0.15,0.26l-0.08-0.02c-0.18-0.05-1.45-0.49-1.78-0.62
		c-0.41-0.16-0.84-0.36-1.17-0.54c-0.39-0.21-0.9-0.54-0.86-0.54c0.02,0,0.69-0.2,1.53-0.41c2.19-0.59,3.4-0.94,4.21-1.2
		C31.2,33.92,31.33,33.89,31.33,33.89L31.33,33.89z M37.56,35.35c0.03,0.05-0.79,2.3-1.09,3.01c-0.07,0.16-0.08,0.2-0.13,0.2
		c-0.08,0-1.27-0.16-1.97-0.28c-1.25-0.2-3.34-0.56-3.86-0.67l-0.12-0.03l0.74-0.16c1.61-0.36,2.37-0.56,3.16-0.79
		c0.99-0.3,1.96-0.67,2.94-1.13C37.4,35.42,37.53,35.35,37.56,35.35z"/>
	
		<linearGradient id="SVGID_00000113331438510861729450000010845808805525805192_" gradientUnits="userSpaceOnUse" x1="-268.1342" y1="460.6713" x2="-268.1297" y2="460.6713" gradientTransform="matrix(433.7041 0 0 433.7041 116317.5078 -199786.1719)">
		<stop  offset="0" style="stop-color:#949FAB"/>
		<stop  offset="1" style="stop-color:#DCDEE1"/>
	</linearGradient>
	<path style="fill:url(#SVGID_00000113331438510861729450000010845808805525805192_);" d="M33.85,5.73
		c-0.12-0.02-1.89,0.62-3.04,1.09c-1.55,0.62-2.75,1.23-3.49,1.76c-0.28,0.2-0.62,0.54-0.67,0.67c-0.02,0.05-0.03,0.12-0.03,0.16
		l0.67,0.64l1.6,0.51l3.8,0.67l4.34,0.74l0.05-0.38h-0.03l-0.58-0.08l-0.12-0.2c-0.59-1.04-1.25-2.34-1.63-3.21
		c-0.3-0.67-0.58-1.46-0.72-2.02C33.91,5.75,33.9,5.73,33.85,5.73L33.85,5.73z M33.77,5.98c0.02,0,0.03,0.15,0.05,0.31
		C33.9,7,34.06,7.67,34.31,8.4c0.18,0.56,0.18,0.53-0.03,0.46c-0.51-0.15-2.8-0.54-4.46-0.77C29.56,8.05,29.32,8.02,29.32,8
		c-0.02-0.02,1.2-0.66,1.73-0.9C31.74,6.79,33.63,6.01,33.77,5.98L33.77,5.98z M28.93,8.23l0.2,0.07c1.07,0.36,3.73,0.87,5.21,0.99
		c0.16,0.02,0.31,0.03,0.31,0.03s-0.13,0.08-0.31,0.16c-0.71,0.36-1.5,0.79-2.04,1.13c-0.16,0.1-0.31,0.18-0.33,0.18
		c-0.02,0-0.13-0.02-0.23-0.03l-0.2-0.03l-0.49-0.49c-0.89-0.86-1.58-1.51-1.84-1.78L28.93,8.23z M28.73,8.38l0.71,0.89
		c0.38,0.49,0.77,0.95,0.86,1.07c0.08,0.1,0.15,0.2,0.15,0.2c-0.02,0.02-1.02-0.18-1.55-0.3c-0.54-0.13-0.77-0.18-1.1-0.3
		l-0.28-0.08V9.8c0-0.33,0.43-0.84,1.15-1.35L28.73,8.38z M34.74,9.58c0.02,0,0.05,0.05,0.1,0.18c0.16,0.38,0.71,1.38,0.84,1.58
		c0.03,0.07,0.12,0.07-0.59-0.05c-1.69-0.28-2.24-0.36-2.24-0.38c0,0,0.05-0.03,0.12-0.08c0.53-0.3,1.05-0.66,1.53-1.05
		C34.6,9.68,34.7,9.6,34.74,9.58C34.72,9.58,34.74,9.58,34.74,9.58z"/>
	
		<radialGradient id="SVGID_00000147219896908051391360000010137182741231440273_" cx="-262.8724" cy="448.6841" r="4.446911e-03" gradientTransform="matrix(-552.9619 -83.0608 167.9883 -1105.9233 -220695.7344 474393.5625)" gradientUnits="userSpaceOnUse">
		<stop  offset="0" style="stop-color:#EF392D"/>
		<stop  offset="1" style="stop-color:#A91F24"/>
	</radialGradient>
	<path style="fill:url(#SVGID_00000147219896908051391360000010137182741231440273_);" d="M26.68,9.17c0,0-0.12,0.18,0,0.44
		c0.07,0.16,0.26,0.36,0.48,0.56c0,0,2.24,2.17,2.5,2.48c1.23,1.43,1.78,2.83,1.83,4.75c0.03,1.25-0.2,2.34-0.79,3.6
		c-1.04,2.27-3.24,4.79-6.63,7.57l0.49-0.16c0.31-0.25,0.76-0.49,1.78-1.05c2.37-1.3,5.02-2.48,8.27-3.7
		c4.69-1.76,12.4-3.83,16.79-4.51l0.46-0.07l-0.07-0.12c-0.39-0.62-0.67-1-1-1.41c-0.95-1.2-2.12-2.15-3.55-2.96
		c-1.96-1.1-4.51-1.96-7.73-2.6c-0.61-0.12-1.94-0.35-3.03-0.51c-2.3-0.36-3.78-0.61-5.41-0.89c-0.59-0.1-1.46-0.25-2.04-0.38
		c-0.3-0.07-0.87-0.2-1.33-0.36C27.3,9.75,26.79,9.6,26.68,9.17L26.68,9.17z M27.98,10.44c0,0,0.08,0.03,0.2,0.07
		c0.2,0.07,0.44,0.15,0.72,0.21c0.21,0.07,0.44,0.12,0.66,0.18c0.3,0.08,0.56,0.15,0.56,0.15c0.03,0.03,0.54,1.66,0.71,2.27
		c0.07,0.23,0.12,0.44,0.12,0.44s-0.07-0.08-0.13-0.2c-0.59-1.04-1.51-2.07-2.58-2.93C28.07,10.52,27.98,10.44,27.98,10.44
		L27.98,10.44z M30.44,11.11c0.03,0,0.13,0.02,0.26,0.05c0.86,0.2,2.38,0.48,3.36,0.64c0.16,0.03,0.3,0.05,0.3,0.07
		s-0.07,0.05-0.13,0.08c-0.16,0.08-0.84,0.48-1.05,0.62c-0.56,0.38-1.05,0.77-1.41,1.13l-0.26,0.26c0,0-0.03-0.08-0.05-0.2
		c-0.18-0.69-0.56-1.73-0.9-2.45C30.48,11.23,30.43,11.11,30.44,11.11C30.43,11.11,30.43,11.11,30.44,11.11L30.44,11.11z
		 M34.77,11.93c0.03,0.02,0.08,0.18,0.18,0.56c0.18,0.72,0.26,1.55,0.25,2.3c-0.02,0.21-0.02,0.41-0.03,0.43l-0.02,0.05l-0.26-0.08
		c-0.54-0.16-1.41-0.43-2.15-0.64c-0.43-0.12-0.77-0.21-0.77-0.23c0-0.03,0.62-0.66,0.89-0.89C33.35,12.99,34.74,11.92,34.77,11.93
		L34.77,11.93z M35.11,11.98c0.02-0.02,2.07,0.35,3.01,0.53c0.69,0.13,1.71,0.35,1.78,0.38c0.03,0.02-0.08,0.07-0.41,0.21
		c-1.32,0.59-2.3,1.13-3.29,1.78c-0.26,0.16-0.48,0.31-0.48,0.31s-0.02-0.15-0.02-0.31c0-0.95-0.2-1.91-0.54-2.73
		C35.15,12.07,35.11,12,35.11,11.98z M40.44,13.04c0.02,0.02-0.05,0.43-0.12,0.66c-0.18,0.74-0.67,1.86-1.27,2.89
		c-0.1,0.18-0.2,0.33-0.21,0.35c-0.02,0-0.15-0.07-0.3-0.16c-0.58-0.35-1.25-0.66-1.96-0.95c-0.2-0.08-0.38-0.15-0.38-0.16
		c-0.03-0.03,1.58-1.1,2.43-1.61C39.32,13.63,40.43,13.02,40.44,13.04z M40.82,13.1c0.05,0,0.95,0.25,1.43,0.39
		c1.18,0.35,2.53,0.84,3.4,1.25l0.36,0.16l-0.26,0.07c-2.15,0.49-4,1.07-5.77,1.79c-0.15,0.07-0.28,0.12-0.28,0.12
		c-0.02,0,0.03-0.12,0.1-0.26c0.54-1.13,0.89-2.32,0.97-3.34C40.8,13.18,40.82,13.1,40.82,13.1L40.82,13.1z M31.74,15.19
		c0.02-0.02,0.71,0.15,1.09,0.26c0.58,0.16,1.78,0.56,1.78,0.59c0,0-0.13,0.12-0.3,0.26c-0.66,0.54-1.28,1.12-2.04,1.86
		c-0.23,0.21-0.41,0.39-0.43,0.39c-0.02,0-0.02-0.03-0.02-0.07c0.12-0.84,0.08-1.92-0.07-3.03C31.76,15.31,31.74,15.19,31.74,15.19
		L31.74,15.19z M46.38,15.21c0.02,0.02-0.33,0.53-0.53,0.82c-0.3,0.43-0.74,1-1.74,2.25c-0.53,0.66-1.12,1.41-1.32,1.66
		c-0.2,0.25-0.36,0.46-0.38,0.46c0,0-0.07-0.08-0.15-0.2c-0.56-0.84-1.23-1.58-2.02-2.24c-0.15-0.13-0.31-0.26-0.38-0.3
		c-0.05-0.03-0.1-0.08-0.1-0.08c0-0.02,0.86-0.38,1.5-0.64c1.13-0.46,2.68-1.02,3.83-1.37C45.72,15.37,46.38,15.19,46.38,15.21z
		 M46.77,15.31c0.02,0,0.15,0.05,0.28,0.15c1.22,0.69,2.42,1.6,3.36,2.52c0.26,0.26,0.92,0.94,0.9,0.95c0,0-0.23,0.02-0.49,0.03
		c-2.11,0.16-4.8,0.61-7.4,1.23c-0.18,0.03-0.33,0.08-0.35,0.08s0.18-0.2,0.43-0.43c1.53-1.46,2.22-2.4,3.04-4.05
		C46.66,15.52,46.76,15.32,46.77,15.31C46.76,15.31,46.76,15.31,46.77,15.31L46.77,15.31z M35.61,16.44
		c0.07,0.02,0.72,0.33,1.22,0.56c0.44,0.23,1.13,0.59,1.17,0.61c0,0-0.23,0.13-0.53,0.28c-0.94,0.48-1.74,0.92-2.6,1.43
		c-0.25,0.15-0.44,0.26-0.44,0.26c-0.02,0-0.02-0.02,0.12-0.26c0.44-0.82,0.81-1.81,1.02-2.76C35.57,16.49,35.59,16.44,35.61,16.44
		L35.61,16.44z M34.97,16.57c0.02,0.02-0.15,0.62-0.26,0.97c-0.2,0.64-0.56,1.43-0.89,2.04c-0.08,0.15-0.2,0.35-0.26,0.46l-0.13,0.2
		l-0.28-0.26c-0.33-0.31-0.59-0.51-0.94-0.69c-0.13-0.07-0.25-0.13-0.25-0.15c0-0.03,0.86-0.82,1.51-1.38
		C33.95,17.34,34.95,16.56,34.97,16.57z M38.95,18.2l0.25,0.16c0.56,0.36,1.22,0.86,1.73,1.28c0.28,0.23,0.84,0.72,0.95,0.86
		l0.07,0.07l-0.41,0.12c-2.3,0.64-4.06,1.2-6.13,1.96c-0.23,0.08-0.43,0.15-0.44,0.15c-0.03,0-0.05,0.03,0.46-0.44
		c1.32-1.22,2.5-2.57,3.37-3.86L38.95,18.2z M37.89,18.46c0.02,0.02-0.67,0.97-1.09,1.53c-0.49,0.66-1.37,1.74-1.96,2.45
		c-0.25,0.3-0.46,0.54-0.48,0.54c-0.02,0-0.02-0.07-0.02-0.18c0-0.61-0.15-1.25-0.43-1.81c-0.12-0.23-0.13-0.28-0.12-0.31
		c0.1-0.08,1.55-0.92,2.48-1.41C36.91,18.94,37.88,18.45,37.89,18.46z M31.56,20.01c0.02,0,0.13,0.07,0.26,0.13
		c0.31,0.18,0.61,0.38,0.86,0.58c0.02,0.02-0.12,0.12-0.3,0.25c-0.48,0.35-1.2,0.89-1.61,1.22c-0.44,0.35-0.46,0.36-0.41,0.28
		c0.33-0.51,0.49-0.79,0.67-1.15c0.15-0.33,0.31-0.71,0.43-1.05C31.5,20.12,31.55,20.01,31.56,20.01L31.56,20.01z M33.26,21.34
		c0.03,0,0.05,0.03,0.2,0.25c0.28,0.43,0.51,1,0.56,1.46l0.02,0.1l-0.69,0.26c-1.23,0.48-2.37,0.95-3.12,1.3
		c-0.21,0.1-0.59,0.28-0.84,0.39c-0.25,0.13-0.44,0.21-0.44,0.21s0.15-0.12,0.35-0.26c1.5-1.09,2.8-2.29,3.77-3.47
		C33.14,21.46,33.24,21.34,33.26,21.34L33.26,21.34z M32.48,21.52c0.02,0.02-0.56,0.67-0.94,1.07c-0.97,0.99-1.92,1.76-3.11,2.52
		c-0.15,0.1-0.28,0.18-0.3,0.2c-0.03,0.02,0.02-0.03,0.53-0.59c0.33-0.36,0.58-0.66,0.87-1.02c0.2-0.25,0.23-0.28,0.49-0.48
		C30.76,22.66,32.45,21.51,32.48,21.52z"/>
	<path class="st3" d="M10.77,42.28c-0.1,0-0.18,0.02-0.28,0.02c-1.87,0.1-3.12,0.92-3.86,2.53c-0.62,1.45-0.56,3.36,0,4.8
		c0.66,1.43,1.73,2.19,3.5,2.47c0.38,0.07,0.62,0.26,1.37,1.12l0.9,1.05h1.63l-1.09-1.09c-0.59-0.59-1.09-1.12-1.09-1.17
		s0.23-0.15,0.51-0.23c0.92-0.28,1.68-0.99,2.2-2.07c0.43-0.87,0.49-1.13,0.56-2.22C15.3,44.27,13.6,42.26,10.77,42.28L10.77,42.28z
		 M12.2,50.7c-0.79,0.38-1.94,0.46-2.7,0.18c-0.77-0.28-1.53-1.09-1.87-2.01c-0.38-1-0.33-2.85,0.12-3.67
		c0.69-1.32,1.61-1.92,2.94-1.92c1.97,0,3.11,1.22,3.26,3.49C14.06,48.68,13.42,50.11,12.2,50.7L12.2,50.7z M40.34,45.02
		c-0.69,0-1.2,0.28-1.56,0.82l-0.28,0.43v-1.12h-1.18v6.73h1.18v-2.15c0-1.97,0.02-2.2,0.3-2.73c0.38-0.74,1.04-1.1,1.66-0.94
		l0.43,0.12v-1.17L40.34,45.02z M33.4,44.96c-0.23,0-0.48,0.03-0.72,0.08c-1.58,0.41-2.47,1.92-2.42,3.49c0,1.3,0.25,1.96,0.89,2.65
		c1.28,1.05,2.45,1.13,4.03,0.58c0.26-0.12,0.56-0.25,0.56-0.25v-1.05l-0.56,0.3c-1.27,0.56-2.24,0.56-3.01-0.1
		c-0.49-0.49-0.71-1.1-0.81-1.78h4.77v-0.9C36.13,46.11,35.02,44.94,33.4,44.96L33.4,44.96z M31.48,47.92c0,0,0.18-1.15,0.82-1.61
		c0.31-0.21,0.67-0.33,1.04-0.33s0.71,0.12,1,0.35c0.59,0.46,0.71,1.6,0.71,1.6L31.48,47.92z M2.96,46.7
		c-1.28-0.77-1.86-1.33-1.78-1.99c0.2-1.83,2.45-1.58,3.7-0.89l0.02-1.23c0,0-0.69-0.3-1.68-0.31c-1.51-0.02-2.5,0.48-2.96,1.5
		c-0.67,1.5-0.08,2.63,2.09,3.88c1.22,0.71,1.76,1.32,1.76,1.99c0,1.38-1.66,1.86-3.39,1c-0.36-0.18-0.66-0.33-0.67-0.33
		c-0.07,0.39-0.03,1.33-0.03,1.33s0.53,0.21,1.32,0.38c1.97,0.39,3.75-0.53,3.93-2.02C5.4,48.59,4.89,47.85,2.96,46.7L2.96,46.7z
		 M50.82,44.96c-0.23,0-0.48,0.03-0.72,0.08c-1.58,0.41-2.47,1.92-2.42,3.49c0,1.3,0.25,1.96,0.89,2.63
		c1.28,1.05,2.45,1.15,4.05,0.58c0.26-0.12,0.56-0.25,0.56-0.25v-1.05l-0.56,0.3c-1.28,0.56-2.24,0.56-3.01-0.1
		c-0.49-0.49-0.71-1.09-0.81-1.78h4.75v-0.9C53.55,46.09,52.43,44.93,50.82,44.96z M48.88,47.9c0,0,0.18-1.15,0.82-1.61
		c0.31-0.23,0.67-0.33,1.02-0.33c0.35,0,0.71,0.12,1,0.35c0.59,0.46,0.71,1.6,0.71,1.6L48.88,47.9z M27.2,46.72
		c-1.28-0.77-1.84-1.33-1.78-1.99c0.2-1.83,2.45-1.58,3.7-0.89l0.02-1.23c0,0-0.69-0.3-1.68-0.31c-1.51-0.02-2.5,0.48-2.96,1.5
		c-0.67,1.5-0.07,2.63,2.09,3.88c1.22,0.71,1.74,1.32,1.74,1.97c0,1.38-1.66,1.87-3.39,1c-0.35-0.18-0.66-0.33-0.67-0.33
		c-0.07,0.39-0.03,1.33-0.03,1.33s0.53,0.21,1.32,0.38c1.97,0.39,3.75-0.53,3.93-2.02C29.64,48.61,29.13,47.87,27.2,46.72
		L27.2,46.72z M57.76,45.01c-0.69,0-1.22,0.28-1.56,0.82l-0.28,0.43v-1.12h-1.18v6.73h1.18v-2.14c0-1.97,0.02-2.2,0.3-2.73
		c0.38-0.74,1.04-1.1,1.66-0.92l0.43,0.12v-1.17L57.76,45.01z M17.8,46.69v-4.29h-1.18v9.49h5.02v-1.12h-3.82L17.8,46.69z
		 M45.38,48.02l-0.99,2.55L43.45,48l-0.95-2.85h-1.22c0.79,2.24,1.64,4.52,2.52,6.73c0.38,0.02,0.76,0,1.13,0l1.33-3.34l1.35-3.4
		h-1.17C46.43,45.16,45.92,46.5,45.38,48.02z M20.56,39.81c0.2,0,0.35-0.07,0.48-0.2c0.13-0.13,0.2-0.28,0.2-0.48
		s-0.07-0.35-0.2-0.48c-0.13-0.12-0.28-0.18-0.48-0.18s-0.36,0.07-0.48,0.2c-0.13,0.13-0.2,0.3-0.2,0.48c0,0.2,0.07,0.36,0.2,0.48
		C20.2,39.74,20.36,39.81,20.56,39.81z M20.13,38.71c0.12-0.12,0.25-0.16,0.43-0.16c0.16,0,0.31,0.05,0.43,0.16
		c0.12,0.12,0.18,0.25,0.18,0.43c0,0.16-0.07,0.31-0.18,0.43c-0.12,0.12-0.26,0.16-0.43,0.16s-0.31-0.05-0.43-0.16
		c-0.12-0.12-0.18-0.26-0.18-0.43C19.97,38.97,20.02,38.82,20.13,38.71z M20.41,39.2h0.08c0.05,0,0.12,0.05,0.15,0.15l0.1,0.21h0.15
		l-0.12-0.23c-0.05-0.1-0.1-0.15-0.15-0.16c0.07-0.02,0.12-0.03,0.16-0.08c0.03-0.03,0.05-0.1,0.05-0.15c0-0.07-0.02-0.12-0.07-0.16
		c-0.05-0.05-0.13-0.07-0.25-0.07h-0.25v0.86h0.12L20.41,39.2z M20.41,38.81h0.12c0.08,0,0.13,0.02,0.16,0.03
		c0.03,0.02,0.03,0.05,0.03,0.12c0,0.1-0.07,0.15-0.18,0.15h-0.13L20.41,38.81z M0.72,39.12c0-0.3-0.02-0.53-0.02-0.66
		c0.03,0.15,0.07,0.26,0.1,0.35l1.15,2.55h0.2l1.15-2.58c0.03-0.07,0.07-0.18,0.1-0.33h0.02c-0.02,0.26-0.03,0.48-0.03,0.66v2.25
		h0.39V38H3.29l-1.07,2.35c-0.03,0.1-0.1,0.23-0.16,0.41H2.04c-0.02-0.1-0.08-0.23-0.15-0.39l-1.04-2.35H0.33v3.36h0.38L0.72,39.12z
		 M4.62,39.14h0.35v2.09H4.62V39.14z M4.79,38.36c0.07,0,0.13-0.02,0.18-0.07c0.05-0.05,0.08-0.1,0.08-0.18
		c0-0.07-0.02-0.13-0.08-0.18c-0.05-0.05-0.12-0.07-0.18-0.07s-0.13,0.02-0.18,0.07c-0.05,0.05-0.08,0.12-0.08,0.18
		c0,0.08,0.02,0.13,0.08,0.18C4.65,38.35,4.72,38.36,4.79,38.36z M7.37,41.26V40.9c-0.18,0.13-0.38,0.21-0.59,0.21
		c-0.25,0-0.44-0.08-0.59-0.25s-0.23-0.38-0.23-0.66c0-0.3,0.08-0.53,0.23-0.69s0.36-0.25,0.59-0.25c0.2,0,0.39,0.07,0.58,0.18
		v-0.41c-0.16-0.08-0.35-0.12-0.56-0.12c-0.38,0-0.69,0.12-0.9,0.36c-0.21,0.23-0.33,0.56-0.33,0.95c0,0.35,0.1,0.64,0.31,0.86
		c0.21,0.23,0.49,0.35,0.82,0.35C6.97,41.42,7.19,41.37,7.37,41.26z M8.34,40.16c0-0.28,0.07-0.49,0.18-0.66
		c0.12-0.13,0.23-0.21,0.39-0.21c0.13,0,0.23,0.02,0.3,0.08v-0.39c-0.05-0.02-0.13-0.03-0.23-0.03c-0.13,0-0.26,0.05-0.36,0.13
		c-0.12,0.1-0.21,0.23-0.26,0.41H8.34v-0.49H7.96v2.4h0.38L8.34,40.16z M10.54,41.42c0.36,0,0.66-0.12,0.87-0.35
		c0.21-0.23,0.33-0.54,0.33-0.92c0-0.39-0.1-0.69-0.3-0.92s-0.48-0.33-0.84-0.33s-0.66,0.12-0.87,0.31
		c-0.23,0.23-0.35,0.56-0.35,0.97c0,0.36,0.1,0.66,0.31,0.89C9.9,41.31,10.18,41.42,10.54,41.42L10.54,41.42z M10,39.48
		c0.15-0.15,0.35-0.23,0.58-0.23c0.25,0,0.43,0.08,0.58,0.23c0.13,0.16,0.21,0.39,0.21,0.69s-0.07,0.53-0.2,0.67
		c-0.13,0.16-0.33,0.25-0.58,0.25c-0.25,0-0.44-0.08-0.59-0.25c-0.15-0.16-0.21-0.38-0.21-0.67C9.77,39.88,9.84,39.65,10,39.48z
		 M13.4,41.22c0.15-0.13,0.23-0.3,0.23-0.49c0-0.18-0.07-0.33-0.18-0.44c-0.1-0.1-0.23-0.18-0.44-0.26c-0.18-0.08-0.3-0.15-0.36-0.2
		c-0.07-0.07-0.1-0.13-0.1-0.25c0-0.1,0.03-0.18,0.12-0.23c0.08-0.07,0.18-0.1,0.31-0.1c0.21,0,0.38,0.05,0.54,0.16v-0.38
		c-0.15-0.08-0.33-0.12-0.51-0.12c-0.25,0-0.46,0.07-0.61,0.2c-0.16,0.13-0.23,0.3-0.23,0.49c0,0.18,0.05,0.33,0.15,0.43
		c0.08,0.1,0.23,0.18,0.43,0.26s0.33,0.16,0.39,0.23c0.07,0.07,0.1,0.13,0.1,0.23c0,0.23-0.15,0.35-0.46,0.35
		c-0.23,0-0.44-0.08-0.62-0.23v0.41c0.16,0.1,0.36,0.15,0.59,0.15C13.03,41.42,13.26,41.36,13.4,41.22L13.4,41.22z M15.23,38.92
		c-0.36,0-0.66,0.12-0.87,0.31c-0.23,0.23-0.35,0.56-0.35,0.97c0,0.36,0.1,0.66,0.31,0.89c0.21,0.23,0.49,0.35,0.86,0.35
		c0.36,0,0.66-0.12,0.87-0.35c0.21-0.23,0.33-0.54,0.33-0.92c0-0.39-0.1-0.69-0.3-0.92C15.87,39.02,15.59,38.92,15.23,38.92
		L15.23,38.92z M15.99,40.17c0,0.3-0.07,0.53-0.2,0.67c-0.13,0.16-0.33,0.25-0.58,0.25c-0.25,0-0.44-0.08-0.59-0.25
		s-0.21-0.38-0.21-0.67c0-0.31,0.08-0.54,0.23-0.71c0.15-0.15,0.35-0.23,0.58-0.23s0.43,0.08,0.56,0.23
		C15.92,39.63,15.99,39.86,15.99,40.17L15.99,40.17z M17.02,41.37h0.38V39.3h0.56v-0.33H17.4v-0.36c0-0.33,0.13-0.51,0.39-0.51
		c0.1,0,0.18,0.02,0.25,0.07v-0.35c-0.07-0.03-0.16-0.03-0.28-0.03c-0.21,0-0.38,0.07-0.51,0.2c-0.16,0.15-0.25,0.35-0.25,0.62V39
		H16.6v0.33h0.41L17.02,41.37z M18.6,40.72c0,0.46,0.21,0.71,0.62,0.71c0.15,0,0.26-0.02,0.36-0.08v-0.33
		c-0.07,0.05-0.15,0.08-0.25,0.08c-0.13,0-0.21-0.03-0.28-0.1c-0.05-0.07-0.08-0.18-0.08-0.35V39.3h0.61v-0.33h-0.61v-0.71
		c-0.13,0.05-0.26,0.08-0.38,0.12v0.58h-0.41v0.33h0.41L18.6,40.72z M59.8,45.14c-0.13-0.12-0.28-0.18-0.48-0.18
		s-0.36,0.07-0.48,0.2c-0.13,0.13-0.2,0.3-0.2,0.48c0,0.2,0.07,0.35,0.2,0.48c0.13,0.12,0.3,0.18,0.48,0.18
		c0.2,0,0.35-0.07,0.48-0.2s0.2-0.28,0.2-0.48C60.01,45.42,59.93,45.25,59.8,45.14z M59.75,46.04c-0.12,0.12-0.25,0.16-0.43,0.16
		c-0.16,0-0.31-0.05-0.43-0.16c-0.12-0.12-0.18-0.26-0.18-0.43s0.05-0.31,0.16-0.43c0.12-0.12,0.25-0.16,0.43-0.16
		c0.16,0,0.31,0.05,0.43,0.16c0.12,0.12,0.18,0.26,0.18,0.43S59.87,45.93,59.75,46.04z M59.41,45.65c0.07-0.02,0.12-0.05,0.16-0.08
		c0.03-0.03,0.05-0.1,0.05-0.15c0-0.07-0.02-0.12-0.07-0.16c-0.05-0.05-0.13-0.07-0.25-0.07h-0.25v0.86h0.12v-0.36h0.08
		c0.05,0,0.1,0.05,0.15,0.15l0.1,0.21h0.15l-0.12-0.23C59.49,45.71,59.44,45.67,59.41,45.65z M59.32,45.57h-0.13v-0.28h0.12
		c0.08,0,0.13,0.02,0.16,0.03c0.03,0.02,0.03,0.05,0.03,0.12C59.49,45.53,59.44,45.57,59.32,45.57L59.32,45.57z M37.89,38.87h0.12
		v-0.86h0.28V37.9h-0.67v0.12h0.28L37.89,38.87z M38.54,38.23v-0.2c0,0.05,0.02,0.08,0.03,0.1l0.33,0.74h0.05l0.33-0.74
		c0.02-0.02,0.02-0.05,0.03-0.1v0.84h0.12V37.9h-0.13L39,38.58c0,0.02-0.03,0.07-0.05,0.13h-0.02c0-0.03-0.02-0.07-0.05-0.12
		l-0.3-0.67h-0.15v0.97h0.12L38.54,38.23z"/>
</g>
</svg>
