<svg xmlns="http://www.w3.org/2000/svg" xml:space="preserve" id="Layer_1" x="0" y="0" style="enable-background:new 0 0 95.31 35.07" version="1.1" viewBox="0 0 95.31 35.07"><style>.st0{fill-rule:evenodd;clip-rule:evenodd}.st0,.st1{fill:#fff}</style><path d="M14.3 35.07c3.99 0 7.42-.59 10.27-1.77l1.46-2.3-.87-1.64-.98.34.7-1.56-.34-.87.21-2.39-6.9 7.17-2.52-.69-1.28-2.86-2.17 1.45-2.09-1.19-3.5 2.81 2.39-3.88-1.54-2.05 1.15-7.46L0 26.91v8.16h14.3z" class="st0"/><path d="M0 23.88v-1.3" class="st1"/><path d="M14.3 35.07c3.99 0 7.42-.59 10.27-1.77l1.46-2.3-.87-1.64-.98.34.7-1.56-.34-.87.21-2.39-6.9 7.17-2.52-.69-1.28-2.86-2.17 1.45-2.09-1.19-3.5 2.81 2.39-3.88-1.54-2.05 1.15-7.46L0 26.91v8.16h14.3z" class="st0"/><path d="M21.25 24.26 8.62 13.05V6.51h5.52c3.67 0 6.48.98 8.44 2.94 1.96 1.96 2.94 4.64 2.94 8.04 0 1.14-.53 3-.53 3l-3.74 3.77zm13.14-6.72c0-5.12-1.71-9.29-5.14-12.52C25.82 1.79 21.16.18 15.26.18H0v23.7l8.6-9.32 12.7 11.28 3.57-3.57 6 6.17c2.34-2.86 3.52-6.49 3.52-10.9zM40.26.23h3.79c1.23 0 2.16.33 2.78.99.62.66.93 1.63.93 2.91v7.99c0 1.28-.31 2.25-.93 2.91-.62.66-1.54.99-2.78.99h-3.79V.23zm3.75 13.54c.41 0 .72-.12.94-.36.22-.24.33-.63.33-1.17V4.02c0-.54-.11-.93-.33-1.17-.22-.24-.53-.36-.94-.36h-1.26v11.29h1.26zM49.43.23h2.48v15.8h-2.48V.23zM54.53 15.23c-.63-.68-.95-1.67-.95-2.95V3.97c0-1.28.32-2.26.95-2.95C55.16.34 56.08 0 57.28 0s2.12.34 2.75 1.03c.63.69.95 1.67.95 2.95v1.35h-2.35V3.81c0-1.04-.43-1.56-1.29-1.56-.86 0-1.29.52-1.29 1.56v8.65c0 1.02.43 1.54 1.29 1.54.86 0 1.29-.51 1.29-1.54V9.37H57.4V7.11h3.59v5.17c0 1.28-.32 2.26-.95 2.95-.63.68-1.55 1.03-2.75 1.03-1.21-.01-2.13-.35-2.76-1.03zM62.59.23h2.48v15.8h-2.48V.23zM68.86 2.48h-2.6V.23h7.68v2.26h-2.6v13.54h-2.48V2.48zM76.02.23h3.36l2.57 15.8h-2.48l-.45-3.14v.05H76.2l-.45 3.09h-2.3L76.02.23zm2.71 10.56-1.11-7.81h-.05l-1.08 7.81h2.24zM83.15.23h2.48v13.54h4.09v2.26h-6.57V.23zM40.26 19.04h3.12l2.42 9.46h.05v-9.46h2.21v15.8H45.5L42.52 23.3h-.05v11.54h-2.21v-15.8zM50.69 34.03c-.65-.69-.97-1.67-.97-2.93v-8.31c0-1.26.32-2.24.97-2.93.65-.69 1.58-1.04 2.8-1.04 1.22 0 2.15.35 2.8 1.04.65.69.97 1.67.97 2.93v8.31c0 1.26-.32 2.24-.97 2.93-.65.69-1.58 1.04-2.8 1.04-1.22 0-2.15-.35-2.8-1.04zm4.09-2.78v-8.62c0-1.04-.43-1.56-1.29-1.56-.86 0-1.29.52-1.29 1.56v8.62c0 1.04.43 1.56 1.29 1.56.86 0 1.29-.52 1.29-1.56zM58.93 19.04h3.54l1.58 11.31h.05l1.58-11.31h3.54v15.8h-2.35V22.88h-.05l-1.81 11.96h-2.08l-1.81-11.96h-.02v11.96h-2.17v-15.8zM73 19.04h3.36l2.57 15.8h-2.48L76 31.7v.05h-2.82l-.45 3.09h-2.3L73 19.04zm2.7 10.56-1.11-7.81h-.05l-1.08 7.81h2.24zM80.13 19.04h3.79c1.23 0 2.16.33 2.78.99.62.66.93 1.63.93 2.91v7.99c0 1.28-.31 2.25-.93 2.91-.62.66-1.54.99-2.78.99h-3.79V19.04zm3.75 13.54c.41 0 .72-.12.94-.36.22-.24.33-.63.33-1.17v-8.22c0-.54-.11-.93-.33-1.17-.22-.24-.53-.36-.94-.36h-1.26v11.29h1.26zM89.79 34.04c-.62-.68-.93-1.67-.93-2.95v-.9h2.35v1.08c0 1.02.43 1.54 1.29 1.54.42 0 .74-.12.96-.37.22-.25.33-.65.33-1.21 0-.66-.15-1.25-.45-1.75-.3-.5-.86-1.11-1.67-1.82-1.02-.9-1.74-1.72-2.14-2.45-.41-.73-.61-1.55-.61-2.47 0-1.25.32-2.22.95-2.9.63-.68 1.55-1.03 2.75-1.03 1.19 0 2.09.34 2.7 1.03.61.69.91 1.67.91 2.95v.65h-2.35v-.81c0-.54-.11-.94-.32-1.19-.21-.25-.52-.37-.93-.37-.83 0-1.24.5-1.24 1.51 0 .57.15 1.11.46 1.6.31.5.87 1.1 1.68 1.81 1.04.9 1.75 1.72 2.14 2.46.39.74.59 1.6.59 2.6 0 1.29-.32 2.29-.96 2.98-.64.69-1.57 1.04-2.79 1.04-1.19 0-2.1-.35-2.72-1.03zM95.43 10.81v-.84h.84v.84h-.84zM90.71 9.24V7.9c0-.43.12-.76.35-.98s.57-.33 1.02-.33h2.81c.45 0 .79.11 1.03.33.23.22.35.54.35.98v1.33h-5.56zm4.76-1.32c0-.14-.04-.25-.13-.33-.08-.08-.22-.12-.41-.12h-2.89c-.19 0-.33.04-.41.12-.08.08-.13.19-.13.33v.44h3.97v-.44zM90.71 5.93V3.55h.79v1.51h1.47v-1.2h.79v1.2h1.71V3.55h.79v2.38h-5.55zM90.71 3.2v-.88l4.31-.57v-.02l-4.31-.57v-.8l5.56.84v1.16l-5.56.84z" class="st1"/></svg>