<?xml version="1.0" encoding="utf-8"?>
<!-- Generator: Adobe Illustrator 26.1.0, SVG Export Plug-In . SVG Version: 6.00 Build 0)  -->
<svg version="1.1" id="Layer_1" xmlns="http://www.w3.org/2000/svg" xmlns:xlink="http://www.w3.org/1999/xlink" x="0px" y="0px"
	 viewBox="0 0 60 60" style="enable-background:new 0 0 60 60;" xml:space="preserve">
<style type="text/css">
	.st0{opacity:0.54;fill:#010101;enable-background:new    ;}
	.st1{fill:#F9A01B;}
	.st2{fill:#F47D20;}
	.st3{fill:#FFCB2A;}
	.st4{fill:#FFFFFF;fill-opacity:0.2;}
	.st5{opacity:0.2;fill:#A52A22;enable-background:new    ;}
	.st6{fill:url(#b_00000181772281472922571140000015776536481616586643_);}
</style>
<g>
	<path class="st0" d="M8.2,59.8h-1.2v-9.25h5.44v1.14H8.2v3.04h3.82v1.11H8.2L8.2,59.8L8.2,59.8z M14.7,51.88
		c-0.29,0.28-0.73,0.33-1.07,0.11c-0.34-0.22-0.47-0.65-0.31-1.02s0.55-0.58,0.95-0.5c0.4,0.08,0.68,0.42,0.68,0.82
		C14.95,51.51,14.86,51.73,14.7,51.88L14.7,51.88z M14.7,59.8h-1.2v-6.33h1.2V59.8z M17.32,59.8h-1.2v-6.33h1.14v1.03h0.05
		c0.14-0.36,0.4-0.67,0.75-0.85c0.33-0.21,0.71-0.33,1.1-0.34c0.31-0.01,0.61,0.04,0.9,0.16l-0.46,1.11
		c-0.21-0.07-0.42-0.1-0.64-0.09c-0.44,0-0.86,0.19-1.15,0.51c-0.33,0.34-0.5,0.79-0.5,1.34L17.32,59.8L17.32,59.8z M23.35,60
		c-0.96,0-1.75-0.32-2.35-0.96s-0.9-1.44-0.9-2.41c-0.02-0.87,0.3-1.72,0.88-2.38c0.56-0.65,1.38-1.02,2.24-0.99
		c0.95,0,1.7,0.31,2.27,0.92c0.57,0.61,0.85,1.43,0.85,2.45l-0.01,0.22h-5.04c0.03,0.64,0.25,1.14,0.64,1.51
		c0.37,0.36,0.87,0.56,1.39,0.55c0.86,0,1.44-0.36,1.74-1.08l1.07,0.44c-0.22,0.5-0.57,0.93-1.03,1.23
		C24.62,59.84,24.04,60,23.35,60L23.35,60z M25.06,55.86c-0.03-0.36-0.19-0.71-0.5-1.03s-0.77-0.49-1.37-0.48
		c-0.42-0.01-0.83,0.14-1.15,0.41c-0.33,0.29-0.57,0.68-0.67,1.11L25.06,55.86L25.06,55.86z M30.66,60c-0.45,0.01-0.9-0.1-1.3-0.3
		c-0.35-0.18-0.65-0.44-0.86-0.77h-0.05v0.88H27.3v-9.25h1.2v2.92l-0.05,0.88h0.05c0.21-0.33,0.51-0.6,0.86-0.77
		c0.4-0.21,0.85-0.32,1.3-0.31c0.82,0,1.54,0.32,2.13,0.97c0.6,0.65,0.9,1.45,0.9,2.4c0,0.96-0.3,1.76-0.9,2.4S31.49,60,30.66,60z
		 M30.47,58.92c0.54,0,1.06-0.22,1.43-0.63c0.4-0.42,0.6-0.97,0.6-1.66c0-0.69-0.2-1.24-0.6-1.66c-0.37-0.4-0.89-0.62-1.43-0.63
		s-1.06,0.22-1.44,0.62c-0.39,0.41-0.59,0.97-0.59,1.67s0.2,1.25,0.6,1.67C29.41,58.7,29.93,58.93,30.47,58.92L30.47,58.92z
		 M36.74,60c-0.68,0-1.24-0.19-1.7-0.58s-0.68-0.9-0.68-1.54c0-0.69,0.27-1.23,0.81-1.62c0.54-0.39,1.2-0.59,1.99-0.59
		c0.7,0,1.28,0.13,1.73,0.39v-0.18c0.02-0.43-0.16-0.84-0.48-1.12c-0.33-0.28-0.75-0.43-1.18-0.41c-0.33,0-0.66,0.08-0.94,0.25
		c-0.27,0.15-0.47,0.39-0.58,0.67l-1.09-0.47c0.15-0.38,0.44-0.73,0.87-1.06c0.44-0.32,1.01-0.49,1.72-0.48
		c0.81,0,1.49,0.24,2.03,0.71c0.54,0.47,0.81,1.14,0.81,2v3.83h-1.15v-0.88h-0.05C38.36,59.64,37.66,60,36.74,60L36.74,60z
		 M36.94,58.92c0.5,0,0.98-0.2,1.35-0.54c0.38-0.32,0.61-0.8,0.61-1.3c-0.34-0.28-0.85-0.41-1.52-0.41c-0.58,0-1.02,0.12-1.31,0.37
		c-0.27,0.21-0.44,0.53-0.44,0.88c-0.01,0.3,0.15,0.58,0.41,0.74C36.29,58.83,36.61,58.92,36.94,58.92L36.94,58.92L36.94,58.92z
		 M43.56,60c-0.71,0-1.3-0.17-1.76-0.52c-0.45-0.33-0.8-0.78-1.02-1.29l1.07-0.44c0.34,0.79,0.91,1.19,1.73,1.19
		c0.32,0.01,0.64-0.07,0.91-0.25c0.22-0.14,0.36-0.38,0.36-0.65c0-0.41-0.29-0.69-0.87-0.84l-1.29-0.31
		c-0.42-0.11-0.82-0.31-1.16-0.59c-0.36-0.28-0.56-0.71-0.55-1.17c0-0.56,0.25-1.01,0.75-1.36c0.52-0.36,1.14-0.54,1.78-0.52
		c0.53-0.01,1.05,0.12,1.51,0.38c0.43,0.24,0.77,0.63,0.95,1.09l-1.04,0.42c-0.23-0.56-0.72-0.84-1.46-0.84
		c-0.31-0.01-0.62,0.07-0.9,0.22c-0.22,0.11-0.36,0.34-0.36,0.59c0,0.36,0.28,0.61,0.85,0.74l1.26,0.3c0.6,0.13,1.04,0.37,1.33,0.71
		c0.28,0.31,0.43,0.72,0.43,1.14c0.01,0.56-0.26,1.09-0.7,1.42C44.9,59.81,44.29,60,43.56,60L43.56,60z M50,60
		c-0.96,0-1.75-0.32-2.35-0.96c-0.6-0.64-0.9-1.44-0.9-2.42c-0.02-0.87,0.3-1.72,0.88-2.38c0.56-0.65,1.39-1.01,2.25-0.99
		c0.95,0,1.71,0.31,2.27,0.92c0.57,0.61,0.85,1.43,0.85,2.45l-0.01,0.22h-5.04c0.03,0.64,0.25,1.14,0.64,1.51
		c0.37,0.36,0.87,0.56,1.39,0.55c0.86,0,1.44-0.36,1.74-1.08l1.07,0.44c-0.22,0.5-0.57,0.93-1.03,1.23C51.28,59.84,50.69,60,50,60
		L50,60z M51.72,55.86c-0.03-0.36-0.19-0.71-0.5-1.03s-0.77-0.49-1.37-0.48c-0.42-0.01-0.83,0.14-1.15,0.41
		c-0.33,0.29-0.57,0.68-0.67,1.11L51.72,55.86L51.72,55.86z"/>
	<g>
		<path class="st1" d="M11.25,37.83L17.02,0.9c0.09-0.58,0.64-0.98,1.22-0.89c0.33,0.05,0.62,0.26,0.77,0.55l5.97,11.13l2.38-4.53
			c0.27-0.52,0.92-0.72,1.44-0.45c0.19,0.1,0.35,0.26,0.45,0.45l16.11,30.66H11.25z"/>
		<path class="st2" d="M31.18,23.44l-6.21-11.75L11.25,37.83L31.18,23.44z"/>
		<path class="st3" d="M45.35,37.83l-4.42-27.35c-0.07-0.39-0.35-0.72-0.73-0.84s-0.79-0.02-1.08,0.26L11.25,37.83l15.43,8.65
			c0.97,0.54,2.15,0.54,3.12,0L45.35,37.83L45.35,37.83z"/>
		<path class="st4" d="M40.93,10.48c-0.07-0.39-0.35-0.72-0.73-0.84c-0.38-0.12-0.8-0.02-1.08,0.26l-5.53,5.55l-4.35-8.28
			c-0.27-0.52-0.92-0.72-1.44-0.45c-0.19,0.1-0.35,0.26-0.45,0.45l-2.38,4.53L19.01,0.56c-0.28-0.52-0.92-0.71-1.44-0.44
			c-0.29,0.16-0.5,0.45-0.55,0.78l-5.77,36.92h-0.02l0.02,0.02l0.15,0.07l27.72-27.75c0.42-0.42,1.09-0.42,1.51,0
			c0.16,0.16,0.26,0.36,0.3,0.58l4.38,27.11l0.04-0.03L40.93,10.48L40.93,10.48z M11.3,37.78l5.72-36.61
			c0.09-0.58,0.63-0.98,1.22-0.89c0.33,0.05,0.62,0.25,0.78,0.55l5.97,11.13l2.38-4.53c0.27-0.52,0.92-0.72,1.44-0.45
			c0.19,0.1,0.35,0.26,0.45,0.45l4.26,8.11L11.3,37.78L11.3,37.78z"/>
		<path class="st5" d="M29.79,46.22c-0.97,0.54-2.15,0.54-3.12,0l-15.39-8.63l-0.04,0.24l15.43,8.65c0.97,0.54,2.15,0.54,3.12,0
			l15.56-8.65l-0.04-0.25L29.79,46.22L29.79,46.22z"/>
		<g>
			
				<linearGradient id="b_00000181799481041110624140000007906650811543101344_" gradientUnits="userSpaceOnUse" x1="-264.3356" y1="448.0009" x2="-263.9624" y2="447.7295" gradientTransform="matrix(95 0 0 -130.9994 25122 58695.8203)">
				<stop  offset="0" style="stop-color:#FFFFFF;stop-opacity:0.1"/>
				<stop  offset="0.14" style="stop-color:#FFFFFF;stop-opacity:0.08"/>
				<stop  offset="0.61" style="stop-color:#FFFFFF;stop-opacity:0.02"/>
				<stop  offset="1" style="stop-color:#FFFFFF;stop-opacity:0"/>
			</linearGradient>
			
				<path id="b_00000111899592898455191970000008317809401226247067_" style="fill:url(#b_00000181799481041110624140000007906650811543101344_);" d="
				M40.89,10.48c-0.07-0.39-0.35-0.72-0.72-0.84c-0.38-0.12-0.79-0.02-1.07,0.26l-5.51,5.54l-4.34-8.28
				C29.05,6.82,28.69,6.6,28.3,6.6s-0.76,0.22-0.94,0.57l-2.37,4.53L19.04,0.57c-0.28-0.52-0.92-0.71-1.43-0.44
				c-0.3,0.16-0.5,0.45-0.55,0.78l-5.75,36.91l15.37,8.64c0.96,0.54,2.14,0.54,3.11,0l15.5-8.64L40.89,10.48z"/>
		</g>
	</g>
</g>
</svg>
