<?xml version="1.0" encoding="utf-8"?>
<!-- Generator: Adobe Illustrator 26.1.0, SVG Export Plug-In . SVG Version: 6.00 Build 0)  -->
<svg version="1.1" id="Layer_1" xmlns="http://www.w3.org/2000/svg" xmlns:xlink="http://www.w3.org/1999/xlink" x="0px" y="0px"
	 viewBox="0 0 60 60" style="enable-background:new 0 0 60 60;" xml:space="preserve">
<style type="text/css">
	.st0{fill:#DC3B5F;}
	.st1{fill:#FFFFFF;}
</style>
<g>
	<path class="st0" d="M54.56,0H5.44C2.44,0,0,2.44,0,5.44v49.12c0,3,2.44,5.44,5.44,5.44h49.12c3,0,5.44-2.44,5.44-5.44V5.44
		C60,2.44,57.56,0,54.56,0"/>
	<path class="st1" d="M20.05,18.88c1.99,0,3.67-1.56,3.67-3.61c0-2.05-1.67-3.61-3.67-3.61s-3.66,1.56-3.66,3.61
		C16.39,17.31,18.06,18.88,20.05,18.88 M12.45,38.22c-0.22,0.92-0.32,1.91-0.32,2.71c0,3.18,1.72,5.29,5.39,5.29
		c3.04,0,5.5-1.81,7.28-4.72l-1.08,4.35h6.04l3.45-13.84c0.86-3.5,2.53-5.32,5.07-5.32c1.99,0,3.23,1.24,3.23,3.29
		c0,0.59-0.05,1.24-0.27,1.94l-1.78,6.36c-0.27,0.92-0.38,1.83-0.38,2.7c0,3.02,1.78,5.23,5.5,5.23c3.18,0,5.71-2.05,7.11-6.95
		l-2.37-0.92c-1.19,3.29-2.21,3.88-3.02,3.88c-0.81,0-1.24-0.54-1.24-1.62c0-0.49,0.11-1.02,0.27-1.67l1.73-6.2
		c0.43-1.45,0.59-2.75,0.59-3.93c0-4.64-2.8-7.05-6.2-7.05c-3.18,0-6.41,2.87-8.03,5.89l1.19-5.42h-9.22l-1.29,4.77h4.31
		l-2.66,10.63c-2.09,4.64-5.92,4.71-6.4,4.6c-0.79-0.18-1.29-0.48-1.29-1.5c0-0.59,0.11-1.44,0.38-2.47l4.04-16.04H12.24l-1.29,4.77
		h4.26L12.45,38.22"/>
</g>
</svg>
