<?xml version="1.0" encoding="utf-8"?>
<!-- Generator: Adobe Illustrator 26.1.0, SVG Export Plug-In . SVG Version: 6.00 Build 0)  -->
<svg version="1.1" id="Layer_1" xmlns="http://www.w3.org/2000/svg" xmlns:xlink="http://www.w3.org/1999/xlink" x="0px" y="0px"
	 viewBox="0 0 60 60" style="enable-background:new 0 0 60 60;" xml:space="preserve">
<style type="text/css">
	.st0{fill:#F6DF19;}
	.st1{fill:#010101;}
</style>
<g>
	<path class="st0" d="M0,0h60v60H0V0z"/>
	<path class="st1" d="M40.3,46.88c1.21,1.97,2.78,3.42,5.56,3.42c2.34,0,3.83-1.17,3.83-2.78c0-1.93-1.53-2.62-4.1-3.74l-1.41-0.6
		c-4.07-1.73-6.77-3.9-6.77-8.5c0-4.23,3.22-7.45,8.26-7.45c3.58,0,6.16,1.25,8.02,4.51l-4.39,2.82c-0.97-1.73-2.01-2.42-3.63-2.42
		c-1.65,0-2.7,1.05-2.7,2.42c0,1.69,1.05,2.38,3.47,3.42l1.41,0.6c4.79,2.05,7.5,4.15,7.5,8.86c0,5.08-3.99,7.86-9.34,7.86
		c-5.24,0-8.62-2.5-10.27-5.77L40.3,46.88z M20.39,47.36c0.89,1.57,1.69,2.9,3.63,2.9c1.85,0,3.02-0.72,3.02-3.54V27.55h5.64V46.8
		c0,5.84-3.42,8.5-8.42,8.5c-4.51,0-7.13-2.34-8.46-5.15L20.39,47.36z"/>
</g>
</svg>
