<?xml version="1.0" encoding="utf-8"?>
<!-- Generator: Adobe Illustrator 26.1.0, SVG Export Plug-In . SVG Version: 6.00 Build 0)  -->
<svg version="1.1" id="Layer_1" xmlns="http://www.w3.org/2000/svg" xmlns:xlink="http://www.w3.org/1999/xlink" x="0px" y="0px"
	 viewBox="0 0 70 70" style="enable-background:new 0 0 70 70;" xml:space="preserve">
<style type="text/css">
	.st0{fill:#EDFAFA;}
	.st1{fill:#00C1EF;enable-background:new    ;}
	.st2{opacity:0.5;fill:#00C1EF;enable-background:new    ;}
</style>
<g>
	<g>
		<g>
			<path id="SVGID_00000139293722796231168510000017093326217411231879_" class="st0" d="M35,70L35,70C15.7,70,0,54.3,0,35l0,0
				C0,15.7,15.7,0,35,0l0,0c19.3,0,35,15.7,35,35l0,0C70,54.3,54.3,70,35,70z"/>
		</g>
	</g>
</g>
<g>
	<path class="st1" d="M17.2,18.2h0.2C17.6,18.9,16.9,18.9,17.2,18.2z M45.2,18.6c1.7-0.1,3.3,1,3.9,2.6c0.4,1,0.3,1.8,0.3,2.9
		c0,1.8,0.1,3.6,0,5.3c-1.2,0.5-2.2,1.1-3.4,1.5c0-2.1,0-4.3-0.1-6.4c-0.1-0.9,0.2-1.8-0.5-2.4c-0.7-0.6-1.7-0.6-2.4,0
		c-0.4,0.4-0.5,1-0.5,1.6v23.1c0,0.6,0,1.2,0.4,1.6c0.6,0.7,1.7,0.9,2.4,0.2c0.9-0.6,0.5-1.7,0.6-2.7c0.1-3,0.1-6,0-8.9
		c-0.3,0-0.7,0-1.1-0.1c-0.5-1.1-1.1-2.2-1.5-3.3h6.1c0,4.7-0.1,9.4-0.1,13.9c0.1,1.7-0.7,3.2-2.2,3.9c-1.2,0.6-2.7,0.4-3.9,0.4
		c-1.7,0.1-3.3-1.1-3.9-2.7c-0.2-0.6-0.3-1.4-0.3-2V24.8c0-1-0.1-2,0.1-3c0.2-1.3,1.1-2.4,2.2-3C42.4,18.4,43.9,18.7,45.2,18.6z
		 M26.5,18.9h9.8c-0.4,1.2-1.1,2.2-1.5,3.4c-1.6,0.1-3.3,0-4.9,0v11.3h6.4c-0.4,1.2-1.1,2.2-1.5,3.3h-4.9v11.4h6.4
		c-0.5,1.1-1,2.2-1.5,3.3c-0.3,0.1-0.9,0.1-1.3,0.1h-7V21.4C26.4,20.7,26.4,19.7,26.5,18.9z M54.2,18.9h3.3v32.9h-3.4v-31
		C54.2,20,54.2,19.5,54.2,18.9L54.2,18.9z M16.4,20.8c0.4-0.3,0.7,0.4,0.2,0.5C16.3,21.2,16.3,21,16.4,20.8z M17,21.9
		c0.4-0.3,0.7,0.4,0.2,0.5C16.9,22.3,16.8,22.1,17,21.9z M15.9,22.4c0.4-0.3,0.7,0.4,0.2,0.5C15.8,22.8,15.7,22.7,15.9,22.4z
		 M17.4,23.2c0.5-0.3,0.7,0.4,0.2,0.5C17.3,23.7,17.2,23.6,17.4,23.2z M16.4,23.9c0.5-0.3,0.9,0.4,0.2,0.5
		C16.3,24.3,16.2,24.1,16.4,23.9z M15.5,24h0.2l0.1,0.2l-0.1,0.2h-0.2l-0.1-0.2L15.5,24z M16.4,24.5c0.3,0.5,0.5,1,0.9,1.5
		c-0.3,0.2-0.6,0.3-1.1,0.5c-0.1,0.3-0.2,0.7-0.3,1.1l1.9-1.3c0.2,0.3,0.3,0.6,0.5,1c-0.2-0.1-0.5-0.2-0.7-0.3
		c0.1,0.2,0.2,0.5,0.3,0.7c-0.1,1.6-0.6,3.1-1.1,4.7c-1,3.2-1.9,6.5-2.8,9.7h3.3v-2.7c0-1.3,0.3-2.4,0.1-3.7
		c0.2-0.1,0.3-0.3,0.5-0.4c0.5,0.5,1,1.2,1.4,1.8v-1c-0.1-0.4-0.5-0.7-0.9-1.2l0.6-0.6l0.6,0.6c0.2,0,0.4-0.1,0.6-0.2
		c0.2,2.4,0.1,4.8,0.1,7.2h3.7c-0.5,1.2-1.1,2.2-1.6,3.4h-2.1v6.2h-3.4v-6.2h-4.3c-0.9-1.2-1.7-2.2-2.6-3.4l4.1-14.4
		c0.2-0.9,0.6-1.7,0.9-2.7l0.6,0.6C16.2,25.4,16.3,24.9,16.4,24.5L16.4,24.5z M17.4,24.6c0.5-0.3,0.9,0.4,0.2,0.5
		C17.4,25,17.3,24.8,17.4,24.6z M18.6,24.5h0.2v0.2h-0.2V24.5z"/>
	<path class="st2" d="M16.4,25.7h0.2v0.2h-0.2V25.7z M18.1,25.6c0.4-0.3,0.7,0.4,0.2,0.5C18,26.1,18,25.9,18.1,25.6z M15.3,26.5h0.2
		l0.1,0.2L15.5,27h-0.2l-0.1-0.2L15.3,26.5z M15,27.4c0.4-0.3,0.6,0.3,0.2,0.4C14.9,27.8,14.9,27.6,15,27.4z M16.9,27.3h0.2v0.2
		h-0.2V27.3z M20.2,27.3h0.2l0.1,0.2l-0.1,0.2h-0.2l-0.1-0.2L20.2,27.3z M16.4,28.7c0.4-0.3,0.7,0.4,0.2,0.5
		C16.3,29.1,16.2,28.9,16.4,28.7z M19.2,31.1c0.4-0.3,0.7,0.4,0.2,0.5C19.1,31.5,19,31.3,19.2,31.1z M20.2,32h0.2l0.1,0.2l-0.1,0.2
		h-0.2l-0.1-0.2L20.2,32z M18.3,32.4c0.4-0.3,0.9,0.4,0.2,0.5C18.3,32.8,18.2,32.6,18.3,32.4z M17.5,33.2c0.4-0.3,0.9,0.4,0.2,0.5
		C17.4,33.7,17.3,33.4,17.5,33.2z M19.1,33.2c0.4-0.3,0.9,0.4,0.2,0.5C19.1,33.7,19,33.4,19.1,33.2z M18.4,33.5
		c0.5-0.3,0.7,0.4,0.2,0.5C18.3,34.1,18.2,33.9,18.4,33.5z M20,33.5c0.5-0.3,0.9,0.4,0.2,0.5C19.9,34.1,19.9,33.9,20,33.5z M17.5,34
		c0.4-0.3,0.9,0.4,0.2,0.5C17.4,34.5,17.3,34.3,17.5,34z M19.3,35.5h0.2v0.2h-0.2V35.5z M18.1,36.2h0.2v0.2h-0.2V36.2z M19.7,36.2
		l0.2-0.1l0.2,0.1v0.2l-0.2,0.1l-0.2-0.1V36.2z M19.6,37c0.5-0.3,0.9,0.4,0.2,0.5C19.6,37.4,19.5,37.3,19.6,37z M18,37.8
		c0.5-0.3,0.7,0.4,0.2,0.5C17.9,38.2,17.8,38.1,18,37.8z"/>
</g>
</svg>
