<?xml version="1.0" encoding="utf-8"?>
<!-- Generator: Adobe Illustrator 26.1.0, SVG Export Plug-In . SVG Version: 6.00 Build 0)  -->
<svg version="1.1" id="Layer_1" xmlns="http://www.w3.org/2000/svg" xmlns:xlink="http://www.w3.org/1999/xlink" x="0px" y="0px"
	 viewBox="0 0 96.9 35.1" style="enable-background:new 0 0 96.9 35.1;" xml:space="preserve">
<style type="text/css">
	.st0{fill-rule:evenodd;clip-rule:evenodd;fill:#FFFFFF;}
	.st1{fill:#FFFFFF;}
</style>
<path class="st0" d="M14.3,35.1c4,0,7.4-0.6,10.3-1.8L26,31l-0.9-1.6l-1,0.3l0.7-1.6l-0.3-0.9l0.2-2.4l-6.9,7.2l-2.5-0.7L14,28.5
	L11.9,30l-2.1-1.2l-3.5,2.8l2.4-3.9l-1.5-2l1.1-7.5L0,26.9v8.2H14.3z"/>
<path class="st1" d="M0,23.9v-1.3"/>
<path class="st0" d="M14.3,35.1c4,0,7.4-0.6,10.3-1.8L26,31l-0.9-1.6l-1,0.3l0.7-1.6l-0.3-0.9l0.2-2.4l-6.9,7.2l-2.5-0.7L14,28.5
	L11.9,30l-2.1-1.2l-3.5,2.8l2.4-3.9l-1.5-2l1.1-7.5L0,26.9v8.2H14.3z"/>
<path class="st1" d="M21.2,24.3L8.6,13.1V6.5h5.5c3.7,0,6.5,1,8.4,2.9s2.9,4.6,2.9,8c0,1.1-0.5,3-0.5,3S21.2,24.3,21.2,24.3z
	 M34.4,17.5c0-5.1-1.7-9.3-5.1-12.5s-8.1-4.8-14-4.8H0v23.7l8.6-9.3l12.7,11.3l3.6-3.6l6,6.2C33.2,25.6,34.4,22,34.4,17.5z
	 M40.3,0.2H44c1.2,0,2.2,0.3,2.8,1s0.9,1.6,0.9,2.9v8c0,1.3-0.3,2.2-0.9,2.9s-1.5,1-2.8,1h-3.8V0.2z M44,13.8c0.4,0,0.7-0.1,0.9-0.4
	c0.2-0.2,0.3-0.6,0.3-1.2V4c0-0.5-0.1-0.9-0.3-1.2S44.4,2.5,44,2.5h-1.3v11.3L44,13.8L44,13.8z M49.4,0.2h2.5V16h-2.5V0.2z
	 M54.5,15.2c-0.6-0.7-1-1.7-1-2.9V4c0-1.3,0.3-2.3,1-3c0.6-0.7,1.6-1,2.8-1s2.1,0.3,2.8,1s1,1.7,1,3v1.3h-2.3V3.8
	c0-1-0.4-1.6-1.3-1.6S56,2.8,56,3.8v8.6c0,1,0.4,1.5,1.3,1.5s1.3-0.5,1.3-1.5V9.4h-1.2V7.1H61v5.2c0,1.3-0.3,2.3-1,2.9
	c-0.6,0.7-1.5,1-2.8,1C56.1,16.2,55.2,15.9,54.5,15.2z M62.6,0.2h2.5V16h-2.5V0.2z M68.9,2.5h-2.6V0.2h7.7v2.3h-2.6V16h-2.5V2.5z
	 M76,0.2h3.4L81.9,16h-2.5L79,12.9v0.1h-2.8L75.8,16h-2.3L76,0.2z M78.7,10.8L77.6,3h-0.1l-1.1,7.8C76.5,10.8,78.7,10.8,78.7,10.8z
	 M83.2,0.2h2.5v13.5h4.1V16h-6.6V0.2z M40.3,19h3.1l2.4,9.5h0V19h2.2v15.8h-2.6l-3-11.5h0v11.5h-2.2C40.3,34.8,40.3,19,40.3,19z
	 M50.7,34c-0.7-0.7-1-1.7-1-2.9v-8.3c0-1.3,0.3-2.2,1-2.9s1.6-1,2.8-1c1.2,0,2.2,0.4,2.8,1c0.7,0.7,1,1.7,1,2.9v8.3
	c0,1.3-0.3,2.2-1,2.9s-1.6,1-2.8,1C52.3,35.1,51.3,34.7,50.7,34z M54.8,31.2v-8.6c0-1-0.4-1.6-1.3-1.6s-1.3,0.5-1.3,1.6v8.6
	c0,1,0.4,1.6,1.3,1.6S54.8,32.3,54.8,31.2z M58.9,19h3.5l1.6,11.3h0.1L65.7,19h3.5v15.8h-2.3v-12h-0.1l-1.8,12h-2.1l-1.8-12h0v12
	h-2.2C58.9,34.8,58.9,19,58.9,19z M73,19h3.4l2.6,15.8h-2.5L76,31.7v0h-2.8l-0.4,3.1h-2.3L73,19z M75.7,29.6l-1.1-7.8h-0.1l-1.1,7.8
	C73.5,29.6,75.7,29.6,75.7,29.6z M80.1,19h3.8c1.2,0,2.2,0.3,2.8,1c0.6,0.7,0.9,1.6,0.9,2.9v8c0,1.3-0.3,2.2-0.9,2.9s-1.5,1-2.8,1
	h-3.8V19z M83.9,32.6c0.4,0,0.7-0.1,0.9-0.4c0.2-0.2,0.3-0.6,0.3-1.2v-8.2c0-0.5-0.1-0.9-0.3-1.2s-0.5-0.4-0.9-0.4h-1.3v11.3
	L83.9,32.6L83.9,32.6z M89.8,34c-0.6-0.7-0.9-1.7-0.9-3v-0.9h2.3v1.1c0,1,0.4,1.5,1.3,1.5c0.4,0,0.7-0.1,1-0.4s0.3-0.6,0.3-1.2
	c0-0.7-0.2-1.2-0.4-1.8c-0.3-0.5-0.9-1.1-1.7-1.8c-1-0.9-1.7-1.7-2.1-2.5c-0.4-0.7-0.6-1.5-0.6-2.5c0-1.2,0.3-2.2,0.9-2.9
	s1.6-1,2.8-1c1.2,0,2.1,0.3,2.7,1s0.9,1.7,0.9,3v0.6h-2.3v-0.8c0-0.5-0.1-0.9-0.3-1.2s-0.5-0.4-0.9-0.4c-0.8,0-1.2,0.5-1.2,1.5
	c0,0.6,0.2,1.1,0.5,1.6c0.3,0.5,0.9,1.1,1.7,1.8c1,0.9,1.8,1.7,2.1,2.5c0.4,0.7,0.6,1.6,0.6,2.6c0,1.3-0.3,2.3-1,3
	c-0.6,0.7-1.6,1-2.8,1C91.3,35.1,90.4,34.7,89.8,34z M95.4,10.8V10h0.8v0.8H95.4z M90.7,9.2V7.9c0-0.4,0.1-0.8,0.3-1s0.6-0.3,1-0.3
	h2.8c0.4,0,0.8,0.1,1,0.3c0.2,0.2,0.3,0.5,0.3,1v1.3L90.7,9.2L90.7,9.2z M95.5,7.9c0-0.1,0-0.2-0.1-0.3c-0.1-0.1-0.2-0.1-0.4-0.1H92
	c-0.2,0-0.3,0-0.4,0.1s-0.1,0.2-0.1,0.3v0.4h4V7.9z M90.7,5.9V3.5h0.8v1.5H93V3.9h0.8v1.2h1.7V3.5h0.8v2.4
	C96.3,5.9,90.7,5.9,90.7,5.9z M90.7,3.2V2.3L95,1.8v0l-4.3-0.6V0.4l5.6,0.8v1.2L90.7,3.2z"/>
</svg>
