<?xml version="1.0" encoding="utf-8"?>
<!-- Generator: Adobe Illustrator 26.1.0, SVG Export Plug-In . SVG Version: 6.00 Build 0)  -->
<svg version="1.1" id="Layer_1" xmlns="http://www.w3.org/2000/svg" xmlns:xlink="http://www.w3.org/1999/xlink" x="0px" y="0px"
	 viewBox="0 0 299.7 274" style="enable-background:new 0 0 299.7 274;" xml:space="preserve">
<style type="text/css">
	.st0{fill:none;stroke:#FFFFFF;stroke-width:4;stroke-miterlimit:10;}
	.st1{fill:none;stroke:#FFFFFF;stroke-width:3;stroke-miterlimit:10;}
	.st2{fill:none;stroke:#FFFFFF;stroke-width:2;stroke-miterlimit:10;}
	.st3{fill:none;stroke:#FFFFFF;stroke-miterlimit:10;}
	.st4{fill:none;stroke:#FFFFFF;stroke-width:6;stroke-miterlimit:10;}
</style>
<path class="st0" d="M24.3,273.6c5-19,9.9-38,13.1-57.3c3.9-23.3,2.9-46.8,5.5-70.2c0.9-7.8,2.2-15.6,4.3-23.2
	c22.7-82.1,123.3-84,192.2-84c20.3,0,40.4-2.5,60.3-6.6"/>
<path class="st1" d="M39.7,274.3c6-22.7,14.2-44.7,17.2-68.2c3.6-28.8,5.6-58.7,19.2-84.9c8.7-16.7,22.9-29.7,39.3-38.7
	c18.9-10.3,40.2-14.2,61.3-17.2c41-5.9,82.3-4.9,123-12.9"/>
<path class="st2" d="M103.9,273.6c7-11,13.6-22.2,19.1-34.1c6.4-13.8,16.1-49.6,36.1-48.5c21.1,1.2,15.2,34.7,15.3,47.7
	c0.2,11.6,1,23.2,1.5,34.8"/>
<path class="st3" d="M122.5,273.6c0.3-0.6,0.7-1.2,1-1.8c5.5-9.8,10.5-23,22.1-26.8c2.8-0.9,6.2-0.6,8.3,1.5
	c2.7,2.7,2.2,7.1,1.5,10.9c-1,5.4-2.2,10.8-3.5,16.2"/>
<path class="st0" d="M76.1,273.6c8.1-12.2,15.9-24.7,23.3-37.3c13.1-22.3,22.9-52.9,41.3-71.3c8.5-8.5,22.2-13.3,32.7-7.5
	c13.7,7.6,18,27.3,21.5,41.2c6.2,25.2,13.3,50.1,20.6,74.9"/>
<path class="st3" d="M56.9,273.6c7.1-15.2,13.9-30.6,18.3-46.9c8.5-31.1,10.1-65.4,29.9-92.1c26.8-36.2,69.2-44.5,111-52.2
	c27.7-5.1,55.7-9.1,83.6-13.3"/>
<path class="st0" d="M274.1,106.8c-4.7-3.2-10.7-4.4-18.3-2.3c-17,4.6-31.5,20-50.2,17.4c-6.2-0.9-13.5-1.9-19.7,0.2
	c-9.3,3.2-7.6,13.5-3.6,20.5c4.3,7.7,11.1,11.6,19,15.1c6.8,3,12.5,7,15.6,14c3.8,8.7,3.7,19.1,10.7,26.3c5.7,5.7,14.8,7.2,22.5,4.9
	c24.7-7.3,36.6-43,36.3-66.1C286.3,124.6,282.4,112.5,274.1,106.8z"/>
<path class="st2" d="M223.4,131.9c-4.8,1.6-10,4.7-9.5,10.5c0.2,2.4,1.3,4.6,2.6,6.6c5.3,7.8,14.7,11.8,23.7,13.5
	c7.1,1.3,14.6,3.4,21.8,1.9c11.2-2.5,11.9-13.7,9.9-23.1C267.3,118.9,238.8,126.6,223.4,131.9z"/>
<path class="st3" d="M257.2,139.8c-1.2-0.7-2.6-1.1-4-0.7c-1.7,0.4-3.4,1.6-4.2,3.2c-1.2,2.4-1,5.3-0.4,7.9
	c1.2,5.4,9.5,5.5,13.8,5.4c1,0,2.1-0.1,3-0.6s1.7-1.3,1.8-2.3c0.1-0.8-0.2-1.6-0.6-2.4c-1.3-2.6-3.4-4.8-5.4-7
	C260.1,142,258.8,140.7,257.2,139.8z"/>
<path class="st4" d="M4.7,274.1c6-22.1,12.1-44.6,14.8-67.4c4.7-39.9-2.6-82.3,8.3-121.2C41,38.1,89.6,13.4,135.8,11
	c29-1.5,57.3,4.4,86,7.1c25.9,2.5,52.3,2,77.7-3.9"/>
</svg>
