<?xml version="1.0" encoding="utf-8"?>
<!-- Generator: Adobe Illustrator 26.1.0, SVG Export Plug-In . SVG Version: 6.00 Build 0)  -->
<svg version="1.1" id="Layer_1" xmlns="http://www.w3.org/2000/svg" xmlns:xlink="http://www.w3.org/1999/xlink" x="0px" y="0px"
	 viewBox="0 0 194.78 610.53" style="enable-background:new 0 0 194.78 610.53;" xml:space="preserve">
<style type="text/css">
	.st0{opacity:0.08;fill:none;stroke:#FFFFFF;stroke-width:8;stroke-miterlimit:10;}
	.st1{opacity:0.08;fill:none;stroke:#FFFFFF;stroke-width:5;stroke-miterlimit:10;}
	.st2{opacity:0.08;fill:none;stroke:#FFFFFF;stroke-width:3;stroke-miterlimit:10;}
	.st3{opacity:0.08;fill:none;stroke:#FFFFFF;stroke-width:2;stroke-miterlimit:10;}
</style>
<path class="st0" d="M-1603.81,865.47c6.11-5.13,11.85-10.33,17.12-15.33c60.05-56.99,100.71-156.15,41.64-229.04
	c-16.3-20.11-38.13-33.61-57.46-50.27c-18.56-15.98-32.17-37.73-38.12-61.51c-8.44-33.74-3.51-69.18-20.63-100.7
	c-10.53-19.39-27.03-35.59-46.53-46.04"/>
<path class="st0" d="M-1707.79,865.47"/>
<path class="st1" d="M-1707.79,860.88c62.87-30.41,117.99-70.99,133.12-145.38c3.21-15.76,4.47-32.11,1.49-47.92
	c-8.16-43.37-50.46-57.04-73.88-89.87c-17.51-24.54-21.9-55.73-26.84-85.46c-5.34-32.08-15.47-60.96-33.89-85.32"/>
<path class="st2" d="M-1707.79,808.68c33.49-17.39,62.88-43.93,82.75-75.55c16.85-26.82,26.07-62.35,6.44-90.31
	c-12.99-18.5-34.75-28.85-49.83-45.68c-23.6-26.32-23.03-68.75-39.36-99"/>
<path class="st3" d="M-1707.79,779.93c7.5-7.2,14.59-15.13,21.01-22c15.93-17.04,34.11-39.56,36.71-63.58
	c2.52-23.34-11.31-42.98-28.27-57.49c-10.37-8.88-20.58-17.2-29.44-26.53"/>
<path class="st3" d="M-1707.79,728.07c15.73-12.12,29.73-28.25,26.53-46.93c-2.55-14.9-14.78-23.12-26.53-31.68"/>
<path class="st0" d="M194.78,11.26c-21.79,15.72-41.07,34.57-52.59,58.16c-12.12,24.8-14.98,52.18-31.59,75.19
	c-21.14,29.28-53.34,46.88-71.96,78.65c-17.88,30.5-26.13,66.59-23.29,101.84c3.01,37.34,17.8,72.97,37.51,104.83
	c34.41,55.61,82.04,99.89,124.54,148.92c6.06,6.99,11.92,13.92,17.38,20.98"/>
<path class="st1" d="M194.78,48.29c-9.88,10.37-18.22,22.36-25.42,34.66c-15.1,25.79-23.49,56.03-41.82,79.71
	c-15.71,20.3-34.94,35.33-54.98,50.98c-36.28,28.33-52.75,66.57-38.11,112.05c14.8,45.98,47.15,84,82.43,115.91
	c24.32,22,50.65,43.17,77.9,62.5"/>
<path class="st1" d="M194.78,99.47c-18.84,27.96-32.88,58.79-50.23,87.65c-11.57,19.24-24.74,37.13-41.53,52.2
	c-11.12,9.98-22.72,19.8-30.69,32.43c-9.96,15.78-10.57,33.35-4.63,50.67c8.44,24.6,26.37,45.17,47.56,60.24
	c20.17,14.34,42.44,22.32,65.19,31.36c4.91,1.95,9.67,4.26,14.34,6.81"/>
<path class="st3" d="M194.78,176.32c-9.52,16.57-19.21,33.09-29.79,48.95c-13.45,20.17-30.62,37.29-47.94,54.1
	c-14.79,14.36-21.46,32.06-4.47,48.03c22.82,21.44,53.01,29.99,82.19,40.39"/>
<path class="st3" d="M194.78,243c-28.73,18.24-63.1,49.52-25.79,71.82c8.16,4.88,16.83,8.88,25.79,12.23"/>
</svg>
