<?xml version="1.0" encoding="utf-8"?>
<!-- Generator: Adobe Illustrator 26.1.0, SVG Export Plug-In . SVG Version: 6.00 Build 0)  -->
<svg version="1.1" id="Layer_1" xmlns="http://www.w3.org/2000/svg" xmlns:xlink="http://www.w3.org/1999/xlink" x="0px" y="0px"
	 viewBox="0 0 204.58 299.47" style="enable-background:new 0 0 204.58 299.47;" xml:space="preserve">
<style type="text/css">
	.st0{fill:#D7CCC8;}
	.st1{fill:#5D4037;}
	.st2{fill:#F06292;}
	.st3{fill:#C0CA33;}
	.st4{fill:#242630;}
</style>
<g>
	<g>
		<polygon class="st0" points="164.66,104.26 204.58,128.6 204.58,107.18 164.66,82.84 		"/>
		<polygon class="st1" points="164.66,131.52 204.58,107.18 204.58,128.6 164.66,152.93 		"/>
		<polygon class="st2" points="164.66,104.26 124.75,128.59 124.75,107.18 164.66,82.84 		"/>
		<polygon class="st3" points="164.66,131.52 124.75,107.18 124.75,128.59 164.66,152.93 		"/>
	</g>
	<polygon class="st4" points="164.66,104.26 141.78,117.56 164.66,131.52 187.01,117.89 	"/>
</g>
<g>
	<g>
		<polygon class="st0" points="89.97,31.78 149.19,67.89 149.19,36.11 89.97,0 		"/>
		<polygon class="st1" points="89.97,72.22 149.19,36.11 149.19,67.89 89.97,104 		"/>
		<polygon class="st2" points="89.97,31.78 30.74,67.88 30.74,36.11 89.97,0 		"/>
		<polygon class="st3" points="89.97,72.22 30.74,36.11 30.74,67.88 89.97,104 		"/>
	</g>
	<polygon class="st4" points="89.97,31.78 123.13,52 89.97,72.22 56.8,52 	"/>
</g>
<g>
	<g>
		<polygon class="st0" points="107.36,154.29 129.24,167.64 129.24,155.89 107.36,142.55 		"/>
		<polygon class="st1" points="107.36,169.24 129.24,155.89 129.24,167.64 107.36,180.98 		"/>
		<polygon class="st2" points="107.36,154.29 85.47,167.64 85.47,155.89 107.36,142.55 		"/>
		<polygon class="st3" points="107.36,169.24 85.47,155.89 85.47,167.64 107.36,180.98 		"/>
	</g>
	<polygon class="st4" points="107.36,154.29 95.35,161.61 107.36,169.24 119.61,161.76 	"/>
</g>
<g>
	<g>
		<g>
			<path class="st3" d="M23.54,296.51c0,0-0.83-0.56-2.41-1.62c-0.39-0.27-0.84-0.56-1.32-0.9c-0.45-0.38-0.95-0.79-1.49-1.23
				c-0.54-0.45-1.12-0.93-1.74-1.44c-0.57-0.57-1.17-1.18-1.81-1.83c-0.65-0.64-1.33-1.32-1.94-2.13c-0.63-0.79-1.33-1.6-2-2.48
				c-0.62-0.92-1.26-1.89-1.94-2.89c-0.64-1.02-1.2-2.15-1.83-3.29c-2.34-4.63-4.31-10.35-5.02-16.91
				c-0.12-1.64-0.36-3.32-0.32-5.04c-0.01-0.86-0.03-1.74-0.02-2.62c0.05-0.88,0.11-1.77,0.16-2.67c0.03-0.45,0.06-0.9,0.09-1.36
				c0.06-0.45,0.12-0.9,0.18-1.36c0.13-0.91,0.24-1.83,0.39-2.76c0.41-1.83,0.71-3.72,1.32-5.58c0.49-1.89,1.22-3.74,1.93-5.63
				c0.38-0.93,0.84-1.84,1.27-2.78c0.41-0.95,0.92-1.84,1.44-2.75c2.03-3.64,4.59-7.18,7.81-10.26c3.19-3.09,6.97-5.79,11.24-7.75
				c4.25-2.01,9.02-3.09,13.87-3.38c4.85-0.26,9.84,0.17,14.63,1.49c0.61,0.15,1.21,0.27,1.83,0.45c0.63,0.2,1.25,0.39,1.86,0.63
				c1.23,0.46,2.4,1.03,3.55,1.64c2.27,1.27,4.42,2.78,6.33,4.6c1.93,1.8,3.63,3.85,4.96,6.17c1.31,2.32,2.27,4.97,2.34,7.8
				c0.1,2.82-0.87,5.72-2.54,7.89c-1.64,2.22-3.8,3.78-5.98,4.99c-2.17,1.21-4.58,2.13-7.06,2.55c-2.48,0.42-5.04,0.39-7.44-0.17
				c-4.83-1.09-8.89-3.85-12.01-7.07c-3.14-3.24-5.5-6.96-7.24-10.77c-1.73-3.82-2.89-7.75-3.48-11.63
				c-1.22-7.74-0.13-15.34,2.91-21.32c0.74-1.5,1.64-2.87,2.57-4.16c0.98-1.25,1.98-2.43,3.09-3.44c2.18-2.06,4.55-3.64,6.88-4.82
				c4.7-2.35,9.14-3.26,12.73-3.77c3.61-0.48,6.43-0.46,8.33-0.47c1.9,0.06,2.9,0.1,2.9,0.1s-1,0.03-2.9,0.07
				c-1.89,0.13-4.7,0.26-8.24,0.92c-3.51,0.68-7.82,1.8-12.23,4.26c-4.36,2.45-8.77,6.46-11.35,12.18c-2.61,5.66-3.38,12.77-2.02,20
				c0.66,3.62,1.86,7.26,3.56,10.77c1.71,3.5,3.98,6.86,6.86,9.7c2.86,2.83,6.43,5.09,10.38,5.9c3.95,0.84,8.15-0.01,11.87-2.16
				c1.85-1.06,3.56-2.35,4.71-3.97c1.19-1.59,1.8-3.48,1.72-5.46c-0.05-1.98-0.77-4.03-1.85-5.93c-1.1-1.9-2.55-3.67-4.23-5.23
				c-1.66-1.58-3.55-2.92-5.52-4.02c-0.99-0.54-2.01-1.04-3.05-1.43c-0.52-0.21-1.04-0.38-1.56-0.54c-0.53-0.16-1.12-0.28-1.67-0.42
				c-4.46-1.27-9.03-1.67-13.44-1.5c-4.41,0.2-8.73,1.12-12.61,2.87c-3.89,1.71-7.38,4.09-10.38,6.87c-3.03,2.76-5.49,6-7.48,9.36
				c-0.51,0.84-1.02,1.67-1.42,2.55c-0.42,0.87-0.88,1.72-1.27,2.59c-0.72,1.77-1.47,3.49-1.98,5.28c-0.63,1.74-0.97,3.54-1.42,5.27
				c-0.17,0.88-0.3,1.76-0.46,2.62c-0.07,0.43-0.15,0.87-0.22,1.29c-0.04,0.43-0.09,0.86-0.13,1.29c-0.08,0.86-0.17,1.71-0.25,2.55
				c-0.02,0.85-0.05,1.68-0.07,2.51c-0.1,1.66,0.07,3.27,0.13,4.86c0.43,6.34,2.1,11.94,4.17,16.55c0.57,1.13,1.06,2.26,1.64,3.28
				c0.61,1.01,1.19,1.98,1.75,2.91c0.61,0.9,1.25,1.72,1.83,2.53c0.56,0.83,1.2,1.52,1.8,2.19c0.6,0.67,1.16,1.3,1.69,1.9
				c0.58,0.54,1.13,1.05,1.64,1.52c0.51,0.47,0.98,0.91,1.41,1.31c0.45,0.37,0.88,0.68,1.26,0.97
				C22.75,295.9,23.54,296.51,23.54,296.51z"/>
		</g>
		<g>
			<path class="st3" d="M28.81,299.47c-2.99-0.51-6.94-0.73-9.78-0.17l3.87-3.25l0.9-4.98C24.73,293.81,26.88,297.13,28.81,299.47z"
				/>
		</g>
	</g>
</g>
</svg>
