<?xml version="1.0" encoding="utf-8"?>
<!-- Generator: Adobe Illustrator 26.1.0, SVG Export Plug-In . SVG Version: 6.00 Build 0)  -->
<svg version="1.1" id="Layer_1" xmlns="http://www.w3.org/2000/svg" xmlns:xlink="http://www.w3.org/1999/xlink" x="0px" y="0px"
	 viewBox="0 0 60 60" style="enable-background:new 0 0 60 60;" xml:space="preserve">
<style type="text/css">
	.st0{fill:#2487C9;}
</style>
<path class="st0" d="M10.32,37.72l5.26-0.93l0.05-0.01l-2.71-3.22c-0.91-1.07-1.81-2.15-2.71-3.23c0-0.02,2.79-7.71,2.81-7.74
	c0-0.01,1.91,3.27,4.61,7.96l4.64,8.04l0.04,0.06l-8.6,0l-8.6,0L10.32,37.72L10.32,37.72z M43.31,36.94
	c-1.31-0.08-2.07-0.83-2.27-2.23c-0.05-0.37-0.05-0.38-0.06-2.79l0-2.33h1.16l0,2.26c0,2.03,0.01,2.27,0.03,2.42
	c0.08,0.58,0.24,0.97,0.5,1.25c0.21,0.22,0.46,0.36,0.81,0.43c0.16,0.03,0.63,0.03,0.78,0c0.35-0.08,0.63-0.23,0.88-0.48
	c0.28-0.28,0.49-0.69,0.59-1.14l0.03-0.15l0-2.28l0-2.28h1.18v7.15h-1.17V36.2c0-0.39,0-0.57-0.01-0.56
	c-0.03,0.03-0.05,0.07-0.07,0.1c-0.21,0.38-0.53,0.69-0.91,0.91C44.36,36.89,43.92,36.98,43.31,36.94L43.31,36.94z M56.61,36.94
	c-0.48-0.04-0.94-0.19-1.35-0.44c-0.84-0.52-1.33-1.37-1.48-2.55c-0.05-0.43-0.06-0.87-0.01-1.3c0.09-0.77,0.4-1.53,0.83-2.07
	c0.11-0.14,0.36-0.39,0.5-0.5c0.38-0.3,0.81-0.51,1.28-0.61c0.27-0.06,0.75-0.09,1.04-0.06c0.72,0.07,1.39,0.41,1.84,0.94
	c0.46,0.54,0.71,1.31,0.74,2.25c0.01,0.15,0.01,0.4,0,0.57l-0.01,0.31l-2.54,0l-2.54,0v0.11c0,0.34,0.08,0.74,0.23,1.07
	c0.12,0.29,0.34,0.6,0.52,0.75c0.36,0.31,0.81,0.5,1.29,0.54c0.18,0.02,0.63,0,0.84-0.03c0.57-0.09,1.12-0.31,1.59-0.65
	c0.05-0.04,0.1-0.08,0.11-0.08c0.01-0.01,0.02,0.1,0.02,0.53v0.54l-0.12,0.07c-0.52,0.32-1.1,0.52-1.7,0.59
	C57.5,36.94,56.83,36.95,56.61,36.94L56.61,36.94z M58.81,32.39c0-0.58-0.24-1.22-0.59-1.55c-0.25-0.24-0.56-0.39-0.9-0.43
	c-0.23-0.02-0.47-0.02-0.7,0.02c-0.37,0.07-0.68,0.24-0.95,0.5c-0.28,0.28-0.5,0.63-0.63,1c-0.05,0.16-0.09,0.33-0.12,0.49
	l-0.01,0.06h3.88L58.81,32.39z M24.41,36.75l1.91-5.03l1.91-5.01h1.23l0.05,0.13c0.16,0.4,3.82,9.92,3.82,9.92c0,0-0.29,0-0.65,0
	h-0.65l-0.53-1.41l-0.53-1.41h-4.25l-0.02,0.05l-0.5,1.41l-0.48,1.36h-0.65C24.54,36.77,24.4,36.77,24.41,36.75z M30.58,32.89
	c0,0-0.35-0.97-0.79-2.14c-0.81-2.2-0.86-2.33-0.92-2.68c-0.03-0.17-0.05-0.17-0.06-0.02c-0.01,0.11-0.07,0.35-0.11,0.48
	c-0.02,0.07-0.39,1.07-0.81,2.23c-0.26,0.71-0.52,1.41-0.78,2.12c0,0.01,0.78,0.01,1.74,0.01C29.8,32.89,30.58,32.89,30.58,32.89z
	 M33.72,36.59V36.4l2.12-2.91l2.12-2.91l-1.92-0.01l-1.92-0.01l0-0.49l0-0.49h5.55v0.33l-2.12,2.93c-0.71,0.98-1.42,1.96-2.12,2.94
	c0,0,0.94,0.01,2.1,0.01h2.09v0.98h-5.9L33.72,36.59z M49.28,36.76c-0.01,0-0.01-1.62-0.01-3.59v-3.58h1.16v0.74
	c0,0.41,0,0.74,0.01,0.74c0.03-0.05,0.05-0.1,0.06-0.15c0.13-0.38,0.36-0.72,0.65-1c0.25-0.24,0.57-0.4,0.92-0.45
	c0.1-0.02,0.18-0.02,0.38-0.01c0.25,0.01,0.38,0.02,0.53,0.07l0.05,0.02v1.2l-0.14-0.07c-0.24-0.12-0.5-0.17-0.77-0.15
	c-0.49,0.01-0.93,0.27-1.19,0.69c-0.25,0.4-0.43,0.92-0.48,1.39c-0.01,0.09-0.02,0.78-0.02,2.15l0,2.02h-0.57
	C49.54,36.77,49.28,36.77,49.28,36.76L49.28,36.76z M0,36.74c0,0,1.28-2.22,2.83-4.92l2.83-4.91l3.3-2.77
	c1.82-1.52,3.31-2.77,3.31-2.78c-0.01,0.05-0.03,0.09-0.05,0.13l-3.59,7.69l-3.52,7.55l-2.56,0C1.15,36.74,0,36.74,0,36.74z"/>
</svg>
