<?xml version="1.0" encoding="utf-8"?>
<!-- Generator: Adobe Illustrator 26.1.0, SVG Export Plug-In . SVG Version: 6.00 Build 0)  -->
<svg version="1.1" id="Layer_1" xmlns="http://www.w3.org/2000/svg" xmlns:xlink="http://www.w3.org/1999/xlink" x="0px" y="0px"
	 viewBox="0 0 60 60" style="enable-background:new 0 0 60 60;" xml:space="preserve">
<style type="text/css">
	.st0{fill:#04ACD7;}
</style>
<g>
	<path class="st0" d="M4.53,25.58c-0.12,0-0.15-0.06-0.09-0.15l0.61-0.79c0.06-0.09,0.2-0.15,0.32-0.15H15.8
		c0.12,0,0.15,0.09,0.09,0.18l-0.5,0.76c-0.06,0.09-0.2,0.18-0.29,0.18L4.53,25.58z M0.12,28.27c-0.12,0-0.15-0.06-0.09-0.15
		l0.61-0.79c0.06-0.09,0.2-0.15,0.32-0.15h13.32c0.12,0,0.18,0.09,0.15,0.18l-0.23,0.7c-0.03,0.12-0.15,0.18-0.26,0.18L0.12,28.27z
		 M7.19,30.95c-0.12,0-0.15-0.09-0.09-0.18l0.41-0.73c0.06-0.09,0.18-0.18,0.29-0.18h5.84c0.12,0,0.18,0.09,0.18,0.2l-0.06,0.7
		c0,0.12-0.12,0.2-0.2,0.2L7.19,30.95z"/>
	<g id="CXHf1q_00000134223225330788102210000014709653728388371081_">
		<path class="st0" d="M37.51,25.05c-1.84,0.47-3.1,0.82-4.91,1.29c-0.44,0.12-0.47,0.15-0.85-0.29c-0.44-0.5-0.76-0.82-1.37-1.11
			c-1.84-0.91-3.62-0.64-5.29,0.44c-1.99,1.29-3.01,3.18-2.98,5.55c0.03,2.34,1.64,4.27,3.94,4.59c1.99,0.26,3.65-0.44,4.97-1.93
			c0.26-0.32,0.5-0.67,0.79-1.08h-5.64c-0.61,0-0.76-0.38-0.56-0.88c0.38-0.91,1.08-2.42,1.49-3.18c0.09-0.18,0.29-0.47,0.73-0.47
			h10.63c-0.06,0.79-0.06,1.58-0.18,2.37c-0.32,2.1-1.11,4.03-2.4,5.73c-2.1,2.78-4.85,4.5-8.33,4.97
			c-2.86,0.38-5.52-0.18-7.86-1.93c-2.16-1.64-3.39-3.8-3.71-6.49c-0.38-3.18,0.56-6.05,2.48-8.56c2.07-2.72,4.82-4.44,8.18-5.05
			c2.75-0.5,5.38-0.18,7.74,1.43c1.55,1.02,2.66,2.42,3.39,4.12C37.98,24.82,37.86,24.97,37.51,25.05L37.51,25.05z"/>
		<path class="st0" d="M47.18,41.21c-2.66-0.06-5.08-0.82-7.13-2.57c-1.72-1.49-2.8-3.39-3.16-5.64c-0.53-3.3,0.38-6.22,2.37-8.82
			c2.13-2.8,4.7-4.27,8.18-4.88c2.98-0.53,5.78-0.23,8.33,1.49c2.31,1.58,3.74,3.71,4.12,6.51c0.5,3.94-0.64,7.16-3.36,9.9
			c-1.93,1.96-4.29,3.18-7.01,3.74C48.73,41.09,47.94,41.12,47.18,41.21L47.18,41.21z M54.13,29.41c-0.03-0.38-0.03-0.67-0.09-0.96
			c-0.53-2.89-3.18-4.53-5.96-3.89c-2.72,0.61-4.47,2.34-5.11,5.08c-0.53,2.28,0.58,4.59,2.69,5.52c1.61,0.7,3.21,0.61,4.76-0.18
			C52.73,33.79,53.99,31.92,54.13,29.41z"/>
	</g>
</g>
</svg>
