<?xml version="1.0" encoding="utf-8"?>
<!-- Generator: Adobe Illustrator 26.1.0, SVG Export Plug-In . SVG Version: 6.00 Build 0)  -->
<svg version="1.1" id="Layer_1" xmlns="http://www.w3.org/2000/svg" xmlns:xlink="http://www.w3.org/1999/xlink" x="0px" y="0px"
	 viewBox="0 0 60 60" style="enable-background:new 0 0 60 60;" xml:space="preserve">
<style type="text/css">
	.st0{fill:#68A063;}
	.st1{fill-rule:evenodd;clip-rule:evenodd;fill:#333333;}
	.st2{fill-rule:evenodd;clip-rule:evenodd;fill:#68A063;}
</style>
<g>
	<path class="st0" d="M29.66,48.37c-0.2,0-0.39-0.05-0.57-0.15l-1.81-1.07c-0.27-0.15-0.14-0.2-0.05-0.24
		c0.36-0.13,0.43-0.15,0.82-0.37c0.04-0.02,0.09-0.01,0.13,0.01l1.39,0.82c0.05,0.03,0.12,0.03,0.17,0l5.42-3.13
		c0.05-0.03,0.08-0.09,0.08-0.15v-6.25c0-0.06-0.03-0.12-0.08-0.15l-5.42-3.12c-0.05-0.03-0.12-0.03-0.17,0l-5.42,3.12
		c-0.05,0.03-0.09,0.09-0.09,0.15v6.25c0,0.06,0.03,0.12,0.08,0.15l1.48,0.86c0.81,0.4,1.3-0.07,1.3-0.55v-6.17
		c0-0.09,0.07-0.16,0.16-0.16h0.69c0.09,0,0.16,0.07,0.16,0.16v6.17c0,1.07-0.59,1.69-1.6,1.69c-0.31,0-0.56,0-1.25-0.34l-1.42-0.82
		c-0.35-0.21-0.57-0.58-0.57-0.99v-6.25c0-0.41,0.22-0.79,0.57-0.99l5.42-3.13c0.34-0.19,0.8-0.19,1.14,0l5.42,3.13
		c0.35,0.2,0.57,0.58,0.57,0.99v6.25c0,0.41-0.22,0.78-0.57,0.99l-5.42,3.13C30.05,48.32,29.86,48.37,29.66,48.37"/>
	<path class="st0" d="M31.33,44.07c-2.37,0-2.87-1.09-2.87-2c0-0.09,0.07-0.16,0.16-0.16h0.7c0.08,0,0.14,0.06,0.15,0.13
		c0.11,0.71,0.42,1.07,1.85,1.07c1.14,0,1.63-0.26,1.63-0.86c0-0.35-0.14-0.61-1.91-0.78c-1.48-0.15-2.4-0.47-2.4-1.66
		c0-1.09,0.92-1.74,2.47-1.74c1.73,0,2.59,0.6,2.7,1.9c0.01,0.09-0.06,0.16-0.14,0.17c0,0-0.01,0-0.01,0h-0.7
		c-0.07,0-0.14-0.05-0.15-0.12c-0.17-0.75-0.58-0.99-1.69-0.99c-1.25,0-1.39,0.43-1.39,0.76c0,0.39,0.17,0.51,1.85,0.73
		c1.67,0.22,2.46,0.53,2.46,1.7C34.02,43.39,33.04,44.07,31.33,44.07 M37.92,37.44h0.18c0.15,0,0.18-0.1,0.18-0.17
		c0-0.16-0.11-0.16-0.17-0.16h-0.19L37.92,37.44z M37.7,36.93h0.4c0.14,0,0.41,0,0.41,0.31c0,0.22-0.14,0.26-0.22,0.29
		c0.16,0.01,0.17,0.12,0.19,0.27c0.01,0.09,0.03,0.25,0.06,0.31H38.3c-0.01-0.05-0.04-0.35-0.04-0.37c-0.02-0.07-0.04-0.1-0.12-0.1
		h-0.2v0.47H37.7V36.93z M37.22,37.51c0,0.49,0.39,0.88,0.87,0.88c0.49,0,0.88-0.4,0.88-0.88c0-0.49-0.4-0.87-0.88-0.87
		C37.61,36.64,37.21,37.02,37.22,37.51 M39.14,37.51c0,0.58-0.47,1.04-1.04,1.04c-0.57,0-1.04-0.46-1.04-1.04
		c0-0.59,0.49-1.04,1.04-1.04C38.65,36.47,39.13,36.92,39.14,37.51"/>
	<path class="st1" d="M12.88,23.91c0-0.25-0.13-0.48-0.35-0.6L6.78,20c-0.1-0.06-0.2-0.09-0.32-0.09H6.41
		c-0.11,0-0.22,0.03-0.32,0.09l-5.74,3.31C0.13,23.43,0,23.66,0,23.91l0.01,8.9c0,0.12,0.06,0.24,0.17,0.3
		c0.11,0.07,0.24,0.07,0.34,0l3.42-1.96c0.22-0.13,0.35-0.36,0.35-0.6v-4.16c0-0.25,0.13-0.48,0.35-0.6l1.45-0.84
		c0.11-0.06,0.23-0.09,0.35-0.09c0.12,0,0.24,0.03,0.35,0.09l1.45,0.84c0.22,0.12,0.35,0.35,0.35,0.6v4.16
		c0,0.25,0.13,0.47,0.35,0.6l3.41,1.95c0.11,0.06,0.24,0.06,0.35,0c0.11-0.06,0.17-0.18,0.17-0.3L12.88,23.91z M39.99,28.54
		c0,0.06-0.03,0.12-0.09,0.15l-1.97,1.14c-0.05,0.03-0.12,0.03-0.17,0l-1.97-1.14c-0.05-0.03-0.09-0.09-0.09-0.15v-2.28
		c0-0.06,0.03-0.12,0.09-0.15l1.97-1.14c0.05-0.03,0.12-0.03,0.17,0l1.97,1.14c0.05,0.03,0.09,0.09,0.09,0.15L39.99,28.54z
		 M40.52,11.67c-0.11-0.06-0.24-0.06-0.35,0c-0.11,0.06-0.17,0.18-0.17,0.3v8.82c0,0.13-0.11,0.24-0.24,0.24
		c-0.04,0-0.08-0.01-0.12-0.03l-1.44-0.83c-0.21-0.12-0.48-0.12-0.69,0l-5.75,3.32c-0.21,0.12-0.35,0.35-0.35,0.6v6.64
		c0,0.25,0.13,0.48,0.35,0.6l5.75,3.32c0.21,0.12,0.48,0.12,0.69,0l5.75-3.32c0.21-0.12,0.35-0.35,0.35-0.6V14.18
		c0-0.25-0.14-0.48-0.36-0.61L40.52,11.67z M59.66,26.21c0.21-0.12,0.34-0.35,0.34-0.6V24c0-0.25-0.13-0.48-0.35-0.6l-5.71-3.31
		c-0.22-0.12-0.48-0.12-0.7,0L47.5,23.4c-0.22,0.12-0.35,0.35-0.35,0.6v6.63c0,0.25,0.13,0.48,0.35,0.6l5.71,3.25
		c0.21,0.12,0.47,0.12,0.68,0l3.45-1.92c0.11-0.06,0.18-0.18,0.18-0.3s-0.07-0.24-0.17-0.3l-5.78-3.32
		c-0.11-0.06-0.17-0.18-0.17-0.3v-2.08c0-0.12,0.07-0.24,0.17-0.3l1.8-1.04c0.11-0.06,0.24-0.06,0.35,0l1.8,1.04
		c0.11,0.06,0.17,0.18,0.17,0.3v1.64c0,0.12,0.07,0.24,0.17,0.3c0.11,0.06,0.24,0.06,0.35,0L59.66,26.21z"/>
	<path class="st2" d="M53.51,25.9c0.04-0.02,0.09-0.02,0.13,0l1.1,0.64c0.04,0.02,0.07,0.07,0.07,0.12v1.27
		c0,0.05-0.03,0.09-0.07,0.12l-1.1,0.64c-0.04,0.02-0.09,0.02-0.13,0l-1.1-0.64c-0.04-0.02-0.07-0.07-0.07-0.12v-1.27
		c0-0.05,0.02-0.09,0.07-0.12L53.51,25.9z"/>
	<path class="st2" d="M21.82,20.08c0.21-0.12,0.48-0.12,0.69,0l5.73,3.3c0.21,0.12,0.35,0.35,0.35,0.6v6.62
		c0,0.25-0.13,0.47-0.35,0.6l-5.73,3.3c-0.21,0.12-0.48,0.12-0.69,0l-5.72-3.3c-0.22-0.12-0.35-0.35-0.35-0.6v-6.62
		c0-0.25,0.13-0.47,0.35-0.6L21.82,20.08z"/>
</g>
</svg>
