<?xml version="1.0" encoding="utf-8"?>
<!-- Generator: Adobe Illustrator 26.1.0, SVG Export Plug-In . SVG Version: 6.00 Build 0)  -->
<svg version="1.1" id="Layer_1" xmlns="http://www.w3.org/2000/svg" xmlns:xlink="http://www.w3.org/1999/xlink" x="0px" y="0px"
	 viewBox="0 0 331.43 285.35" style="enable-background:new 0 0 331.43 285.35;" xml:space="preserve">
<style type="text/css">
	.st0{fill:#242630;}
	.st1{fill:#FFFFFF;}
	.st2{fill:#E6E6E6;}
	.st3{fill:none;stroke:#FAF7FF;stroke-miterlimit:10;}
	.st4{fill:#FFA895;}
	.st5{fill:none;stroke:#242630;stroke-width:2;stroke-linecap:round;stroke-linejoin:round;stroke-miterlimit:10;}
	.st6{fill:none;stroke:#F76D6D;stroke-linecap:round;stroke-linejoin:round;stroke-miterlimit:10;}
	.st7{fill:#7CCB73;}
	.st8{fill:#26C6DA;}
	.st9{fill:#FDD835;}
	.st10{fill:none;stroke:#FAF7FF;stroke-width:2;stroke-linecap:round;stroke-linejoin:round;stroke-miterlimit:10;}
	.st11{fill:none;stroke:#FFFFFF;stroke-width:2;stroke-miterlimit:10;}
	.st12{fill:#FB5151;}
	.st13{fill:#DFDF38;}
	.st14{opacity:0.2;fill:#FFFFFF;}
	.st15{fill:none;stroke:#FFFFFF;stroke-width:2;stroke-linecap:round;stroke-linejoin:round;stroke-miterlimit:10;}
	.st16{fill:#7E57C2;}
	.st17{fill:none;stroke:#FDD835;stroke-width:2;stroke-linecap:round;stroke-linejoin:round;stroke-miterlimit:10;}
	.st18{fill:#FAF7FF;}
	.st19{opacity:0.5;fill:none;stroke:#FFFFFF;stroke-linecap:round;stroke-linejoin:round;stroke-miterlimit:10;}
	.st20{fill:none;stroke:#FFFFFF;stroke-linecap:round;stroke-linejoin:round;stroke-miterlimit:10;}
	.st21{fill:none;stroke:#242630;stroke-linecap:round;stroke-linejoin:round;stroke-miterlimit:10;}
	.st22{fill:#00838F;}
	.st23{fill-rule:evenodd;clip-rule:evenodd;fill:#00838F;}
</style>
<path class="st0" d="M155.71,218.29h65.24c2.1,0,3.97-1.31,4.69-3.28l12.33-33.57c1.2-3.26-1.22-6.72-4.69-6.72h-65.24
	c-2.1,0-3.97,1.31-4.69,3.28l-12.33,33.57C149.82,214.83,152.24,218.29,155.71,218.29z"/>
<g>
	<path class="st1" d="M152.71,216.79c-2.12,0-4.12-1.04-5.33-2.78s-1.5-3.97-0.77-5.96l12.33-33.57c0.94-2.55,3.39-4.26,6.1-4.26
		h65.24c2.12,0,4.11,1.04,5.33,2.78c1.22,1.74,1.5,3.97,0.77,5.96l-12.33,33.57c-0.94,2.55-3.39,4.26-6.1,4.26H152.71z"/>
	<path class="st0" d="M230.28,171.72c3.48,0,5.89,3.46,4.69,6.72l-12.33,33.57c-0.72,1.97-2.6,3.28-4.69,3.28h-65.24
		c-3.48,0-5.89-3.46-4.69-6.72L160.35,175c0.72-1.97,2.6-3.28,4.69-3.28H230.28 M230.28,168.72h-65.24c-3.34,0-6.36,2.11-7.51,5.24
		l-12.33,33.57c-0.9,2.45-0.55,5.19,0.95,7.34c1.5,2.14,3.95,3.42,6.56,3.42h65.24c3.34,0,6.36-2.11,7.51-5.24l12.33-33.57
		c0.9-2.45,0.55-5.19-0.95-7.34C235.34,170,232.89,168.72,230.28,168.72L230.28,168.72z"/>
</g>
<path class="st1" d="M142.47,209.33H26.21c-2.76,0-5-2.24-5-5v-67.48c0-2.76,2.24-5,5-5h116.25c2.76,0,5,2.24,5,5v67.48
	C147.47,207.09,145.23,209.33,142.47,209.33z"/>
<path class="st0" d="M249.76,156.33h-86.28c-2.76,0-5-2.24-5-5V93.39c0-2.76,2.24-5,5-5h86.28c2.76,0,5,2.24,5,5v57.94
	C254.76,154.09,252.53,156.33,249.76,156.33z"/>
<path class="st0" d="M142.08,115.85H26.21c-2.76,0-5-2.24-5-5V34.82c0-2.76,2.24-5,5-5h115.87c2.76,0,5,2.24,5,5v76.03
	C147.08,113.62,144.84,115.85,142.08,115.85z"/>
<path class="st2" d="M21.21,153.11v53.11c0,6.37,5.17,11.54,11.54,11.54h102.72c6.37,0,11.54-5.17,11.54-11.54v-57.76l-6.98,13.19
	l-8.77,13.22l-5.85-7.75l-4.6-10.36h-11.49L95.4,146.67l-11.07-8.01H54.01l-6.41,15.51l-5.77-6.39l-3.6,6.04l-8.48-7.86h-4.1
	L21.21,153.11z"/>
<path class="st0" d="M67.45,162.29c-0.06,1.34-0.12,2.68-0.17,4.03c-0.02,0.57,0.64,1.17,1.22,0.93c0.78-0.32,1.56-0.24,2.37-0.07
	c0.94,0.2,1.88,0.42,2.81,0.63c1.72,0.39,3.44,0.86,5.19,0.39c2.69-0.73,4.78-3.07,6.09-5.43c0.71-1.27,1.17-2.79,0.7-4.22
	c-0.49-1.52-1.71-2.29-3.25-2.5c-3.1-0.44-6.28-0.2-9.28,0.71C70.84,157.45,66.12,159.06,67.45,162.29z"/>
<path class="st3" d="M86.13,116.52"/>
<ellipse transform="matrix(0.3827 -0.9239 0.9239 0.3827 -86.5376 155.1966)" class="st0" cx="72.87" cy="142.35" rx="21.54" ry="21.54"/>
<path class="st0" d="M80.45,127.61c1.08,1.51,2.6,2.92,4.2,3.81c1.84,1.01,3.95,0.94,5.97,1.03c0.95,0.04,1.97,0.18,2.88-0.17
	c0.11-0.04,0.21-0.09,0.31-0.15c0.31,0.03,0.63-0.06,0.84-0.31c1.34-1.68,2.48-3.7,2.48-5.96c0-1.92-0.88-3.93-2.52-4.92
	c-0.27-0.16-0.55-0.16-0.62-0.47c-0.08-0.34-0.05-0.72-0.12-1.07c-0.17-0.79-0.62-1.53-1.19-2.08c-1.16-1.12-2.82-1.64-4.39-1.43
	c-1.9,0.25-3.53,1.28-5.03,2.46c-1.39,1.08-2.89,2.24-3.6,3.95C78.9,124.11,79.34,126.06,80.45,127.61z"/>
<circle class="st4" cx="91.51" cy="145.45" r="14.07"/>
<path class="st4" d="M70.05,133.87c0,7.77,6.3,14.07,14.07,14.07c7.77,0,18.09-0.94,18.09-8.72c0-7.77-10.31-19.43-18.09-19.43
	C76.35,119.8,70.05,126.1,70.05,133.87z"/>
<path class="st4" d="M95.69,132.41c0.12,0.12,0.24,0.22,0.36,0.32c-0.3,0.27-0.45,0.7-0.19,1.16c0.99,1.73,2.01,3.47,3.36,4.97
	c1.06,1.17,3.17,3.2,4.7,1.55c0.55-0.59,0.7-1.44,0.71-2.22c0.02-1-0.03-2-0.06-3c-0.02-0.98-0.2-1.91-1.13-2.44
	c-0.72-0.4-1.58-0.36-2.37-0.41c-1.41-0.08-2.97-0.26-4.02-1.28C96.17,130.18,94.8,131.54,95.69,132.41z"/>
<path class="st0" d="M87.77,116.52c0,2.39,0.02,3.65-3.21,7.12c-3.23,3.47-4.79,3.19-4.79,3.19l6.98,9.21
	c1.14,1.5,1.53,3.45,1.05,5.28l-1.54,5.88l-10.58,4.94c0,0-23.53-2.23-23.67-15.17c-0.12-11.17,12.42-17.14,18.12-22.71
	c4.62-4.51,8.23-0.37,8.23-0.37s1.42-2.05,4.34-2.31C85.62,111.31,87.77,114.13,87.77,116.52z"/>
<ellipse transform="matrix(0.3827 -0.9239 0.9239 0.3827 -88.5437 165.7587)" class="st4" cx="79.77" cy="149.14" rx="6.9" ry="6.9"/>
<polygon class="st4" points="93.87,155.85 84.86,179.39 62,175.6 67.22,164.23 77.27,166.7 85.62,156.56 "/>
<path class="st5" d="M88.62,128.54c-0.37-0.29-0.48-0.75-0.48-1.2c0.02-1.23,0.85-2.3,1.9-2.87c0.49-0.27,1.03-0.45,1.58-0.59
	c0.62-0.16,1.3-0.29,1.92-0.08c0.73,0.25,1.34,0.9,1.33,1.7"/>
<path class="st0" d="M92.25,130.95c0.05-0.3,0.38-0.63,0.67-0.67c0.25-0.04,0.45-0.06,0.69,0.01c0.19,0.05,0.34,0.14,0.49,0.25
	c0.22,0.17,0.41,0.38,0.52,0.64c0.23,0.49,0.34,1.02,0.36,1.56c0,0.02,0.01,0.03,0.01,0.05c0.08,0.35-0.01,0.67-0.25,0.94
	c-0.28,0.32-0.74,0.42-1.15,0.31c-0.13-0.03-0.27-0.09-0.38-0.17c-0.21-0.15-0.3-0.24-0.46-0.45c-0.23-0.3-0.39-0.67-0.48-1.04
	c-0.06-0.23-0.09-0.47-0.1-0.71C92.18,131.42,92.22,131.19,92.25,130.95z"/>
<path class="st6" d="M100.97,142.35c1.09,0.72,3.2,0.83,3.64,2.29"/>
<path class="st6" d="M78.97,145.91c0.89,0.55,6.76,2.34,5.22,3.93c-1.32,1.36-3.76,1.44-5.39,2.4"/>
<path class="st7" d="M16,201.01c0,10.48,6.29,19.48,15.3,23.45l21.5,51.34l87.83,2.9c0,0-12.53-26.38-17.85-48.9
	c3.88-4.49,19.22-22.4,19.22-28.8c0-10.27-6.04-19.13-14.77-23.21c-2.19-1.46-5.9-2.73-13.21-3.75c-0.63-0.09-1.29-0.17-1.98-0.26
	c-5.18-0.64-11.97-1.17-20.96-1.57c-35.4-1.59-49.04,0.87-57.64,4.38c-0.62,0.25-1.2,0.51-1.78,0.77c-0.24,0.11-0.47,0.22-0.71,0.33
	c-0.03,0.01-0.05,0.03-0.08,0.04C22.09,181.81,16,190.69,16,201.01z"/>
<path class="st8" d="M165.34,182.67c-0.19,0.53-0.15,1.01,0.07,1.35c0.22,0.35,0.62,0.56,1.15,0.56h56.86
	c1.06,0,2.23-0.86,2.62-1.91c0.19-0.53,0.15-1.01-0.07-1.36c-0.22-0.34-0.62-0.56-1.15-0.56h-56.86
	C166.9,180.75,165.73,181.61,165.34,182.67z"/>
<path class="st9" d="M165.34,182.67c-0.19,0.53-0.15,1.01,0.07,1.35c0.22,0.35,0.62,0.56,1.15,0.56h22.23l1.4-3.83h-22.23
	C166.9,180.75,165.73,181.61,165.34,182.67z"/>
<path class="st8" d="M159.72,198.11c-0.19,0.53-0.15,1.01,0.07,1.35s0.62,0.56,1.15,0.56h56.86c1.06,0,2.23-0.86,2.62-1.91
	c0.19-0.53,0.15-1.01-0.07-1.36c-0.22-0.34-0.62-0.56-1.15-0.56h-56.86C161.28,196.19,160.11,197.05,159.72,198.11z"/>
<path class="st7" d="M159.72,198.11c-0.19,0.53-0.15,1.01,0.07,1.35s0.62,0.56,1.15,0.56h45.39l1.4-3.83h-45.39
	C161.28,196.19,160.11,197.05,159.72,198.11z"/>
<path class="st4" d="M165.82,225.81c0.06,0.2,0.17,0.36,0.29,0.5c0.01,0.17,0.01,0.34,0.02,0.5c0.09,1.47,2.38,1.48,2.29,0
	c0-0.08-0.01-0.17-0.01-0.26c1.02-0.33,2.02-0.86,2.89-1.42c4.24-2.69,6.71-7.16,8.6-11.66c1.69-4.05,2.95-8.67,1.54-12.92
	c-0.01-2.71,0.77-5.34,1.99-7.77c0.68-1.37,1.48-2.68,2.33-3.94c0.88-1.3,1.88-2.5,2.73-3.81c0.7-1.08,1.27-2.38,1.19-3.7
	c-0.07-1.24-0.58-2.44-1.6-3.19c-2.22-1.63-5.51,0.16-7.4,1.56c-4.19,3.11-6.61,7.98-8.6,12.67c-4.29,10.12-6.39,21.14-6.05,32.13
	C165.76,224.85,165.67,225.32,165.82,225.81z"/>
<path class="st4" d="M169.88,227.63c3.11,3.26,8.17,4.01,12.46,3.73c4.39-0.29,8.98-1.66,12.22-4.78c1.61-1.55,2.66-3.47,3.32-5.6
	c0.22-0.7,0.39-1.43,0.61-2.15c3.27,1.22,7.06-0.8,8.55-3.88c1.6-3.31,1.36-7.57-0.1-10.89c-1.59-3.63-4.36-5.42-7.77-6.85
	c-3.73-1.57-9.64-4.73-13.75-4.28c-3.6,0.4-6.64,3.24-9.33,5.57c-1.84,0.93-2.24,3.85-3.28,5.68c-1.58,2.77-2.9,5.69-3.95,8.7
	C167.21,217.65,166.03,223.58,169.88,227.63z"/>
<circle class="st7" cx="168.47" cy="255.86" r="22.85"/>
<path class="st7" d="M189.41,265.03c0,0,2.35-3.97,3.2-15.08c0.85-11.12,0-21.39,0-21.39s-0.54-6.71-10.28-8.75
	c-9.74-2.04-18.42,0.59-18.42,0.59s-15.59,18.82-16.28,30.52C146.94,262.62,189.41,265.03,189.41,265.03z"/>
<g>
	<defs>
		<path id="SVGID_1_" d="M149.86,242.6c4.47-10.63,14.05-22.2,14.05-22.2s8.68-2.63,18.42-0.59c9.74,2.04,10.28,8.75,10.28,8.75
			s0.85,10.28,0,21.39c-0.85,11.12-3.2,15.08-3.2,15.08c-3.55,8.05-11.59,13.67-20.94,13.67c-12.62,0-22.85-10.23-22.85-22.85
			C145.62,250.91,147.19,246.34,149.86,242.6z"/>
	</defs>
	<clipPath id="SVGID_00000017481327423951613000000005759878929992203441_">
		<use xlink:href="#SVGID_1_"  style="overflow:visible;"/>
	</clipPath>
</g>
<path class="st7" d="M131.4,180.26c0,0,1.91,1.1,22.43,26.96c20.52,25.85,33.11,40.65,33.11,40.65l-29.87,27.85l-56.43-49.07
	L131.4,180.26z"/>
<path class="st10" d="M116.75,238.13c5.38,5.49,10.83,10.89,16.36,16.22c5.53,5.33,11.14,10.57,16.83,15.73
	c3.2,2.9,6.41,5.77,9.66,8.62"/>
<path class="st7" d="M39.16,188.89c7.14,10.21,8.85,10.27,33.7,9.53c30.94-0.92,37.89-15.46,39.16-24.69
	c0.09-0.68,0.16-1.34,0.19-1.96c0.22-3.32,0.22-3.32,0.22-3.32s-3.23-2.68-31.51-7.44c-28.29-4.76-45.45-3.01-46.88-0.2
	C30.65,167.47,32.52,179.39,39.16,188.89z"/>
<path class="st7" d="M3.18,252.42l14.01-59.29l41.67,11.89l-12.54,57.62c-0.12,0.77-0.29,1.52-0.49,2.26l-0.02,0.1
	c-1.97,7.08-7.38,13.03-14.93,15.34c-11.74,3.59-24.16-3.02-27.75-14.76C1.76,261.13,1.88,256.56,3.18,252.42z"/>
<g>
	<defs>
		<path id="SVGID_00000097458171210772943490000005017871960828128140_" d="M3.18,252.42l14.06-59.32l41.62,11.93l-12.54,57.62
			c-0.12,0.77-0.29,1.52-0.49,2.26l-0.02,0.1c-1.97,7.08-7.38,13.03-14.93,15.34c-11.74,3.59-24.16-3.02-27.75-14.76
			C1.76,261.13,1.88,256.56,3.18,252.42z"/>
	</defs>
	<clipPath id="SVGID_00000148661432154085029130000015162332121200691602_">
		<use xlink:href="#SVGID_00000097458171210772943490000005017871960828128140_"  style="overflow:visible;"/>
	</clipPath>
</g>
<path class="st0" d="M29.12,285.29h82.33l-9.59-54.4c-2.09-11.83-12.37-20.46-24.39-20.46H45.43c-15.4,0-27.06,13.9-24.39,29.06
	L29.12,285.29z"/>
<path class="st0" d="M102.35,285.35h76.24c3.67,0,6.64-2.97,6.64-6.64c0-3.67-2.97-6.64-6.64-6.64h-76.24V285.35z"/>
<path class="st11" d="M169.81,119.61c2.23-2.74,4.95-5.85,8.61-6.53c4.97-0.92,9,3.13,12.45,6.05c4.11,3.48,9.9,10.89,15.94,7.9
	c3.66-1.82,7.16-4.02,11.28-4.6c4.21-0.59,8.63,0.09,12.48,1.91c4.69,2.23,8.6,6.24,10.69,11c0.28,0.63,0.53,1.27,0.75,1.92"/>
<rect x="235.76" y="122.01" transform="matrix(-1 -1.224647e-16 1.224647e-16 -1 479.2329 267.772)" class="st12" width="7.72" height="23.75"/>
<rect x="224.29" y="115.05" transform="matrix(-1 -1.224647e-16 1.224647e-16 -1 456.3102 253.8545)" class="st12" width="7.72" height="23.75"/>
<rect x="213.37" y="110.12" transform="matrix(-1 -1.224647e-16 1.224647e-16 -1 434.4526 243.9987)" class="st8" width="7.72" height="23.75"/>
<rect x="201.9" y="116.35" transform="matrix(-1 -1.224647e-16 1.224647e-16 -1 411.5297 256.4486)" class="st8" width="7.72" height="23.75"/>
<rect x="190.29" y="107.85" transform="matrix(-1 -1.224647e-16 1.224647e-16 -1 388.3041 239.4432)" class="st13" width="7.72" height="23.75"/>
<rect x="178.83" y="102.82" transform="matrix(-1 -1.224647e-16 1.224647e-16 -1 365.3813 229.3948)" class="st13" width="7.72" height="23.75"/>
<rect x="166.26" y="105.22" transform="matrix(-1 -1.224647e-16 1.224647e-16 -1 340.2415 234.1923)" class="st13" width="7.72" height="23.75"/>
<g>
	<path class="st8" d="M305.53,285.14L305.53,285.14c8.54,0,15.46-6.92,15.46-15.46v-15.67c0-2.76-2.24-5-5-5h-20.92
		c-2.76,0-5,2.24-5,5v15.67C290.07,278.21,297,285.14,305.53,285.14z"/>
	<path class="st8" d="M310.08,265.58c0,5.67,4.59,10.26,10.26,10.26c5.67,0,10.26-4.59,10.26-10.26c0-5.67-4.6-10.26-10.26-10.26
		C314.67,255.32,310.08,259.91,310.08,265.58z M314.67,265.58c0-3.13,2.54-5.67,5.67-5.67c3.13,0,5.67,2.54,5.67,5.67
		c0,3.13-2.54,5.67-5.67,5.67C317.21,271.25,314.67,268.71,314.67,265.58z"/>
	<path class="st14" d="M306.12,235.8c1.03-2.76,3.45-5.06,6.12-5.41c4.82-0.64,7.64-1.73,6.43-3.78c-0.54-0.91-1.18-1.88-1.57-2.56
		c-1.35-2.34-1.41-3.69-1.41-3.69c-0.03-0.21-0.05-0.41-0.05-0.63c0-2.5,2.03-4.53,4.53-4.53c2.3,0,4.2,1.72,4.49,3.94
		c0.03,0.2,0.04,0.4,0.04,0.59c0,0.53-0.1,1.04-0.27,1.52c-0.07,1.26-0.07,2.88,0.27,4.34c0.46,2.02,1.67,3.66,2.31,5.04
		c0.29,0.32,0.47,0.75,0.47,1.21c0,0.17-0.03,0.33-0.07,0.48c-0.54,4.48-5.72,2.54-7.16,7.42c-0.51,3.59-3.59,6.35-7.32,6.35
		c-4.09,0-7.4-3.32-7.4-7.4C305.53,237.67,305.74,236.69,306.12,235.8z"/>
</g>
<path class="st10" d="M51.59,193.05c-2.81-1.53-5.51-3.24-8.04-5.2c-4.01-3.1-7.58-6.86-10.11-11.26"/>
<path class="st10" d="M112.22,173.46c-2.32,0.22-4.63,0.66-6.87,1.29c-10.79,3.03-19.76,10.04-28.2,17.12"/>
<path class="st5" d="M179.48,240.71c-1.94-1.56-3.59-3.42-5.13-5.35c-1.67-2.11-3.28-4.28-4.91-6.42
	c-3.36-4.43-6.72-8.85-10.07-13.28c-1.91-2.52-10.44-13.11-12.36-15.63"/>
<path class="st6" d="M199.65,214.97c-1.08-0.7-0.05-2.05,0.3-2.86c0.25-0.58,0.38-1.15,0.43-1.78c0.07-0.8-0.21-1.65,0.32-2.33
	c0.37-0.48,1.03-0.75,1.59-0.91c0.86-0.25,2.78-0.45,3.05,0.76"/>
<line class="st15" x1="220.17" y1="98.51" x2="243.86" y2="98.51"/>
<line class="st15" x1="234.82" y1="103.19" x2="243.6" y2="103.19"/>
<line class="st15" x1="220.36" y1="103.19" x2="229.72" y2="103.19"/>
<path class="st16" d="M21.21,79.03v2.1c5.56-1.91,7.75-7.7,9.87-13.34c2.59-6.88,5.04-13.37,13.29-13.37c7.36,0,12.4,7.69,17,16.29
	c0.31,0.57,0.61,1.15,0.91,1.73c0.48,0.91,0.95,1.83,1.43,2.75c5.02,9.72,9.75,18.91,17.21,18.91c7.44,0,11.44-4.89,15.3-9.62
	c1.16-1.42,2.3-2.82,3.52-4.09c0.45-0.47,0.9-0.92,1.38-1.35c2.83-2.58,6.21-4.4,11.16-4.4c7.44,0,12.54,6.41,17.95,13.2
	c4.82,6.05,9.78,12.27,16.79,14.58v-2.07c-6.2-2.32-10.8-8.09-15.28-13.71c-5.45-6.85-11.09-13.93-19.46-13.93
	c-5.54,0-9.33,2.07-12.41,4.87c-0.48,0.43-0.94,0.88-1.39,1.35c-1.33,1.37-2.54,2.86-3.74,4.33c-3.74,4.58-7.28,8.91-13.81,8.91
	c-6.28,0-10.75-8.68-15.49-17.86c-0.52-1.01-1.05-2.03-1.57-3.03c-0.3-0.58-0.61-1.16-0.92-1.73c-4.83-9.01-10.22-17.05-18.56-17.05
	c-9.58,0-12.51,7.77-15.09,14.62C27.35,72.23,25.5,77.13,21.21,79.03z"/>
<path class="st17" d="M145.55,109.68c-5.47-2.62-9.7-7.91-13.81-13.09c-5.45-6.85-11.09-13.93-19.46-13.93
	c-4.94,0-8.31-2.17-11.16-5.25c-0.43-0.47-0.85-0.96-1.26-1.46c-1.25-1.53-2.41-3.22-3.59-4.93c-3.86-5.59-7.85-11.36-15.35-11.36
	c-7.19,0-11.93,3.62-16.94,7.46c-0.35,0.27-0.7,0.53-1.05,0.8c-0.52,0.39-1.03,0.78-1.56,1.17c-4.54,3.32-9.57,6.24-17,6.24
	c-9.41,0-12.36,4.15-14.98,7.81c-2.01,2.82-3.8,5.33-8.18,6.28"/>
<path class="st9" d="M21.21,34.82v6.67h125.8v-6.67c0-2.76-2.24-5-5-5H26.21C23.45,29.82,21.21,32.06,21.21,34.82z"/>
<g>
	<path class="st18" d="M124.02,33.08c-1.42,0-2.58,1.15-2.58,2.58c0,1.42,1.15,2.58,2.58,2.58c1.42,0,2.58-1.15,2.58-2.58
		C126.6,34.24,125.45,33.08,124.02,33.08z"/>
	<path class="st18" d="M131.73,33.08c-1.42,0-2.58,1.15-2.58,2.58c0,1.42,1.15,2.58,2.58,2.58c1.42,0,2.58-1.15,2.58-2.58
		C134.31,34.24,133.16,33.08,131.73,33.08z"/>
	<path class="st18" d="M139.44,33.08c-1.42,0-2.58,1.15-2.58,2.58c0,1.42,1.15,2.58,2.58,2.58c1.42,0,2.58-1.15,2.58-2.58
		C142.02,34.24,140.87,33.08,139.44,33.08z"/>
</g>
<path class="st19" d="M33.3,239.08c0.35-0.43-0.34-0.77-0.07-1.26c1.15-2.14,3.5-0.67,3.74,1.26c0.66,5.36-7.13,5.07-8.02,0.43
	c-0.75-3.9,3.94-7.13,7.42-5.77c2.62,1.03,5.51,3.61,6.49,6.3c0.7,1.91,1.05,4.03,2.34,5.67c1.13,1.42,2.77,2.2,4.07,3.42
	c1.6,1.51,2.27,3.33,2.9,5.41"/>
<path class="st19" d="M259.53,266.65c-0.26,0-0.36,0.03-0.6-0.09c-3.88-1.98-0.23-5.43,2.59-3.13c1.52,1.25,2.49,3.99,1.1,5.67
	c-5.35,6.43-12.42-8.15-18.41-5.61"/>
<path class="st20" d="M263.25,232.2c0.21-1.42,1.5-2.17,2.85-1.74c2.13,0.67,2.05,3.42,0.41,4.56c-2.36,1.64-6.39,0.28-6.67-2.78
	c-0.33-3.6,4.55-5.56,7.34-4.02"/>
<g>
	<path class="st20" d="M48.86,271.25c-0.85-2.14-0.62-4.58,0.17-6.75c1.51-4.14,1.6-9.39-1.72-12.88
		c-4.63-4.87-10.96-2.49-16.79-2.92c-2.88-0.22-5.04-2.41-7.99-2.57c-3.8-0.21-7.99,1.58-11.55,2.69c2.15-0.67,5.74,6.07,6.71,7.35
		c2.42,3.18,6.73,3.84,8.16,8.08c1.09,3.21,0.58,6.91,3.27,9.41c1.83,1.69,4.36,2.29,6.79,2.1c1.23-0.1,2.45-0.39,3.6-0.84
		c1.19-0.47,4.36-2.64,5.21-0.39c0.57,1.52-2.44,2.24-3.37,2.53"/>
	<path class="st20" d="M12.95,248.75c6.93-0.87,14.7,4.49,20.3,7.98c10.49,6.53,14.48,14.69,16.67,26.42"/>
</g>
<path class="st20" d="M97.13,125.86c0-1.92-0.88-3.93-2.52-4.92c-0.27-0.16-0.55-0.16-0.62-0.47c-0.08-0.34-0.05-0.72-0.12-1.07
	c-0.17-0.79-0.62-1.53-1.19-2.08c-1.16-1.12-2.82-1.64-4.39-1.44c-0.19,0.02-0.37,0.06-0.55,0.1c-0.28-2.26-2.32-4.67-5.03-4.42
	c-2.93,0.26-4.34,2.31-4.34,2.31s-3.61-4.13-8.23,0.37"/>
<g>
	<path class="st0" d="M272.41,261.24c-10.03-8.68-24.95-11.27-37.32-6.47c3.82-1.48,7.15-3.71,11.18-4.83
		c3.99-1.11,8.14-1.68,12.28-1.67c3.64,0.01,7.05-0.21,9.52,2.75C270.46,253.89,271.5,257.7,272.41,261.24z"/>
	<path class="st1" d="M186.18,271.16c-0.11-4.03-0.04-8.06,0.23-12.09c0.47-7.13,3.61-13.38,10.8-15.92
		c5.74-2.02,11.24-0.67,17.09-0.17c5.08,0.44,10.02-1.62,14.89-2.74c5.82-1.34,11.83-2.18,17.81-1.55
		c7.77,0.82,15.57,4.41,19.9,10.92c-5.15-1.4-10.69-1.28-15.78,0.34c-10.07,3.21-17.43,11.75-26.58,17.03
		c-9.37,5.4-20.41,7.24-31.22,7.48c-1.98,0.04-4.01,0.04-5.88,0.7c-1.87,0.66-3.59,2.14-3.93,4.09"/>
	<path class="st21" d="M186.18,271.16c-0.11-4.03-0.04-8.06,0.23-12.09c0.47-7.13,3.61-13.38,10.8-15.92
		c5.74-2.02,11.24-0.67,17.09-0.17c5.08,0.44,10.02-1.62,14.89-2.74c5.82-1.34,11.83-2.18,17.81-1.55
		c7.77,0.82,15.57,4.41,19.9,10.92c-5.15-1.4-10.69-1.28-15.78,0.34c-10.07,3.21-17.43,11.75-26.58,17.03
		c-9.37,5.4-20.41,7.24-31.22,7.48c-1.98,0.04-4.01,0.04-5.88,0.7c-1.87,0.66-3.59,2.14-3.93,4.09"/>
	<path class="st21" d="M239.4,238.86c-5.34,0.28-10.53,2.7-14.17,6.62c-2.16,2.33-3.77,5.12-5.83,7.54
		c-3.1,3.61-7.24,6.32-11.8,7.71c-4.21,1.28-8.47,1.75-12.42,3.83c-2.21,1.17-4.25,2.65-6.11,4.32c-1.86,1.67-3.38,3.7-5.26,5.34
		c-2.19,1.92-5,3.12-7.9,3.39"/>
</g>
<g>
	<g>
		<line class="st22" x1="295.16" y1="268.47" x2="295.16" y2="267.83"/>
	</g>
	<path class="st23" d="M302.3,274.06c1.99,0,3.7-0.29,5.13-0.88l0.73-1.15l-0.44-0.82l-0.49,0.17l0.35-0.78l-0.17-0.44l0.11-1.19
		l-3.44,3.58l-1.26-0.35l-0.64-1.43l-1.09,0.72l-1.04-0.6l-1.74,1.4l1.19-1.94l-0.77-1.02l0.57-3.72l-4.14,4.35v2.07
		c0,1.1,0.9,2,2,2H302.3z"/>
	<path class="st22" d="M305.77,268.67l-6.3-5.6v-3.26h2.76c1.83,0,3.23,0.49,4.21,1.47c0.98,0.98,1.47,2.31,1.47,4.01
		c0,0.57-0.27,1.5-0.27,1.5L305.77,268.67z M312.32,265.31c0-2.56-0.86-4.64-2.57-6.25c-1.71-1.61-4.04-2.42-6.98-2.42h-7.62v11.83
		l4.29-4.65l6.34,5.63l1.78-1.78l2.99,3.08C311.74,269.32,312.32,267.51,312.32,265.31z"/>
</g>
</svg>
