<?xml version="1.0" encoding="utf-8"?>
<!-- Generator: Adobe Illustrator 26.1.0, SVG Export Plug-In . SVG Version: 6.00 Build 0)  -->
<svg version="1.1" id="Layer_1" xmlns="http://www.w3.org/2000/svg" xmlns:xlink="http://www.w3.org/1999/xlink" x="0px" y="0px"
	 viewBox="0 0 366.26 398.15" style="enable-background:new 0 0 366.26 398.15;" xml:space="preserve">
<style type="text/css">
	.st0{fill:none;stroke:#E0DF39;stroke-width:50;stroke-linecap:round;stroke-linejoin:round;stroke-miterlimit:10;}
	.st1{fill:#D9D9D8;}
	
		.st2{clip-path:url(#SVGID_00000143577279215404946450000003969544513684584100_);fill:none;stroke:#FFFFFF;stroke-width:2;stroke-miterlimit:10;}
	.st3{fill:#775DA7;}
	.st4{fill:#DC3B5F;}
	.st5{fill:#FFFFFF;}
	.st6{fill:#3978BD;}
	.st7{fill-rule:evenodd;clip-rule:evenodd;fill:#FFFFFF;}
	.st8{fill:#39C2D6;}
	.st9{fill:#70CFF0;stroke:#FFFFFF;stroke-miterlimit:10;}
	.st10{fill:none;stroke:#FFFFFF;stroke-width:2;}
	.st11{fill:#FFFFFF;stroke:#242731;stroke-width:2;stroke-miterlimit:10;}
	.st12{fill:#036165;}
	.st13{fill:#242731;}
	.st14{fill:#F8A796;}
	.st15{fill:#F26D6E;}
	.st16{fill:none;}
	.st17{fill:#010101;}
	.st18{fill:none;stroke:#FFFFFF;stroke-width:2;stroke-linecap:round;stroke-miterlimit:10;}
	.st19{fill:#FFFFFF;stroke:#242731;stroke-width:2;stroke-linecap:round;stroke-miterlimit:10;}
	.st20{fill:none;stroke:#242731;stroke-width:2;stroke-linecap:round;stroke-miterlimit:10;}
	.st21{fill:none;stroke:#242731;stroke-linecap:round;stroke-linejoin:round;stroke-miterlimit:10;}
	.st22{opacity:0.5;fill:none;stroke:#FFFFFF;stroke-linecap:round;stroke-linejoin:round;stroke-miterlimit:10;}
	.st23{fill:none;stroke:#FFFFFF;stroke-linecap:round;stroke-linejoin:round;stroke-miterlimit:10;}
	.st24{fill:none;stroke:#FFFFFF;stroke-miterlimit:10;}
	.st25{fill:none;stroke:#FFFFFF;stroke-linecap:round;stroke-miterlimit:10;}
	.st26{opacity:0.8;fill:none;stroke:#FFFFFF;stroke-width:2;stroke-linecap:round;stroke-linejoin:round;stroke-miterlimit:10;}
	.st27{fill:#242731;stroke:#FFFFFF;stroke-miterlimit:10;}
	.st28{opacity:0.2;fill:none;stroke:#FFFFFF;stroke-width:2;stroke-miterlimit:10;}
	.st29{opacity:0.2;fill:none;stroke:#FFFFFF;stroke-miterlimit:10;}
</style>
<g>
	<path class="st0" d="M283.93,337.8c-41.02-23.68-28.71-45-69.73-68.68c-41.02-23.68-53.33-2.37-94.35-26.05s-28.72-45-69.74-68.68"
		/>
</g>
<g>
	<rect x="207.25" y="80.99" class="st1" width="51.64" height="143.75"/>
</g>
<g>
	<defs>
		<rect id="SVGID_1_" x="207.25" y="80.99" width="51.64" height="143.75"/>
	</defs>
	<clipPath id="SVGID_00000170997031714502844270000000189400391391786132_">
		<use xlink:href="#SVGID_1_"  style="overflow:visible;"/>
	</clipPath>
	
		<path style="clip-path:url(#SVGID_00000170997031714502844270000000189400391391786132_);fill:none;stroke:#FFFFFF;stroke-width:2;stroke-miterlimit:10;" d="
		M267.04,162.42c-8.82,3.74-17.38,8.3-25.47,13.44c-4.16,2.64-14.08,8.37-10.8,14.61c2.82,5.36,13.26,5.3,18.38,4.77
		c7.02-0.73,13.85-3.75,18.87-8.75"/>
	
		<path style="clip-path:url(#SVGID_00000170997031714502844270000000189400391391786132_);fill:none;stroke:#FFFFFF;stroke-width:2;stroke-miterlimit:10;" d="
		M264.85,114.38c-4.74,3.05-9.48,6.1-14.23,9.15c-4,2.57-9.24,5.79-10.87,10.54c-2.22,6.45,5.05,10.37,10.36,11.19
		c6.23,0.96,12.98-0.96,17.66-5.21"/>
	
		<path style="clip-path:url(#SVGID_00000170997031714502844270000000189400391391786132_);fill:none;stroke:#FFFFFF;stroke-width:2;stroke-miterlimit:10;" d="
		M203.68,225.02c3.79-1.15,8.12-1.14,10.64-4.65c2.21-3.07,2.44-7.37,5.32-10c3.16-2.88,7.79-1.18,9.75,2.29
		c3.07,5.42-12.77,10.72-3.51,15.69"/>
	
		<path style="clip-path:url(#SVGID_00000170997031714502844270000000189400391391786132_);fill:none;stroke:#FFFFFF;stroke-width:2;stroke-miterlimit:10;" d="
		M240.74,228.34c6.66-0.3,3.33-9.27,2.69-13.19c-0.32-1.94-0.9-5.26,0.32-7c2.02-2.87,5.49,0.59,7.01,2.29
		c4.28,4.81,8.66,9.52,13.15,14.13"/>
	
		<path style="clip-path:url(#SVGID_00000170997031714502844270000000189400391391786132_);fill:none;stroke:#FFFFFF;stroke-width:2;stroke-miterlimit:10;" d="
		M192.94,107.84c7.14-1.15,13.84-4.73,18.87-9.9c4.25-4.36,6.49-10.05,9.25-15.37c1.71-3.29,3.69-8.79,7.67-9.98
		c3.83-1.15,6.13,2.88,6.86,6.03c3.02,12.96-9.1,21.47-18.95,26.71c-6.51,3.47-13.37,6.79-18.17,12.39
		c-0.73,0.85-1.43,1.79-1.64,2.89c-0.32,1.63,0.49,3.31,1.64,4.52c4.86,5.15,13.82,2.77,18.99-2.07c4.32-4.03,7.04-9.42,11.27-13.51
		c3.99-3.87,9.21-6.27,12.87-10.51c5.06-5.86,3.13-15.36,6.43-22.09c5.01-10.21,15.77-3.6,17.68,5.04
		c1.4,6.34,2.85,14.76-1.39,20.39c-3.65,4.84-10.3,5.29-15.39,7.81c-13.24,6.56-19.97,20.38-30.53,30.03
		c-5.16,4.71-11.19,8.33-16.61,12.72c-3.73,3.02-8.57,6.73-9.76,11.65c-1.3,5.44,3.79,10.22,9.02,9.79
		c4.95-0.41,9.69-4.07,12.59-7.91c3.49-4.62,7.29-17.45,14.77-16.6c4.91,0.56,7.2,6.69,7.07,10.92
		c-0.6,20.12-28.13,22.61-37.04,37.64c-0.72,1.22-1.36,2.48-1.91,3.79c-1.44,3.39-2.22,9.49,2.27,11.09
		c7.73,2.75,12.72-4.75,17.58-9.34c3.14-2.97,7.64-6.33,12.25-5.53c5.21,0.91,8.09,6.94,8.24,11.75c0.18,5.64-2.14,11.02-3.64,16.46
		c-1.5,5.44-2.05,11.73,1.22,16.33"/>
</g>
<g>
	<rect x="207.01" y="227.74" class="st3" width="51.64" height="156.38"/>
</g>
<g>
	<g>
		<path class="st4" d="M106.27,9.02l-40.7-6.99c-2.27-0.39-4.42,1.13-4.81,3.4L53.7,46.49c-0.39,2.27,1.13,4.42,3.4,4.81l41.07,7.05
			c2.27,0.39,4.42-1.13,4.81-3.4l6.99-40.7C110.39,11.78,108.73,9.44,106.27,9.02"/>
		<path class="st5" d="M75.26,19.65c1.64,0.28,3.23-0.77,3.52-2.45c0.29-1.68-0.86-3.2-2.5-3.48s-3.23,0.77-3.52,2.45
			C72.47,17.85,73.62,19.37,75.26,19.65 M66.29,34.47c-0.31,0.72-0.53,1.52-0.65,2.18c-0.45,2.61,0.67,4.59,3.68,5.11
			c2.5,0.43,4.78-0.71,6.64-2.85l-1.5,3.42l4.96,0.85l4.79-10.88c1.2-2.76,2.83-4.01,4.91-3.66c1.64,0.28,2.48,1.47,2.19,3.16
			c-0.08,0.49-0.22,1.01-0.5,1.56l-2.36,4.97c-0.35,0.71-0.57,1.45-0.69,2.16c-0.43,2.48,0.72,4.54,3.78,5.07
			c2.61,0.45,4.98-0.88,6.82-4.71l-1.82-1.09c-1.44,2.53-2.36,2.88-3.03,2.76c-0.66-0.11-0.94-0.62-0.79-1.5
			c0.07-0.4,0.23-0.83,0.46-1.34l2.29-4.85c0.56-1.13,0.87-2.17,1.04-3.14c0.65-3.81-1.31-6.19-4.1-6.67
			c-2.61-0.45-5.67,1.45-7.43,3.7l1.74-4.28l-7.57-1.3l-1.74,3.74l3.54,0.61l-3.68,8.36c-2.37,3.51-5.52,3.03-5.9,2.88
			c-0.62-0.26-1-0.58-0.85-1.42c0.08-0.49,0.29-1.17,0.66-1.97l5.58-12.6l-8.41-1.44l-1.74,3.74l3.5,0.6L66.29,34.47"/>
	</g>
</g>
<g>
	<path class="st6" d="M127.12,44.89l40.7,6.99c2.25,0.39,3.76,2.52,3.37,4.77l-6.99,40.7c-0.39,2.25-2.52,3.76-4.77,3.37l-40.7-6.99
		c-2.25-0.39-3.76-2.52-3.37-4.77l6.99-40.7C122.74,46.01,124.87,44.51,127.12,44.89z"/>
	<path class="st7" d="M146.62,88.21l-0.82,4.77c0.7,0.53,1.6,0.99,2.61,1.37c1.01,0.38,2.14,0.67,3.29,0.87
		c1.14,0.2,2.21,0.27,3.3,0.23c1.09-0.04,2.01-0.25,2.85-0.59c0.86-0.37,1.63-0.9,2.16-1.69c0.53-0.79,0.99-1.7,1.2-2.94
		c0.15-0.87,0.14-1.64,0-2.36c-0.14-0.71-0.42-1.35-0.85-1.91c-0.4-0.59-0.89-1.13-1.49-1.63c-0.6-0.5-1.3-1.03-2.09-1.54
		c-0.59-0.37-1.06-0.7-1.59-1.05c-0.45-0.33-0.84-0.65-1.11-0.96c-0.31-0.32-0.53-0.63-0.67-0.94c-0.14-0.32-0.18-0.65-0.12-1
		c0.06-0.32,0.19-0.61,0.41-0.84s0.49-0.42,0.83-0.55c0.34-0.14,0.74-0.22,1.22-0.24c0.47-0.03,0.97,0.01,1.55,0.11
		c0.4,0.07,0.82,0.17,1.22,0.3c0.43,0.14,0.86,0.3,1.29,0.51c0.43,0.2,0.84,0.43,1.26,0.7c0.39,0.26,0.74,0.55,1.03,0.85l0.77-4.48
		c-0.68-0.4-1.44-0.75-2.28-1.03c-0.84-0.28-1.78-0.51-2.92-0.71c-1.14-0.2-2.22-0.25-3.31-0.19c-1.09,0.06-2.01,0.29-2.87,0.69
		c-0.86,0.38-1.53,0.92-2.16,1.69c-0.59,0.72-0.96,1.6-1.16,2.75c-0.25,1.43-0.05,2.74,0.62,3.84c0.64,1.19,1.79,2.17,3.28,3.21
		c0.61,0.38,1.15,0.75,1.68,1.1c0.53,0.36,0.96,0.7,1.29,1.05c0.36,0.35,0.63,0.71,0.8,1.07c0.18,0.37,0.24,0.77,0.17,1.21
		c-0.05,0.31-0.18,0.58-0.37,0.82c-0.19,0.24-0.46,0.43-0.8,0.57c-0.34,0.14-0.74,0.23-1.22,0.26c-0.47,0.03-0.98,0-1.65-0.12
		c-1.05-0.18-2.07-0.54-2.96-1.07c-0.99-0.54-1.85-1.25-2.58-2.11L146.62,88.21z M140.62,75.1l6.1,1.05l0.67-3.91l-17.07-2.93
		l-0.67,3.91l6.1,1.05l-3,17.46l4.86,0.84L140.62,75.1z"/>
</g>
<g>
	<path class="st8" d="M232.48,100.12l-6.69,38.98c-0.47,2.72-3.05,4.55-5.77,4.08l-38.98-6.69c-2.72-0.47-4.55-3.05-4.08-5.77
		l6.69-38.98c0.47-2.72,3.05-4.55,5.77-4.08l38.98,6.69C231.12,94.82,232.95,97.4,232.48,100.12z"/>
	<g>
		<circle class="st9" cx="204.72" cy="115.42" r="1.13"/>
		<g>
			
				<ellipse transform="matrix(0.1692 -0.9856 0.9856 0.1692 56.314 297.6497)" class="st10" cx="204.72" cy="115.42" rx="7.1" ry="18.58"/>
			
				<ellipse transform="matrix(0.9382 -0.3462 0.3462 0.9382 -27.2994 78.0137)" class="st10" cx="204.72" cy="115.42" rx="7.1" ry="18.58"/>
			
				<ellipse transform="matrix(0.6394 -0.7689 0.7689 0.6394 -14.9183 199.0338)" class="st10" cx="204.72" cy="115.42" rx="18.58" ry="7.1"/>
		</g>
	</g>
</g>
<path class="st11" d="M1.93,153.6l4.71-26.73c0.29-1.63,1.84-2.72,3.48-2.43l292.96,51.66c1.63,0.29,2.72,1.84,2.43,3.48
	l-4.71,26.73c-0.29,1.63-1.84,2.72-3.48,2.43L4.36,157.07C2.73,156.79,1.64,155.23,1.93,153.6z"/>
<g>
	<path class="st12" d="M288.87,293.51c-1.82,1.98-3.53,4.02-5.14,6.05c-0.29,0.37-0.58,0.74-0.86,1.11
		c-0.17,0.22-0.34,0.44-0.5,0.66c-9.11,11.98-14.4,23.42-14.4,23.42l0.11,1.92l0.72,12.07l0.76,12.89l2.76,46.51h-64.6l-9.87-30.38
		c0,0-9.83-5.51-14.13-12.4c-3.75-6-3.14-13.91-2.54-17.76c0.23-1.44,0.46-2.31,0.46-2.31s-0.03-0.04-0.09-0.12
		c-0.55-0.73-3.87-5.13-14.82-20.61c-3.97-5.62-12.71-17.15-22.21-31.17c-3.83-5.64-7.77-11.69-11.58-17.92l11.58-9.77l15.08-12.73
		c13.91,18.48,31.21,41.28,43.34,57.14c0.17,0.21,0.33,0.43,0.5,0.65c0.25,0.33,0.5,0.66,0.75,0.98
		c5.64,7.37,10.02,13.04,12.21,15.79c0.88,1.1,1.4,1.74,1.51,1.82l4.13-2.46l22.1-13.15l2.69-4.34l0.53-0.86l0.82-1.31l21.29-34.41
		l-6.01-11.94l19.4-11.47l3.79-2.24c4,4.76,7.77,9.59,10.3,13.58C305.14,263.59,301.91,279.3,288.87,293.51z"/>
</g>
<g>
	<g>
		<path class="st13" d="M251.18,315.3c-0.14,0.04-0.28,0.08-0.42,0.12c-10.15,2.86-21.04,2.33-30.98-1.28
			c-4.36-1.58-5.88-6.59-6.78-11.25c-2.93-15.27-4.7-17.46-3.28-20.17c5.08-9.7-11.67-24.8,9.55-30.74
			c11.85-3.32,29.2,1.6,35.7,13.11c2.46,4.37,5.17,9.4,2.02,17.09c-1.8,4.4,5.08,3.52,7.07,8.16c2.69,6.28,1.51,14.65-4.57,20.59
			C257.17,313.18,254.18,314.42,251.18,315.3z"/>
	</g>
</g>
<g>
	<path class="st14" d="M242.32,199.97c1.31,3.68,0.2,7.86,1.79,12.46l19.36,38.45l23.19-13.7c-6.36-7.59-13.3-15.01-16.71-18.6
		c-0.38-0.4-0.71-0.74-1-1.04c-0.68-0.71-1.08-1.13-1.14-1.19c-0.01-0.01,1.53-0.13,3.71-0.36c4.74-0.49,8.64-2.79,10.2-3.99
		c1.94-1.5,7.27-10.08,6.53-14.29c-0.12-0.72-0.31-1.28-0.58-1.6c-1.67-2.02-2.87,0.46-3.05,0.84c0.16-0.59,2.07-6.37-0.64-10.65
		c-2.48-3.92-5.14-4.54-6.78-3.52c-0.24,0.15-0.46,0.34-0.66,0.56c-0.65,0.73-1.54,1.98-1.54,1.98s-0.01-0.08-0.03-0.21
		c-0.13-0.78-0.77-3.45-3.45-3.96c-3.15-0.61-2.63,4.69-4.66,9.34c-2.57,5.86-5.93,12.95-5.93,12.95L242.32,199.97z"/>
</g>
<g>
	<path class="st5" d="M292.97,243.44c-0.72,1.14-1.91,1.9-3.1,2.48c-1.31,0.63-2.67,1.17-3.99,1.78c-2.75,1.29-5.43,2.73-8.02,4.32
		c-1.32,0.81-2.61,1.65-3.89,2.54c-1.21,0.84-2.37,1.76-3.59,2.59c-1.17,0.8-2.5,1.57-3.95,1.71c-1.56,0.15-2.89-0.49-3.94-1.62
		c-0.15-0.17-0.3-0.34-0.44-0.52c-3.1-1.5-5.41-4.42-6.25-7.76c-0.48-1.91-0.45-3.92,0.99-5.41c0.7-0.72,1.54-1.31,2.36-1.91
		c0.84-0.61,1.69-1.18,2.55-1.75c3.47-2.24,7.14-4.15,10.88-5.88c1.88-0.87,3.78-1.7,5.68-2.52c1.89-0.81,3.79-1.77,5.79-2.28
		c1.83-0.47,3.9-0.24,5.1,1.37c0.53,0.72,0.81,1.56,0.76,2.38c0.2,0.21,0.38,0.42,0.57,0.64c0.46,0.55,0.92,1.09,1.34,1.67
		C293.54,237.61,294.63,240.77,292.97,243.44z"/>
</g>
<g>
	<path class="st14" d="M159.61,242.97l-26.67,22.5c-15.73-25.7-31.06-51.15-32.25-52.77c-2.2-2.99-15.61-20.23-18.41-25.03
		c-2.8-4.8,0.2-7.6,0.2-7.6s-0.61-1.2-1.94-2.69c-0.47-0.52-0.54-1.11-0.44-1.65c0.15-0.82,0.72-1.54,0.91-1.78
		c0.07-0.08-0.34-0.16-0.98-0.35c-0.46-0.14-1.02-0.33-1.63-0.58c-1.37-0.57-3.01-1.44-4.4-2.75c-2.94-2.8-1.14-5.61,0-6.88
		c1.14-1.26,17.18,4.96,22.36,6.8c5.19,1.85,15.77,6.02,18.96,6.15c7.18,0.3,19.69-7.61,22.48-6.68c2.79,0.93,2.26,6.39-0.6,7.71
		c-2.86,1.31-10.82,11.28-11.7,13.89c-0.88,2.61,3.35,9.59,11.76,21.62C139.9,216.68,148.71,228.5,159.61,242.97z"/>
</g>
<g>
	<path class="st14" d="M228.07,257.33c0,0-6-0.92-11.11,3.03c-5.11,3.96-5.03,8.66-7.52,7.57c-2.49-1.09-4.33-1.11-5.03,0.69
		c-0.7,1.8-1.64,9.05-0.73,15.93c0.86,6.53,5.76,10.6,5.76,10.6v9.56l4.26,1.59c0,0-1.21-9.83,1.99-12.92
		c3.88-3.75,6.97-5.13,6.97-5.13s-3.83-14.12-1.03-19.63C224.43,263.13,228.07,257.33,228.07,257.33z"/>
</g>
<g>
	<path class="st13" d="M269.56,351.64c-1.28,0.7-2.62,1.32-3.98,1.86c-4.84,1.89-10.12,2.7-15.3,2.49
		c-5.29-0.21-10.51-1.41-15.33-3.59c-4.76-2.15-9.08-5.29-12.73-9.02c-3.65-3.73-6.67-8.04-8.98-12.72
		c-1.73-3.5-3.07-7.16-4.01-10.93c-0.44,0.16-0.92,0.2-1.41,0.07c-0.52-0.13-0.9-0.6-0.79-1.16c0.1-0.5,0.64-0.92,1.16-0.79
		c0.2,0.05,0.42,0.01,0.59-0.1c-0.15-0.71-0.29-1.42-0.41-2.14c-0.09-0.53,0.42-1.02,0.92-1.05c0.57-0.04,0.96,0.39,1.05,0.91
		c0.05,0.29,0.11,0.57,0.16,0.85c1.15,0.73,2.44,1.59,3.85,1.56c0.71-0.02,1.39-0.19,2.07-0.36c0.05-0.01,0.09-0.02,0.14-0.04
		c0.79-0.2,1.59-0.36,2.4-0.47c1.03-0.13,2.06-0.16,3.1-0.14c0.59,0.02,1.18,0.05,1.77,0.1c3.34,0.25,6.66,0.9,9.93,1.61
		c6.65,1.42,13.25,3.08,19.86,4.65c3.33,0.79,6.65,1.57,9.97,2.36c1.5,0.36,3.01,0.71,4.51,1.07l0.72,12.07L269.56,351.64z"/>
</g>
<g>
	<path class="st12" d="M281.18,296.93c10.85,35.43-20.51,50.57-37.03,49.47c-34.07-2.26-35.74-28.4-40.75-35.03
		c-2.44-3.22-3.06-8.96,0.96-11.28c1.73-1,3.79-1.23,5.78-1.32c5.69-0.28,11.41,0.31,16.93,1.74
		C232.18,301.84,279.73,292.21,281.18,296.93z"/>
</g>
<g>
	<path class="st14" d="M224.77,291.87c-2.1,2.01-5.3,1.77-7.14-0.53c-1.84-2.3-1.62-5.79,0.48-7.8c2.1-2.01,5.3-1.77,7.14,0.53
		C227.09,286.37,226.87,289.86,224.77,291.87z"/>
</g>
<g>
	<path class="st15" d="M222.41,286.76c0.08-0.61-0.24-1.07-0.76-1.24c-1.32-0.42-2.64-0.85-3.96-1.27c-0.48-0.16-1.06,0.3-1.13,0.83
		c-0.08,0.61,0.24,1.07,0.76,1.24c1.32,0.42,2.64,0.85,3.96,1.27C221.76,287.74,222.34,287.29,222.41,286.76z"/>
</g>
<g>
	<path class="st13" d="M215.04,273.45c-0.03-0.21-0.15-0.45-0.31-0.58c-0.17-0.13-0.38-0.21-0.59-0.17l-0.2,0.06
		c-0.13,0.06-0.24,0.16-0.33,0.28c-0.52,0.58-0.92,1.29-1.21,2.03c-0.15,0.4,0.02,0.87,0.36,1.08c0.15,0.09,0.33,0.14,0.5,0.11
		c0.2-0.04,0.41-0.15,0.53-0.34c0.04-0.06,0.08-0.13,0.12-0.2c0.11-0.06,0.21-0.14,0.27-0.25c0.24-0.46,0.48-0.92,0.72-1.39
		c0.07-0.09,0.11-0.2,0.13-0.31C215.05,273.67,215.06,273.56,215.04,273.45z"/>
</g>
<g>
	<path class="st13" d="M218.72,275.09c-0.03,0.49-0.47,0.8-0.89,0.77c-0.44-0.04-0.73-0.52-0.7-0.97c0.01-0.11,0.01-0.23,0.01-0.34
		c0-0.05,0-0.11-0.01-0.16c-0.01-0.21-0.04-0.41-0.07-0.62c-0.02-0.1-0.04-0.19-0.06-0.29c-0.02-0.06-0.03-0.11-0.05-0.17
		c-0.06-0.19-0.12-0.37-0.2-0.55c-0.04-0.09-0.08-0.19-0.13-0.28c-0.17-0.31-0.29-0.48-0.41-0.64c-0.06-0.08-0.12-0.16-0.19-0.24
		c-0.24-0.24-0.38-0.38-0.54-0.5c-0.36-0.29-0.4-0.84-0.16-1.23c0.25-0.4,0.78-0.44,1.12-0.17
		C218.01,270.92,218.86,273.01,218.72,275.09z"/>
</g>
<g>
	<g>
		<path class="st15" d="M205.75,278.51c-0.16-0.06-0.3-0.13-0.45-0.21c-0.14-0.1-0.21-0.15-0.28-0.2c-0.07-0.05-0.13-0.11-0.19-0.17
			c-0.22-0.26-0.31-0.36-0.38-0.47c-0.04-0.07-0.09-0.13-0.13-0.2c-0.02-0.04-0.04-0.09-0.07-0.13c-0.06-0.14-0.13-0.3-0.18-0.48
			c-0.03-0.08-0.04-0.16-0.07-0.24c-0.04-0.28-0.06-0.47-0.07-0.66c-0.01-0.21-0.17-0.46-0.31-0.58c-0.16-0.13-0.4-0.21-0.59-0.17
			c-0.2,0.04-0.41,0.15-0.53,0.34c-0.13,0.2-0.16,0.4-0.15,0.65c0.05,1.82,1.25,3.56,2.82,4.15c0.4,0.15,0.89-0.03,1.04-0.49
			C206.34,279.22,206.18,278.67,205.75,278.51z"/>
	</g>
	<g>
		<path class="st15" d="M204.27,277.15C204.3,277.21,204.36,277.3,204.27,277.15L204.27,277.15z"/>
	</g>
	<g>
		<path class="st15" d="M204.01,276.45C204.02,276.51,204.06,276.6,204.01,276.45L204.01,276.45z"/>
	</g>
</g>
<g>
	<path class="st5" d="M167.57,251.79c-0.43,0.66-1.02,1.2-1.56,1.76c-0.61,0.61-1.22,1.22-1.83,1.83c-1.18,1.17-2.39,2.32-3.61,3.46
		c-2.47,2.29-5,4.5-7.61,6.63c-5.18,4.25-10.63,8.17-16.28,11.75c-0.52,0.33-1.27,0.24-1.52-0.41c-3.48-8.9-14.61-11.89-4.61-20.71
		c2.55-2.25,5.2-4.41,7.9-6.49c2.73-2.11,5.52-4.15,8.36-6.1c1.41-0.97,2.84-1.92,4.27-2.84c0.72-0.46,1.44-0.92,2.17-1.37
		c0.72-0.45,1.45-0.96,2.23-1.32c0.78-0.36,1.66-0.46,2.48-0.15c0.77,0.29,1.37,0.89,1.92,1.48c1.22,1.32,2.4,2.67,3.6,4.01
		c1.21,1.35,2.42,2.69,3.63,4.04c0.52,0.58,0.98,1.23,1.11,2.02C168.35,250.24,168.03,251.08,167.57,251.79z"/>
</g>
<g>
	<path class="st5" d="M277.2,182.78c-0.69,6.68-2.59,12.41-5.09,19.51c-0.43,1.21-3.37,0.06-2.96-1.15
		c2.02-5.95,4.03-10.51,5.82-16.04c0.02,0.13,0.03,0.21,0.03,0.21s0.89-1.25,1.54-1.98C276.73,183.12,276.95,182.93,277.2,182.78z"
		/>
</g>
<g>
	<path class="st13" d="M283.73,299.56c-0.46,0.59-0.92,1.18-1.37,1.77c-0.02-0.07-0.05-0.14-0.08-0.21
		c-0.42-1.04-0.9-2.05-1.45-2.99c-0.56-0.95-1.26-1.83-2.24-2.34c-0.16-0.09-0.33-0.16-0.5-0.23c-1.31-0.47-2.79-0.31-4.15-0.13
		c-0.83,0.11-1.66,0.23-2.49,0.34c-5.89,0.82-11.77,1.75-17.66,2.61c-2.31,0.34-4.63,0.7-6.95,1.03c-4.38,0.62-8.78,1.14-13.2,1.21
		c-1.09,0.02-2.17,0-3.26-0.03c-1.28-0.04-2.57-0.11-3.85-0.2c-3.39-0.21-6.78-0.51-10.17-0.56c-4.11-0.06-8.36,0.32-12.16,1.91
		c-0.25-0.32-0.5-0.65-0.75-0.98c-0.16-0.21-0.33-0.43-0.5-0.65c4.77-2.16,10.17-2.4,15.34-2.21c6.04,0.22,12.03,1,18.08,0.64
		c3.95-0.24,7.89-0.74,11.81-1.31c2.98-0.43,5.96-0.91,8.93-1.35c3.5-0.51,7.01-1.03,10.52-1.54c1.72-0.25,3.44-0.5,5.16-0.76
		c1.52-0.22,3.11-0.45,4.65-0.21c1.54,0.24,2.85,0.95,3.9,2.1c0.99,1.08,1.65,2.45,2.25,3.78
		C283.64,299.36,283.69,299.46,283.73,299.56z"/>
</g>
<g>
	<rect x="144.52" y="177.09" class="st16" width="138.35" height="221.06"/>
</g>
<g>
	<path class="st17" d="M16.36,148.42c-0.62-0.11-1.16-0.36-1.62-0.76c-0.45-0.4-0.81-0.89-1.07-1.48c-0.26-0.59-0.42-1.26-0.48-2.01
		c-0.06-0.75-0.02-1.54,0.12-2.37c0.21-1.19,0.54-2.23,0.98-3.11c0.44-0.89,0.95-1.61,1.52-2.18c0.57-0.57,1.18-0.97,1.82-1.21
		c0.64-0.24,1.27-0.31,1.88-0.2c0.58,0.1,1.04,0.29,1.4,0.57c0.36,0.28,0.62,0.6,0.8,0.96c0.18,0.36,0.28,0.75,0.3,1.15
		c0.02,0.4-0.02,0.77-0.12,1.11c-0.17,0.66-0.5,1.16-0.97,1.51c-0.47,0.35-0.97,0.47-1.49,0.38c-0.17-0.04-0.35-0.1-0.52-0.18
		c-0.15-0.08-0.31-0.17-0.47-0.3c-0.16-0.12-0.29-0.28-0.41-0.48c0.48,0.12,0.87,0.09,1.18-0.1c0.31-0.18,0.55-0.41,0.73-0.67
		c0.2-0.31,0.35-0.69,0.45-1.13c0.04-0.25,0.04-0.48,0-0.69c-0.05-0.2-0.13-0.38-0.24-0.52s-0.24-0.26-0.38-0.34
		c-0.14-0.08-0.28-0.14-0.42-0.16c-0.31-0.05-0.67,0.01-1.08,0.19c-0.41,0.18-0.81,0.48-1.22,0.92c-0.41,0.43-0.79,1.01-1.13,1.73
		c-0.35,0.72-0.61,1.6-0.79,2.63c-0.18,1.03-0.24,1.88-0.17,2.57c0.07,0.68,0.21,1.23,0.41,1.64c0.2,0.41,0.44,0.71,0.71,0.89
		c0.27,0.19,0.51,0.29,0.72,0.33c0.41,0.04,0.8-0.04,1.18-0.22c0.33-0.16,0.66-0.44,1-0.85s0.63-1.03,0.87-1.87
		c0.15,0.04,0.27,0.09,0.35,0.17c0.09,0.08,0.16,0.15,0.22,0.22c0.06,0.08,0.11,0.17,0.15,0.28c0.01,0.01-0.01,0.13-0.06,0.35
		c-0.05,0.22-0.14,0.48-0.26,0.78c-0.12,0.3-0.29,0.62-0.5,0.95s-0.47,0.63-0.78,0.9s-0.69,0.46-1.11,0.6
		C17.43,148.5,16.93,148.52,16.36,148.42z"/>
	<path class="st17" d="M26.59,145.58c-0.1,0.45-0.25,0.85-0.45,1.2s-0.44,0.66-0.72,0.9c-0.28,0.24-0.59,0.42-0.94,0.52
		c-0.34,0.1-0.71,0.13-1.09,0.07c-0.34-0.05-0.64-0.18-0.9-0.41c-0.26-0.23-0.48-0.51-0.64-0.86c-0.16-0.35-0.26-0.75-0.3-1.2
		s0.02-0.93,0.15-1.43c0.14-0.58,0.34-1.07,0.6-1.46s0.52-0.7,0.77-0.94s0.49-0.41,0.69-0.51s0.33-0.16,0.38-0.17
		c0.09-0.02,0.16-0.02,0.23,0.01s0.14,0.06,0.21,0.1c0.02,0.02,0.04,0.05,0.05,0.1c0.03,0.09,0.04,0.24,0.01,0.46
		c0.08-0.12,0.17-0.21,0.28-0.27c0.11-0.06,0.21-0.11,0.31-0.12c0.12-0.03,0.24-0.03,0.36-0.03c0.08,0,0.21,0.09,0.39,0.26
		c0.18,0.17,0.33,0.43,0.47,0.76s0.23,0.75,0.29,1.25C26.79,144.34,26.74,144.92,26.59,145.58z M25.45,145.17
		c0.06-0.27,0.1-0.56,0.12-0.84c0.02-0.29,0.02-0.56,0-0.8c-0.02-0.25-0.07-0.45-0.13-0.61c-0.07-0.16-0.15-0.25-0.24-0.27
		c-0.11,0-0.23,0.04-0.37,0.1c-0.12,0.05-0.25,0.14-0.4,0.27c-0.15,0.13-0.31,0.32-0.48,0.58c-0.01-0.04-0.01-0.1,0-0.2
		c0-0.08,0.01-0.19,0.03-0.32c0.02-0.13,0.06-0.31,0.12-0.54c-0.2,0.17-0.36,0.38-0.49,0.63c-0.13,0.25-0.25,0.49-0.33,0.73
		c-0.1,0.28-0.18,0.56-0.26,0.85c-0.07,0.31-0.11,0.62-0.12,0.92c-0.01,0.31,0.01,0.58,0.07,0.83c0.06,0.25,0.14,0.45,0.26,0.62
		s0.27,0.26,0.47,0.28c0.2,0.02,0.39-0.03,0.56-0.15c0.18-0.12,0.34-0.29,0.5-0.5c0.16-0.21,0.29-0.45,0.41-0.73
		C25.28,145.71,25.38,145.44,25.45,145.17z"/>
	<path class="st17" d="M31.78,144c-0.09-0.02-0.2,0.01-0.33,0.09s-0.26,0.19-0.39,0.34c-0.13,0.15-0.27,0.31-0.41,0.5
		c-0.14,0.18-0.27,0.37-0.39,0.57c-0.28,0.45-0.56,0.91-0.83,1.39c-0.27,0.48-0.46,0.89-0.56,1.26c-0.02,0.03-0.03,0.06-0.03,0.09
		c0,0.03-0.01,0.06-0.01,0.08c-0.02,0.02-0.03,0.05-0.04,0.1c-0.05,0.16-0.11,0.28-0.16,0.37c-0.06,0.09-0.15,0.14-0.29,0.16
		c-0.14,0-0.28-0.01-0.42-0.02c-0.14-0.01-0.27-0.05-0.39-0.1c-0.08-0.04-0.13-0.09-0.16-0.16c-0.03-0.07-0.04-0.15-0.05-0.24
		c0-0.09,0-0.18,0.01-0.26c0.01-0.08,0.02-0.15,0.03-0.21c0.01-0.07,0.06-0.29,0.13-0.65c0.08-0.36,0.16-0.77,0.25-1.23
		c0.09-0.46,0.18-0.91,0.26-1.36c0.08-0.44,0.13-0.78,0.16-1.02c0.01-0.17,0.01-0.32,0.01-0.46c0-0.13,0-0.26-0.01-0.39
		c-0.01-0.13-0.03-0.25-0.07-0.35c0.14-0.05,0.28-0.08,0.41-0.11s0.26-0.04,0.36-0.04c0.13-0.01,0.25-0.02,0.36-0.01
		c0.28,0.03,0.5,0.06,0.65,0.11c0.15,0.05,0.21,0.19,0.17,0.4c-0.04,0.2-0.1,0.5-0.2,0.9c-0.1,0.4-0.23,0.97-0.4,1.69
		c0.18-0.27,0.39-0.56,0.62-0.9c0.24-0.33,0.48-0.64,0.73-0.92c0.25-0.28,0.5-0.51,0.75-0.69c0.25-0.18,0.46-0.25,0.64-0.22
		c0.13,0.02,0.27,0.08,0.43,0.16c0.16,0.08,0.3,0.18,0.44,0.29c0.13,0.11,0.25,0.23,0.36,0.36c0.1,0.12,0.17,0.24,0.2,0.36
		c0.03,0.12,0.02,0.31-0.01,0.55c-0.03,0.24-0.08,0.52-0.14,0.81c0.13-0.2,0.27-0.4,0.42-0.59c0.15-0.19,0.3-0.36,0.46-0.52
		c0.15-0.16,0.3-0.29,0.45-0.39s0.28-0.17,0.39-0.2c0.15-0.03,0.32-0.02,0.51,0.05c0.19,0.07,0.37,0.16,0.55,0.28
		c0.17,0.12,0.32,0.25,0.45,0.39c0.12,0.14,0.19,0.27,0.21,0.38c0.01,0.12,0.01,0.3-0.01,0.55c-0.02,0.25-0.05,0.51-0.09,0.8
		s-0.09,0.59-0.14,0.89s-0.11,0.57-0.16,0.8c-0.14,0.67-0.23,1.19-0.26,1.59c-0.03,0.39,0.06,0.7,0.27,0.93
		c-0.18,0.08-0.34,0.13-0.49,0.15c-0.15,0.03-0.28,0.04-0.38,0.05c-0.13,0.01-0.25,0.01-0.34-0.01c-0.13-0.02-0.22-0.07-0.29-0.15
		c-0.07-0.08-0.12-0.17-0.15-0.28c-0.03-0.11-0.04-0.23-0.03-0.36c0.01-0.13,0.03-0.26,0.05-0.38c0.02-0.12,0.06-0.31,0.13-0.58
		c0.07-0.27,0.13-0.57,0.21-0.92c0.07-0.34,0.13-0.7,0.19-1.06s0.09-0.71,0.1-1.02c0.01-0.31-0.01-0.58-0.07-0.79
		s-0.17-0.33-0.33-0.36c-0.14-0.02-0.29,0.04-0.44,0.18c-0.16,0.15-0.32,0.34-0.48,0.59c-0.16,0.25-0.32,0.53-0.46,0.85
		c-0.15,0.31-0.28,0.62-0.41,0.94c-0.13,0.31-0.23,0.6-0.31,0.86c-0.08,0.26-0.14,0.48-0.17,0.64l0.01-0.16
		c-0.04,0.22-0.07,0.42-0.1,0.61c-0.03,0.19-0.05,0.37-0.07,0.56c0,0.07-0.07,0.12-0.22,0.15c-0.15,0.03-0.3,0.02-0.47-0.01
		c-0.17-0.04-0.31-0.1-0.44-0.19c-0.13-0.09-0.17-0.22-0.15-0.38c0.02-0.12,0.05-0.29,0.09-0.52c0.04-0.23,0.08-0.49,0.13-0.78
		c0.05-0.29,0.09-0.59,0.14-0.91s0.1-0.62,0.13-0.91c0.04-0.22,0.08-0.44,0.11-0.68c0.03-0.23,0.06-0.45,0.07-0.64
		c0.01-0.19-0.01-0.35-0.05-0.48C31.97,144.09,31.89,144.02,31.78,144z"/>
	<path class="st17" d="M41.95,144.29c0.32,0.06,0.61,0.2,0.85,0.44c0.25,0.23,0.44,0.52,0.58,0.85s0.24,0.71,0.29,1.11
		c0.05,0.41,0.03,0.82-0.04,1.23s-0.2,0.85-0.37,1.29c-0.17,0.45-0.39,0.85-0.66,1.2c-0.27,0.36-0.58,0.64-0.93,0.84
		s-0.76,0.27-1.21,0.19c-0.36-0.06-0.67-0.25-0.94-0.57c-0.27-0.32-0.46-0.69-0.56-1.11c-0.09,0.4-0.22,0.8-0.38,1.21
		c-0.16,0.41-0.28,0.9-0.39,1.49c-0.03,0.17-0.06,0.37-0.09,0.59c-0.03,0.22-0.05,0.44-0.06,0.67c-0.02,0.22-0.02,0.43,0,0.62
		c0.01,0.19,0.04,0.35,0.08,0.46c-0.22,0.08-0.41,0.14-0.57,0.17c-0.17,0.03-0.31,0.05-0.43,0.05c-0.13,0.01-0.26,0.01-0.37-0.01
		c-0.15-0.03-0.24-0.11-0.26-0.24c-0.02-0.14-0.01-0.37,0.05-0.69c0.04-0.21,0.1-0.5,0.18-0.89c0.08-0.38,0.19-0.82,0.3-1.31
		c0.12-0.49,0.24-1.01,0.36-1.55c0.13-0.54,0.25-1.08,0.37-1.6c0.12-0.53,0.23-1.02,0.33-1.47c0.1-0.45,0.17-0.83,0.23-1.15
		c0.07-0.38,0.11-0.68,0.14-0.89c0.03-0.21,0.04-0.38,0.04-0.49s0-0.19-0.02-0.24c-0.01-0.05-0.03-0.11-0.06-0.17
		c0.12-0.06,0.25-0.11,0.41-0.15c0.15-0.04,0.31-0.06,0.46-0.06c0.15,0,0.28,0.01,0.4,0.04c0.12,0.03,0.21,0.08,0.27,0.14
		c0.05,0.07,0.08,0.16,0.08,0.28c0.01,0.12,0,0.3-0.01,0.53c0.27-0.26,0.57-0.48,0.89-0.65C41.24,144.28,41.58,144.23,41.95,144.29z
		 M40.19,150.35c0.21,0.04,0.42-0.03,0.65-0.19c0.22-0.16,0.44-0.38,0.63-0.66s0.37-0.6,0.53-0.96c0.15-0.36,0.26-0.72,0.33-1.09
		c0.07-0.4,0.09-0.74,0.06-1.02c-0.03-0.27-0.08-0.5-0.17-0.67c-0.08-0.17-0.18-0.3-0.29-0.39c-0.11-0.08-0.21-0.14-0.3-0.15
		c-0.22-0.04-0.44,0.01-0.67,0.16c-0.23,0.14-0.44,0.34-0.64,0.6c-0.2,0.26-0.37,0.55-0.52,0.88s-0.25,0.67-0.31,1.02
		c-0.06,0.32-0.08,0.63-0.06,0.92c0.01,0.29,0.06,0.55,0.12,0.77c0.07,0.23,0.16,0.41,0.27,0.55
		C39.93,150.25,40.05,150.33,40.19,150.35z"/>
	<path class="st17" d="M49.16,151.72c0.01,0.08,0.03,0.17,0.06,0.24c0.03,0.06,0.06,0.13,0.12,0.19c0.05,0.06,0.13,0.11,0.22,0.14
		c-0.11,0.15-0.21,0.24-0.3,0.29c-0.05,0.03-0.1,0.04-0.13,0.05c-0.11,0.02-0.27,0.01-0.48-0.03c-0.21-0.04-0.4-0.14-0.57-0.3
		c-0.06-0.07-0.11-0.17-0.14-0.29c-0.04-0.1-0.07-0.24-0.08-0.42c-0.01-0.17,0-0.4,0.02-0.67c-0.22,0.32-0.45,0.56-0.69,0.73
		c-0.24,0.17-0.46,0.28-0.67,0.34c-0.24,0.09-0.48,0.12-0.72,0.11c-0.29-0.03-0.56-0.12-0.8-0.29c-0.24-0.17-0.42-0.39-0.56-0.67
		c-0.13-0.28-0.22-0.61-0.25-0.98s0.01-0.78,0.13-1.23c0.12-0.47,0.28-0.87,0.5-1.21c0.21-0.34,0.45-0.64,0.71-0.89
		c0.26-0.25,0.52-0.46,0.79-0.62c0.27-0.16,0.52-0.29,0.75-0.38c0.24-0.1,0.44-0.16,0.61-0.2s0.27-0.06,0.32-0.06
		c0.13-0.01,0.25,0,0.33,0.02c0.09,0.03,0.16,0.09,0.21,0.2c0.02,0.04,0.04,0.08,0.07,0.14c0.02,0.05,0.03,0.12,0.05,0.2
		s0.04,0.17,0.04,0.27c-0.3,0.08-0.58,0.17-0.85,0.29c-0.27,0.11-0.53,0.26-0.77,0.44c-0.24,0.18-0.46,0.42-0.67,0.7
		c-0.2,0.29-0.39,0.65-0.55,1.08c-0.21,0.55-0.26,1.01-0.15,1.39c0.12,0.38,0.34,0.56,0.66,0.56c0.19-0.02,0.39-0.1,0.59-0.23
		c0.17-0.11,0.37-0.29,0.59-0.54c0.22-0.25,0.44-0.6,0.68-1.06c0.18-0.68,0.33-1.22,0.44-1.61s0.2-0.69,0.27-0.89
		c0.09-0.23,0.15-0.39,0.19-0.47c0.04-0.05,0.12-0.09,0.24-0.13c0.11-0.03,0.24-0.06,0.37-0.07c0.13-0.01,0.25-0.01,0.36,0
		c0.11,0.01,0.17,0.03,0.21,0.05c0.02,0.02,0.01,0.16-0.04,0.43c-0.05,0.27-0.12,0.61-0.21,1.02c-0.09,0.41-0.19,0.85-0.29,1.32
		c-0.11,0.48-0.21,0.92-0.3,1.35s-0.17,0.79-0.23,1.11C49.18,151.44,49.15,151.64,49.16,151.72z"/>
	<path class="st17" d="M52.37,152.72c-0.02,0.07-0.1,0.13-0.22,0.18c-0.12,0.06-0.26,0.1-0.42,0.13c-0.16,0.03-0.3,0.05-0.43,0.04
		c-0.13,0-0.21-0.04-0.25-0.09c-0.04-0.05-0.1-0.15-0.18-0.3c-0.08-0.14-0.11-0.36-0.08-0.66c0.03-0.3,0.08-0.68,0.17-1.14
		c0.08-0.46,0.16-0.96,0.25-1.52l0.12-0.69c0.04-0.21,0.08-0.45,0.12-0.73c0.04-0.28,0.08-0.57,0.13-0.87
		c0.11-0.04,0.23-0.08,0.35-0.11c0.12-0.03,0.23-0.06,0.33-0.08c0.11-0.03,0.22-0.05,0.31-0.05c0.25-0.03,0.45-0.03,0.58-0.02
		s0.2,0.06,0.2,0.16c0,0.07-0.04,0.24-0.11,0.5c-0.06,0.23-0.15,0.57-0.27,1.03c-0.12,0.46-0.29,1.1-0.52,1.92
		c0.22-0.34,0.4-0.64,0.54-0.89c0.14-0.25,0.27-0.45,0.36-0.6c0.1-0.18,0.19-0.33,0.27-0.43c0.08-0.14,0.19-0.29,0.31-0.46
		c0.12-0.17,0.25-0.32,0.38-0.47c0.13-0.14,0.25-0.27,0.35-0.38c0.11-0.11,0.19-0.18,0.24-0.19c0.04-0.02,0.14,0,0.31,0.05
		c0.17,0.05,0.34,0.14,0.53,0.26c0.18,0.12,0.35,0.28,0.51,0.46c0.16,0.19,0.25,0.4,0.26,0.63c0.02,0.27-0.01,0.61-0.1,1.02
		c-0.09,0.41-0.19,0.83-0.31,1.26c-0.12,0.43-0.22,0.84-0.31,1.23c-0.09,0.39-0.12,0.69-0.09,0.91c0,0.12,0.02,0.23,0.05,0.33
		c0.01,0.1,0.02,0.19,0.05,0.27c0.03,0.08,0.06,0.14,0.1,0.19c-0.3,0.08-0.54,0.13-0.72,0.16c-0.18,0.03-0.32,0.04-0.42,0.05
		c-0.12,0.01-0.2,0.01-0.25-0.01c-0.1-0.05-0.17-0.15-0.22-0.31c-0.05-0.15-0.08-0.38-0.08-0.69c-0.01-0.1,0.01-0.25,0.05-0.46
		c0.04-0.21,0.1-0.45,0.17-0.72c0.07-0.27,0.15-0.54,0.23-0.83c0.08-0.29,0.15-0.56,0.22-0.82s0.12-0.48,0.16-0.67
		c0.04-0.19,0.07-0.32,0.07-0.39c-0.02-0.22-0.08-0.38-0.16-0.48c-0.09-0.11-0.17-0.13-0.24-0.07c-0.18,0.15-0.39,0.4-0.62,0.76
		c-0.24,0.36-0.47,0.75-0.7,1.18c-0.23,0.43-0.44,0.86-0.62,1.29C52.58,152.04,52.45,152.41,52.37,152.72z"/>
	<path class="st17" d="M63.18,148.25c-0.16,1.02-0.3,1.91-0.42,2.67c-0.12,0.76-0.22,1.41-0.3,1.93c-0.1,0.61-0.18,1.14-0.26,1.58
		c-0.08,0.54-0.23,1.1-0.43,1.67c-0.2,0.57-0.45,1.07-0.76,1.52c-0.3,0.45-0.66,0.79-1.08,1.04c-0.41,0.25-0.87,0.33-1.38,0.24
		c-0.61-0.11-1.06-0.31-1.34-0.62s-0.47-0.63-0.56-0.96c-0.1-0.34-0.13-0.65-0.11-0.92c0.03-0.27,0.04-0.44,0.05-0.48
		c0.02-0.09,0.09-0.19,0.23-0.28s0.33-0.17,0.57-0.22c0.1-0.02,0.2-0.03,0.29-0.04c0.08-0.01,0.17-0.01,0.25-0.01
		c0.08,0,0.16,0.02,0.22,0.06c-0.15,0.19-0.26,0.41-0.32,0.67c-0.06,0.26-0.07,0.52-0.03,0.77c0.04,0.25,0.14,0.47,0.28,0.67
		c0.15,0.19,0.35,0.31,0.62,0.36c0.37,0.07,0.68,0.01,0.93-0.17c0.25-0.17,0.46-0.41,0.62-0.7c0.17-0.29,0.29-0.61,0.38-0.95
		c0.09-0.34,0.16-0.64,0.21-0.91c0.04-0.21,0.08-0.48,0.13-0.81c0.05-0.33,0.1-0.7,0.13-1.11c-0.18,0.21-0.38,0.4-0.6,0.58
		c-0.22,0.18-0.45,0.33-0.69,0.46c-0.24,0.13-0.47,0.22-0.7,0.28c-0.23,0.06-0.45,0.07-0.66,0.04c-0.36-0.06-0.63-0.23-0.81-0.49
		c-0.18-0.26-0.3-0.58-0.35-0.94c-0.05-0.36-0.07-0.74-0.04-1.15c0.03-0.4,0.07-0.78,0.13-1.11c0.04-0.25,0.11-0.56,0.2-0.92
		c0.09-0.36,0.18-0.7,0.27-1.03c0.09-0.33,0.19-0.61,0.28-0.85s0.17-0.37,0.24-0.4c0.37-0.14,0.72-0.19,1.04-0.16
		c0.33,0.04,0.56,0.12,0.71,0.25c-0.16,0.08-0.3,0.23-0.44,0.46c-0.13,0.23-0.26,0.48-0.37,0.77c-0.11,0.28-0.2,0.58-0.28,0.9
		c-0.08,0.31-0.14,0.6-0.18,0.85c-0.04,0.21-0.08,0.46-0.12,0.75c-0.04,0.29-0.06,0.57-0.07,0.84c-0.01,0.27,0.02,0.51,0.06,0.71
		c0.05,0.2,0.14,0.31,0.26,0.33c0.25,0.04,0.51-0.01,0.76-0.15c0.25-0.15,0.49-0.34,0.7-0.59c0.22-0.25,0.4-0.52,0.55-0.82
		s0.25-0.59,0.3-0.87l0.02-0.14c0.03-0.3,0.06-0.59,0.08-0.87c0.02-0.28,0.05-0.52,0.07-0.75c0.02-0.22,0.04-0.41,0.06-0.55
		s0.03-0.24,0.04-0.29c0.02-0.12,0.12-0.21,0.29-0.27c0.17-0.07,0.36-0.1,0.55-0.11s0.37,0.01,0.53,0.05
		C63.12,148.09,63.19,148.16,63.18,148.25z"/>
	<path class="st17" d="M67.47,155.2c0.03-0.23,0.08-0.55,0.16-0.95s0.17-0.85,0.27-1.34c0.1-0.49,0.22-1,0.34-1.55
		c0.12-0.54,0.23-1.08,0.35-1.61c0.11-0.53,0.22-1.03,0.32-1.51c0.1-0.48,0.19-0.89,0.26-1.25c0.06-0.25,0.11-0.5,0.17-0.74
		c0.05-0.21,0.09-0.43,0.14-0.67c0.04-0.24,0.07-0.46,0.08-0.66c0.1-0.02,0.18-0.04,0.24-0.06c0.06-0.03,0.13-0.05,0.19-0.08
		c0.06-0.03,0.14-0.06,0.22-0.1c0.08-0.04,0.2-0.08,0.35-0.11c0.09-0.02,0.18-0.03,0.27-0.04c0.09-0.01,0.18-0.01,0.28-0.01
		c0.1,0.01,0.21,0.03,0.32,0.06c0.08,0.68,0.18,1.31,0.28,1.9c0.1,0.58,0.22,1.15,0.33,1.7c0.12,0.55,0.25,1.1,0.39,1.66
		c0.14,0.55,0.28,1.15,0.42,1.78c0.15,0.65,0.28,1.23,0.4,1.77c0.12,0.53,0.22,1,0.29,1.39c0.1-0.41,0.2-0.87,0.31-1.38
		c0.11-0.51,0.22-1.04,0.33-1.58c0.11-0.54,0.21-1.07,0.31-1.6c0.1-0.52,0.19-1.01,0.28-1.47c0.09-0.46,0.16-0.86,0.22-1.2
		c0.06-0.35,0.11-0.6,0.13-0.76c0.05-0.29,0.17-0.51,0.36-0.68c0.19-0.16,0.4-0.29,0.62-0.36c0.22-0.08,0.44-0.12,0.65-0.14
		c0.21-0.01,0.36-0.01,0.45,0.01c0.07,0.01,0.13,0.03,0.17,0.05c0.04,0.02,0.08,0.04,0.12,0.06s0.07,0.04,0.09,0.07
		c-0.24,0.23-0.44,0.49-0.58,0.77c-0.14,0.28-0.26,0.57-0.36,0.87c-0.09,0.29-0.17,0.58-0.22,0.87c-0.05,0.29-0.1,0.55-0.14,0.8
		c-0.11,0.58-0.25,1.28-0.43,2.12c-0.15,0.72-0.33,1.62-0.53,2.71s-0.44,2.38-0.7,3.89c-0.28,0.15-0.53,0.28-0.76,0.38
		c-0.23,0.1-0.51,0.1-0.82,0c-0.14-0.04-0.24-0.11-0.31-0.23c-0.07-0.12-0.13-0.28-0.18-0.49c-0.05-0.21-0.1-0.46-0.14-0.76
		c-0.04-0.3-0.1-0.65-0.19-1.06c-0.15-0.72-0.3-1.44-0.46-2.17c-0.16-0.73-0.31-1.42-0.45-2.08c-0.15-0.66-0.28-1.25-0.41-1.79
		c-0.12-0.54-0.23-0.98-0.31-1.31c-0.49,1.54-0.82,2.89-1.01,4.04c-0.18,1.14-0.29,1.99-0.33,2.53c-0.01,0.24-0.01,0.48,0,0.73
		c0.01,0.22,0.03,0.46,0.05,0.73c0.02,0.27,0.07,0.55,0.14,0.84c-0.23,0.16-0.45,0.26-0.65,0.3c-0.2,0.04-0.38,0.05-0.54,0.05
		c-0.18-0.01-0.34-0.04-0.5-0.11c-0.08-0.04-0.14-0.13-0.19-0.27c-0.05-0.15-0.09-0.32-0.11-0.53c-0.02-0.21-0.03-0.43-0.03-0.67
		S67.43,155.44,67.47,155.2z"/>
	<path class="st17" d="M81.63,157.45c0.01,0.08,0.03,0.17,0.06,0.24c0.03,0.06,0.06,0.13,0.12,0.19c0.05,0.06,0.13,0.11,0.22,0.14
		c-0.11,0.15-0.21,0.24-0.3,0.29c-0.05,0.03-0.1,0.04-0.13,0.05c-0.11,0.02-0.27,0.01-0.48-0.03c-0.21-0.04-0.4-0.14-0.57-0.3
		c-0.06-0.07-0.11-0.17-0.14-0.29c-0.04-0.1-0.07-0.24-0.08-0.42c-0.01-0.17,0-0.4,0.02-0.67c-0.22,0.32-0.45,0.56-0.69,0.73
		c-0.24,0.17-0.46,0.28-0.67,0.34c-0.24,0.09-0.48,0.12-0.71,0.11c-0.29-0.03-0.56-0.12-0.8-0.29c-0.24-0.17-0.43-0.39-0.56-0.67
		c-0.13-0.28-0.22-0.61-0.25-0.98c-0.03-0.38,0.01-0.78,0.13-1.23c0.12-0.47,0.28-0.87,0.5-1.21c0.21-0.34,0.45-0.64,0.71-0.89
		c0.26-0.25,0.52-0.46,0.79-0.62s0.52-0.29,0.75-0.38c0.24-0.09,0.44-0.16,0.61-0.2c0.17-0.04,0.27-0.05,0.32-0.06
		c0.13-0.01,0.25,0,0.33,0.02c0.09,0.03,0.16,0.09,0.21,0.2c0.02,0.04,0.04,0.08,0.07,0.14c0.02,0.05,0.03,0.12,0.05,0.2
		c0.02,0.08,0.04,0.17,0.04,0.27c-0.3,0.08-0.58,0.17-0.85,0.29c-0.27,0.11-0.53,0.26-0.77,0.44c-0.24,0.18-0.46,0.42-0.67,0.7
		c-0.2,0.29-0.39,0.65-0.55,1.08c-0.21,0.54-0.26,1.01-0.15,1.38s0.34,0.57,0.66,0.56c0.19-0.02,0.39-0.1,0.59-0.23
		c0.17-0.11,0.37-0.29,0.59-0.54c0.22-0.25,0.44-0.6,0.68-1.06c0.18-0.68,0.33-1.22,0.44-1.61c0.11-0.39,0.2-0.69,0.27-0.89
		c0.09-0.23,0.15-0.39,0.19-0.47c0.04-0.05,0.12-0.09,0.24-0.13c0.11-0.03,0.24-0.06,0.37-0.07c0.13-0.01,0.25-0.01,0.36,0
		c0.11,0.01,0.17,0.03,0.21,0.05c0.02,0.02,0.01,0.16-0.04,0.43c-0.05,0.27-0.12,0.61-0.21,1.02c-0.09,0.41-0.19,0.85-0.29,1.32
		c-0.11,0.48-0.21,0.93-0.3,1.35c-0.09,0.42-0.17,0.79-0.23,1.11C81.65,157.16,81.62,157.36,81.63,157.45z"/>
	<path class="st17" d="M87.75,153.87c-0.09-0.02-0.2,0.01-0.33,0.09c-0.13,0.08-0.26,0.19-0.39,0.34c-0.13,0.15-0.27,0.31-0.41,0.5
		c-0.14,0.18-0.27,0.37-0.39,0.57c-0.28,0.45-0.56,0.91-0.83,1.39c-0.27,0.47-0.46,0.89-0.56,1.26c-0.02,0.03-0.03,0.06-0.03,0.09
		c0,0.03-0.01,0.06-0.01,0.08c-0.02,0.02-0.03,0.05-0.04,0.1c-0.05,0.16-0.11,0.28-0.16,0.37c-0.06,0.09-0.15,0.14-0.29,0.15
		c-0.14,0-0.28-0.01-0.42-0.02c-0.14-0.01-0.27-0.05-0.39-0.1c-0.08-0.04-0.13-0.09-0.16-0.16c-0.03-0.07-0.04-0.15-0.05-0.24
		c0-0.09,0-0.18,0.01-0.26c0.01-0.08,0.02-0.15,0.03-0.21c0.01-0.07,0.06-0.29,0.13-0.65c0.08-0.36,0.16-0.77,0.25-1.23
		c0.09-0.46,0.18-0.91,0.26-1.36c0.08-0.44,0.13-0.78,0.16-1.02c0.01-0.17,0.01-0.32,0.01-0.46c0-0.13,0-0.26-0.01-0.39
		c-0.01-0.13-0.03-0.25-0.07-0.35c0.14-0.05,0.28-0.08,0.41-0.11s0.26-0.04,0.36-0.04c0.13-0.01,0.25-0.01,0.36-0.01
		c0.28,0.03,0.5,0.06,0.65,0.12c0.15,0.05,0.21,0.19,0.17,0.4c-0.04,0.2-0.1,0.5-0.2,0.9c-0.1,0.4-0.23,0.97-0.4,1.69
		c0.18-0.27,0.39-0.57,0.62-0.9c0.24-0.33,0.48-0.64,0.73-0.92c0.25-0.28,0.5-0.51,0.75-0.69c0.25-0.18,0.46-0.25,0.64-0.22
		c0.13,0.02,0.27,0.07,0.43,0.16c0.16,0.08,0.3,0.18,0.44,0.29c0.13,0.11,0.25,0.23,0.36,0.36s0.17,0.24,0.2,0.36
		c0.03,0.12,0.02,0.31-0.01,0.55c-0.03,0.24-0.08,0.51-0.14,0.81c0.13-0.2,0.27-0.4,0.42-0.59c0.15-0.19,0.3-0.36,0.46-0.52
		s0.3-0.29,0.45-0.39c0.15-0.1,0.28-0.17,0.39-0.2c0.15-0.03,0.32-0.02,0.51,0.05c0.19,0.07,0.37,0.16,0.55,0.28
		c0.17,0.12,0.32,0.25,0.45,0.39s0.19,0.27,0.21,0.38c0.01,0.12,0.01,0.31-0.01,0.55c-0.02,0.25-0.05,0.51-0.09,0.8
		s-0.09,0.59-0.14,0.9c-0.05,0.3-0.11,0.57-0.16,0.8c-0.14,0.67-0.23,1.19-0.26,1.59c-0.03,0.39,0.06,0.7,0.27,0.93
		c-0.18,0.08-0.34,0.13-0.49,0.15c-0.15,0.03-0.28,0.04-0.38,0.05c-0.13,0.01-0.25,0.01-0.34-0.01c-0.13-0.02-0.22-0.07-0.29-0.15
		c-0.07-0.08-0.12-0.17-0.15-0.28c-0.03-0.11-0.04-0.23-0.03-0.36s0.03-0.26,0.05-0.38c0.02-0.12,0.06-0.31,0.13-0.58
		s0.13-0.57,0.21-0.92c0.07-0.34,0.13-0.7,0.19-1.06s0.09-0.7,0.1-1.02c0.01-0.31-0.01-0.58-0.07-0.79
		c-0.06-0.21-0.17-0.33-0.33-0.36c-0.14-0.03-0.29,0.04-0.44,0.18c-0.16,0.15-0.32,0.34-0.48,0.59s-0.32,0.53-0.46,0.85
		c-0.15,0.31-0.28,0.63-0.41,0.94c-0.13,0.31-0.23,0.6-0.31,0.86c-0.08,0.27-0.14,0.48-0.17,0.64l0.01-0.16
		c-0.04,0.22-0.07,0.42-0.1,0.61c-0.03,0.19-0.05,0.37-0.07,0.56c0,0.07-0.07,0.12-0.22,0.15s-0.3,0.02-0.47-0.01
		c-0.17-0.04-0.31-0.1-0.44-0.19c-0.13-0.09-0.17-0.22-0.15-0.38c0.02-0.12,0.05-0.29,0.09-0.52c0.04-0.23,0.08-0.49,0.13-0.78
		c0.05-0.29,0.09-0.59,0.14-0.91c0.05-0.32,0.09-0.62,0.13-0.91c0.04-0.22,0.08-0.45,0.11-0.68c0.03-0.23,0.06-0.44,0.07-0.64
		c0.01-0.19-0.01-0.35-0.05-0.48C87.94,153.96,87.86,153.89,87.75,153.87z"/>
	<path class="st17" d="M95.62,161.02c-0.81-0.14-1.38-0.52-1.73-1.14s-0.44-1.37-0.28-2.25c0.11-0.61,0.3-1.17,0.57-1.67
		c0.27-0.51,0.59-0.93,0.96-1.27c0.37-0.34,0.77-0.59,1.21-0.74c0.44-0.15,0.88-0.19,1.31-0.12c0.43,0.08,0.76,0.29,1.01,0.65
		c0.25,0.36,0.32,0.82,0.22,1.39c-0.06,0.37-0.21,0.72-0.44,1.06c-0.23,0.34-0.49,0.62-0.8,0.86c-0.31,0.24-0.63,0.41-0.98,0.53
		c-0.34,0.12-0.66,0.15-0.95,0.1c-0.18-0.03-0.34-0.08-0.46-0.15s-0.22-0.16-0.31-0.27c-0.08,0.66-0.02,1.15,0.19,1.45
		s0.51,0.49,0.92,0.56c0.28,0.05,0.53,0.03,0.77-0.04s0.44-0.18,0.62-0.3c0.18-0.12,0.33-0.26,0.45-0.39
		c0.12-0.14,0.2-0.25,0.25-0.32c0.05-0.06,0.11-0.09,0.2-0.07c0.09,0.02,0.12,0.09,0.09,0.23c-0.02,0.13-0.1,0.31-0.23,0.56
		c-0.13,0.24-0.32,0.48-0.56,0.7c-0.24,0.22-0.53,0.41-0.88,0.55C96.45,161.07,96.06,161.1,95.62,161.02z M97.58,154.58
		c-0.07-0.01-0.21,0.04-0.43,0.15c-0.22,0.11-0.46,0.29-0.72,0.53c-0.26,0.24-0.52,0.54-0.76,0.89c-0.25,0.35-0.44,0.77-0.57,1.25
		c0.72-0.04,1.31-0.2,1.78-0.47c0.46-0.27,0.76-0.75,0.87-1.42c0.06-0.33,0.06-0.57,0-0.71C97.7,154.67,97.64,154.59,97.58,154.58z"
		/>
</g>
<line class="st18" x1="160.02" y1="243.88" x2="214.34" y2="316.07"/>
<line class="st19" x1="183.02" y1="336.88" x2="198.43" y2="357.99"/>
<line class="st20" x1="81.02" y1="174.95" x2="96.65" y2="180.49"/>
<line class="st20" x1="269.1" y1="217.48" x2="261.09" y2="215.97"/>
<g>
	<path class="st13" d="M348.88,359.81c-10.75-7.77-25.84-9.04-37.74-3.18c3.68-1.81,6.79-4.32,10.72-5.79
		c3.88-1.46,7.96-2.38,12.09-2.74c3.62-0.31,7-0.83,9.72,1.91C346.3,352.65,347.66,356.36,348.88,359.81z"/>
	<path class="st5" d="M263.86,377.25c-0.47-4-0.74-8.03-0.83-12.06c-0.15-7.15,2.42-13.65,9.36-16.8
		c5.54-2.52,11.14-1.65,17.01-1.67c5.1-0.01,9.84-2.49,14.59-4.04c5.68-1.85,11.6-3.2,17.6-3.1c7.82,0.13,15.9,3.03,20.78,9.13
		c-5.25-0.94-10.77-0.34-15.69,1.72c-9.75,4.08-16.33,13.23-24.99,19.3c-8.86,6.2-19.69,9-30.44,10.19
		c-1.97,0.22-3.99,0.39-5.79,1.22c-1.8,0.82-3.38,2.45-3.55,4.42"/>
	<path class="st21" d="M263.86,377.25c-0.47-4-0.74-8.03-0.83-12.06c-0.15-7.15,2.42-13.65,9.36-16.8
		c5.54-2.52,11.14-1.65,17.01-1.67c5.1-0.01,9.84-2.49,14.59-4.04c5.68-1.85,11.6-3.2,17.6-3.1c7.82,0.13,15.9,3.03,20.78,9.13
		c-5.25-0.94-10.77-0.34-15.69,1.72c-9.75,4.08-16.33,13.23-24.99,19.3c-8.86,6.2-19.69,9-30.44,10.19
		c-1.97,0.22-3.99,0.39-5.79,1.22c-1.8,0.82-3.38,2.45-3.55,4.42"/>
	<path class="st21" d="M314.04,340.41c-5.29,0.74-10.25,3.62-13.53,7.84c-1.95,2.51-3.3,5.43-5.15,8.02
		c-2.77,3.87-6.66,6.93-11.08,8.71c-4.08,1.64-8.28,2.49-12.03,4.91c-2.1,1.36-4,3.01-5.71,4.83c-1.71,1.83-3.04,3.98-4.77,5.78
		c-2.02,2.1-4.71,3.55-7.57,4.07"/>
</g>
<g>
	<path class="st5" d="M311.96,375.39c-8.85-6.88-18.34-8.68-28.69-3.54c-7.14,3.54-12.02,9.75-18.36,14.36l-1.27,5.3
		c0.1,0,0.21-0.01,0.32,0.02c0.53,0.12,0.94,0.79,0.75,1.32c-0.18,0.48-0.33,0.97-0.47,1.46c8.83-10.61,27.45-7.38,39.35-5.93
		c11.72,1.42,23.31,3.9,34.58,7.39C329.43,388.97,320.7,382.18,311.96,375.39z"/>
	<path class="st21" d="M264.9,386.21c6.66-4.98,11.66-10.98,19.66-14.98c22-10,37,14,53.6,24.53c-11.9-3.69-5.73-4.46,0,0
		c-19.6-6.53-39.6-9.53-60.6-8.53c-4,0-9,2-12.25,5.87"/>
	<path class="st21" d="M336.65,395.26c-11.07-6.93-22.94-14.67-36.13-16.56c-6.53-0.94-13.19,0.12-19.28,2.59
		c-8.35,3.38-14.72,8.17-24.21,7.55"/>
</g>
<path class="st22" d="M314.87,333.99c3.96,0.63,9.02-2.07,11.14-5.36c2.02-3.15-0.22-8.38-4.19-8.41c-4.72-0.04-6.55,7.54-1.16,7.95
	c1.94,0.15,3.84-1.87,1.97-3.41c-0.43-0.35-0.9,0.25-1.25-0.18"/>
<path class="st23" d="M343.95,380.02c-0.26,0-0.36,0.03-0.6-0.09c-3.88-1.98-0.23-5.43,2.59-3.13c1.52,1.25,2.49,3.99,1.1,5.67
	c-5.35,6.43-12.42-8.15-18.41-5.61"/>
<path class="st22" d="M338.38,316.69c1.24-1.3,0.3-3.18-1.36-2.3c-1.12,0.59-1.87,2.99-1.17,4.06c1.98,2.99,5.3-0.63,5.45-3.04
	c0.25-3.93-5.02-6.49-7.74-3.46c-4.03,4.5,1.25,11.34-1.31,16.27"/>
<g>
	<path class="st23" d="M211.96,385.8c1.59-2.74,5.03-2.71,7.09-4.86c3.17-3.3,4.05-7.96,2.25-11.83c-2.24-4.82-1.75-8.9-1.55-13.97
		c-1.58,1.96-2.51,4.41-4.5,6.11c-2.98,2.55-7.26,3.36-8.99,7.26c-1.99,4.47-1.24,10.04,1.85,13.83"/>
	<path class="st24" d="M219.33,357.09c-0.53,1.68-0.79,2.95-1.82,4.44c-1.46,2.12-3.47,4.63-4.1,7.13
		c-0.72,2.88-0.99,5.93-1.25,8.88c-0.15,1.72-0.28,3.48-0.9,5.1c-0.51,1.33-1.34,2.52-2,3.78c-1.73,3.26-2.38,7.08-1.84,10.73"/>
</g>
<g>
	<path class="st25" d="M207.28,396.67c-0.78-6.13-1.4-11.91-6.51-16.06c-3.39-2.75-7.84-3.6-11.31-6.39
		c-3.81-3.08-7.67-6.34-12.49-7.66c-6.45-1.77-13.39-1.42-20-1.74"/>
	<path class="st23" d="M202.08,375.43c0.94,0.96-0.64,2.48-1.67,1.97c-0.78-0.39-1.17-2.46-1.45-3.24
		c-0.49-1.35-0.95-2.71-1.54-4.03c-3.05-6.86-8.85-15.03-17.45-11.79c-3.9,1.47-6.7,3.47-10.99,3.66
		c-4.71,0.21-9.07,1.05-13.19,3.46c3.05-0.25,6.04,1.21,8.31,3.26c4.08,3.7,5.42,10.18,9.76,13.35c1.58,1.16,3.69,0.76,5.32,1.72
		c2.58,1.52,2.39,4.79,5.76,5.37c4.99,0.85,10.64-3.77,14.57-6.26"/>
</g>
<g>
	<path class="st13" d="M264.92,278.26c-6.66,6.01-16.51,4.98-22.01-2.3c-5.5-7.28-4.55-18.05,2.11-24.05
		c6.66-6.01,16.51-4.98,22.01,2.3C272.52,261.49,271.57,272.26,264.92,278.26z"/>
</g>
<path class="st26" d="M306.96,250.75c8.18,12.84,4.95,28.55-8.08,42.76"/>
<g>
	<line class="st24" x1="315.22" y1="250.04" x2="306.47" y2="299.46"/>
	<circle class="st24" cx="306.01" cy="301.92" r="2.5"/>
	<circle class="st24" cx="315.62" cy="247.42" r="2.5"/>
	
		<rect x="309.02" y="272.6" transform="matrix(-0.1605 0.987 -0.987 -0.1605 632.6149 11.7335)" class="st27" width="4.6" height="4.6"/>
</g>
<path class="st28" d="M286.23,35.2c-9.15,4.21-9.66,13.2-4.78,21.08c4.05,6.55,9.62,10.56,17.17,11.94
	c6.95,1.27,13.99,2.27,20.35,5.53c3.7,1.9,11.23,5.69,14.27,1.04c4.53-6.92-4.27-15.43-8.61-19.92
	C315.36,45.26,301.57,28.13,286.23,35.2z"/>
<path class="st29" d="M289.11,47.07c0.02,0.2,0.04,0.41,0.08,0.62c0.99,5.8,17.51,14.78,21.12,7.99
	c3.44-6.47-7.53-11.82-11.85-13.31C294.54,41.01,288.67,41.89,289.11,47.07z"/>
<path class="st28" d="M309.38,88.47c-0.79,0.4-1.55,0.79-2.25,1.04c-2.83,1.03-4.46,2.07-4.34,5.41c0.15,4.12,3.17,7.08,6.2,9.48
	c7.4,5.85,11.32-5.6,9.87-11.81c-0.57-2.46-2.2-5.41-5.03-5.56C312.43,86.96,310.86,87.73,309.38,88.47z"/>
<path class="st23" d="M359.75,374.97c-0.21-1.42-1.5-2.17-2.85-1.74c-2.13,0.67-2.05,3.42-0.41,4.56c2.36,1.64,6.39,0.28,6.67-2.78
	c0.33-3.6-4.55-5.56-7.34-4.02"/>
<path class="st23" d="M166.08,351.43c1.4,0.33,2.57-0.6,2.67-2.01c0.16-2.22-2.43-3.17-4.09-2.06c-2.39,1.59-2.62,5.83,0.13,7.23
	c3.22,1.64,6.84-2.18,6.44-5.34"/>
</svg>
