<?xml version="1.0" encoding="utf-8"?>
<!-- Generator: Adobe Illustrator 26.1.0, SVG Export Plug-In . SVG Version: 6.00 Build 0)  -->
<svg version="1.1" id="Layer_1" xmlns="http://www.w3.org/2000/svg" xmlns:xlink="http://www.w3.org/1999/xlink" x="0px" y="0px"
	 viewBox="0 0 771.2 548.8" style="enable-background:new 0 0 771.2 548.8;" xml:space="preserve">
<style type="text/css">
	.st0{fill:#242630;}
	.st1{fill:#FFA895;}
	.st2{fill:#7CCB73;}
	.st3{fill:#C0CA33;}
	.st4{fill:#7E57C2;}
	.st5{fill:#FFFFFF;}
	.st6{fill:#F2F2F2;}
	.st7{fill:#FB5151;}
	.st8{fill:#D9D9D9;}
	.st9{fill:#FDD835;}
	.st10{fill:#26C6DA;}
	.st11{fill:#F76D6D;}
	.st12{fill:none;stroke:#242630;stroke-linecap:round;stroke-linejoin:round;stroke-miterlimit:10;}
	.st13{fill:#FF573B;}
	.st14{fill:#FF6F00;}
</style>
<g>
	<path class="st0" d="M694.9,267.3c-1,5-6,7.5-10.5,8.9c-2.9,0.9-5.8,1.5-8.7,2.2c-3.4,0.8-6.7,1.5-10.1,2.3
		c-6.7,1.4-13.4,2.8-20.2,3.9c-3.3,0.6-6.7,1-10.1,0.6c-3.1-0.3-6.2-1.2-9.1-2.3c-6.1-2.3-11.8-5.7-17.4-8.8
		c-5.6-3.2-11.3-6.4-16.8-9.8c-3.3-2.1-6.7-4.7-8.5-8.2c-0.8-0.2-0.9-1-0.8-1.8c-0.2-0.5-0.3-1-0.4-1.5c-0.1-0.5,0.2-0.8,0.6-0.9
		c-0.1-1-0.3-1.9-0.6-2.8c-0.7-2.4-1-4.8-0.5-7.3c0.5-2.4,1.5-4.6,2.9-6.6c1.3-1.9,3-3.9,5.1-4.8c1.4-0.6,3-0.6,4.3,0.1
		c0.2,0,0.4,0,0.6,0.1c4.6,3.3,10.6,5.2,16.2,3.7c5.1-1.3,9-5.2,13.4-7.9c4.5-2.7,9.6-4.8,14.9-4.8c5,0,10,1.6,13.5,5.2
		c2.9,3.1,4.5,7.4,3.9,11.6c1.1-0.2,2.1-0.4,3.2-0.5c11.6-1.2,23,4,29.8,13.4c1.6,2.2,2.9,4.5,3.8,7
		C694.6,261.2,695.5,264.3,694.9,267.3z"/>
</g>
<g>
	<path class="st1" d="M729.1,299.2c-1.5,6-6.7,10.5-12.5,12.6c-5.8,2.2-12,2.4-18.2,2.7c-11.7,0.4-23.4,0.9-35.1,1.3
		c1.8-11.6,4.6-23,7.2-34.4c1.7-7.5,3.2-15.1,4.1-22.8c10.6,2.3,21,5.1,31.4,9.6c5.9,2.5,13.2,7.2,17.7,11.8
		C728.1,284.6,730.6,293,729.1,299.2z"/>
</g>
<g>
	<path class="st1" d="M505.7,320.8c-3.1-0.2-6.2-0.5-9.3-0.9c-14.4-1.9-32.3-4.6-44-13.1c-7.4-5.4-10.4-16.5-6.9-24.9
		c2.8-6.7,12.4-13.9,19.1-16.6c14.1-5.7,24.2-8.1,36.5-10c1.4,19.9,2.8,39.7,4.1,59.6C505.4,316.8,505.6,318.8,505.7,320.8z"/>
</g>
<g>
	<path class="st1" d="M674.5,258.7c-0.9,7.7-2.4,15.3-4.1,22.8c-2.5,11.4-5.4,22.8-7.2,34.4c-41.1,1.6-82.3,3.2-123.4,4.8
		c-11.4,0.4-22.8,0.9-34.1,0.1c-0.1-2-0.3-4-0.4-6c-1.4-19.9-2.8-39.7-4.1-59.6c3.7-0.6,7.6-1.1,11.8-1.6
		c32.1-4.1,94.8-8.8,135.6-0.1C657.5,255.3,666.1,256.9,674.5,258.7z"/>
</g>
<g>
	<path class="st2" d="M674.5,258.7c-0.9,7.7-2.4,15.3-4.1,22.8c-2.5,11.4-5.4,22.8-7.2,34.4c-41.1,1.6-82.3,3.2-123.4,4.8
		c-11.4,0.4-22.8,0.9-34.1,0.1c-0.1-2-0.3-4-0.4-6c-1.4-19.9-2.8-39.7-4.1-59.6c3.7-0.6,7.6-1.1,11.8-1.6
		c32.1-4.1,94.8-8.8,135.6-0.1C657.5,255.3,666.1,256.9,674.5,258.7z"/>
</g>
<g>
	<path class="st0" d="M656.4,250.7c-0.5,2.2-2.7,3.4-4.6,4c-1.2,0.4-2.4,0.6-3.6,0.9c-1.5,0.3-2.9,0.7-4.4,1.1
		c-2.9,0.8-5.8,1.8-8.7,2.9c-5.6,2.2-11,4.9-16.1,8.2c-2.5,1.6-4.9,3.4-7.3,5.2c-2.4,1.7-4.9,3.4-7.8,4.3c-2.4,0.7-5,0.8-7.4,0
		c-2.5-0.8-4.5-2.8-5.4-5.3c-2.2-5.9-0.7-13.8,1.3-19.3c1-2.7-0.8-4.8-1.1-7.7s-1-5.2-3.5-6.8c-0.7-0.4,3.4-0.5,4.1-0.6
		c0.2-0.2,0.4-0.3,0.7-0.2c1.7,0.2,3.4,0.4,5.1,0.5c6.9,0.7,13.7,1.6,20.6,2.2c3.3,0.3,6.6,0.5,9.8,0.5c2.8,0,5.7,0,8.5,0.2
		c5.5,0.3,11.1,1.1,15.9,4C654.5,246.1,657,248,656.4,250.7z"/>
</g>
<g>
	<path class="st1" d="M535.2,298c-2.6,2.4-6.4,3-9.9,3.2c-8.3,0.6-16.7-0.2-25-0.6c-8.4-0.4-16.8-0.9-25.2-1.3
		c-4.1-0.2-8.1-0.4-12.2-0.6c-7.7-0.5-13,1.6-16-8.2c-3.4-11.3,17.5-20.2,28-20.8c3.9-0.2,7.9,0.6,11.8,1c3.8,0.4,7.6,0.8,11.4,1.4
		c7.7,1.2,15.4,2.9,22.5,5.9c3.5,1.5,6.8,3.2,9.9,5.2c2.7,1.7,5.4,3.9,6.6,6.8C538.4,292.9,537.5,295.9,535.2,298z"/>
</g>
<g>
	<g>
		<path class="st3" d="M483.3,376.3c0,23.6-9.9,44.9-25.7,60c-14.9,14.2-35.1,22.9-57.3,22.9c-2.1,0-4.3-0.1-6.4-0.2
			c-12.9-1-25.1-4.9-35.7-11.2c-17.8-10.5-31.3-27.4-37.4-47.5c-2.3-7.6-3.5-15.7-3.5-24c0-45.8,37.2-83,83-83
			C446.2,293.3,483.3,330.5,483.3,376.3z"/>
	</g>
</g>
<g>
	<path class="st4" d="M462.4,410c0,1.6-0.1,3.3-0.2,4.9c-0.5,6.7-1.9,13.3-3.9,19.7c-0.2,0.6-0.4,1.1-0.6,1.7
		c-14.9,14.2-35.1,22.9-57.3,22.9c-2.1,0-4.3-0.1-6.4-0.2c-0.3,0-0.6,0-0.9-0.1c-0.5,0-1-0.1-1.5-0.2c-0.3,0-0.7-0.1-1-0.1
		c-0.1,0-0.3,0-0.4,0c-0.3,0-0.6-0.1-0.9-0.1c-0.6-0.1-1.2-0.2-1.9-0.3c-0.4-0.1-0.8-0.1-1.1-0.2c-0.2,0-0.4-0.1-0.5-0.1
		s-0.2,0-0.3,0c-0.5-0.1-0.9-0.2-1.4-0.3c-0.5-0.1-1-0.2-1.4-0.3c-0.2,0-0.4-0.1-0.6-0.1c-0.4-0.1-0.8-0.2-1.2-0.3
		c-0.2,0-0.4-0.1-0.6-0.2c-0.2,0-0.4-0.1-0.6-0.1c-0.5-0.1-1-0.3-1.5-0.4c-0.2-0.1-0.5-0.1-0.7-0.2c-0.3-0.1-0.5-0.2-0.8-0.2
		c-0.4-0.1-0.8-0.3-1.3-0.4c-0.5-0.2-1.1-0.3-1.6-0.5c-0.1,0-0.1,0-0.2-0.1c-0.4-0.1-0.7-0.2-1.1-0.4c-0.2-0.1-0.3-0.1-0.4-0.2
		c-0.2-0.1-0.3-0.1-0.5-0.2c-0.3-0.1-0.6-0.2-1-0.4c-0.8-0.3-1.5-0.6-2.2-0.9c-0.4-0.2-0.8-0.4-1.3-0.5c-0.5-0.2-1-0.4-1.5-0.7
		c-0.1-0.1-0.3-0.1-0.4-0.2c-0.4-0.2-0.8-0.4-1.2-0.6c-0.1,0-0.1-0.1-0.2-0.1c-0.5-0.2-1-0.5-1.5-0.8c-0.4-0.2-0.9-0.5-1.3-0.7
		c-0.1-0.1-0.2-0.1-0.4-0.2c-0.4-0.2-0.8-0.4-1.2-0.7c-0.1,0-0.2-0.1-0.3-0.1c-0.3-0.1-0.5-0.3-0.8-0.5c-0.2-0.1-0.4-0.2-0.6-0.3
		c-3.5-2.1-6.9-4.5-10.1-7.1c-0.4-0.3-0.8-0.7-1.3-1c-11.9-10.2-20.9-23.7-25.5-39c2.3-4.5,4.8-9.1,7.5-13.3
		c3.6-5.5,8.1-10.4,13.3-14.3c8.3-6.2,18.2-10.1,28.4-11.2c2.4,1.5,4.5,3.3,6.6,5.2c2.5,2.2,5.2,4.3,8.1,6.1c2.8,1.7,5.9,3,9,3.9
		c3.3,0.9,6.8,1.5,10.2,1c3-0.4,6.9-1.6,6.9-5.2c0-0.8,0-1.5-0.1-2.3c2.7,1.1,5.4,2.4,8.1,3.6c12.9,6.2,24.9,14.1,35.8,23.3
		c1.4,1.2,2.7,2.3,4.1,3.5c1.3,1.2,2.5,2.4,3.1,4.1C462.5,406.4,462.4,408.2,462.4,410z"/>
</g>
<g>
	<path class="st0" d="M360.8,412.1c-1.2,3.5-2.6,7-4.1,10.4c-2.6,6-5.5,11.8-8.8,17.5c-0.1,0.1-0.2,0.3-0.2,0.4
		c-0.4-0.3-0.8-0.7-1.3-1c0.2-0.2,0.3-0.5,0.4-0.7c1.7-2.9,3.2-5.8,4.7-8.8c2.9-5.9,5.5-12.1,7.7-18.3
		C359.6,410.5,361.1,411.1,360.8,412.1z"/>
</g>
<g>
	<path class="st1" d="M439.2,427.7c-3.3,5.1-8.3,8.9-13.4,12.1c-1.3,0.8-2.7,1.7-4,2.5c-0.5-0.5-1-1.1-1.4-1.6
		c-4.8-5.6-8.1-12.6-8.2-20c0-0.3,0-0.6,0-0.9c5.8-3,10.4-5.3,16.8-9c4.7-2.7,5.5-5.5,10.2-0.9C444.2,414.7,442.5,422.5,439.2,427.7
		z"/>
</g>
<g>
	<path class="st4" d="M421.7,442.3c-5,3.1-10.1,6.1-15.2,9.1c-3.4,2.1-6.9,4.2-10.3,6.2c-0.8,0.5-1.5,0.9-2.3,1.4
		c-0.3,0-0.6,0-0.9-0.1c-0.5,0-1-0.1-1.5-0.2c-0.3,0-0.7-0.1-1-0.1c-0.1,0-0.3,0-0.4,0c-0.3,0-0.6-0.1-0.9-0.1
		c-0.6-0.1-1.2-0.2-1.9-0.3c-0.4-0.1-0.8-0.1-1.1-0.2c-0.2,0-0.4-0.1-0.5-0.1s-0.2,0-0.3,0c-0.5-0.1-0.9-0.2-1.4-0.3
		c-0.5-0.1-1-0.2-1.4-0.3c-0.2,0-0.4-0.1-0.6-0.1c-0.4-0.1-0.8-0.2-1.2-0.3c-0.2,0-0.4-0.1-0.6-0.2c-0.2,0-0.4-0.1-0.6-0.1
		c-0.5-0.1-1-0.3-1.5-0.4c-0.2-0.1-0.5-0.1-0.7-0.2c-0.3-0.1-0.5-0.2-0.8-0.2c-0.4-0.1-0.8-0.3-1.3-0.4c-0.5-0.2-1.1-0.3-1.6-0.5
		c-0.1,0-0.1,0-0.2-0.1c-0.4-0.1-0.7-0.2-1.1-0.4c-0.2-0.1-0.3-0.1-0.4-0.2c-0.2-0.1-0.3-0.1-0.5-0.2c-0.3-0.1-0.6-0.2-1-0.4
		c-0.8-0.3-1.5-0.6-2.2-0.9c-0.4-0.2-0.8-0.4-1.3-0.5c-0.5-0.2-1-0.4-1.5-0.7c-0.1-0.1-0.3-0.1-0.4-0.2c-0.4-0.2-0.8-0.4-1.2-0.6
		c-0.1,0-0.1-0.1-0.2-0.1c-0.5-0.2-1-0.5-1.5-0.8c-0.4-0.2-0.9-0.5-1.3-0.7c-0.1-0.1-0.2-0.1-0.4-0.2c-0.4-0.2-0.8-0.4-1.2-0.7
		c-0.1,0-0.2-0.1-0.3-0.1c-0.3-0.1-0.5-0.3-0.8-0.4c4.1-2.4,8.6-4.3,12.9-6.4c5.7-2.8,18.1-8.9,23.6-12.1c7.5-4.4,12.8-7.3,17.4-9.6
		c0,0.3,0,0.6,0,0.9c0,0.2,0,0.4,0,0.6c0.3,7.2,3.6,14,8.2,19.5C420.8,441.3,421.2,441.8,421.7,442.3z"/>
</g>
<g>
	<path class="st5" d="M428.3,412.7c-0.5,0.3-1,0.5-1.5,0.8c-3.1,1.7-6.2,3.3-9.3,4.9c-1.8,1-3.6,1.9-5.4,2.8
		c-8.5,4.4-17,8.6-25.5,12.9c-9.1,4.6-18.3,9.3-27.3,14.3c-0.1,0-0.2-0.1-0.3-0.1c-0.3-0.1-0.5-0.3-0.8-0.4
		c-0.2-0.1-0.4-0.2-0.6-0.4c4.9-2.7,9.8-5.3,14.7-7.9c10.3-5.3,20.6-10.5,31-15.7c7.7-3.9,15.4-7.9,23.1-12c0.5-0.3,1-0.6,1.5-0.8
		c0,0.1,0,0.2,0,0.3C428.1,411.7,428.2,412.2,428.3,412.7z"/>
</g>
<g>
	<rect x="438.9" y="294.2" class="st6" width="277.2" height="202.2"/>
</g>
<g>
	<rect x="538.5" y="436.1" class="st7" width="194.7" height="112.7"/>
</g>
<g>
	<rect x="438.9" y="294.2" class="st8" width="104.8" height="202.2"/>
</g>
<g>
	<path class="st5" d="M447.8,485.8c-2.5-2.9-5.5-5.4-8.8-7.1v1.7c6,3.5,10.7,9.5,13.2,15.9h1.7C452.5,492.5,450.4,488.9,447.8,485.8
		z M474.4,490.9c-1.1-5.3-3.1-10.5-5.9-15.2c-1.4-2.4-2.9-4.6-4.7-6.7c-1.7-2.1-3.7-4-5.6-6c-1.9-2.1-3.8-4.3-5-6.8s-1.8-5.2-2.3-8
		c-0.4-2.7-0.7-5.5-1.1-8.3c-0.3-2.3-0.5-5.3-2-7.2c-2.4-3.2-6.4-1-9,1.5v2.4c0-0.1,0.1-0.1,0.1-0.2c1.3-1.7,3.9-4,6.3-3.6
		c2.5,0.5,2.6,5,2.9,7c0.4,2.8,0.7,5.6,1.1,8.5c0.4,2.7,1,5.4,2.1,7.9s2.7,4.7,4.5,6.8c1.8,2,3.7,3.8,5.5,5.8c1.8,2.1,3.5,4.3,5,6.7
		c3,4.8,5.1,10.1,6.3,15.6c0.4,1.8,0.6,3.6,0.9,5.4h1.6C475,494.5,474.8,492.7,474.4,490.9z M507.1,482.5c-2.7-4.1-7.4-6.3-11.9-7.8
		c-4.7-1.6-9.4-3.1-13.8-5.5c-16.7-9.2-28.2-27.4-29.4-46.4c-0.1-2.3-0.1-4.7,0-7c0-0.4-0.2-0.7-0.5-0.8c-4-1.9-7.8,0.8-10.3,3.8
		c-0.8,1-1.6,2.1-2.2,3.2v3.2c0.4-0.7,0.7-1.3,1.1-2c1.9-3.4,5.9-8.5,10.3-6.9c-1.2,18.7,7.7,37.3,22.1,48.9
		c3.6,2.9,7.6,5.4,11.8,7.3c4.6,2.1,9.5,3.1,14.1,5.2c4.8,2.1,8.5,5.7,9.5,11c0.5,2.6,0.3,5.2-0.5,7.7h1.7
		C510.3,491.6,509.7,486.5,507.1,482.5z M517.2,476c-2.4-5.9-10-7.5-15.5-9.1c-6.2-1.8-12.6-3.4-18.4-6.4c-6.2-3.1-10.7-8-13.7-14.2
		c-1.5-3.1-2.8-6.3-3.9-9.5c-1.3-3.6-2.6-7.3-3.3-11.1c-0.7-3.7-1-7.6,0.1-11.3c1-3.6,3.4-6.5,5.2-9.7c1.6-2.7,2.7-5.9,2.3-9.1
		c-0.4-2.8-2.2-5.2-4.8-6.3c-5.6-2.4-12.2,0.6-16.8,3.9c-3.4,2.4-6.4,5.4-9.2,8.5v2.5c3.8-4.3,7.8-8.5,12.8-11.3
		c4.4-2.5,13.3-5.1,15.9,1.3c1.3,3.1,0.1,6.7-1.4,9.5c-1.7,3.1-4,5.9-5.2,9.3c-2.4,6.8-0.6,14.1,1.6,20.7c2.1,6.4,4.3,12.9,8.2,18.4
		c3.6,5.2,8.6,8.8,14.4,11.3s12,3.9,18,5.8c3,0.9,6.2,1.8,8.8,3.5c2.9,1.9,4.4,4.8,4.2,8.3c-0.2,3.3-1.2,6.5-1.7,9.7
		c-0.3,2-0.4,3.9-0.1,5.9h1.6c-0.1-0.3-0.1-0.6-0.1-0.9C515.2,489,519.7,482.4,517.2,476z M483,406.3c6.6-0.5,12.9,2.9,17.9,7.1
		c5.3,4.5,9.4,10.1,13.8,15.4c4.6,5.4,9.7,9.8,15.9,13.3c4.2,2.3,8.6,4.3,13.2,5.9v-1.7c-2.1-0.8-4.2-1.6-6.2-2.5
		c-6.9-3-13.2-6.9-18.4-12.3c-9.2-9.6-16.6-23.2-30.6-26.2c-5.6-1.2-12.9-0.3-15.7,5.4c-1.4,2.8-1.6,6.3-1.5,9.4
		c0,3.1,0.5,6.1,1.3,9.1c1.6,5.8,4.6,11.2,8.6,15.7c4.4,4.8,9.8,8.2,16,10.2c13.1,4.4,27.4,2.9,40.4,7.7c2.1,0.8,4.2,1.7,6.2,2.8
		v-1.8c-10.4-5.5-22.4-5.8-33.9-7.5c-6.9-1-13.9-2.5-19.8-6.2c-5.2-3.2-9.4-7.7-12.4-13c-2.9-5.2-4.6-11.1-4.7-17.1
		c-0.1-3.2,0.1-7.1,2.1-9.8C476.8,407.6,480,406.5,483,406.3z M525.8,422.9c-6.3-2.4-11.7-6.4-16.2-11.3s-8.2-10.4-12.1-15.7
		c-7.3-9.8-17-20.5-30-21.5c-11.7-0.9-20.9,7.1-28.5,15.1v2.3c2.6-2.8,5.4-5.6,8.3-8c5.1-4.2,11-7.6,17.8-7.8
		c6.7-0.2,13,2.8,18.2,6.9c10.8,8.4,16.7,21.2,26.2,31c4.7,4.8,10.3,8.6,16.6,11c5.6,2.1,11.6,3,17.6,3v-1.6
		C537.7,426.1,531.5,425.1,525.8,422.9z M543.5,409.4c-14.4,1-26.8-7.8-35.7-18.2c-4.6-5.4-9-11.3-11.2-18.1
		c-1.1-3.4-1.2-6.8-1.2-10.4c0-2.9-0.2-6-2.4-8.1c-4.5-4.3-11.2-0.6-16,1c-2.6,0.9-5.8,1.6-8.4,0.3c-3-1.6-2.7-5.4-4.8-7.8
		c-0.9-1-2.1-1.9-3.6-1.8c-1.6,0.1-2.7,1.3-3.7,2.4c-2.8,3-5.6,6.1-8.4,9.1c-3.1,3.4-6.2,6.7-9.3,10.1v2.4c4-4.4,8.1-8.8,12.1-13.1
		c1.4-1.5,2.8-3.1,4.3-4.6c0.7-0.8,1.4-1.5,2.1-2.3c0.6-0.7,1.3-1.6,2.2-2.1c1.9-1,3.5,1.4,4.1,2.9s1,3.1,1.9,4.4
		c3.7,5.1,10.9,2.1,15.5,0.3c2.7-1.1,6.2-2.2,9.1-1c3.4,1.4,3.6,5.3,3.6,8.5c0,3.5,0.2,6.8,1.2,10.1c1.1,3.4,2.7,6.7,4.6,9.7
		c3.8,5.9,8.4,11.4,13.7,16.1c8.3,7.5,19.3,12.7,30.4,11.9v-1.6C543.7,409.4,543.6,409.4,543.5,409.4z M517.2,319.1
		c5.6-0.5,11.2,1.4,16.4,3.3c3.2,1.2,6.6,2.7,10.2,4v-1.7c-7.2-2.6-14-6.2-21.6-7.1c-5.7-0.7-11.2,0.7-15.7,4.3
		c-5,4-8.6,10.1-9.9,16.4c-1.2,6.1,0.2,12.5,5,16.6c4.1,3.6,9.8,4.9,15.1,5c6.6,0.1,12.8-1.8,19-3.7c2.6-0.8,5.3-1.6,8.1-2.2v-1.7
		c-10,2.2-19.6,6.9-30,5.8c-5.6-0.6-11.4-3-14.2-8.2c-3.5-6.4-1.4-14.4,2.3-20.2C505.3,324.1,510.5,319.7,517.2,319.1z M527.5,304.5
		c-6.6,1.2-12.7,3.9-18,8c-9.7,7.4-16.6,17.9-25.8,25.9c-2.3,2-4.7,3.8-7.3,5.4c-2.5,1.5-6.8,3.5-9.3,0.8c-2.2-2.4-0.5-6.2,1-8.4
		c1.7-2.5,4.1-4.6,6.4-6.7c4.5-4.1,9.4-7.8,13.6-12.3c1.9-2.1,3.7-4.3,5.1-6.8c1.4-2.6,2.7-5.6,2.8-8.6c0.1-2.9-1.7-5-4.6-5.4
		s-5.8,0.8-8.3,2c-5.7,2.8-10.5,7.1-14.6,12c-8.6,10.3-13.7,22.8-21.4,33.6c-2.4,3.4-5.1,6.7-8.2,9.5v2.2c1.8-1.6,3.6-3.4,5.2-5.2
		c4.2-4.9,7.7-10.4,10.9-16c6.4-10.9,12.3-22.8,22.5-30.7c2.5-1.9,5.2-3.5,8.1-4.7c2.2-0.9,6.2-2.2,8.1,0.1c1.2,1.4,0.7,3.4,0.3,5
		c-0.4,1.4-0.9,2.7-1.5,4c-1.2,2.6-2.9,4.9-4.8,7c-4,4.5-8.8,8.2-13.3,12.1c-4,3.6-9.5,7.9-10,13.7c-0.3,2.7,1.1,5.3,3.8,6.2
		c2.8,0.9,5.9-0.3,8.4-1.7c5.1-2.9,9.4-6.8,13.4-11c8.2-8.4,15.3-18.6,25.9-24.3c6.6-3.6,14-4.7,21.4-5c2.2-0.1,4.3-0.1,6.5,0v-1.7
		C538.3,303.2,532.7,303.5,527.5,304.5z M462.7,294.2h-1.9c1.4,2.3,0.1,5.4-1.2,7.6c-2,3.3-4.6,6.4-6.9,9.5
		c-4.6,6.2-9.2,12.3-13.8,18.5v2.5c5.9-8,11.9-15.9,17.9-23.9C459.4,305,464.7,298.9,462.7,294.2z M460.7,294.2h-2.1
		c-6.6,8-13.1,16-19.7,23.9v2.5c3.8-4.6,7.5-9.1,11.2-13.7C453.7,302.7,457.2,298.5,460.7,294.2z"/>
</g>
<g>
	<path class="st1" d="M450.4,394.4c-2.2-4-7.4-4.7-11.3-3.1c-1.6,0.7-3.1,1.6-4.5,2.8c0.5-1.2,1.2-2.2,2.2-3.1
		c0.8-0.7,1.7-1.3,2.7-1.6c1.1-0.3,2.3-0.5,3.2-1.2c0.8-0.6,1.5-1.6,1.4-2.7c-0.1-1-0.8-1.8-1.8-2.2c-2-0.9-4.5-0.1-6.3,0.9
		c-2,1.2-3.8,2.8-5.3,4.6c-1.5,1.8-2.8,4-3.4,6.3c-0.7,2.5-0.8,5-0.7,7.5c0.2,3,0.6,6,0.9,9c0.4,3.1,0.7,6.2,1.1,9.3
		c-0.1,0.1-0.2,0.3-0.3,0.4c-0.3,0.2-0.5,0.8-0.1,1.1c1.5,1.5,3.9,1.4,5.5,0c1.8-1.6,2.6-4.2,3.2-6.4c0.3-1.2,0.5-2.5,0.8-3.8
		c0.2-1.2,1.2-1.9,2.2-2.6c2-1.4,4.2-2.5,6.2-4C449.5,403.4,452.7,398.7,450.4,394.4z"/>
</g>
<g>
	<path class="st5" d="M445.7,386.8c-0.8,1.9-3.2,2.8-5,3.5c-2.1,0.9-3.7,1.9-5,3.6c-0.4,0.5-0.7,1-1,1.5c-0.9,0.7-1.8,1.5-2.6,2.2
		c0.3-1.2,0.8-2.3,1.4-3.4c1.2-2,2.9-3.7,5.1-4.8c1.7-0.8,4-1.3,5.2-2.8c0.6-0.7,0.5-1.6-0.2-2.2c-0.8-0.6-1.8-0.6-2.8-0.5
		c-3.5,0.5-6.9,2.4-9.1,5.2c-1.2,1.5-2,3.2-2.6,5.1c-0.7,2.2-1.2,4.4-1.5,6.6c-0.5,3.4-0.2,6.8,0.4,10.1c0.1,0.6,0.2,1.1,0.3,1.7
		c0.1,0.7,0.3,1.4,0.4,2.1c0.2,1-1.4,1.2-1.6,0.2c-0.1-0.5-0.2-1-0.3-1.5c-0.1-0.5-0.2-1.1-0.3-1.6c-0.3-1.8-0.6-3.6-0.7-5.4
		c-0.2-2.8,0.1-5.7,0.7-8.5c0.5-2.3,1-4.6,2-6.8c0.9-1.8,2-3.4,3.5-4.7c1.4-1.3,3.1-2.4,4.9-3.1s4.1-1.4,6-0.9
		C444.9,383,446.5,384.9,445.7,386.8z"/>
</g>
<g>
	<path class="st5" d="M451,400.5c-1.2,3-3.3,5.4-5.8,7.3c-2.4,1.8-5.1,3.3-6.9,5.8c-0.6,0.9-1.9-0.1-1.3-1c1.8-2.5,4.4-4.1,6.8-5.9
		c2.4-1.7,4.4-3.8,5.5-6.5c1-2.4,1.6-6.6-1.3-7.9c-4.7-2.2-9.5,0.1-13.4,3.1c-0.9,0.7-1.8,1.5-2.6,2.2c-0.1,0.1-0.2,0.2-0.3,0.3
		c-0.8,0.7-1.7-0.6-1-1.3c0.9-0.8,1.8-1.6,2.7-2.4c2-1.6,4.3-3,6.8-3.8c0.1,0,0.3-0.1,0.4-0.1c1.5-0.4,3.1-0.6,4.6-0.4
		c1.6,0.1,3.3,0.6,4.6,1.6C452.5,393.6,452.1,397.8,451,400.5z"/>
</g>
<g>
	<rect x="438.9" y="294.2" class="st0" width="277.2" height="13.4"/>
</g>
<g>
	<path class="st9" d="M770.1,361.8c-13,5.8-26.2,10.8-39.8,15.1c-13.1,4.2-26.6,8-40.1,10.4c-10,1.8-22.2,2.7-30.8-3.9
		c-4.9-3.8-7.3-9.5-8.6-15.3c-0.7-3-1.1-6.1-1.7-9.1c-0.5-2.5-1.1-5.2-2.6-7.3c-3.4-4.7-10.9-4.4-16.1-4.3
		c-6.6,0.2-13.1,1.5-19.3,3.5c-12.9,4.2-24.4,11.6-35.2,19.7c-5.6,4.1-11,8.5-16.4,12.7c-5.3,4.1-10.7,8.7-16.7,11.8
		c-5.1,2.6-11.7,3.8-16.6,0c-4.7-3.7-3.5-9.9-3.2-15.1c0.2-4.6-0.6-9.8-5.6-11.6c-5.1-1.8-11,0.8-15.5,3.1
		c-10.3,5.1-19.2,12.9-25.5,22.5c-1.6,2.4-2.9,4.8-4.2,7.4c-0.5,0.9,1.1,1.5,1.5,0.6c5.2-10.6,13.3-19.7,23.4-26
		c4.7-2.9,10.3-6.1,15.9-6.5c3-0.2,6,0.8,7.5,3.6c1.2,2.3,1,5.1,0.9,7.6c-0.3,4.8-1.1,10.3,2.3,14.3c3.2,3.7,8.6,4.9,13.2,4
		c6.1-1.1,11.3-5.1,16.2-8.7c5.6-4.1,11-8.4,16.5-12.7c10.7-8.4,21.8-16.5,34.3-22.1c6.2-2.7,12.8-4.8,19.5-5.8
		c3.4-0.5,6.8-0.7,10.2-0.6c3.1,0.1,6.9,0.1,9.6,1.8c2.6,1.6,3.6,4.6,4.2,7.4c0.6,3,1,6,1.7,9c1.2,5.6,3,11.2,7,15.4
		c7.2,7.4,18.2,8.3,28,7.4c5.8-0.6,11.6-1.9,17.2-3.2c6.8-1.6,13.5-3.4,20.2-5.3c13.5-3.9,26.8-8.6,39.9-14c3.2-1.3,6.4-2.7,9.5-4.1
		C771.7,362.8,771.1,361.3,770.1,361.8z"/>
</g>
<g>
	<path class="st7" d="M634.2,351.9c0,5.3-4.3,9.6-9.6,9.6s-9.6-4.3-9.6-9.6c0-5.3,4.3-9.6,9.6-9.6S634.2,346.6,634.2,351.9z"/>
</g>
<g>
	<path class="st10" d="M704.6,386.3c0,5.3-4.3,9.6-9.6,9.6s-9.6-4.3-9.6-9.6c0-5.3,4.3-9.6,9.6-9.6
		C700.4,376.7,704.6,381,704.6,386.3z"/>
</g>
<g>
	<path class="st0" d="M601.8,242.4c-0.2,7-5.1,12.7-11.4,15.2c-1.7,3.3-6.1,4.4-9.4,5.3c-2.5,0.7-5.1,1.2-7.8,1.2
		c-1.3,0-2.6,0-3.9-0.3c-1.1-0.2-2.1-0.4-2.9-1.1c-0.5-0.1-1-0.1-1.5-0.2c-3.9-0.6-7.9-1.8-10.8-4.6c-2.9-2.8-3.9-6.8-3-10.8
		c0.9-4.1,3.3-7.5,6.1-10.6c2.6-3,5.4-5.8,8.6-8.2c3-2.3,6.5-4.1,10.3-4.7c4.2-0.7,8.6,0.1,12.6,1.7c3.6,1.5,7.1,3.6,9.6,6.5
		C600.6,234.8,601.9,238.5,601.8,242.4z"/>
</g>
<g>
	<path class="st1" d="M598.5,250.5c-0.3,1.1-1.1,2.1-1.8,2.9c-1.1,1.2-2.4,2.4-4,2.8c0.1,4.6-1.7,9.1-5.1,12.3
		c-3.2,3-7.7,4.7-12.1,4.5c-3.8-0.2-7.8-2.1-9.9-5.3c-1.2-1.8-1.5-3.7-1.5-5.8c0-1.3-0.1-2.5-0.7-3.7c-0.5-1-1.5-1.9-1.7-3
		c-1.1-5.9-0.8-6.7,1.1-12.3c0.1-0.4,0.5-0.4,0.8-0.3c0.1,0,0.2,0,0.3,0c2.8,0.4,5.7,0.8,8.5,1.1c4.4,0.6,8.9,1.4,12.8,3.7
		c0.3,0.2,0.7,0.4,1,0.6c-0.2-1.6,0.2-3.2,1.7-4.3c3.4-2.6,9.2-0.6,10.4,3.5C598.8,248.3,598.8,249.4,598.5,250.5z"/>
</g>
<g>
	<path class="st1" d="M543.6,301c-0.1-1.5-0.3-3-0.5-4.5c-0.4-2.6-0.9-5.4-2.5-7.6c-0.8-1.1-1.9-1.9-3-2.6c-1.2-0.8-2.3-1.5-3.5-2.2
		c-2.7-1.5-5.5-2.9-8.5-3.5c-1.5-0.3-3.1-0.4-4.6-0.3c-1,0.1-2,0.1-3,0.1c-3.3-0.7-6.8-0.6-9.7,1.1c-1.3,0.7-2.5,1.7-3.3,3
		c-0.7,1-1.4,2.3-1.4,3.6c-0.4,0.2-0.6,0.8-0.1,1.2c2.8,1.9,5,4.5,6.4,7.6c1.3,2.9,2.1,5.9,3.8,8.6c1.9,2.8,4.8,4.5,8.1,5.1
		c3,0.5,6.3,0.3,8.9-1.3c1.3-0.7,2.3-1.8,2.9-3.1c0.8-1.6,0.9-3.4,0.9-5.1c0-3-0.8-6-2.1-8.7c-0.1-0.1-0.1-0.3-0.2-0.4
		c0.9,0.2,1.8,0.6,2.5,1.2c1,0.9,1,2.5,1.3,3.8c0.3,1.5,0.5,3,0.8,4.5c0.2,1.2,0.5,2.3,1.3,3.3c1.2,1.5,4,2.2,5.3,0.4
		C544,303.9,543.7,302.3,543.6,301z"/>
</g>
<g>
	<path class="st1" d="M728.7,300.8c-2.6,8.4-10.3,13.2-18.2,15.9c-4.3,1.5-8.8,2.6-13.3,3.7c-4.8,1.2-9.6,2.3-14.4,3.4
		c-9.4,2.2-18.7,4.6-27.7,8.1c-1.7,2.2-4.2,4.1-4.9,6.8c-0.6,2-0.5,4.1-0.5,6.2c0,2-0.1,4.1-1.4,5.7c-1.1,1.4-2.9,2.1-4.6,2.5
		c-1.8,0.4-4.1,1-5.9,0.2c-1.7-0.8-3-2.4-4-3.9s-1.6-3.2-2.1-4.9c-0.6-2.3-0.8-4.6-0.8-7c-1.9,3.1-2.6,5.4-2.6,9
		c0,1-0.5,3.2-0.4,4.2c0,1-0.3,2.3-1.1,3.1c-1.2,1.3-3.1,0.9-4.3-0.2c-1.6-1.4-1.5-4.2-1.4-6.1c0-2.2,0.8-4,1.3-6.1
		c1-4.3,2.7-8.4,5-12.2c4.7-7.9,11.8-14.1,19.3-19.2c8.1-5.4,16.6-10.7,25.4-15c8.5-4.2,17.4-7.2,26.2-10.6
		c5.8-4.4,14.1-5.5,20.8-2.6c3.6,1.5,6.7,4.2,8.6,7.7C729.7,292.9,729.9,297,728.7,300.8z"/>
</g>
<g>
	<path class="st0" d="M670,434.2c-0.4-1.9-1-3.9-1.8-5.7c-3.4-7.6-12.7-17.4-20.9-18.8c-10.5-1.8-36,10.4-25.2,20.4
		c1.1,1-0.3,1.4-0.6,2.8c-0.2,1,1.4,1.2,1.6,0.2c0.4-1.9,0.7-3.8,1.1-5.7c0.4,2.6,0.8,5.1,1.2,7.7c0.4,2.8,0.8,5.6,1.4,8.4
		c0.6,2.5,1.7,4.7,3.5,6.5c1.8,1.7,3.8,3.3,5.9,4.5c4.2,2.6,9,4.3,13.9,5c2.6,0.4,5.5,0.6,8-0.3c2.3-0.8,4.3-2.4,6-4.1
		C669.4,449.7,671.4,441.7,670,434.2z"/>
</g>
<g>
	<path class="st1" d="M628.8,447.9c-0.3,0.7-0.5,1.4-0.7,2.2c-0.1,0.3-0.4,0.5-0.6,0.5c-3.3,0.3-6.4-1.2-8.6-3.7
		c-2.1-2.4-3-5.6-3.2-8.7c-0.1-2.3-0.3-6.6,2.8-7c0.8-0.1,1.3,0,1.9-0.7c0.5-0.5,0.8-1.1,1.2-1.7c0.8-1.2,1.7-2.3,2.8-3.4
		c2-2,4.4-3.7,7.2-3.9c0.5-0.1,1,0.4,0.9,0.9c-0.7,4.9,0.1,9.9,2.3,14.3c0.1,0.1,2.1,0,1.9,0.6C635.4,442.3,632.1,449.5,628.8,447.9
		z"/>
</g>
<g>
	<path class="st7" d="M610.4,405.3c-15.1,2.1-29.9,6.6-43.7,13.2s-26.6,15.2-37.9,25.6c-2.8,2.6-5.5,5.4-8.2,8.2
		c-2.8,2.9-5.7,5.8-9.3,7.6c-2.9,1.5-6.3,2.1-9.6,1.4c-1.5-0.3-3-1-4.2-2c-1.3-1.1-1.9-2.7-3-4c-1.2-1.4-2.8-1.8-4.5-1.8
		c-2,0-4.1,0.4-6.1,0.9c-4.1,0.9-8.2,2.2-12.1,3.8c-7.4,3.1-14.5,7.1-21.1,11.5c-13.1,8.6-24.7,19.3-34.5,31.6
		c-1.2,1.5-2.4,3.1-3.6,4.7c-0.6,0.8,0.7,1.8,1.3,1c9.2-12.6,20.4-23.7,33.1-32.8c6.5-4.6,13.3-8.8,20.5-12.2
		c3.8-1.8,7.7-3.5,11.8-4.7c2-0.6,4.1-1.1,6.2-1.5c1.9-0.3,4.2-0.9,6.1-0.4s2.5,2.6,3.6,3.9c0.9,1.2,2.1,2.1,3.4,2.7
		c2.8,1.4,6.1,1.6,9.1,1c7.5-1.5,12.5-8,17.6-13.1c10.7-10.8,23.1-19.9,36.6-26.9c13.5-7.1,28.1-12.1,43.1-14.8
		c1.8-0.3,3.7-0.6,5.6-0.9C611.6,406.7,611.4,405.1,610.4,405.3z"/>
</g>
<g>
	<path class="st1" d="M543.4,475.7c-0.5,1.3-1.1,2.6-1.7,3.8c5.9-1,11.7-1.9,17.6-3c0.2,0,0.3-0.1,0.5-0.1
		c1.9,7.4,3.8,14.8,5.7,22.2c1.5,6,3,12,4.6,17.9c-5,0.3-10,0.6-15,1c-6.2,0.4-12.3,0.7-18.5,1c-5.7,0.3-11.7,1.1-17.2-0.5
		c-2.3-0.3-4.6-0.8-6.9-1.8c-3.4-1.5-6.2-4-8-7.3c-1.7-3.2-2.4-6.8-2.3-10.4c0.1-8.5,4.6-16,8.9-23.1c4.7-7.8,9.3-15.8,13.5-23.9
		c2.1-4.1,4.1-8.3,6-12.5c1.6-3.5,3.1-7.1,5-10.4c-0.2-1.2-0.3-2.3-0.4-3.5c-0.3-2.4-0.5-4.8-0.7-7.1c-0.2-2.2-0.4-4.6,0.1-6.8
		c0.4-1.8,1.3-3.5,2.7-4.6c0.6-0.5,1.7-0.9,2.5-0.9c0-0.1,0.1-0.3,0.1-0.4c0.5-1.4,1.5-2.6,2.8-3.4c0.6-0.3,1.3-0.5,1.9-0.2
		c0.2,0.1,0.4,0.2,0.6,0.4c0-0.2,0.1-0.3,0.1-0.4c0.6-1.6,2.4-2.3,4-2c1,0.2,2,0.7,2.7,1.4c0.3-0.6,0.7-1.2,1.5-1.4
		c1.3-0.5,2.8,0,3.8,0.9c1.2,1.1,1.7,2.6,1.9,4.1c0.2,1.8,0.3,3.6,0.4,5.4c0.1,1.9,0.2,3.7,0.3,5.6c0.2,3.7,0.4,2.8,0.6,6.3
		c0.2,0.2,0.4,0.5,0.3,0.7c0.1,0.2,0.2,0.3,0.3,0.3c0.3,0.2,0.5,0.3,0.7,0.3c0.2,0.1,0.4,0.1,0.6,0.2c0.6-0.1,0.8-0.2,1-0.4
		c1.1-0.7,2.3-1.3,3.7-1.5c1.5-0.2,3.1,0.3,3.8,1.7c0.5,1.2,0.2,2.6-0.5,3.6c-0.8,1.2-2.2,1.9-3.4,2.5c-2.6,1.3-5,3.1-7,5.3
		c-4.3,4.6-7,15.3-9.2,21.1c-1.2,3.2-2.3,6.5-3.6,9.7C546.1,469.2,544.8,472.5,543.4,475.7z"/>
</g>
<g>
	<circle class="st0" cx="579.7" cy="222.1" r="12.8"/>
</g>
<g>
	<path class="st0" d="M654.9,440.1c-1,0.9-2,1.6-3.1,2.1c0.7-0.5,1.5-1,2.2-1.5C654.3,440.6,654.6,440.4,654.9,440.1z"/>
</g>
<g>
	<path class="st10" d="M725.3,512.5c-2.1,2-4.1,3.9-6.1,5.9c-6,5.7-11.9,11.4-17.8,17.1c-2.3-2.3-4.6-4.7-6.7-7.1
		c0.4,2.2,0.7,4.4,1.1,6.6c0.3,1.8,0.6,3.5,0.9,5.3c0,0.3,1.4,4.6,2.7,8.6h-76.6l-3-7.1c-1.7-4.3-3.2-8.6-5.6-12.6
		c-2.2,0-4.3-0.4-6.3-1.2c-4.1-1.6-7.5-4.6-9.4-8.5c-0.8-1.5-1.3-3.2-1.6-4.9c-1.5,0.1-3,0.2-4.5,0.4c-7.3,0.6-14.6,1.1-22,1.6
		c-1.6-6-3.1-12-4.6-17.9c-1.9-7.4-3.8-14.8-5.7-22.2c9.6-1.7,19.1-3.6,28.6-5.6c9.6-2,19.2-4.4,29-5.3s19.6-0.8,29.4-0.4
		c4.2,0.1,8.3,0.3,12.5,0.5c3.4,0.1,6.7-0.6,10.2-0.2c3.6,0.3,7.1,1.2,10.5,2.4c15.2,5.7,30.8,22.9,39.5,35.9l1.3,1.9
		C722.3,507.9,723.8,510.2,725.3,512.5z"/>
</g>
<g>
	<path class="st0" d="M651.8,442.3c-1.9,1.3-3.9,2.6-6.1,3.5c-2.9,1.2-5.8,1.5-8.8,0.7c-2.1-0.6-4.3-2.2-6.6-1.7
		c-2.9,0.6-5.2,7.1-6.6,9.6c-8.8,16.2-4.7,35.9,7.6,52.4c5.9,8,14.4,12.2,24,14.7c12.3,3.2,17.7,2.6,29.1-3.2
		c4.5-2.3,8.7-5.4,11.9-9.4c1.7-2.1,2.8-4.6,2.6-7.4c-0.3-2.6-1.6-5.1-3.1-7.2c-0.5-0.7-1-1.3-1.5-2c6.2-0.6,12.9-4.1,12.7-11.1
		c-0.1-4-2.4-7.8-4.9-10.8c-2.4-2.9-5.3-5.2-8.4-7.3c-6.3-4.2-13.3-7.3-19.4-11.8c-2.9-2.2-5.6-4.7-7.7-7.8
		c-0.8-0.8-1.5-1.7-1.9-2.6c-0.4-0.8-0.6-1.7-0.8-2.7c-0.5-0.6-1-1-1.8-1.1c-1.2-0.3-2.9,0.4-4.4,1.3c-0.4,0-0.7,0-1.1,0
		c-0.5,0.6-1,1.1-1.6,1.6c0,0.1-0.1,0.2-0.2,0.2c-0.3,0.2-0.6,0.4-0.9,0.6C653.3,441.3,652.6,441.8,651.8,442.3z"/>
</g>
<g>
	<path class="st1" d="M638.5,442.1c0,1.2-0.4,2.3-1.2,3.1c-0.8,0.7-1.8,1.1-2.8,1.4c-2.1,0.4-4.9,0-6-2.1c-1-1.9-0.1-3.9,1-5.6
		c0.2-1,0.8-1.9,1.7-2.5c1.1-0.7,2.5-0.8,3.7-0.3C637.3,437,638.5,439.6,638.5,442.1z"/>
</g>
<g>
	<path class="st0" d="M430.1,329.5c-0.2,1.2-1,2.2-2,2.9c1.3,3.2,0.6,7.2-1.8,9.7c-1.3,1.4-3.1,2.3-4.9,2.9c-2.1,0.7-4.2,1.3-6.3,2
		c-1,0.3-1.9,0.6-2.9,1c-1,0.5-1.8,1.2-2.5,1.9c-1.3,1.3-2.7,2.6-4.3,3.7c-6.1,4.3-13.9,6.1-21.3,4.8c-0.8-0.1-0.9-1.2-0.4-1.5
		c0.3-3.3-2.1-6.2-3.2-9.1c-1.2-3.6-1.3-7.6-1.2-11.3c0.1-3.1,0.6-6.3,2.1-9.1c1.5-2.7,3.9-4.8,6.5-6.5c4.8-3,10.5-4.4,16.2-4
		c2.8,0.2,5.7,0.8,8.3,1.9c2.7,1.1,5.1,2.9,7.6,4.5c1.2,0.8,2.5,1.5,3.9,2c0.7,0.3,1.5,0.4,2.3,0.5c0.7,0.1,1.4,0.1,2.1,0.4
		C429.8,326.8,430.4,328.2,430.1,329.5z"/>
</g>
<g>
	<path class="st1" d="M422.4,341.8c-0.1,0.2-0.3,0.4-0.5,0.5c0.1,0.8,0,1.6-0.2,2.4c-0.3,1-1,1.9-1.5,2.8c-1,1.9-0.3,4-0.3,6
		c0,1.8-0.4,3.5-1.3,5c-1.8,3.2-5,5.3-8.5,6.1c-3.1,0.7-6.5,0.6-9.6-0.2c-0.2,0.8-0.2,0.6-0.3,1.5c3.6,1.4,7.2,2.7,10.8,4.2
		c0.1,0.8,0.1,1.6,0.1,2.3c0,3.6-3.9,4.8-6.9,5.2c-3.4,0.5-6.9-0.1-10.2-1c-3.2-0.9-6.2-2.2-9-3.9c-2.9-1.7-5.5-3.8-8.1-6.1
		c-2.1-1.8-4.2-3.7-6.6-5.2c2.4-0.2,4.7-0.3,7.1-0.3c1,0,2,0.1,3,0.2c1.4-2.1,3.5-5.8,4-7.1c0.7-1.8,1.3-3.7,1.8-5.6
		c-2.6-2.7-4.5-6.5-2.6-10.1c0.8-1.4,2-2.5,3.6-2.8c1.4-0.3,2.9,0.1,4,1c1.9,1.7,1.5,3.7,0.8,5.8c-0.2,0.6-0.4,1.3-0.6,1.9
		s-0.3,1.1-0.4,1.6c-0.1,0.7-0.2,1.8,0.8,1.4c0.7-0.2,1.3-0.8,1.7-1.4c0.9-1.2,1.4-2.8,1.8-4.2c1.2-4.1,2.6-8.2,4.3-12.1
		c0.2-0.4,0.6-0.6,1.1-0.5c6.5,1.7,13.1,3.4,19.6,5.1c0.1,0,0.2,0.1,0.2,0.1c0.2,0,0.3,0.1,0.4,0.2c1,0.4,1.6,1.6,1.9,2.6
		C423,338.9,422.9,340.4,422.4,341.8z"/>
</g>
<g>
	<path class="st11" d="M391.9,342.6c-0.2,0.6-0.4,1.3-0.6,1.9c-1.2-1.7-2.4-3.4-3.5-5.2c-0.2-0.4-0.2-0.8,0.2-1.1
		c0.3-0.2,0.9-0.2,1.1,0.2C389.9,339.7,390.9,341.2,391.9,342.6z"/>
</g>
<g>
	<path class="st0" d="M585.5,252.9c-3-0.4-6.2,0.1-9,1.3c-1,0.4-0.3,1.9,0.6,1.5c2.6-1.1,5.4-1.5,8.1-1.2
		C586.4,254.6,586.6,253,585.5,252.9z"/>
</g>
<g>
	<path class="st11" d="M574,259.3c-0.5-1.5-1.3-2.9-2.8-3.6c-1-0.4-1.5,1.1-0.6,1.5c1.1,0.5,1.6,1.8,1.9,2.9
		c0.5,1.5,0.7,3.2,0.6,4.7c0,0.4,0.2,0.8,0.7,0.9c0.4,0,0.9-0.3,0.9-0.7C574.8,263,574.6,261.1,574,259.3z"/>
</g>
<g>
	<path class="st0" d="M571.2,255.4c-2.4-1.3-5.2-1.8-7.9-1.5c-1,0.1-0.8,1.7,0.2,1.6c2.5-0.3,4.9,0.2,7.1,1.4
		c0.4,0.2,0.9-0.1,1.1-0.5C571.8,256,571.6,255.6,571.2,255.4z"/>
</g>
<g>
	<path class="st0" d="M582.2,258.9c-0.1-0.4-0.4-0.7-0.7-1c-0.2-0.2-0.5-0.2-0.7-0.1c-0.1,0-0.2,0.1-0.3,0.1
		c-0.1,0.1-0.2,0.2-0.3,0.3c-0.1,0.2-0.2,0.4-0.2,0.6c0,0.1,0,0.3,0,0.4s0,0.2,0,0.2c0.1,0.5,0.4,1,0.8,1.3c0.2,0.1,0.4,0.2,0.6,0.2
		c0.2,0,0.4-0.1,0.5-0.3c0.2-0.3,0.3-0.5,0.3-0.6C582.4,259.7,582.4,259.3,582.2,258.9z"/>
</g>
<g>
	<path class="st0" d="M570.5,259.9c0-0.2-0.1-0.3-0.1-0.5c-0.1-0.2-0.1-0.3-0.2-0.5c-0.1-0.1-0.2-0.3-0.4-0.4
		c-0.2-0.2-0.6-0.2-0.8-0.1c-0.1,0.1-0.2,0.1-0.3,0.3c-0.4,0.2-0.5,0.4-0.5,0.5s-0.1,0.2-0.1,0.3c0,0.1,0,0.2,0,0.3
		c0,0.2,0.1,0.4,0.2,0.6c0.1,0.1,0.2,0.2,0.3,0.3c0.1,0.1,0.2,0.2,0.3,0.2c0.1,0.1,0.2,0.1,0.3,0.2c0.2,0.1,0.4,0.1,0.5,0
		c0.2,0,0.4-0.1,0.5-0.2s0.1-0.1,0.2-0.2c0.1-0.1,0.1-0.2,0.2-0.4C570.5,260.3,570.5,260.1,570.5,259.9z"/>
</g>
<g>
	<path class="st11" d="M582.9,265.3c-0.3-0.4-0.8-0.4-1.1-0.1c-0.2,0.1-0.3,0.2-0.5,0.3c-0.6,0.4-1.3,0.7-2,0.9
		c-0.4,0.1-0.6,0.7-0.4,1.1c0.2,0.4,0.6,0.6,1.1,0.4c1-0.3,2-0.8,2.9-1.4C583.1,266.2,583.1,265.6,582.9,265.3z"/>
</g>
<g>
	<path class="st0" d="M627.9,426.1c-0.4-0.3-0.9-0.2-1.1,0.2c-0.3,0.3-0.2,0.9,0.2,1.1c0.2,0.1,0.4,0.3,0.6,0.5
		c0.3,0.3,0.3,0.4,0.4,0.5c0.2,0.2,0.3,0.4,0.5,0.6c0.2,0.3,0.3,0.4,0.3,0.6c0.1,0.2,0.2,0.4,0.3,0.7c0,0.1,0.1,0.2,0.1,0.3
		c0.1,0.5,0.2,0.8,0.2,1c0,0.1,0,0.2,0,0.4c0,0.1,0,0.2,0,0.3c0,0.4,0.3,0.8,0.7,0.9c0.4,0,0.9-0.3,0.9-0.7
		C631,429.9,629.9,427.5,627.9,426.1z"/>
</g>
<g>
	<path class="st11" d="M618.9,438.3c-0.1,0-0.2-0.1-0.3-0.1c-0.3-0.2-0.5-0.3-0.7-0.5c-0.1-0.1-0.2-0.1-0.2-0.2
		c-0.3-0.3-0.4-0.5-0.5-0.7c-0.2-0.3-0.2-0.3-0.2-0.4c-0.1-0.2-0.2-0.4-0.2-0.6c-0.1-0.3-0.1-0.4-0.1-0.5c0-0.2-0.1-0.5-0.1-0.7
		c0-0.4-0.5-0.8-0.9-0.7c-0.5,0.1-0.7,0.5-0.7,0.9c0,2.1,1.5,4.1,3.4,5c0.4,0.2,0.9,0,1.1-0.5C619.5,438.9,619.3,438.4,618.9,438.3z
		"/>
</g>
<g>
	<path class="st11" d="M635,439.8c-1.4-0.5-2.9-0.9-4.4-1.1c-0.4-0.1-0.8,0.3-0.8,0.6c0,0.4,0.2,0.7,0.6,0.8c1.4,0.3,2.7,0.6,4,1.1
		c0.4,0.1,0.8,0,0.9-0.4C635.5,440.3,635.4,439.9,635,439.8z"/>
</g>
<g>
	<path class="st0" d="M408.3,339.6c-0.9-1.1-2.2-1.8-3.6-1.9c-1.6-0.1-3.2,0.4-4.8,0.9c-0.4,0.1-0.6,0.7-0.4,1.1s0.6,0.6,1.1,0.4
		c2-0.6,5-1.5,6.5,0.5C407.6,341.4,408.9,340.4,408.3,339.6z"/>
</g>
<g>
	<path class="st11" d="M414.4,341.4c-3.5,1.8-5.2,6.4-3.6,10c0.4,0.9,1.9,0.3,1.5-0.6c-1.3-2.8-0.1-6.5,2.7-7.9
		C416,342.4,415.4,340.9,414.4,341.4z"/>
</g>
<g>
	<path class="st0" d="M422.5,343.3c-2-2.3-5.6-3.1-8.4-1.8c-0.4,0.2-0.6,0.6-0.4,1.1c0.2,0.4,0.7,0.6,1.1,0.4c2.2-1,4.9-0.5,6.5,1.3
		C421.9,345.1,423.2,344.1,422.5,343.3z"/>
</g>
<g>
	<path class="st0" d="M405,344.1c-0.1-0.1-0.1-0.2-0.2-0.2c-0.1-0.1-0.2-0.1-0.3-0.1c-0.1,0-0.3,0-0.4,0.1c-0.1,0-0.2,0.1-0.3,0.2
		c-0.2,0.2-0.4,0.3-0.4,0.5c-0.2,0.1-0.3,0.3-0.4,0.5c-0.1,0.1-0.1,0.2-0.1,0.4c0,0.2,0,0.4,0.1,0.5c0.1,0.2,0.2,0.3,0.4,0.5
		c0.1,0.1,0.2,0.1,0.4,0.2c0.1,0,0.2,0,0.3,0c0.2,0,0.5-0.1,0.6-0.2s0.2-0.1,0.2-0.2s0.1-0.2,0.1-0.2c0-0.1,0.1-0.2,0.1-0.3
		c0-0.1,0.1-0.2,0.1-0.3c0-0.1,0.1-0.2,0.1-0.4c0-0.1,0-0.2,0-0.4C405.1,344.3,405,344.2,405,344.1z"/>
</g>
<g>
	<path class="st0" d="M416,347.6c0-0.2,0-0.3-0.1-0.3c-0.2-0.3-0.3-0.4-0.3-0.4c-0.1-0.1-0.2-0.1-0.3-0.2c-0.1,0-0.2-0.1-0.3-0.1
		c-0.1,0-0.2,0-0.3,0c-0.5,0.2-0.6,0.3-0.6,0.3c0,0.1-0.1,0.2-0.1,0.2c-0.2,0.4-0.2,0.5-0.2,0.6s0,0.2,0,0.3c0,0.2,0.1,0.3,0.1,0.4
		s0.1,0.2,0.2,0.2s0.1,0.1,0.2,0.1c0.1,0.1,0.3,0.1,0.4,0c0.1,0,0.2-0.1,0.4-0.1c0.1,0,0.2-0.1,0.3-0.2c0.2-0.1,0.2-0.2,0.3-0.3
		c0.1-0.1,0.1-0.2,0.2-0.3C416,347.6,416,347.6,416,347.6C416,347.7,416,347.6,416,347.6z"/>
</g>
<g>
	<path class="st11" d="M406.8,353.9c-0.1-0.2-0.3-0.2-0.5-0.3c-0.2-0.1-0.3-0.1-0.4-0.1s-0.2-0.1-0.2-0.1c-0.2-0.1-0.4-0.2-0.5-0.3
		c-0.1-0.1-0.1-0.1-0.2-0.2c-0.2-0.2-0.3-0.3-0.4-0.5c0-0.1-0.1-0.1-0.1-0.2c-0.1-0.2-0.2-0.4-0.2-0.5c-0.2-0.8-0.6-1.1-1-1
		s-0.8,0.5-0.7,0.9c0.2,0.8,0.6,1.6,1.2,2.3c0.3,0.3,0.6,0.6,1,0.8c0.4,0.3,0.9,0.4,1.4,0.5c0.2,0,0.4-0.1,0.6-0.2s0.3-0.3,0.3-0.5
		C407,354.2,407,354,406.8,353.9z"/>
</g>
<g>
	<path class="st11" d="M420.7,333.5c-0.7-0.8-2,0.2-1.3,1c2.2,2.4,3,5.8,2.2,8.9c-0.2,0.7-0.5,1.5-0.9,2.1c-0.5,0.8-1.1,1.5-1.3,2.5
		c-0.2,0.8,0,1.6,0,2.5s-0.1,1.8-0.2,2.7c-0.6,3.4-2.6,6.5-5.5,8.5c-2.8,2-6.5,2.7-9.9,2.2c-4.3-0.7-7.7-3.6-10.6-6.5
		c-0.3-0.3-0.9-0.2-1.1,0.2c-0.3,0.4-0.2,0.8,0.2,1.1c2.9,2.9,6.1,5.6,10.2,6.6c3.6,0.9,7.7,0.4,10.9-1.5c3.3-1.8,5.8-4.9,7-8.5
		c0.6-1.8,0.8-3.7,0.7-5.5c0-0.5-0.1-1,0-1.5c0.2-0.5,0.5-0.9,0.8-1.3c0.5-0.7,0.8-1.5,1.1-2.3C424.2,340.8,423.4,336.4,420.7,333.5
		z"/>
</g>
<g>
	<path class="st0" d="M627.8,431.4c0-0.2-0.1-0.3-0.2-0.5c-0.1-0.1-0.3-0.2-0.5-0.2s-0.4,0-0.6,0.2l-0.2,0.1l-0.5,0.3
		c-0.1,0.1-0.2,0.2-0.3,0.4c-0.2,0.2-0.4,0.3-0.6,0.5c-0.2,0.1-0.3,0.4-0.3,0.5c0,0.2,0,0.3,0.1,0.5s0.2,0.3,0.4,0.3
		c0.2,0.1,0.4,0.1,0.6,0c0.4-0.3,0.7-0.4,0.9-0.6c0.2,0,0.3-0.1,0.4-0.3c0.3-0.3,0.5-0.5,0.6-0.7
		C627.8,431.9,627.8,431.6,627.8,431.4z"/>
</g>
<g>
	<path class="st11" d="M552.6,401c-0.1-1-1.7-0.8-1.6,0.2c0.3,5.7,0.5,11.5,0.6,17.2c0,1,1.6,0.8,1.6-0.2
		C553.1,412.5,552.9,406.8,552.6,401z"/>
</g>
<g>
	<path class="st0" d="M647.6,466.2c-15.2-5-31.5-2.1-46.8,1.1c-16.8,3.4-33.6,6.9-50.4,10.4l-28.3,5.8c-1,0.2-0.8,1.8,0.2,1.6
		c16.7-3.4,33.5-6.9,50.2-10.3c8.3-1.7,16.6-3.4,24.8-5.1c7.8-1.6,15.7-3.3,23.7-4.1c8.7-0.9,17.6-0.6,26,2.2
		C648,468,648.6,466.5,647.6,466.2z"/>
</g>
<g>
	<path class="st11" d="M594.4,246.5c-0.4-0.2-0.9,0-1.1,0.5c-0.7,2.3-1.8,4.4-3.2,6.3c-0.6,0.8,0.7,1.8,1.3,1c1.5-2,2.7-4.3,3.4-6.7
		C595,247.2,594.8,246.7,594.4,246.5z"/>
</g>
<g>
	<path class="st5" d="M543.4,305.8c-1.9,2.1-4.9,0.7-6.1-1.4c-0.7-1.3-0.9-2.7-1.1-4.1c-0.2-1.6-0.5-3.3-0.9-4.9s-1.4-3-2.9-3.8
		c-0.6-0.3-1.4-0.6-2.1-0.6c-0.3-0.5-0.7-1.1-1-1.6c0.1,0,0.1,0,0.2,0c0.6,0,1.2,0,1.8,0.1c2,0.4,3.8,1.6,4.8,3.5
		c0.7,1.2,0.9,2.6,1.2,3.9c0.3,1.4,0.5,2.9,0.7,4.3c0.2,1.2,0.5,2.7,1.5,3.5c0.8,0.6,2,0.9,2.7,0s0.6-2.2,0.5-3.3
		c-0.2-1.5-0.5-2.9-0.9-4.3c-0.6-2.6-1.1-5.5-2.8-7.7c-0.1-0.1-0.1-0.2-0.1-0.3c-3.2-3.5-7.3-6.1-11.7-8c-4.2-1.8-8.5-3.1-12.9-4.2
		c-5.2-1.3-10.4-2.6-15.6-3.7c-10.8-2.3-22-3.7-33-1.7c-1,0.2-1.3-1.4-0.2-1.6c6.3-1.1,12.7-1.2,19-0.6c5.7,0.5,11.3,1.6,16.9,2.8
		c5.2,1.2,10.3,2.4,15.4,3.8c8.8,2.4,17.8,5.7,23.9,12.7c0.1,0.2,0.2,0.3,0.2,0.5c1.7,2.5,2.2,5.9,2.9,8.8
		C544.4,300.1,545.3,303.6,543.4,305.8z"/>
</g>
<g>
	<path class="st11" d="M531.7,308.7c-0.8,0.6-1.8-0.7-1-1.3c3.3-2.4,2.9-7.1,2.1-10.6c-0.5-1.9-1.2-3.7-2.1-5.5
		c-0.1-0.1-0.1-0.3-0.2-0.4c-0.3-0.5-0.7-1.1-1-1.6c-0.1-0.2-0.2-0.3-0.3-0.5c-0.5-0.7-0.8-1.5-0.2-2.2c0.6-0.8,1.9,0.1,1.3,1
		c0,0,0.8,1.2,1.2,1.8c0.1,0.2,0.2,0.3,0.2,0.4c0.3,0.6,0.6,1.1,0.9,1.7c0.2,0.3,0.3,0.6,0.4,0.9c0.8,1.8,1.4,3.7,1.7,5.7
		C535.3,301.8,535,306.2,531.7,308.7z"/>
</g>
<g>
	<path class="st5" d="M702.7,283.9c-1.1,0.4-2.3,0.7-3.4,1.1c-9.1,2.9-18,6.4-26.6,10.5c-8.5,4-16.8,8.6-24.6,13.8
		c-7.4,5-14.3,10.8-19.1,18.4c-2.4,3.7-4.2,7.8-5.5,12c-0.7,2.1-1.2,4.3-1.5,6.5c-0.2,1.3-0.5,2.9-0.3,4.3c0.1,0.6,0.2,1.1,0.5,1.6
		c0.5,0.8,1.3,1.7,2.3,1.8c1,0.1,1.8-0.5,2.2-1.4c0.5-1,0.5-2.2,0.5-3.3c0.1-1.2,0.2-2.4,0.4-3.6s0.6-2.3,0.9-3.5
		c0.3-1.1,0.6-2.1,1.1-3.1c0.1-0.2,0.2-0.4,0.4-0.6c0.5-0.8,1.1-1.6,1.8-2.3c-0.1,0.9-0.2,1.9-0.2,2.8c-0.4,0.7-0.8,1.4-1.1,2.2
		c-0.1,0.2-0.1,0.4-0.2,0.7c-0.7,2.3-1.3,4.7-1.4,7.1c-0.1,2.2-0.2,4.9-2.3,6.2c-2.2,1.3-4.5-0.2-5.8-2.1c-0.1-0.1-0.1-0.3-0.1-0.4
		c-0.1-0.2-0.2-0.4-0.2-0.6c-0.1-0.2-0.1-0.4-0.1-0.5c-0.5-2.1-0.1-4.4,0.3-6.5c0.4-2.3,1-4.5,1.7-6.7c1.4-4.4,3.5-8.6,6.1-12.5
		c5.2-7.7,12.5-13.7,20.2-18.7c8.2-5.4,16.9-10,25.8-14.2c9-4.2,18.3-7.7,27.8-10.6C703.1,282.1,703.7,283.6,702.7,283.9z"/>
</g>
<g>
	<path class="st11" d="M639.3,354.8c-1.7-1-3.3-2.3-4.6-3.8c-2.4-2.6-3.9-5.9-4.5-9.3c-0.2-1.1-0.3-2.3-0.3-3.4
		c0-2.8,0.6-5.6,1.9-8.2c0.4-0.9,2-0.3,1.5,0.6c-0.8,1.7-1.3,3.5-1.6,5.3c-0.1,0.9-0.2,1.9-0.2,2.8c0,1.8,0.4,3.6,1,5.3
		c1.4,3.9,4.2,7.2,7.8,9.3C641.2,354.1,640.2,355.4,639.3,354.8z"/>
</g>
<g>
	<path class="st5" d="M482.1,401.3c0,5.3-4.3,9.6-9.6,9.6c-5.3,0-9.6-4.3-9.6-9.6c0-5.3,4.3-9.6,9.6-9.6
		C477.9,391.8,482.1,396,482.1,401.3z"/>
</g>
<g>
	<path class="st1" d="M733.2,524.5v24.3h-19.7c-3.8-4.1-8.7-9.4-12.2-13.3c6-5.7,11.9-11.4,17.8-17.1c2-2,4.1-3.9,6.1-5.9
		C725.6,512.9,729.3,518.5,733.2,524.5z"/>
</g>
<g>
	<path class="st0" d="M611.8,514.1c-6.1,0.7-12.3,1.3-18.4,1.9c-10.9,1-21.9,1.9-32.8,2.7c-7.3,0.5-14.7,1-22,1.4v-1.6
		c2.5-0.1,5-0.3,7.4-0.4c11-0.7,21.9-1.5,32.8-2.4c10.9-0.9,21.9-2,32.8-3.1C612.6,512.4,612.8,514,611.8,514.1z"/>
</g>
<g>
	<path class="st0" d="M699.8,548.8h-1.7c-1.1-3.1-1.9-6.3-2.6-9.4c-2-10-2.3-20.2-2.5-30.3c0-1,1.6-1.3,1.6-0.2
		c0.1,5.8,0.2,11.6,0.7,17.3C696,533.9,697.2,541.5,699.8,548.8z"/>
</g>
<g>
	<path class="st0" d="M285.5,426.3c2.5-3,5.9-2.7,9.5-2.8c4.1,0,8.3,0.6,12.3,1.7s7.4,3.4,11.2,4.8c-12.4-4.8-27.3-2.2-37.3,6.5
		C282.1,433,283.1,429.2,285.5,426.3z"/>
	<path class="st5" d="M370.1,454.5c-0.3-1.9-2.1-3.4-3.9-4.1c-1.9-0.7-3.9-0.7-5.9-0.7c-10.8-0.2-21.9-2.1-31.2-7.5
		c-9.2-5.3-16.5-13.8-26.6-17c-5.1-1.6-10.6-1.7-15.8-0.3c4.3-6.5,12.1-10.1,19.9-10.9c6-0.6,12,0.2,17.8,1.6
		c4.9,1.1,9.8,3.2,14.9,2.7c5.9-0.5,11.4-1.9,17.1,0.2c7.2,2.5,10.3,8.8,10.8,15.9c0.3,4,0.3,8.1,0.2,12.1"/>
	<path class="st12" d="M370.1,454.5c-0.3-1.9-2.1-3.4-3.9-4.1c-1.9-0.7-3.9-0.7-5.9-0.7c-10.8-0.2-21.9-2.1-31.2-7.5
		c-9.2-5.3-16.5-13.8-26.6-17c-5.1-1.6-10.6-1.7-15.8-0.3c4.3-6.5,12.1-10.1,19.9-10.9c6-0.6,12,0.2,17.8,1.6
		c4.9,1.1,9.8,3.2,14.9,2.7c5.9-0.5,11.4-1.9,17.1,0.2c7.2,2.5,10.3,8.8,10.8,15.9c0.3,4,0.3,8.1,0.2,12.1"/>
	<path class="st12" d="M377.7,452.9c-2.9-0.3-5.7-1.5-7.9-3.4c-1.9-1.6-3.4-3.7-5.3-5.3c-1.9-1.7-3.9-3.1-6.1-4.3
		c-3.9-2.1-8.2-2.5-12.4-3.8c-4.6-1.4-8.7-4.1-11.8-7.7c-2.1-2.4-3.7-5.2-5.8-7.5c-3.6-3.9-8.8-6.3-14.2-6.6"/>
</g>
<g>
	<path class="st9" d="M174.8,417.7l-1.3-1.3c18-17.9,39.7-29.5,62.6-33.6c5.5-1,11.3-1.3,17.5-1.6c15.7-0.8,32-1.7,41.9-14.5
		c5.8-7.5,9.1-16.6,12.2-25.3c2.6-7.2,5.3-14.7,9.4-21.3c9.6-15.6,26.7-25,41.9-32.7l0.8,1.6c-15,7.5-31.8,16.9-41.2,32
		c-4,6.5-6.7,13.9-9.2,21c-3.2,8.9-6.5,18.1-12.5,25.8c-10.4,13.4-27.1,14.3-43.2,15.2c-6.1,0.3-11.9,0.6-17.3,1.6
		C213.9,388.7,192.6,400.1,174.8,417.7z"/>
</g>
<g>
	<path class="st13" d="M203.6,511.5c-2.3,0-4.8-0.3-7.4-0.9l0.4-1.7c19.4,4.8,30-11.1,40.3-26.4c5-7.5,9.8-14.6,15.5-19.3
		c19.1-16,45.8-21.2,66.6-12.8l-0.7,1.7c-20.1-8.1-46.2-3-64.7,12.6c-5.5,4.6-10.2,11.6-15.1,19
		C229.1,497.3,219.6,511.5,203.6,511.5z"/>
</g>
<g>
	<path class="st3" d="M258.3,496.3l-0.6-1.7c4.4-1.4,7.3-5.2,10.4-9.3c1.3-1.7,2.6-3.5,4.1-5.1c7.8-8.3,20.7-11.4,31.4-7.4l-0.6,1.7
		c-10-3.8-22.1-0.9-29.4,6.9c-1.4,1.5-2.7,3.2-4,4.9C266.5,490.5,263.3,494.7,258.3,496.3z"/>
</g>
<g>
	<path class="st5" d="M244.7,385.3c0,5.3-4.3,9.6-9.6,9.6s-9.6-4.3-9.6-9.6c0-5.3,4.3-9.6,9.6-9.6
		C240.4,375.7,244.7,380,244.7,385.3z"/>
</g>
<g>
	<path class="st5" d="M206.6,461.7c0,5.3-4.3,9.6-9.6,9.6s-9.6-4.3-9.6-9.6c0-5.3,4.3-9.6,9.6-9.6S206.6,456.4,206.6,461.7z"/>
</g>
<g>
	<path class="st5" d="M629.1,60c-1.7,0-3,1.3-3,3c0,1.7,1.3,3,3,3s3-1.3,3-3C632.1,61.3,630.8,60,629.1,60z"/>
	<path class="st5" d="M629.1,90c-1.7,0-3,1.3-3,3s1.3,3,3,3s3-1.3,3-3S630.8,90,629.1,90z"/>
	<path class="st5" d="M629.1,0c-1.7,0-3,1.3-3,3s1.3,3,3,3s3-1.3,3-3S630.8,0,629.1,0z"/>
	<path class="st14" d="M629.1,30c-1.7,0-3,1.3-3,3s1.3,3,3,3s3-1.3,3-3S630.8,30,629.1,30z M629.1,23c-5.5,0-10,4.5-10,10
		s4.5,10,10,10s10-4.5,10-10S634.7,23,629.1,23z M629.1,41c-4.4,0-8-3.6-8-8s3.6-8,8-8s8,3.6,8,8S633.6,41,629.1,41z"/>
</g>
<g>
	<path class="st14" d="M164.3,465.5l-0.6-1.7c4.4-1.4,7.3-5.2,10.4-9.3c1.3-1.7,2.6-3.5,4.1-5.1c7.8-8.3,20.7-11.4,31.4-7.4
		l-0.6,1.7c-10-3.8-22.1-0.9-29.4,6.9c-1.4,1.5-2.7,3.2-4,4.9C172.5,459.7,169.3,463.9,164.3,465.5z"/>
</g>
<g>
	<path class="st2" d="M118.4,519.5l-0.6-1.7c4.4-1.4,7.3-5.2,10.4-9.3c1.3-1.7,2.6-3.5,4.1-5.1c7.8-8.3,20.7-11.4,31.4-7.4l-0.6,1.7
		c-10-3.8-22.1-0.9-29.4,6.9c-1.4,1.5-2.7,3.2-4,4.9C126.6,513.7,123.4,517.9,118.4,519.5z"/>
</g>
</svg>
