<?xml version="1.0" encoding="utf-8"?>
<!-- Generator: Adobe Illustrator 18.1.0, SVG Export Plug-In . SVG Version: 6.00 Build 0)  -->
<svg version="1.1" xmlns="http://www.w3.org/2000/svg" xmlns:xlink="http://www.w3.org/1999/xlink" x="0px" y="0px"
	 viewBox="0 0 757.2 128.1" enable-background="new 0 0 757.2 128.1" xml:space="preserve">
<g id="Layer_2">
</g>
<g id="Layer_1">
	<g>
		<g>
			<path fill="#FFFFFF" d="M94.2,69l-10.4,0.2l-0.4,24.2l10.7,0.4C105.1,90.5,103,71.5,94.2,69z"/>
			<polygon fill="#FFFFFF" points="24.7,45.3 16.1,65.9 33.7,66.3 			"/>
			<path fill="#FFFFFF" d="M63.5,0C28.5,0,0,28.7,0,64c0,35.2,28.5,64,63.5,64c35.1,0,63.6-28.8,63.6-64C127.2,28.7,98.6,0,63.5,0z
				 M63.5,125c-20.1,0-38.9-11-49.9-26.3l2.8-2c10.4,14.4,28.1,24.8,47.1,24.8c31.4,0,57-25.6,57-57c0-31.3-25.6-57-57-57
				c-31.3,0-57,25.7-57,57c0,4.8,0.6,9.7,1.6,14.1L28,29.9h1.8l14.1,38h2.1v-44h-7.3l-0.4-2h54l-0.5,2h-8.1l0.4,44H97
				c18,2,22.7,26,0,30h-15v18H66l0,0h8.1v-46h-8v-2h8V22.1l-18-0.4v50.2H44.8l3.9,10h9.4v0.6l-28-0.4v-0.2h8.7l-4.3-12H14.4
				L8.4,85.3l-2-0.1c-1.7-6.7-3.4-13.4-3.4-20.5c0-33.3,27.2-60.5,60.5-60.5c33.3,0,60.5,27.1,60.5,60.4C124,97.9,96.8,125,63.5,125
				z"/>
		</g>
		<g>
			<text transform="matrix(1.0017 0 0 1 156.22 54.2294)"><tspan x="0" y="0" fill="#FFFFFF" font-family="'TimesNewRomanPS-BoldMT'" font-size="38.0653">Р</tspan><tspan x="23.8" y="0" fill="#FFFFFF" font-family="'TimesNewRomanPS-BoldMT'" font-size="38.0653" letter-spacing="2">e</tspan><tspan x="42.8" y="0" fill="#FFFFFF" font-family="'TimesNewRomanPS-BoldMT'" font-size="38.0653" letter-spacing="1">п</tspan><tspan x="66.6" y="0" fill="#FFFFFF" font-family="'TimesNewRomanPS-BoldMT'" font-size="38.0653">уб</tspan><tspan x="104.6" y="0" fill="#FFFFFF" font-family="'TimesNewRomanPS-BoldMT'" font-size="38.0653" letter-spacing="-2">л</tspan><tspan x="123.7" y="0" fill="#FFFFFF" font-family="'TimesNewRomanPS-BoldMT'" font-size="38.0653" letter-spacing="1">ик</tspan><tspan x="171.2" y="0" fill="#FFFFFF" font-family="'TimesNewRomanPS-BoldMT'" font-size="38.0653">a </tspan><tspan x="199.7" y="0" fill="#FFFFFF" font-family="'TimesNewRomanPS-BoldMT'" font-size="38.0653" letter-spacing="1">С</tspan><tspan x="228.3" y="0" fill="#FFFFFF" font-family="'TimesNewRomanPS-BoldMT'" font-size="38.0653" letter-spacing="-2">р</tspan><tspan x="247.3" y="0" fill="#FFFFFF" font-family="'TimesNewRomanPS-BoldMT'" font-size="38.0653">б</tspan><tspan x="266.3" y="0" fill="#FFFFFF" font-family="'TimesNewRomanPS-BoldMT'" font-size="38.0653" letter-spacing="1">и</tspan><tspan x="290.1" y="0" fill="#FFFFFF" font-family="'TimesNewRomanPS-BoldMT'" font-size="38.0653" letter-spacing="1">j</tspan><tspan x="304.3" y="0" fill="#FFFFFF" font-family="'TimesNewRomanPS-BoldMT'" font-size="38.0653">a</tspan></text>
			<text transform="matrix(1.0017 0 0 1 156.2551 92.3349)"><tspan x="0" y="0" fill="#FFFFFF" font-family="'TimesNewRomanPS-BoldMT'" font-size="42.8235" letter-spacing="-2">A</tspan><tspan x="28.6" y="0" fill="#FFFFFF" font-family="'TimesNewRomanPS-BoldMT'" font-size="42.8235">г</tspan><tspan x="47.6" y="0" fill="#FFFFFF" font-family="'TimesNewRomanPS-BoldMT'" font-size="42.8235">e</tspan><tspan x="66.6" y="0" fill="#FFFFFF" font-family="'TimesNewRomanPS-BoldMT'" font-size="42.8235">нци</tspan><tspan x="138.1" y="0" fill="#FFFFFF" font-family="'TimesNewRomanPS-BoldMT'" font-size="42.8235">j</tspan><tspan x="152.4" y="0" fill="#FFFFFF" font-family="'TimesNewRomanPS-BoldMT'" font-size="42.8235" letter-spacing="-2">a</tspan><tspan x="171.4" y="0" fill="#FFFFFF" font-family="'TimesNewRomanPS-BoldMT'" font-size="42.8235" letter-spacing="-1"> </tspan><tspan x="181" y="0" fill="#FFFFFF" font-family="'TimesNewRomanPS-BoldMT'" font-size="42.8235" letter-spacing="-2">з</tspan><tspan x="195.3" y="0" fill="#FFFFFF" font-family="'TimesNewRomanPS-BoldMT'" font-size="42.8235" letter-spacing="-2">a</tspan><tspan x="214.3" y="0" fill="#FFFFFF" font-family="'TimesNewRomanPS-BoldMT'" font-size="42.8235" letter-spacing="-1"> </tspan><tspan x="223.9" y="0" fill="#FFFFFF" font-family="'TimesNewRomanPS-BoldMT'" font-size="42.8235">п</tspan><tspan x="247.7" y="0" fill="#FFFFFF" font-family="'TimesNewRomanPS-BoldMT'" font-size="42.8235">р</tspan><tspan x="271.5" y="0" fill="#FFFFFF" font-family="'TimesNewRomanPS-BoldMT'" font-size="42.8235">и</tspan><tspan x="295.3" y="0" fill="#FFFFFF" font-family="'TimesNewRomanPS-BoldMT'" font-size="42.8235">в</tspan><tspan x="319.1" y="0" fill="#FFFFFF" font-family="'TimesNewRomanPS-BoldMT'" font-size="42.8235">рe</tspan><tspan x="361.9" y="0" fill="#FFFFFF" font-family="'TimesNewRomanPS-BoldMT'" font-size="42.8235" letter-spacing="-2">д</tspan><tspan x="381" y="0" fill="#FFFFFF" font-family="'TimesNewRomanPS-BoldMT'" font-size="42.8235">н</tspan><tspan x="404.8" y="0" fill="#FFFFFF" font-family="'TimesNewRomanPS-BoldMT'" font-size="42.8235">e</tspan><tspan x="423.8" y="0" fill="#FFFFFF" font-family="'TimesNewRomanPS-BoldMT'" font-size="42.8235" letter-spacing="-1"> </tspan><tspan x="433.3" y="0" fill="#FFFFFF" font-family="'TimesNewRomanPS-BoldMT'" font-size="42.8235">рe</tspan><tspan x="476.1" y="0" fill="#FFFFFF" font-family="'TimesNewRomanPS-BoldMT'" font-size="42.8235">г</tspan><tspan x="495.2" y="0" fill="#FFFFFF" font-family="'TimesNewRomanPS-BoldMT'" font-size="42.8235">и</tspan><tspan x="519" y="0" fill="#FFFFFF" font-family="'TimesNewRomanPS-BoldMT'" font-size="42.8235">с</tspan><tspan x="538" y="0" fill="#FFFFFF" font-family="'TimesNewRomanPS-BoldMT'" font-size="42.8235" letter-spacing="-1">т</tspan><tspan x="557.1" y="0" fill="#FFFFFF" font-family="'TimesNewRomanPS-BoldMT'" font-size="42.8235">рe</tspan></text>
		</g>
	</g>
</g>
</svg>
