<?xml version="1.0" encoding="utf-8"?>
<!-- Generator: Adobe Illustrator 26.1.0, SVG Export Plug-In . SVG Version: 6.00 Build 0)  -->
<svg version="1.1" id="Layer_1" xmlns="http://www.w3.org/2000/svg" xmlns:xlink="http://www.w3.org/1999/xlink" x="0px" y="0px"
	 viewBox="0 0 600 441.88" style="enable-background:new 0 0 600 441.88;" xml:space="preserve">
<style type="text/css">
	.st0{opacity:0.6;fill:#FFFFFF;}
	.st1{opacity:0.4;fill:none;stroke:#B2EBF2;stroke-width:4;stroke-miterlimit:10;}
	.st2{opacity:0.4;fill:none;stroke:#B2EBF2;stroke-width:6;stroke-miterlimit:10;}
	.st3{opacity:0.4;fill:none;stroke:#B2EBF2;stroke-width:2;stroke-miterlimit:10;}
	.st4{opacity:0.4;fill:none;stroke:#B2EBF2;stroke-miterlimit:10;}
	.st5{opacity:0.4;fill:none;stroke:#B2EBF2;stroke-width:3;stroke-miterlimit:10;}
</style>
<path class="st0" d="M534.96,441.88c-3.84-21.28-2.04-41.92,5.62-64.63c11.43-33.89,34.72-82.54,4.14-113.43
	c-19.07-19.26-51.13-17.76-76.28-7.67c-42.46,17.03-75.33,50.95-117.72,68.38c-40.87,16.81-84.97,23.29-126.79,37.12
	c-48.87,16.16-93.66,44.08-130.3,80.23"/>
<path class="st1" d="M534.96,441.88c-3.84-21.28-2.04-41.92,5.62-64.63c11.43-33.89,34.72-82.54,4.14-113.43
	c-19.07-19.26-51.13-17.76-76.28-7.67c-42.46,17.03-75.33,50.95-117.72,68.38c-40.87,16.81-84.97,23.29-126.79,37.12
	c-48.87,16.16-93.66,44.08-130.3,80.23"/>
<path class="st0" d="M340.02,48.63c-13.91-1.39-27.08-9.18-41.34-7.44c-9.83,1.2-19.65,9.62-18.36,20.31
	c1.39,11.55,16.19,16.84,25.89,18.84c17.6,3.64,34.92,7.58,40.15,27.24c2.04,7.67,2,15.74,1.28,23.64
	c-0.37,4.03-0.91,11.02,2.78,13.84c7.43,5.65,12.68-6.2,15.06-11.43c4.56-10.04,10.22-18.25,16.44-27.41
	c10.32-15.18,28.5-44.09,14.52-62.12c-10.98-14.16-26.83-4.38-38.98,1.65C351.59,48.64,345.79,49.2,340.02,48.63z"/>
<path class="st2" d="M593.45,441.88c-8.51-10.51-18.36-19.26-20.91-34.08c-2.22-12.91,1.8-25.96,5.04-38.65
	c8.83-34.6,24.36-98.69-1.19-129.49c-7.34-8.85-18.19-14.19-29.34-17c-22.54-5.7-46.62-1.88-68.38,6.31
	c-21.76,8.19-41.66,20.54-61.61,32.47c-33.3,19.92-67.5,38.89-104.04,52.25c-35.74,13.07-72.27,15.31-109.14,22.96
	c-45.96,9.54-90.43,26.49-130.89,50.3c-20.51,12.07-39.98,25.91-58.03,41.41C9.87,432.72,4.94,437.3,0,441.88"/>
<path class="st3" d="M485.26,441.88c2.01-11.22,5.56-22.16,10.66-32.38c17.73-35.45,71.12-108.17,14.04-136.48
	c-34.17-16.95-70.73,16.79-95.67,36.28c-17.97,14.04-39.79,23.21-61.23,30.78c-38.5,13.6-78.96,21.62-116.22,38.71
	c-34.3,15.73-64.54,38.61-93.46,63.09"/>
<path class="st3" d="M435.58,441.88c1.99-6.07,4.73-11.88,8.22-17.25c10.51-16.21,26.69-27.97,38.07-43.58
	c10.4-14.26,18.01-33.39,17.19-51.32c-0.58-12.6-9.35-23.98-22.39-25.14c-9.43-0.84-18.69,3.01-26.79,7.91
	c-47.5,28.7-95.69,52.61-146.36,75.36c-35.75,16.05-71.44,32.91-104.43,54.03"/>
<path class="st4" d="M406.59,441.88c8.98-21.46,33-40.62,41.88-59.31c2.14-4.5,3.75-9.36,3.7-14.34
	c-0.16-15.48-13.28-18.26-24.98-12.09c-8.34,4.4-16.19,9.65-24.17,14.65c-43.48,27.26-92.86,43.72-135.88,71.08"/>
<path class="st1" d="M359.23,13.38c-1.62,0.67-3.21,1.43-4.75,2.29c-6.33,3.53-11.86,8.95-19.28,10.11
	c-5.42,0.85-10.88-0.76-16.2-2.1c-22.67-5.71-60.19-4.21-63.32,26.44c-0.88,8.63-0.33,17.79,4.47,25.29
	c4.64,7.26,12.69,10.84,20.53,13.91c16.11,6.31,44.4,7.94,52.53,26.18c6.22,13.94-6.3,30.68,2.17,43.93
	c4.32,6.76,13.48,9.17,20.73,6.17c16.76-6.93,24.54-23.5,33.06-38.46c10.42-18.3,26.65-33.21,32.47-54.01
	c5.33-19.06,0.32-41.01-15.62-53.54c-8-6.28-18.02-9.6-28.16-9.74C371.49,9.76,365.11,10.96,359.23,13.38z"/>
<path class="st5" d="M340.02,48.63c-13.91-1.39-27.08-9.18-41.34-7.44c-9.83,1.2-19.65,9.62-18.36,20.31
	c1.39,11.55,16.19,16.84,25.89,18.84c17.6,3.64,34.92,7.58,40.15,27.24c2.04,7.67,2,15.74,1.28,23.64
	c-0.37,4.03-0.91,11.02,2.78,13.84c7.43,5.65,12.68-6.2,15.06-11.43c4.56-10.04,10.22-18.25,16.44-27.41
	c10.32-15.18,28.5-44.09,14.52-62.12c-10.98-14.16-26.83-4.38-38.98,1.65C351.59,48.64,345.79,49.2,340.02,48.63z"/>
<path class="st3" d="M352.5,58.03c-8.05,1.29-16.1,1.17-24.88-1.97c-5.84-2.09-11.5-5.03-17.72-5.84
	c-6.45-0.84-12.96,2.29-11.78,9.66c1.45,8.99,11.52,12.54,19.34,13.55c12.72,1.65,28.45,1.56,33.45,16.34
	c1.81,5.35,1.61,11.69,4.73,16.57c10.08,15.72,31.46-30.7,32.28-38.08c0.66-5.92-2.41-13.97-8.72-15.63
	c-2.59-0.68-5.33-0.08-7.9,0.68C364.83,55.22,358.67,57.04,352.5,58.03z"/>
<path class="st4" d="M370.83,86.49c2.77-4.28,5.59-8.57,8.03-13.05c2.01-3.7,4.02-11.17-2.64-11c-1.49,0.04-2.92,0.53-4.32,1.04
	c-4.36,1.58-8.75,3.36-13.38,3.98c-3.08,0.42-9.61-1.16-11.82,1.5c-2.57,3.09,1.09,6.35,3.38,8.03c2.55,1.86,5.02,3.95,6.8,6.59
	c1.91,2.83,2.61,13.97,8.5,10.23c1.25-0.8,2.09-2.09,2.89-3.34C369.12,89.13,369.97,87.81,370.83,86.49z"/>
</svg>
