<?xml version="1.0" encoding="utf-8"?>
<!-- Generator: Adobe Illustrator 26.1.0, SVG Export Plug-In . SVG Version: 6.00 Build 0)  -->
<svg version="1.1" id="Layer_1" xmlns="http://www.w3.org/2000/svg" xmlns:xlink="http://www.w3.org/1999/xlink" x="0px" y="0px"
	 viewBox="0 0 60 60" style="enable-background:new 0 0 60 60;" xml:space="preserve">
<style type="text/css">
	.st0{fill:#1D1C57;}
	.st1{fill:#9696CA;}
</style>
<g id="vlpa_00000181088971826802055060000007676362346926214278_">
	<g id="vlpb_00000085943412657238616120000014452156957846232510_">
		<g id="vlpc_00000127763170363150341770000013608273565873462932_">
			<path id="vlpd_00000109009240326983102470000015186593284578708352_" class="st0" d="M10.62,0.75h38.75
				C55.25,0.75,60,5.5,60,11.38v37.25c0,5.88-4.75,10.62-10.62,10.62H10.62C4.75,59.25,0,54.5,0,48.62V11.38
				C0,5.5,4.75,0.75,10.62,0.75z"/>
		</g>
	</g>
	<g id="vlpe_00000152235458825779208710000014089256634862210703_">
		<g id="vlpf_00000021082970317375167560000006834488300023924895_">
			<path class="st1" d="M24.1,35.75h-9.3l-1.9,5.9c-0.05,0.22-0.25,0.38-0.48,0.35h-4.7c-0.28,0-0.35-0.15-0.28-0.45l8.05-23.07
				c0.07-0.25,0.15-0.48,0.25-0.77c0.1-0.52,0.15-1.07,0.15-1.62c-0.02-0.12,0.07-0.25,0.2-0.27h6.48c0.17,0,0.3,0.07,0.33,0.2
				l9.12,25.5c0.08,0.28,0,0.4-0.25,0.4h-5.23c-0.17,0.03-0.35-0.1-0.4-0.28l-2.05-6L24.1,35.75z M16.25,30.77h6.35
				c-0.15-0.52-0.35-1.15-0.58-1.8c-0.23-0.67-0.45-1.4-0.67-2.15c-0.25-0.77-0.48-1.52-0.73-2.3s-0.48-1.5-0.67-2.23
				c-0.2-0.7-0.38-1.35-0.55-1.95h-0.05c-0.23,1.08-0.5,2.15-0.85,3.23c-0.38,1.2-0.75,2.45-1.15,3.7
				C17.03,28.55,16.63,29.73,16.25,30.77z M46.75,33.5h-7.92c0.1,0.78,0.35,1.55,0.78,2.22c0.45,0.67,1.08,1.2,1.83,1.5
				c1,0.42,2.1,0.65,3.2,0.62c0.88-0.03,1.75-0.1,2.6-0.28c0.78-0.1,1.53-0.3,2.22-0.58c0.12-0.1,0.2-0.05,0.2,0.2v3.83
				c0,0.1-0.03,0.2-0.05,0.3c-0.05,0.08-0.1,0.12-0.17,0.17c-0.8,0.35-1.62,0.6-2.5,0.75c-1.17,0.22-2.35,0.33-3.55,0.3
				c-1.9,0-3.5-0.3-4.8-0.88c-1.22-0.53-2.3-1.35-3.15-2.38c-0.8-0.97-1.38-2.08-1.72-3.28c-0.35-1.17-0.53-2.4-0.53-3.65
				c0-1.35,0.2-2.67,0.62-3.97c0.4-1.25,1.03-2.4,1.88-3.42c0.83-1,1.85-1.8,3.03-2.38s2.58-0.77,4.17-0.77
				c1.33-0.02,2.65,0.23,3.88,0.77c1.03,0.45,1.92,1.12,2.62,2c0.65,0.85,1.17,1.8,1.5,2.85c0.33,1,0.47,2.02,0.47,3.05
				c0,0.6-0.03,1.12-0.05,1.6c-0.05,0.47-0.08,0.83-0.1,1.05c-0.03,0.17-0.17,0.33-0.35,0.33c-0.15,0-0.42,0.03-0.83,0.05
				c-0.4,0.05-0.88,0.08-1.45,0.08S47.4,33.5,46.75,33.5L46.75,33.5z M38.83,29.85h5.28c0.65,0,1.12,0,1.42-0.02
				c0.2-0.02,0.4-0.08,0.58-0.2v-0.25c0-0.33-0.05-0.62-0.15-0.92c-0.45-1.4-1.78-2.35-3.25-2.3c-1.38-0.08-2.67,0.65-3.33,1.9
				C39.08,28.63,38.9,29.23,38.83,29.85z"/>
		</g>
	</g>
</g>
</svg>
