<svg xmlns="http://www.w3.org/2000/svg" xml:space="preserve" id="Layer_1" x="0" y="0" style="enable-background:new 0 0 60 60" version="1.1" viewBox="0 0 60 60"><style>.st0{fill:#a4c639}.st1{fill:#fff}</style><ellipse cx="30" cy="19.35" class="st0" rx="15.77" ry="14.55"/><path d="M30 35.5c-9.57 0-17.36-7.24-17.36-16.15S20.43 3.21 30 3.21s17.36 7.24 17.36 16.15S39.57 35.5 30 35.5zm0-29.11c-7.82 0-14.18 5.82-14.18 12.96 0 7.15 6.36 12.96 14.18 12.96 7.82 0 14.18-5.82 14.18-12.96 0-7.15-6.36-12.96-14.18-12.96z" class="st1"/><path d="M18.04 15.71h23.91c2.11 0 3.81 1.71 3.81 3.81v23.91c0 2.11-1.71 3.81-3.81 3.81H18.04c-2.11 0-3.81-1.71-3.81-3.81v-23.9c0-2.11 1.71-3.82 3.81-3.82z" class="st0"/><path d="M41.96 48.84H18.04c-2.98 0-5.4-2.42-5.4-5.4V19.53c0-2.98 2.42-5.4 5.4-5.4h23.91c2.98 0 5.4 2.42 5.4 5.4v23.91c.01 2.98-2.41 5.4-5.39 5.4zM18.04 17.3c-1.22 0-2.22 1-2.22 2.22v23.91c0 1.22 1 2.22 2.22 2.22h23.91c1.23 0 2.22-1 2.22-2.22v-23.9c0-1.22-1-2.22-2.22-2.22H18.04z" class="st1"/><path d="M19.67.94c-.54.3-.74.99-.44 1.53l6.13 11.06c.3.54.99.74 1.53.44s.74-.99.44-1.53L21.2 1.38c-.3-.55-.99-.74-1.53-.44z" class="st0"/><path d="M26.35 14.91c-.68 0-1.33-.36-1.68-.99L18.53 2.85c-.51-.93-.18-2.1.75-2.61a1.91 1.91 0 0 1 2.61.75l6.13 11.06c.51.93.18 2.1-.75 2.61-.28.17-.6.25-.92.25zM20.06 1.63a.33.33 0 0 0-.13.45l6.13 11.06c.09.16.29.22.45.13a.33.33 0 0 0 .13-.45L20.5 1.76a.389.389 0 0 0-.2-.16.313.313 0 0 0-.24.03z" class="st1"/><path d="M50.62 19.35c-2.3 0-4.16 1.86-4.16 4.16v14.73c0 2.3 1.86 4.16 4.16 4.16s4.16-1.86 4.16-4.16V23.51c0-2.3-1.86-4.16-4.16-4.16z" class="st0"/><path d="M50.62 43.19c-2.73 0-4.95-2.22-4.95-4.95V23.51c0-2.73 2.22-4.95 4.95-4.95s4.95 2.22 4.95 4.95v14.73c0 2.73-2.22 4.95-4.95 4.95zm0-23.04c-1.85 0-3.36 1.51-3.36 3.36v14.73c0 1.85 1.51 3.36 3.36 3.36 1.85 0 3.36-1.51 3.36-3.36V23.51c0-1.85-1.51-3.36-3.36-3.36z" class="st1"/><path d="M35.89 36.16c-2.3 0-4.16 1.86-4.16 4.16v14.73c0 2.3 1.86 4.16 4.16 4.16s4.16-1.86 4.16-4.16V40.32c0-2.3-1.86-4.16-4.16-4.16z" class="st0"/><path d="M35.89 60c-2.73 0-4.95-2.22-4.95-4.95V40.32c0-2.73 2.22-4.95 4.95-4.95s4.95 2.22 4.95 4.95v14.73c.01 2.73-2.22 4.95-4.95 4.95zm0-23.05c-1.85 0-3.36 1.51-3.36 3.36v14.73c0 1.85 1.51 3.36 3.36 3.36 1.85 0 3.36-1.51 3.36-3.36V40.32c0-1.86-1.5-3.37-3.36-3.37z" class="st1"/><path d="M40.33.94c.54.3.74.99.44 1.53l-6.13 11.06c-.3.54-.99.74-1.53.44s-.74-.99-.44-1.53L38.8 1.38c.3-.55.99-.74 1.53-.44z" class="st0"/><path d="M33.65 14.91a1.923 1.923 0 0 1-1.68-2.85L38.1.99c.25-.45.66-.77 1.15-.92a1.91 1.91 0 0 1 1.46.17c.45.25.77.66.92 1.15.14.49.08 1.01-.17 1.46l-6.13 11.06a1.954 1.954 0 0 1-1.68 1zm6.14-13.32c-.12 0-.23.06-.29.17l-6.13 11.06a.33.33 0 0 0 .13.45c.16.09.36.03.45-.13l6.13-11.06c.06-.1.04-.2.03-.25a.306.306 0 0 0-.16-.2.343.343 0 0 0-.16-.04z" class="st1"/><path d="M9.38 19.35c2.3 0 4.16 1.86 4.16 4.16v14.73c0 2.3-1.86 4.16-4.16 4.16s-4.16-1.86-4.16-4.16V23.51c0-2.3 1.86-4.16 4.16-4.16z" class="st0"/><path d="M9.38 43.19c-2.73 0-4.95-2.22-4.95-4.95V23.51c0-2.73 2.22-4.95 4.95-4.95s4.95 2.22 4.95 4.95v14.73c.01 2.73-2.22 4.95-4.95 4.95zm0-23.04c-1.85 0-3.36 1.51-3.36 3.36v14.73c0 1.85 1.51 3.36 3.36 3.36s3.36-1.51 3.36-3.36V23.51c0-1.85-1.5-3.36-3.36-3.36z" class="st1"/><path d="M24.11 36.16c2.3 0 4.16 1.86 4.16 4.16v14.73c0 2.3-1.86 4.16-4.16 4.16s-4.16-1.86-4.16-4.16V40.32c0-2.3 1.86-4.16 4.16-4.16z" class="st0"/><path d="M24.11 60c-2.73 0-4.95-2.22-4.95-4.95V40.32c0-2.73 2.22-4.95 4.95-4.95s4.95 2.22 4.95 4.95v14.73c0 2.73-2.22 4.95-4.95 4.95zm0-23.05c-1.85 0-3.36 1.51-3.36 3.36v14.73c0 1.85 1.51 3.36 3.36 3.36s3.36-1.51 3.36-3.36V40.32a3.37 3.37 0 0 0-3.36-3.37z" class="st1"/><ellipse cx="30" cy="19.35" class="st0" rx="15.77" ry="14.55"/><path d="M18.04 15.71h23.91c2.11 0 3.81 1.71 3.81 3.81v23.91c0 2.11-1.71 3.81-3.81 3.81H18.04c-2.11 0-3.81-1.71-3.81-3.81v-23.9c0-2.11 1.71-3.82 3.81-3.82z" class="st0"/><path d="M13.54 19.96h32.92M13.54 19.16h32.92v1.59H13.54z" class="st1"/><circle cx="22.72" cy="12.25" r=".69" class="st1"/><path d="M22.72 13.74c-.82 0-1.49-.67-1.49-1.49s.67-1.49 1.49-1.49 1.49.67 1.49 1.49-.67 1.49-1.49 1.49zm0-1.59a.1.1 0 0 0-.1.1c0 .11.21.11.21 0 0-.06-.05-.1-.11-.1z" class="st1"/><circle cx="37.28" cy="12.25" r=".69" class="st1"/><path d="M37.28 13.74c-.82 0-1.49-.67-1.49-1.49s.67-1.49 1.49-1.49 1.49.67 1.49 1.49-.67 1.49-1.49 1.49zm0-1.59a.1.1 0 0 0-.1.1c0 .11.2.11.2 0a.1.1 0 0 0-.1-.1z" class="st1"/></svg>