<?xml version="1.0" encoding="utf-8"?>
<!-- Generator: Adobe Illustrator 26.1.0, SVG Export Plug-In . SVG Version: 6.00 Build 0)  -->
<svg version="1.1" id="Layer_1" xmlns="http://www.w3.org/2000/svg" xmlns:xlink="http://www.w3.org/1999/xlink" x="0px" y="0px"
	 viewBox="0 0 60 60" style="enable-background:new 0 0 60 60;" xml:space="preserve">
<style type="text/css">
	.st0{fill:#5295D0;}
	.st1{fill:#215B99;}
	.st2{fill:#2F73B8;}
	.st3{fill:#1A4870;}
	.st4{fill:#242731;}
</style>
<g>
	<g>
		<path class="st0" d="M34.83,36.8h0.36l5.95-2.98l0.1-0.14V9.91l-0.1-0.14L35.19,6.8h-0.37L34.83,36.8"/>
		<path class="st1" d="M27.08,36.8h-0.37l-5.95-2.98l-0.12-0.21l-0.06-23.58l0.18-0.26l5.95-2.98h0.37L27.08,36.8"/>
		<path class="st2" d="M26.72,6.8h8.47v30h-8.47V6.8z"/>
		<path class="st3" d="M44.26,21.12l-0.2-0.04l-2.87-0.27l-0.04,0.02l-5.96-0.24h-8.47l-5.96,0.24v-4.54l-0.01,0l0.01-0.01
			l5.96-1.38h8.47l5.96,1.38l2.19,1.16v-0.75l0.93-0.1l-0.1-0.19l-2.93-2.1l-0.09,0.03l-5.96-1.85h-8.47l-5.96,1.85V9.77l-3.12,3.65
			v3.19l0.02-0.02l0.9,0.1v0.76l-0.93,0.5v3.17l0.02,0l0.9,0.01v1.33l-0.78,0.01l-0.15-0.01v3.17l0.93,0.5v0.77l-0.89,0.1
			l-0.04-0.03v3.19l3.12,3.65v-4.57l5.96,1.85h8.47l5.98-1.85l0.08,0.03l2.89-2.07l0.13-0.21l-0.93-0.1v-0.76l-0.12-0.05l-1.98,1.07
			l-0.07,0.15l-5.98,1.37v0h-8.47v0l-5.96-1.38v-4.56l5.96,0.24V23h8.47l5.96-0.24l0.14,0.06l2.78-0.24l0.2-0.1l-0.93-0.01v-1.33
			L44.26,21.12"/>
		<path class="st2" d="M41.15,29.25v4.57l3.12-3.65V27l-3.1,2.25L41.15,29.25"/>
		<path class="st2" d="M41.15,27.32l0.02,0l3.1-1.67v-3.19l-3.12,0.29V27.32"/>
		<path class="st2" d="M41.16,16.28l-0.02,0v4.55l3.12,0.29v-3.19L41.16,16.28"/>
		<path class="st2" d="M41.16,14.35l3.1,2.24v-3.17l-3.12-3.65v4.57l0.02,0.01V14.35"/>
	</g>
	<g>
		<path class="st4" d="M6.91,44.08c0.56,0.28,0.98,0.69,1.28,1.21c0.3,0.53,0.45,1.15,0.45,1.86s-0.15,1.33-0.45,1.86
			c-0.3,0.52-0.72,0.92-1.28,1.2c-0.56,0.28-1.21,0.42-1.97,0.42H2.77v-6.97h2.17C5.69,43.65,6.35,43.8,6.91,44.08z M6.99,49.16
			c0.47-0.48,0.71-1.15,0.71-2.01c0-0.87-0.24-1.54-0.71-2.03s-1.16-0.73-2.05-0.73H3.67v5.48h1.26
			C5.83,49.87,6.52,49.64,6.99,49.16z"/>
		<path class="st4" d="M14.55,45.14l-3.3,8.06h-0.94l1.08-2.64l-2.21-5.42h1.01l1.72,4.44l1.7-4.44H14.55z"/>
		<path class="st4" d="M19.75,45.65c0.41,0.4,0.62,0.98,0.62,1.74v3.23h-0.9v-3.1c0-0.55-0.14-0.97-0.41-1.26
			c-0.27-0.29-0.65-0.44-1.12-0.44c-0.48,0-0.86,0.15-1.14,0.45c-0.28,0.3-0.42,0.74-0.42,1.31v3.03h-0.91v-5.48h0.91v0.78
			c0.18-0.28,0.42-0.5,0.74-0.65c0.31-0.15,0.65-0.23,1.02-0.23C18.79,45.04,19.33,45.25,19.75,45.65z"/>
		<path class="st4" d="M21.85,46.39c0.23-0.42,0.54-0.75,0.93-0.98c0.4-0.23,0.84-0.35,1.32-0.35c0.48,0,0.9,0.1,1.25,0.31
			c0.35,0.21,0.62,0.47,0.79,0.78v-1h0.92v5.48h-0.92V49.6c-0.18,0.32-0.45,0.58-0.8,0.79c-0.36,0.21-0.77,0.31-1.24,0.31
			c-0.49,0-0.93-0.12-1.32-0.36c-0.39-0.24-0.7-0.58-0.93-1.01c-0.23-0.43-0.34-0.93-0.34-1.48C21.51,47.3,21.63,46.81,21.85,46.39z
			 M25.9,46.79c-0.17-0.31-0.39-0.54-0.67-0.71s-0.59-0.25-0.93-0.25s-0.65,0.08-0.93,0.24c-0.28,0.16-0.5,0.39-0.67,0.7
			c-0.17,0.31-0.25,0.67-0.25,1.08c0,0.42,0.08,0.79,0.25,1.09c0.17,0.31,0.39,0.55,0.67,0.71c0.28,0.16,0.59,0.24,0.93,0.24
			s0.65-0.08,0.93-0.24c0.28-0.16,0.51-0.4,0.67-0.71c0.17-0.31,0.25-0.67,0.25-1.08C26.15,47.46,26.07,47.1,25.9,46.79z"/>
		<path class="st4" d="M36.34,45.31c0.33,0.18,0.6,0.44,0.79,0.8c0.19,0.35,0.29,0.78,0.29,1.29v3.23h-0.9v-3.1
			c0-0.55-0.13-0.97-0.4-1.26s-0.63-0.44-1.09-0.44c-0.47,0-0.85,0.15-1.13,0.46c-0.28,0.3-0.42,0.74-0.42,1.32v3.02h-0.9v-3.1
			c0-0.55-0.13-0.97-0.41-1.26c-0.27-0.29-0.63-0.44-1.09-0.44c-0.47,0-0.85,0.15-1.13,0.46c-0.28,0.3-0.42,0.74-0.42,1.32v3.02
			h-0.91v-5.48h0.91v0.79c0.18-0.29,0.42-0.51,0.72-0.66c0.3-0.15,0.64-0.23,1-0.23c0.46,0,0.87,0.1,1.22,0.31
			c0.35,0.21,0.62,0.51,0.79,0.91c0.15-0.38,0.41-0.69,0.76-0.9c0.35-0.21,0.75-0.32,1.18-0.32C35.62,45.04,36,45.13,36.34,45.31z"
			/>
		<path class="st4" d="M39.9,50.36c-0.42-0.23-0.74-0.57-0.98-1c-0.24-0.43-0.35-0.93-0.35-1.49c0-0.56,0.12-1.05,0.37-1.49
			c0.24-0.43,0.57-0.76,0.99-0.99c0.42-0.23,0.89-0.35,1.41-0.35s0.99,0.12,1.41,0.35c0.42,0.23,0.75,0.56,0.99,0.98
			c0.24,0.43,0.37,0.92,0.37,1.49s-0.12,1.06-0.38,1.49s-0.59,0.76-1.01,1c-0.43,0.23-0.9,0.35-1.42,0.35
			C40.78,50.71,40.32,50.6,39.9,50.36z M42.21,49.68c0.29-0.15,0.52-0.38,0.69-0.69s0.26-0.68,0.26-1.12c0-0.44-0.09-0.81-0.26-1.12
			s-0.4-0.54-0.68-0.68c-0.28-0.15-0.58-0.23-0.91-0.23c-0.33,0-0.64,0.08-0.92,0.23c-0.28,0.15-0.5,0.38-0.66,0.68
			c-0.17,0.31-0.25,0.68-0.25,1.12c0,0.45,0.08,0.82,0.25,1.13c0.16,0.31,0.38,0.54,0.65,0.69s0.57,0.22,0.9,0.22
			S41.93,49.84,42.21,49.68z"/>
		<path class="st4" d="M49.44,44.08c0.56,0.28,0.98,0.69,1.28,1.21c0.3,0.53,0.45,1.15,0.45,1.86s-0.15,1.33-0.45,1.86
			c-0.3,0.52-0.72,0.92-1.28,1.2c-0.56,0.28-1.21,0.42-1.97,0.42H45.3v-6.97h2.17C48.23,43.65,48.89,43.8,49.44,44.08z M49.53,49.16
			c0.47-0.48,0.71-1.15,0.71-2.01c0-0.87-0.24-1.54-0.71-2.03s-1.16-0.73-2.05-0.73h-1.26v5.48h1.26
			C48.37,49.87,49.06,49.64,49.53,49.16z"/>
		<path class="st4" d="M56.55,47.34c0.21,0.17,0.38,0.38,0.5,0.62s0.18,0.51,0.18,0.79c0,0.35-0.09,0.67-0.27,0.96
			s-0.44,0.51-0.79,0.67c-0.34,0.16-0.75,0.25-1.21,0.25h-2.6v-6.97h2.5c0.47,0,0.88,0.08,1.21,0.23c0.33,0.16,0.58,0.37,0.75,0.64
			c0.17,0.27,0.25,0.57,0.25,0.9c0,0.41-0.11,0.76-0.33,1.03c-0.22,0.27-0.52,0.46-0.88,0.59C56.11,47.07,56.34,47.18,56.55,47.34z
			 M53.28,46.66h1.53c0.43,0,0.76-0.1,0.99-0.3c0.23-0.2,0.35-0.48,0.35-0.83s-0.12-0.63-0.35-0.83c-0.23-0.2-0.57-0.3-1.01-0.3
			h-1.51V46.66z M55.95,49.55c0.25-0.21,0.38-0.51,0.38-0.89c0-0.39-0.13-0.69-0.4-0.91c-0.27-0.22-0.62-0.34-1.07-0.34h-1.58v2.46
			h1.61C55.34,49.87,55.69,49.77,55.95,49.55z"/>
	</g>
</g>
</svg>
