<?xml version="1.0" encoding="utf-8"?>
<!-- Generator: Adobe Illustrator 26.1.0, SVG Export Plug-In . SVG Version: 6.00 Build 0)  -->
<svg version="1.1" id="Layer_1" xmlns="http://www.w3.org/2000/svg" xmlns:xlink="http://www.w3.org/1999/xlink" x="0px" y="0px"
	 viewBox="0 0 60 60" style="enable-background:new 0 0 60 60;" xml:space="preserve">
<style type="text/css">
	.st0{fill:#492D8C;}
	.st1{fill:#FFFFFF;}
</style>
<g>
	<path class="st0" d="M42.64,3.91H17.36c-1.76,0-3.17,1.41-3.17,3.17v28.9c0,1.76,1.41,3.17,3.17,3.17h25.29
		c1.76,0,3.17-1.41,3.17-3.17V7.09C45.82,5.32,44.41,3.91,42.64,3.91z M44.05,35.99c0,0.79-0.62,1.41-1.41,1.41H17.36
		c-0.79,0-1.41-0.62-1.41-1.41V7.09c0-0.79,0.62-1.41,1.41-1.41h25.29c0.79,0,1.41,0.62,1.41,1.41V35.99z M22.11,33.87l3.96-3.52
		l-3.96-3.52V33.87z M36.39,19.6c-0.7-0.7-2.03-1.59-4.23-1.59c-2.38,0-4.85,0.62-6.61,1.23V9.2h-3.52v15.24l2.47-1.15
		c0,0,4.05-1.85,7.58-1.85c1.76,0,2.2,0.97,2.2,1.85v10.57h3.52V23.3C37.89,23.03,37.89,21.1,36.39,19.6z M31.72,14.93h3.52
		c1.59-1.85,2.38-3.7,2.64-5.73h-3.52C34.01,11.23,33.13,13.08,31.72,14.93z"/>
	<g>
		<path class="st0" d="M52.38,52.22v-5.4h2.46v5.4c0,1.23,0.43,1.84,1.41,1.84c0.98,0,1.35-0.55,1.35-1.84v-5.4H60v5.47
			c0,2.4-1.17,3.81-3.81,3.81C53.55,56.02,52.38,54.61,52.38,52.22z"/>
		<polygon class="st0" points="42.07,46.81 44.52,46.81 44.52,50.13 47.04,46.81 49.87,46.81 46.8,50.37 50.11,55.9 47.35,55.9 
			45.2,52.28 44.52,53.08 44.52,55.9 42.07,55.9 		"/>
		<ellipse class="st0" cx="34.88" cy="51.3" rx="4.48" ry="4.73"/>
		<path class="st1" d="M36.85,51.3c0-1.66-0.74-2.7-2.03-2.7s-2.03,1.04-2.03,2.7s0.74,2.76,2.03,2.76S36.85,53.01,36.85,51.3z"/>
		<path class="st0" d="M20.51,46.81h3.56c2.33,0,3.75,0.8,3.75,2.95c0,1.41-0.61,2.27-1.78,2.64l1.9,3.5h-2.58l-1.78-3.13h-0.68
			v3.13h-2.4L20.51,46.81L20.51,46.81z"/>
		<path class="st1" d="M24.01,50.87c0.98,0,1.47-0.31,1.47-1.04s-0.43-1.04-1.47-1.04h-1.04v2.09H24.01z"/>
		<polygon class="st0" points="11.12,46.81 17.63,46.81 17.63,48.84 13.57,48.84 13.57,50.31 16.46,50.31 16.46,52.22 13.57,52.22 
			13.57,53.87 17.81,53.87 17.81,55.84 11.12,55.84 		"/>
		<polygon class="st0" points="0,46.81 2.46,46.81 2.46,50.19 5.47,50.19 5.47,46.81 7.92,46.81 7.92,55.9 5.47,55.9 5.47,52.22 
			2.46,52.22 2.46,55.9 0,55.9 		"/>
	</g>
</g>
</svg>
