<?xml version="1.0" encoding="utf-8"?>
<!-- Generator: Adobe Illustrator 26.1.0, SVG Export Plug-In . SVG Version: 6.00 Build 0)  -->
<svg version="1.1" id="Layer_1" xmlns="http://www.w3.org/2000/svg" xmlns:xlink="http://www.w3.org/1999/xlink" x="0px" y="0px"
	 viewBox="0 0 60 60" style="enable-background:new 0 0 60 60;" xml:space="preserve">
<style type="text/css">
	.st0{fill:#507997;}
	.st1{fill:#F58220;}
</style>
<g>
	<path class="st0" d="M6.65,37.63c0,0-1.07,0.65,0.75,0.84c2.19,0.28,3.36,0.23,5.78-0.23c0,0,0.65,0.42,1.54,0.75
		C9.26,41.31,2.36,38.84,6.65,37.63L6.65,37.63z M5.95,34.6c0,0-1.17,0.89,0.65,1.07c2.38,0.23,4.25,0.28,7.46-0.37
		c0,0,0.42,0.47,1.12,0.7C8.61,37.95,1.24,36.18,5.95,34.6L5.95,34.6z M18.82,39.91c0,0,0.79,0.65-0.89,1.17
		c-3.12,0.93-13.1,1.21-15.9,0c-0.98-0.42,0.89-1.03,1.49-1.12c0.61-0.14,0.93-0.14,0.93-0.14c-1.07-0.75-7.14,1.54-3.08,2.19
		C12.53,43.82,21.71,41.21,18.82,39.91L18.82,39.91z M7.16,31.42c0,0-5.08,1.21-1.82,1.63c1.4,0.19,4.15,0.14,6.72-0.05
		c2.1-0.19,4.2-0.56,4.2-0.56S15.51,32.78,15,33.1c-5.18,1.35-15.11,0.75-12.26-0.65C5.16,31.28,7.16,31.42,7.16,31.42L7.16,31.42z
		 M16.26,36.51c5.22-2.7,2.8-5.32,1.12-4.99c-0.42,0.09-0.61,0.19-0.61,0.19s0.14-0.28,0.47-0.37c3.31-1.17,5.92,3.5-1.07,5.32
		C16.16,36.65,16.21,36.6,16.26,36.51L16.26,36.51z M7.68,43.88c5.04,0.33,12.73-0.19,12.92-2.56c0,0-0.37,0.93-4.15,1.63
		c-4.29,0.79-9.61,0.7-12.73,0.19C3.71,43.13,4.37,43.69,7.68,43.88L7.68,43.88z"/>
	<path class="st1" d="M13.09,16.03c0,0,2.89,2.94-2.75,7.37c-4.52,3.59-1.03,5.64,0,7.97C7.68,29,5.77,26.9,7.07,24.94
		C8.98,22.05,14.25,20.65,13.09,16.03L13.09,16.03z M11.6,29.42c1.35,1.54-0.37,2.94-0.37,2.94s3.45-1.77,1.87-3.96
		c-1.45-2.1-2.56-3.12,3.5-6.62C16.58,21.77,7.02,24.15,11.6,29.42L11.6,29.42z"/>
	<path class="st0" d="M41.48,34.96v-7.09c0-1.81-1.01-3.04-3.54-3.04c-1.45,0-2.68,0.36-3.76,0.8l0.36,1.3
		c0.8-0.29,1.81-0.58,2.89-0.58c1.37,0,2.03,0.58,2.03,1.74v0.94h-0.72c-3.47,0-5.06,1.3-5.06,3.4c0,1.74,1.09,2.75,3.04,2.75
		c1.23,0,2.17-0.58,3.04-1.3l0.14,1.09L41.48,34.96L41.48,34.96z M39.45,32.64c-0.72,0.65-1.52,1.01-2.24,1.01
		c-0.94,0-1.52-0.58-1.52-1.59s0.58-1.74,2.89-1.74h0.87V32.64L39.45,32.64z M48.28,34.96h-2.53l-3.04-9.91h2.17l1.88,6.08
		l0.43,1.81c0.94-2.6,1.66-5.28,1.95-7.89h2.17C50.74,28.3,49.73,31.85,48.28,34.96L48.28,34.96z M60,34.96v-7.09
		c0-1.81-1.01-3.04-3.55-3.04c-1.45,0-2.68,0.36-3.76,0.8l0.29,1.3c0.87-0.29,1.88-0.58,2.97-0.58c1.37,0,2.03,0.58,2.03,1.74v0.94
		h-0.72c-3.47,0-5.06,1.3-5.06,3.4c0,1.74,1.01,2.75,2.97,2.75c1.3,0,2.24-0.58,3.11-1.3l0.14,1.09H60L60,34.96z M57.97,32.64
		c-0.72,0.65-1.52,1.01-2.24,1.01c-0.94,0-1.52-0.58-1.52-1.59s0.58-1.74,2.89-1.74h0.87V32.64L57.97,32.64z M31.42,36.62
		c-0.58,0.87-1.45,1.52-2.53,1.88l-0.94-1.16c0.72-0.43,1.45-1.09,1.74-1.66c0.29-0.51,0.36-1.23,0.36-2.89V21.5h2.17v11.14
		C32.22,34.88,32,35.75,31.42,36.62L31.42,36.62z"/>
</g>
</svg>
