<?xml version="1.0" encoding="utf-8"?>
<!-- Generator: Adobe Illustrator 26.1.0, SVG Export Plug-In . SVG Version: 6.00 Build 0)  -->
<svg version="1.1" id="Layer_1" xmlns="http://www.w3.org/2000/svg" xmlns:xlink="http://www.w3.org/1999/xlink" x="0px" y="0px"
	 viewBox="0 0 60 60" style="enable-background:new 0 0 60 60;" xml:space="preserve">
<style type="text/css">
	.st0{fill:#5D87A1;}
	.st1{fill:#F89921;}
</style>
<g>
	<path class="st0" d="M14.43,46.75h-2.32c-0.08-3.91-0.31-7.58-0.68-11.02h-0.02L7.89,46.75H6.13l-3.5-11.02H2.6
		c-0.26,3.31-0.42,6.98-0.49,11.02H0c0.14-4.92,0.48-9.53,1.02-13.83h2.87l3.34,10.16h0.02l3.36-10.16h2.75
		C13.96,37.96,14.32,42.57,14.43,46.75 M24.47,36.54c-0.94,5.12-2.19,8.83-3.73,11.15c-1.2,1.79-2.52,2.68-3.95,2.68
		c-0.38,0-0.85-0.12-1.41-0.34V48.8c0.27,0.04,0.59,0.06,0.96,0.06c0.67,0,1.21-0.18,1.62-0.55c0.49-0.45,0.74-0.96,0.74-1.52
		c0-0.38-0.19-1.17-0.57-2.36l-2.54-7.89h2.27l1.82,5.9c0.41,1.34,0.58,2.28,0.51,2.81c1-2.66,1.69-5.57,2.09-8.71L24.47,36.54
		L24.47,36.54z"/>
	<path class="st1" d="M55.28,46.75h-6.58V32.92h2.21v12.13h4.36V46.75z M46.98,47.08l-2.54-1.25c0.23-0.19,0.44-0.39,0.64-0.62
		c1.08-1.27,1.62-3.15,1.62-5.63c0-4.58-1.8-6.87-5.39-6.87c-1.76,0-3.14,0.58-4.12,1.74c-1.08,1.27-1.62,3.14-1.62,5.61
		c0,2.43,0.48,4.22,1.43,5.35c0.87,1.02,2.19,1.54,3.96,1.54c0.66,0,1.26-0.08,1.81-0.24l3.31,1.93L46.98,47.08z M38.75,43.98
		c-0.56-0.9-0.84-2.35-0.84-4.34c0-3.48,1.06-5.23,3.18-5.23c1.11,0,1.92,0.42,2.44,1.25c0.56,0.9,0.84,2.34,0.84,4.3
		c0,3.51-1.06,5.27-3.18,5.27C40.08,45.23,39.27,44.82,38.75,43.98 M34.61,42.91c0,1.17-0.43,2.14-1.29,2.89
		c-0.86,0.75-2.01,1.13-3.46,1.13c-1.35,0-2.66-0.43-3.93-1.29l0.59-1.19c1.09,0.55,2.08,0.82,2.97,0.82c0.83,0,1.48-0.18,1.96-0.55
		c0.47-0.37,0.75-0.88,0.75-1.54c0-0.82-0.57-1.52-1.62-2.11c-0.97-0.53-2.91-1.65-2.91-1.65c-1.05-0.77-1.58-1.59-1.58-2.94
		c0-1.12,0.39-2.03,1.18-2.71c0.79-0.69,1.8-1.04,3.04-1.04c1.28,0,2.45,0.34,3.5,1.02l-0.53,1.19c-0.9-0.38-1.79-0.57-2.66-0.57
		c-0.71,0-1.26,0.17-1.64,0.51c-0.38,0.34-0.62,0.78-0.62,1.31c0,0.82,0.59,1.53,1.67,2.13c0.98,0.53,2.97,1.67,2.97,1.67
		C34.07,40.76,34.61,41.57,34.61,42.91"/>
	<path class="st0" d="M58.06,28.28c-1.34-0.03-2.37,0.1-3.24,0.47c-0.25,0.1-0.65,0.1-0.68,0.42c0.14,0.13,0.15,0.35,0.27,0.54
		c0.2,0.33,0.55,0.78,0.87,1.02c0.35,0.27,0.7,0.53,1.07,0.77c0.65,0.4,1.39,0.64,2.02,1.04c0.37,0.23,0.74,0.53,1.11,0.79
		c0.18,0.13,0.3,0.35,0.53,0.43V33.7c-0.12-0.15-0.15-0.37-0.27-0.54l-0.5-0.48c-0.48-0.65-1.09-1.22-1.74-1.69
		c-0.54-0.37-1.71-0.87-1.92-1.49l-0.03-0.03c0.37-0.03,0.8-0.17,1.15-0.27c0.57-0.15,1.09-0.12,1.67-0.27
		c0.27-0.07,0.53-0.15,0.8-0.23v-0.15c-0.3-0.3-0.52-0.7-0.84-0.99c-0.85-0.74-1.79-1.45-2.76-2.06c-0.52-0.34-1.19-0.55-1.74-0.84
		c-0.2-0.1-0.53-0.15-0.65-0.32c-0.3-0.37-0.47-0.85-0.69-1.29c-0.48-0.92-0.95-1.94-1.37-2.91c-0.3-0.65-0.48-1.3-0.85-1.9
		c-1.72-2.84-3.59-4.56-6.47-6.25c-0.62-0.35-1.35-0.5-2.14-0.69l-1.25-0.07c-0.27-0.12-0.54-0.44-0.77-0.59
		c-0.95-0.6-3.41-1.9-4.11-0.18c-0.45,1.09,0.67,2.16,1.05,2.71c0.28,0.38,0.65,0.82,0.85,1.25c0.12,0.28,0.15,0.59,0.27,0.89
		c0.27,0.74,0.52,1.55,0.87,2.24c0.18,0.35,0.38,0.72,0.62,1.03c0.13,0.19,0.37,0.27,0.42,0.57c-0.23,0.33-0.25,0.84-0.39,1.25
		c-0.6,1.89-0.37,4.23,0.49,5.62c0.27,0.42,0.9,1.34,1.75,0.99c0.75-0.3,0.59-1.25,0.8-2.09c0.05-0.2,0.02-0.33,0.12-0.47v0.03
		c0.23,0.47,0.47,0.92,0.68,1.39c0.52,0.82,1.42,1.67,2.17,2.24c0.4,0.3,0.72,0.82,1.22,1v-0.05h-0.03
		c-0.1-0.15-0.25-0.22-0.38-0.33c-0.3-0.3-0.64-0.67-0.87-1c-0.7-0.94-1.32-1.97-1.87-3.04c-0.27-0.52-0.5-1.09-0.72-1.6
		c-0.1-0.2-0.1-0.5-0.27-0.6c-0.25,0.37-0.62,0.69-0.8,1.14c-0.32,0.72-0.35,1.61-0.47,2.53l-0.07,0.03
		c-0.53-0.13-0.72-0.68-0.92-1.15c-0.5-1.19-0.58-3.09-0.15-4.46c0.12-0.35,0.62-1.45,0.42-1.79c-0.1-0.32-0.44-0.5-0.62-0.75
		c-0.22-0.32-0.45-0.72-0.6-1.07c-0.4-0.94-0.6-1.97-1.03-2.91c-0.2-0.44-0.55-0.89-0.84-1.29c-0.32-0.45-0.67-0.77-0.92-1.3
		c-0.08-0.18-0.2-0.48-0.07-0.68c0.03-0.13,0.1-0.18,0.23-0.22c0.22-0.18,0.84,0.05,1.05,0.15c0.62,0.25,1.14,0.48,1.65,0.84
		c0.23,0.17,0.48,0.49,0.79,0.57h0.35c0.53,0.12,1.14,0.03,1.64,0.18c0.89,0.28,1.69,0.7,2.41,1.15c2.19,1.39,3.99,3.36,5.21,5.72
		c0.2,0.38,0.28,0.74,0.47,1.14c0.35,0.82,0.79,1.66,1.14,2.46c0.35,0.79,0.69,1.59,1.19,2.24c0.25,0.35,1.25,0.53,1.71,0.72
		c0.33,0.15,0.85,0.28,1.15,0.47c0.57,0.35,1.13,0.75,1.67,1.14C57.17,27.53,58.01,27.95,58.06,28.28 M41.01,13.76
		c-0.23,0-0.46,0.03-0.68,0.08v0.03h0.03c0.13,0.27,0.37,0.45,0.54,0.69c0.13,0.27,0.25,0.53,0.38,0.8l0.03-0.03
		c0.24-0.17,0.35-0.43,0.35-0.84c-0.1-0.12-0.12-0.23-0.2-0.35C41.36,13.98,41.15,13.89,41.01,13.76"/>
	<path class="st1" d="M59.65,46.75H60v-1.69h-0.52l-0.42,1.16l-0.46-1.16h-0.5v1.69h0.33v-1.29h0.02l0.48,1.29h0.25l0.48-1.29
		L59.65,46.75L59.65,46.75z M56.86,46.75h0.37v-1.41h0.48v-0.29h-1.35v0.29h0.5L56.86,46.75L56.86,46.75z"/>
</g>
</svg>
