<?xml version="1.0" encoding="utf-8"?>
<!-- Generator: Adobe Illustrator 26.1.0, SVG Export Plug-In . SVG Version: 6.00 Build 0)  -->
<svg version="1.1" id="Layer_1" xmlns="http://www.w3.org/2000/svg" xmlns:xlink="http://www.w3.org/1999/xlink" x="0px" y="0px"
	 viewBox="0 0 60 60" style="enable-background:new 0 0 60 60;" xml:space="preserve">
<style type="text/css">
	.st0{fill:#010101;}
	.st1{fill:#56C0EE;}
	.st2{fill:#EF4681;}
	.st3{fill:#FCB74E;}
	.st4{fill:#6C5EA9;}
	.st5{fill:#A85DA5;}
	.st6{fill:#F281AA;}
	.st7{fill:#FFE0B2;}
</style>
<g>
	<path class="st0" d="M53.33,60H6.67C2.98,60,0,57.01,0,53.33V6.67C0,2.98,2.98,0,6.67,0h46.67C57.01,0,60,2.98,60,6.67v46.67
		C60,57.01,57.01,60,53.33,60z"/>
	<path class="st1" d="M51.47,20.03c-1.07,2.67-2.72,5.4-5.18,7.95c-0.03,0.03-0.07,0.08-0.1,0.12c-2.53,2.58-5.9,4.98-10.35,6.9
		c-0.45,0.2-0.88,0.37-1.32,0.55c-1.57,0.63-3.03,1.17-4.43,1.62c-11.73,3.8-18.12,2.45-23.13,15.43c-0.1,0.23-0.18,0.48-0.28,0.73
		c0-0.32,0-0.63,0.02-0.95C6.8,45.23,8.63,30.18,30.83,25c1.95-0.47,3.73-0.98,5.35-1.55C50.82,18.33,52.5,9.25,52.5,6.25
		C53.37,8.82,53.78,14.27,51.47,20.03z"/>
	<path class="st2" d="M46.28,27.98c-0.03,0.03-0.07,0.08-0.1,0.12c-2.53,2.58-5.9,4.98-10.35,6.9c-0.45,0.2-0.88,0.37-1.32,0.55
		c-1.57,0.63-3.03,1.17-4.43,1.62c-11.73,3.8-18.12,2.45-23.13,15.43c-0.1,0.23-0.18,0.48-0.28,0.73c0.03-0.27,0.07-0.55,0.12-0.87
		c0.07-0.45,0.15-0.95,0.27-1.48c0-0.02,0-0.05,0.02-0.08c0.95-4.85,3.57-12.4,11.27-15.9C23,32.88,36.65,29.4,46.28,27.98z"/>
	<path class="st3" d="M30.08,37.17c-11.73,3.8-18.4,3.18-23.42,16.17l0.12-0.87l-0.1-0.08c0.12-0.43,0.23-0.9,0.37-1.4
		c0-0.02,0-0.05,0.02-0.08c1.42-5.05,4.57-12.72,16.27-14.23C25.75,36.35,28.02,36.58,30.08,37.17z"/>
	<path class="st4" d="M51.47,20.03c-3.93,3-13.62,8.27-31.47,11.63c2.97-1.85,10.22-3.7,16.18-8.22C50.82,18.33,52.5,9.25,52.5,6.25
		C53.37,8.82,53.78,14.27,51.47,20.03z"/>
	<path class="st5" d="M46.18,28.1c-2.68,1.63-6.67,3.47-13.5,4.77c-0.85,0.17-1.75,0.32-2.68,0.47c-6.7,1.03-12.77,3.02-17.2,7.73
		c-0.63,0.67-1.22,1.4-1.78,2.18c-1.88,2.62-3.37,5.92-4.35,10.08c0-0.32,0-0.63,0.02-0.95c0.23-6.95,3.18-14.93,12.2-20.43
		c2.62-1.6,5.73-2.98,9.45-4.07c1.57-0.47,3.22-0.87,5-1.22c8.22-1.62,12.95-4.65,15.65-7.93c4.3-5.18,3.52-10.95,3.52-12.48
		C53.77,10.03,54.07,20.03,46.18,28.1z"/>
	<path class="st6" d="M35.94,26.07c-0.83,0.22-1.69,0.42-2.61,0.6c-1.78,0.35-3.43,0.75-5,1.22c-3.72,1.08-6.83,2.47-9.45,4.07
		c-4.98,4.43-7.22,8.8-7.87,11.3c0.57-0.78,1.15-1.52,1.78-2.18c3.72-3.96,8.61-5.98,14.04-7.14
		C29.65,32.23,33.47,29.62,35.94,26.07z"/>
	<path class="st7" d="M28.33,27.88v0.03c-2.83,1.22-11.95,6.35-15.53,13.15c-2.73,2.92-4.87,6.87-6.13,12.27
		c0-0.32,0-0.63,0.02-0.95C6.98,43.42,11.8,32.73,28.33,27.88z"/>
</g>
</svg>
