<?xml version="1.0" encoding="utf-8"?>
<!-- Generator: Adobe Illustrator 26.1.0, SVG Export Plug-In . SVG Version: 6.00 Build 0)  -->
<svg version="1.1" id="Layer_1" xmlns="http://www.w3.org/2000/svg" xmlns:xlink="http://www.w3.org/1999/xlink" x="0px" y="0px"
	 viewBox="0 0 60 60" style="enable-background:new 0 0 60 60;" xml:space="preserve">
<style type="text/css">
	.st0{fill:#071F35;}
	.st1{fill:#56A1D8;}
</style>
<g id="Layer_2_00000005959524019818663100000011264590892925563523_">
	<g id="Surfaces_00000093856452789082506670000017003634016451200394_">
		<g id="Photo_Surface_00000070087933216294392440000002927079644412190343_">
			<path id="Outline_no_shadow_00000041988398048310735080000004144558403442508221_" class="st0" d="M10.62,0.75h38.75
				C55.25,0.75,60,5.5,60,11.38v37.25c0,5.88-4.75,10.62-10.62,10.62H10.62C4.75,59.25,0,54.5,0,48.62V11.38
				C0,5.5,4.75,0.75,10.62,0.75z"/>
		</g>
	</g>
	<g id="Outlined_Mnemonics_Logos_00000054978148156754985730000018441217480958322067_">
		<g id="Ps_00000158751342645714442990000015890016684194932631_">
			<path class="st1" d="M13.5,41.78V16.05c0-0.18,0.07-0.28,0.25-0.28c0.43,0,0.82,0,1.4-0.02c0.6-0.02,1.23-0.02,1.9-0.05
				c0.67-0.02,1.4-0.02,2.17-0.05c0.77-0.02,1.52-0.02,2.27-0.02c2.05,0,3.75,0.25,5.15,0.78c1.25,0.42,2.4,1.12,3.35,2.05
				c0.8,0.8,1.42,1.77,1.83,2.85c0.37,1.05,0.57,2.12,0.57,3.25c0,2.15-0.5,3.92-1.5,5.32s-2.4,2.45-4.02,3.05
				c-1.7,0.62-3.58,0.85-5.62,0.85c-0.6,0-1,0-1.25-0.03s-0.6-0.03-1.08-0.03v8.03c0.02,0.17-0.1,0.33-0.27,0.35H13.8
				C13.6,42.1,13.5,42,13.5,41.78L13.5,41.78z M18.95,20.6V29c0.35,0.02,0.67,0.05,0.98,0.05h1.32c0.98,0,1.95-0.15,2.88-0.45
				c0.8-0.23,1.5-0.7,2.05-1.33c0.52-0.62,0.77-1.48,0.77-2.58c0.02-0.77-0.17-1.55-0.58-2.23c-0.42-0.65-1.02-1.15-1.75-1.42
				c-0.92-0.38-1.92-0.52-2.95-0.5c-0.65,0-1.23,0-1.7,0.02C19.47,20.55,19.12,20.57,18.95,20.6L18.95,20.6z M48,27.48
				c-0.75-0.4-1.55-0.67-2.4-0.85c-0.92-0.2-1.85-0.33-2.8-0.33c-0.5-0.02-1.03,0.05-1.5,0.17c-0.33,0.08-0.6,0.25-0.78,0.5
				c-0.12,0.2-0.2,0.45-0.2,0.67c0,0.23,0.1,0.45,0.25,0.65c0.22,0.27,0.53,0.5,0.85,0.67c0.58,0.3,1.17,0.58,1.78,0.83
				c1.35,0.45,2.65,1.08,3.85,1.83c0.83,0.52,1.5,1.23,1.97,2.07c0.4,0.8,0.6,1.67,0.58,2.58c0.03,1.17-0.33,2.35-0.97,3.33
				c-0.7,1-1.67,1.78-2.8,2.22c-1.22,0.53-2.72,0.8-4.53,0.8c-1.15,0-2.28-0.1-3.4-0.33c-0.88-0.15-1.75-0.42-2.55-0.8
				c-0.17-0.1-0.3-0.28-0.28-0.47v-4.35c0-0.08,0.03-0.17,0.1-0.22c0.08-0.05,0.15-0.03,0.22,0.03c0.97,0.58,2,0.97,3.1,1.22
				c0.95,0.25,1.95,0.38,2.95,0.38c0.95,0,1.62-0.12,2.08-0.35c0.4-0.17,0.67-0.6,0.67-1.05c0-0.35-0.2-0.67-0.6-1
				c-0.4-0.33-1.22-0.7-2.45-1.17c-1.28-0.45-2.45-1.05-3.55-1.8c-0.78-0.55-1.42-1.27-1.9-2.12c-0.4-0.8-0.6-1.67-0.58-2.55
				c0-1.08,0.3-2.1,0.85-3.02c0.62-1,1.55-1.8,2.62-2.3c1.17-0.6,2.65-0.88,4.42-0.88c1.03,0,2.08,0.08,3.1,0.23
				c0.75,0.1,1.47,0.3,2.15,0.58c0.1,0.02,0.2,0.12,0.25,0.23c0.03,0.1,0.05,0.2,0.05,0.3v4.07c0,0.1-0.05,0.2-0.12,0.25
				C48.22,27.53,48.1,27.53,48,27.48L48,27.48z"/>
		</g>
	</g>
</g>
</svg>
