<?xml version="1.0" encoding="utf-8"?>
<!-- Generator: Adobe Illustrator 26.1.0, SVG Export Plug-In . SVG Version: 6.00 Build 0)  -->
<svg version="1.1" id="Layer_1" xmlns="http://www.w3.org/2000/svg" xmlns:xlink="http://www.w3.org/1999/xlink" x="0px" y="0px"
	 viewBox="0 0 60 60" style="enable-background:new 0 0 60 60;" xml:space="preserve">
<style type="text/css">
	.st0{fill:#140F0E;}
</style>
<path class="st0" d="M18.06,36.55l-3.9-6.56l3.9-6.56l1.88,6.56L18.06,36.55z M9.38,35.91l-4.9-4.86h7.8l3.9,6.56L9.38,35.91z
	 M9.38,24.05l6.78-1.7l-3.9,6.56h-7.8L9.38,24.05z M19.34,19.13l-8.86,2.3l-1.32,2.26L6.5,23.67L0,29.99l6.5,6.32l2.66-0.02
	l1.32,2.26l8.86,2.32l2.38-8.62l-1.34-2.24l1.34-2.24L19.34,19.13z M39.46,25.51c-1.18,0-1.98,0.5-2.58,1.42h-0.04v-1.18h-2.08v8.68
	h2.12v-4.92c0-1.18,0.74-2,1.76-2c0.96,0,1.68,0.58,1.68,1.6v5.34h2.12v-5.68C42.46,26.87,41.26,25.51,39.46,25.51z M31.54,30.77
	c0,1.16-0.66,1.96-1.74,1.96c-0.98,0-1.6-0.56-1.6-1.58v-5.4h-2.12v5.8c0,1.9,1.08,3.14,3.02,3.14c1.22,0,1.9-0.46,2.48-1.26h0.06
	v1.02h2.04v-8.7h-2.12v5.02H31.54z M43.58,25.75h2.12v8.68h-2.12V25.75z M43.58,23.05h2.12v1.74h-2.12V23.05z M57.72,25.75
	l-1.26,3.92c-0.28,0.8-0.5,1.9-0.5,1.9H55.9c0,0-0.28-1.1-0.56-1.9l-1.42-3.92h-2.28l2.34,6.18c0.5,1.32,0.66,1.88,0.66,2.36
	c0,0.72-0.38,1.18-1.28,1.18h-0.82v1.82h1.36c1.76,0,2.38-0.7,3.04-2.62l3.06-8.9h-2.28V25.75z M49.66,31.89v-4.6h1.36v-1.52h-1.36
	v-2.72h-2.12v2.7h-1.2v1.52h1.2v5.1c0,1.64,1.24,2.08,2.36,2.08c0.92,0,1.16-0.04,1.16-0.04v-1.68h-0.54
	C50.02,32.75,49.66,32.53,49.66,31.89L49.66,31.89z"/>
</svg>
