<?xml version="1.0" encoding="utf-8"?>
<!-- Generator: Adobe Illustrator 18.1.0, SVG Export Plug-In . SVG Version: 6.00 Build 0)  -->
<svg version="1.1" id="Layer_1" xmlns="http://www.w3.org/2000/svg" xmlns:xlink="http://www.w3.org/1999/xlink" x="0px" y="0px"
	 viewBox="0 0 138.6 139.5" enable-background="new 0 0 138.6 139.5" xml:space="preserve">
<g>
	<path fill="#FFFFFF" d="M102.6,75.2l-11.3,0.2l-0.4,26.4l11.7,0.4C114.5,98.6,112.2,77.9,102.6,75.2z"/>
	<polygon fill="#FFFFFF" points="26.9,49.4 17.5,71.8 36.7,72.3 	"/>
	<path fill="#FFFFFF" d="M69.2,0C31.1,0,0,31.3,0,69.8c0,38.3,31.1,69.8,69.2,69.8c38.2,0,69.3-31.4,69.3-69.8
		C138.6,31.3,107.5,0,69.2,0z M69.2,136.2c-21.9,0-42.3-12-54.3-28.6l3-2.2c11.3,15.7,30.7,27,51.3,27c34.2,0,62.1-27.9,62.1-62.1
		c0-34.1-27.9-62.1-62.1-62.1c-34.1,0-62.1,28-62.1,62.1c0,5.2,0.6,10.1,1.7,14.9l21.7-53.6h1.9l15.3,41H52v-49h-9.8l-0.4-2h58.9
		l-0.5,3h-8.9l0.4,48h14c19.7,2,24.7,27,0,32H91v21H73v-2h8v-49h-9v-2h9V24.1l-19-0.4v52H48.8l4.2,11h11V90l-31-0.4v-2.9h9.2
		l-4.6-12H15.7L9.2,92.1L7,92.5C5.2,85.1,3.3,78,3.3,70.3C3.3,34,32.9,4.4,69.2,4.4c36.3,0,65.9,29.6,65.9,65.9
		C135.1,106.6,105.5,136.2,69.2,136.2z"/>
</g>
</svg>
