<?xml version="1.0" encoding="utf-8"?>
<!-- Generator: Adobe Illustrator 26.1.0, SVG Export Plug-In . SVG Version: 6.00 Build 0)  -->
<svg version="1.1" id="Layer_1" xmlns="http://www.w3.org/2000/svg" xmlns:xlink="http://www.w3.org/1999/xlink" x="0px" y="0px"
	 viewBox="0 0 142 206.9" style="enable-background:new 0 0 142 206.9;" xml:space="preserve">
<style type="text/css">
	.st0{fill:#5BC8DA;}
	.st1{fill:#0C98A7;}
	.st2{fill:#E6EC9D;}
	.st3{fill:#C0CA33;}
	.st4{fill:#036165;}
</style>
<g>
	<g>
		<polygon class="st0" points="31,74 62,92.9 62,76.2 31,57.3 		"/>
		<polygon class="st1" points="31,95.1 62,76.2 62,92.9 31,111.8 		"/>
		<polygon class="st2" points="31,74 0,92.9 0,76.2 31,57.3 		"/>
		<polygon class="st3" points="31,95.1 0,76.2 0,92.9 31,111.8 		"/>
	</g>
	<polygon class="st4" points="31,74 13.2,84.3 31,95.1 48.4,84.5 	"/>
</g>
<g>
	<g>
		<polygon class="st0" points="96,24.7 142,52.7 142,28 96,0 		"/>
		<polygon class="st1" points="96,56.1 142,28 142,52.7 96,80.8 		"/>
		<polygon class="st2" points="96,24.7 50,52.7 50,28 96,0 		"/>
		<polygon class="st3" points="96,56.1 50,28 50,52.7 96,80.8 		"/>
	</g>
	<polygon class="st4" points="96,24.7 121.7,40.4 96,56.1 70.2,40.4 	"/>
</g>
<g>
	<g>
		<path class="st3" d="M98.5,203.9c0,0,0.6-0.5,1.7-1.4c0.3-0.2,0.6-0.5,0.9-0.8c0.3-0.3,0.7-0.7,1-1.1c0.4-0.4,0.8-0.8,1.2-1.2
			c0.4-0.5,0.8-1,1.2-1.5c1.7-2.2,3.6-5,5-8.6c1.5-3.6,2.5-8,2.7-12.8c0.2-4.9-0.4-10.2-2.3-15.6c-0.9-2.7-2.2-5.3-3.8-7.8
			c-1.6-2.5-3.6-4.9-5.9-7c-4.7-4.1-11-6.8-17.7-6.8c-3.4,0-6.8,0.4-10.2,1.4c-3.2,0.8-6.3,2.7-8.7,5.1c-2.4,2.4-4.3,5.5-4.1,8.4
			c0,1.4,0.6,2.7,1.5,3.9c0.9,1.1,2.2,2.1,3.7,2.8c1.4,0.8,2.9,1.3,4.4,1.5c1.5,0.2,3,0.1,4.5-0.2c2.9-0.7,5.6-2.5,7.7-4.6
			c4.3-4.4,6.8-10.2,7.8-15.7c1-5.5,0.4-11-1.6-15.3c-2-4.4-5.3-7.4-8.7-9.3c-3.4-1.9-6.7-2.8-9.4-3.3c-2.7-0.5-4.9-0.6-6.3-0.8
			c-1.5-0.1-2.2-0.1-2.2-0.1s0.8,0,2.2-0.1c1.5,0,3.6,0,6.4,0.3c2.8,0.4,6.2,1,9.9,2.8c3.6,1.8,7.5,4.9,9.9,9.5
			c2.5,4.6,3.4,10.5,2.5,16.6c-0.9,6-3.3,12.4-8.1,17.6c-2.4,2.5-5.5,4.8-9.3,5.8c-1.9,0.5-3.9,0.6-5.9,0.4c-2-0.3-3.9-0.9-5.7-1.8
			c-1.7-0.9-3.5-2.1-4.9-3.7c-1.4-1.6-2.4-3.9-2.5-6.2c-0.1-2.3,0.5-4.5,1.5-6.4c1-1.9,2.3-3.6,3.7-5c3-2.9,6.5-5.1,10.5-6.1
			c3.7-1,7.6-1.5,11.4-1.4c3.8,0.1,7.5,1,10.9,2.4c3.4,1.4,6.4,3.4,9,5.8c2.6,2.4,4.6,5.1,6.3,7.9c1.7,2.8,2.9,5.7,3.8,8.6
			c1.8,5.8,2.2,11.5,1.7,16.6c-0.4,5.1-1.8,9.6-3.5,13.2c-1.7,3.7-3.8,6.4-5.7,8.5c-0.5,0.5-0.9,1-1.4,1.5c-0.5,0.4-0.9,0.8-1.3,1.2
			c-0.4,0.4-0.8,0.7-1.1,1c-0.4,0.3-0.7,0.5-1,0.7C99.1,203.4,98.5,203.9,98.5,203.9z"/>
	</g>
	<g>
		<path class="st3" d="M93.3,206.9c1.9-2.4,4-5.7,4.9-8.5l1,5l3.9,3.2C100.2,206.1,96.3,206.4,93.3,206.9z"/>
	</g>
</g>
</svg>
