<?xml version="1.0" encoding="utf-8"?>
<!-- Generator: Adobe Illustrator 26.1.0, SVG Export Plug-In . SVG Version: 6.00 Build 0)  -->
<svg version="1.1" id="Layer_1" xmlns="http://www.w3.org/2000/svg" xmlns:xlink="http://www.w3.org/1999/xlink" x="0px" y="0px"
	 viewBox="0 0 243.8 126.4" style="enable-background:new 0 0 243.8 126.4;" xml:space="preserve">
<style type="text/css">
	.st0{fill:#FFFFFF;}
	.st1{fill:#5B5D64;}
	.st2{fill:#FDD838;}
	.st3{fill:#775DA7;}
	.st4{fill:#242731;}
</style>
<g>
	<g>
		<g>
			<polygon class="st0" points="31,88.7 62,107.6 62,91 31,72.1 			"/>
			<polygon class="st1" points="31,109.8 62,91 62,107.6 31,126.4 			"/>
			<polygon class="st2" points="31,88.7 0,107.6 0,91 31,72.1 			"/>
			<polygon class="st3" points="31,109.8 0,91 0,107.6 31,126.4 			"/>
		</g>
		<polygon class="st4" points="31,88.7 13.2,99 31,109.8 48.4,99.3 		"/>
	</g>
	<g>
		<g>
			<polygon class="st0" points="99,24.6 145,52.6 145,28 99,0 			"/>
			<polygon class="st1" points="99,55.9 145,28 145,52.6 99,80.5 			"/>
			<polygon class="st2" points="99,24.6 53,52.6 53,28 99,0 			"/>
			<polygon class="st3" points="99,55.9 53,28 53,52.6 99,80.5 			"/>
		</g>
		<polygon class="st4" points="99,24.6 124.7,40.3 99,55.9 73.2,40.3 		"/>
	</g>
	<g>
		<g>
			<path class="st3" d="M238.5,72.1c0,0,0.2-0.8,0.4-2.2c0.1-0.4,0.2-0.8,0.2-1.2c0-0.4,0.1-0.9,0.2-1.5c0.1-0.5,0.1-1.1,0.2-1.7
				c0-0.6,0-1.3,0-2c0-2.8-0.3-6.1-1.5-9.9c-1.1-3.7-3-7.8-5.9-11.7c-2.9-3.9-6.7-7.7-11.6-10.7c-2.4-1.5-5-2.8-7.9-3.7
				c-2.8-0.9-5.9-1.6-9-1.7c-6.2-0.2-12.8,1.6-18.1,5.8c-2.6,2.1-5.1,4.6-7.1,7.5c-2,2.7-3.2,6-3.6,9.5c-0.4,3.4,0.1,7,2,9.1
				c0.9,1.1,2.2,1.7,3.6,2c1.4,0.3,3,0.2,4.6-0.1c1.6-0.3,3.1-0.8,4.4-1.6c1.3-0.8,2.4-1.8,3.4-3c1.9-2.4,2.8-5.4,3.1-8.4
				c0.6-6.1-1-12.2-3.7-17.1c-2.7-4.9-6.5-8.8-10.8-10.9c-4.3-2.1-8.8-2.4-12.6-1.8c-3.8,0.6-6.9,2-9.4,3.3
				c-2.4,1.3-4.2,2.6-5.4,3.4c-1.2,0.9-1.8,1.3-1.8,1.3s0.6-0.5,1.7-1.5c1.1-0.9,2.8-2.3,5.2-3.8c2.4-1.5,5.5-3.1,9.5-4
				c3.9-0.9,8.9-0.9,13.7,1.2c4.8,2.1,9.2,6.1,12.3,11.3c3.1,5.2,5.1,11.7,4.7,18.8c-0.3,3.5-1.3,7.2-3.6,10.3
				c-1.2,1.6-2.6,2.9-4.4,4c-1.7,1-3.6,1.7-5.6,2.1c-1.9,0.4-4,0.6-6.1,0.2c-2.1-0.4-4.3-1.5-5.8-3.3c-1.5-1.7-2.4-3.8-2.8-5.9
				c-0.4-2.1-0.4-4.2-0.2-6.3c0.5-4.1,1.9-8.1,4.4-11.3c2.3-3.1,5-5.9,8-8.2c3-2.3,6.5-4,10-5c3.5-1,7.1-1.4,10.6-1.1
				c3.5,0.2,6.8,1.1,9.8,2.2c3.1,1.1,5.8,2.6,8.3,4.3c5,3.4,8.9,7.6,11.7,11.8c2.8,4.2,4.6,8.6,5.5,12.5c1,3.9,1,7.4,0.9,10.2
				c-0.1,0.7-0.1,1.4-0.2,2c-0.1,0.6-0.2,1.2-0.3,1.7c-0.1,0.5-0.2,1-0.3,1.5c-0.1,0.4-0.2,0.8-0.3,1.2
				C238.7,71.4,238.5,72.1,238.5,72.1z"/>
		</g>
		<g>
			<path class="st3" d="M236.4,77.8c0-3-0.5-7-1.5-9.7l3.9,3.3l5.1,0C241.2,72.8,238.3,75.5,236.4,77.8z"/>
		</g>
	</g>
</g>
</svg>
