<?xml version="1.0" encoding="utf-8"?>
<!-- Generator: Adobe Illustrator 27.0.0, SVG Export Plug-In . SVG Version: 6.00 Build 0)  -->
<svg version="1.1" xmlns="http://www.w3.org/2000/svg" xmlns:xlink="http://www.w3.org/1999/xlink" x="0px" y="0px"
	 viewBox="0 0 250 250" style="enable-background:new 0 0 250 250;" xml:space="preserve">
<style type="text/css">
	.st0{display:none;}
	.st1{display:inline;fill:#FFFFFF;}
	.st2{display:inline;fill:#E0E1E0;}
	.st3{display:inline;fill:#242731;}
	.st4{display:inline;}
	.st5{display:inline;fill:#7FC575;}
	.st6{display:inline;fill:#F05453;}
	.st7{display:inline;fill:#F26D6E;}
	.st8{display:inline;fill:#F8A796;}
	.st9{display:inline;fill:#036165;}
	.st10{display:inline;fill:#EDEDEE;}
	.st11{display:inline;fill:#E1E2E1;}
	.st12{display:inline;fill:#D9D9D8;}
	.st13{fill:#FFFFFF;}
	.st14{display:inline;fill:#F5B39A;}
	.st15{display:inline;fill:#FDD838;}
	.st16{fill:#EE796A;}
	.st17{display:inline;fill:#EE796A;}
	.st18{display:inline;fill:#08838F;}
	.st19{fill:#FDD838;}
	.st20{fill:#F37021;}
	.st21{fill:#EDEDEE;}
	.st22{fill:#D9D9D8;}
	.st23{fill:#E0E1E0;}
	.st24{fill:#242731;}
	.st25{fill:#F5B39A;}
	.st26{fill:#036165;}
	.st27{fill:#E0DF39;}
	.st28{fill:#7FC575;}
	.st29{fill:#AC5B44;}
	.st30{fill:#963B34;}
	.st31{fill:#775DA7;}
</style>
<g id="Layer_2">
</g>
<g id="Layer_1" class="st0">
	<path class="st1" d="M156.82,113.24c-0.25,0-0.48,0.14-0.52,0.41c-0.03,0.23,0.15,0.51,0.41,0.51c0.25,0,0.48-0.14,0.52-0.41
		C157.25,113.53,157.07,113.24,156.82,113.24z"/>
	<path class="st2" d="M106.01,50.77v67.76c0,2.25-1.82,4.07-4.07,4.07H36.29c-2.25,0-4.07-1.82-4.07-4.07V50.77H106.01z"/>
	<path class="st1" d="M217.77,33.34v39.94c0,2.24-1.81,4.06-4.06,4.06h-65.09c-2.25,0-4.07-1.82-4.07-4.06V33.34H217.77z"/>
	<path class="st2" d="M217.13,33.98v39.3c0,1.88-1.53,3.42-3.42,3.42h-65.09c-1.89,0-3.42-1.53-3.42-3.42v-39.3H217.13L217.13,33.98
		z M217.77,33.33h-73.21v39.94c0,2.24,1.82,4.06,4.07,4.06h65.09c2.25,0,4.06-1.82,4.06-4.06V33.33L217.77,33.33z"/>
	<path class="st3" d="M187.68,126.86c0,4.17-0.53,8.22-1.52,12.1c-5.45,21.31-24.93,37.27-47.84,37.27
		c-27.08,0-49.36-22.28-49.36-49.37c0-7.33,1.63-14.57,4.78-21.19l28.44,13.51l16.15,7.67l7.33-2.51l3.59-1.23l22.11-7.56l0.07-0.02
		l0.97-0.33l12.62-4.32c0.88,2.56,1.54,5.19,1.99,7.86C187.46,121.42,187.68,124.14,187.68,126.86z"/>
	<path class="st1" d="M72.13,126.86c0-4.17,0.53-8.22,1.52-12.1c5.45-21.31,24.93-37.27,47.84-37.27
		c27.08,0,49.36,22.28,49.36,49.37c0,7.33-5.94,10.94-9.08,17.56l-24.13-9.89l-16.15-7.67l-7.33,2.51l-3.59,1.23l-22.11,7.56
		l-0.07,0.02l-0.97,0.33l-12.62,4.32c-0.88-2.56-1.54-5.19-1.99-7.86C72.35,132.3,72.13,129.58,72.13,126.86z"/>
	<g class="st4">
		<defs>
			<path id="SVGID_1_" d="M168.07,130.33c0,4.17-0.53,8.22-1.52,12.1c-5.45,21.31-24.93,37.27-47.84,37.27
				c-27.08,0-49.36-22.28-49.36-49.37c0-7.33,1.63-14.57,4.78-21.19l28.44,13.51l16.15,7.67l7.33-2.51l3.59-1.23l22.11-7.56
				l0.07-0.02l0.97-0.33l12.62-4.32c0.88,2.56,1.54,5.19,1.99,7.86C167.84,124.89,168.07,127.6,168.07,130.33z"/>
		</defs>
		<use xlink:href="#SVGID_1_"  style="overflow:visible;fill:#E0DF39;"/>
		<clipPath id="SVGID_00000164511829008852051280000013324374312946452369_">
			<use xlink:href="#SVGID_1_"  style="overflow:visible;"/>
		</clipPath>
	</g>
	<path class="st1" d="M152.79,117.98c-0.12,1.01-0.28,2.01-0.48,3.01c-0.48,2.29-1.19,4.53-2.14,6.67
		c-0.23,0.51-0.47,1.02-0.72,1.52c-0.27,0.54-0.56,1.07-0.86,1.6c-0.28,0.49-0.56,0.98-0.88,1.45c-0.29,0.43-0.65,0.77-1.17,0.89
		c-0.58,0.14-0.71-0.78-0.13-0.92c0.21-0.05,0.36-0.26,0.48-0.43c0.17-0.23,0.31-0.48,0.46-0.72c0.32-0.52,0.62-1.04,0.9-1.58
		c0.07-0.13,0.14-0.26,0.2-0.39c0.23-0.45,0.45-0.9,0.66-1.37c1.24-2.71,2.1-5.58,2.57-8.52c0.05-0.29,0.09-0.59,0.13-0.88
		L152.79,117.98z"/>
	<path class="st5" d="M136.09,119.76l-15.94-46.72c6.26-2.13,12.88-2.99,19.47-2.52c20.8,1.49,38.51,16.01,44.06,36.11
		L136.09,119.76z"/>
	<g class="st4">
		<defs>
			<path id="SVGID_00000060731124795215660410000014764854247043951806_" d="M146.31,131.35c3.44-3.19,5.17-8.4,5.43-12.83
				c0.37-6.33-8.55-10.07-14.94-6.05c-5.5,3.46-4.47,7.68-6.88,7.68c-2.41,0-4.58,0.97-5.4,3.25c-0.82,2.28,0.7,4.09,3.88,7.14
				C131.58,133.59,142.87,134.54,146.31,131.35z"/>
		</defs>
		<use xlink:href="#SVGID_00000060731124795215660410000014764854247043951806_"  style="overflow:visible;fill:#242731;"/>
		<clipPath id="SVGID_00000023267795649062272320000014971773111754898576_">
			<use xlink:href="#SVGID_00000060731124795215660410000014764854247043951806_"  style="overflow:visible;"/>
		</clipPath>
	</g>
	<path class="st1" d="M135.94,112.96c-0.98,0.66-1.85,1.48-2.56,2.43c-0.35,0.47-0.67,0.98-0.94,1.5c-0.26,0.5-0.45,1.03-0.67,1.54
		c-0.2,0.45-0.45,0.94-0.91,1.19c-0.53,0.29-1.24,0.29-1.82,0.39c-1.2,0.21-2.45,0.54-3.42,1.31c-0.98,0.78-1.66,1.97-1.51,3.24
		c0.05,0.45,0.74,0.35,0.69-0.1c-0.13-1.07,0.51-2.05,1.35-2.67c0.97-0.72,2.22-0.97,3.39-1.16c0.56-0.09,1.16-0.13,1.67-0.41
		c0.46-0.25,0.77-0.66,1.01-1.12c0.24-0.45,0.41-0.94,0.61-1.41c0.23-0.53,0.51-1.03,0.84-1.51c0.72-1.06,1.63-1.96,2.7-2.68
		C136.74,113.26,136.31,112.71,135.94,112.96z"/>
	<circle class="st6" cx="165.38" cy="106.55" r="9.08"/>
	<path class="st7" d="M81.87,110.69c0.03,0.77-0.33,1.59-1,2.01c-0.39,0.25-0.88,0.36-1.33,0.22c-0.49-0.15-0.86-0.54-1.29-0.82
		c-0.88-0.58-1.94-0.85-2.99-0.92c-0.54-0.03-1.08-0.01-1.62,0.05c-0.56,0.06-1.1,0.21-1.66,0.29c-0.98,0.13-1.96-0.29-2.22-1.32
		c-0.14-0.55,0.03-1.13,0.39-1.55c0.15-0.54,0.8-0.7,1.26-0.83c0.62-0.18,1.25-0.28,1.89-0.31c1.32-0.07,2.64,0.12,3.94,0.39
		c0.59,0.13,1.18,0.27,1.76,0.41c0.48,0.12,0.97,0.24,1.42,0.45C81.23,109.14,81.83,109.79,81.87,110.69z"/>
	<path class="st7" d="M80.56,111.1c0.16,0.16,0.3,0.33,0.43,0.52c0.16,0.25-0.21,0.54-0.37,0.28c-0.32-0.51-0.81-0.84-1.3-1.16
		c-0.53-0.35-1.07-0.69-1.65-0.95c-0.56-0.25-1.17-0.43-1.79-0.4c-0.63,0.03-1.23,0.27-1.81,0.49c-0.96,0.37-2.09,0.77-3.07,0.25
		c-0.77-0.4-1.24-1.28-0.84-2.12c0.39-0.8,1.3-1.24,2.1-1.53c0.85-0.3,1.74-0.43,2.64-0.41c1.82,0.03,3.63,0.69,5.08,1.79
		c0.67,0.51,1.58,1.23,1.6,2.15C81.58,110.56,81.08,111.1,80.56,111.1z"/>
	<path class="st8" d="M89.4,116.87c-0.67,1.22-0.61,1.83-2.37,1.55c-1.24-0.2-5.86,0.82-9.06-0.81c-0.97-0.49-2.18-2.49-2.18-2.49
		s4.2-3.02,4.48-5.82c0.14-1.42-2.74-1.58-4.16-0.68c-1.69,1.08-3.88-0.94-2.8-2.16c0.99-1.11,2.44-1.64,3.86-1.92
		c0.75-0.14,1.57-0.29,2.33-0.24c0.88,0.06,1.39,0.73,1.87,1.39c1.18,1.58,2.57,3,4.11,4.22c1.52,1.21,3.34,1.57,4.06,3.61
		C89.99,114.78,89.9,115.97,89.4,116.87z"/>
	<path class="st8" d="M175.12,127.62c-0.01-0.1-0.03-0.19-0.04-0.29c-0.27-1.8-0.67-3.92-1.08-5.9c-0.03-0.14-0.06-0.27-0.08-0.41
		c-0.03-0.14-0.06-0.28-0.09-0.42c-0.01-0.03-0.01-0.06-0.02-0.09c-0.08-0.38-0.16-0.75-0.23-1.11c-0.14-0.65-0.27-1.26-0.39-1.81
		c-0.03-0.16-0.07-0.3-0.1-0.45c-0.34-1.52-0.58-2.53-0.58-2.53l3-1.43c1.25-0.6,2-1.9,1.89-3.29c-0.18-2.13-0.5-5.13-0.97-6.14
		c-0.76-1.64-1.65-1.48-2.31-0.73c-0.35,0.39-0.03,1.47,0.34,2.4c-0.69-1.23-1.84-2.67-3.29-2.34c-2.44,0.55-2.18,3.39-1.9,6.02
		c0.28,2.63,0.05,3.66,0.05,3.66s-3.67,1.78-3.71,3.83c-0.02,0.78,0.08,1.72,0.21,2.57c0.02,0.16,0.05,0.31,0.07,0.46
		c0.01,0.08,0.02,0.16,0.04,0.23c0.19,1.06,1.21,6.7,1.21,6.7l0.59,5.77l-2.64-0.59c0,0-6.67-1.36-14.62-2.46
		c-1.08-0.15-2.12-0.23-3.06-0.28c-3.03-0.13-5.14,0.17-5.14,0.17l4.74-9.86l-8.46-4.65c0,0-1.38,1.32-1.61,3.56
		c-0.18,1.7-1.41,2.35-1.52,3.46c-0.34,3.19,3.44,4.19,3.44,4.19l-0.84,2.45l-4.04-0.97l-29.65-10.13
		c-2.48-0.85-4.95-1.69-7.43-2.54c-2.2-0.75-4.5-1.15-6.67-2.01c-0.4-0.16-0.76-0.32-1.1-0.51c-0.14-0.07-0.28-0.15-0.41-0.23
		c-0.83,2.14-1.62,4.29-2.36,6.46c0.15,0.04,0.3,0.09,0.45,0.13c4.97,1.55,9.87,3.98,14.57,5.86l-0.48,2.06l-0.01,0.04l24.97,7.66
		l0.26,0.08c0,0-0.87,2.43-0.41,3.92c0.46,1.49,1.76,2.41,1.76,2.41l-0.88,3.77l14.6,7.55l4.87-10.15c0,0,0.03,0,0.09,0
		c0.02,0,0.03,0,0.05,0c0.03,0,0.06,0,0.1,0c0.03,0,0.07,0,0.11-0.01c0.1-0.01,0.23-0.01,0.37-0.02c0.08,0,0.17-0.01,0.27-0.01
		c0.05,0,0.11-0.01,0.16-0.01c0.06,0,0.13-0.01,0.19-0.01c0.09,0,0.17-0.01,0.27-0.01c0.05,0,0.09,0,0.14-0.01
		c0.14-0.01,0.29-0.01,0.45-0.02c0.05,0,0.11,0,0.16-0.01c0.02,0,0.03,0,0.05,0c0.11-0.01,0.23-0.01,0.35-0.02
		c0.12,0,0.25-0.01,0.38-0.01c0.22-0.01,0.44-0.02,0.67-0.03c0.07,0,0.15,0,0.23-0.01c0.13,0,0.26-0.01,0.39-0.01
		c0.19,0,0.39-0.01,0.6-0.02c0.16,0,0.33-0.01,0.5-0.02c0.23-0.01,0.46-0.01,0.7-0.02c0.16,0,0.32-0.01,0.48-0.01
		c0.16,0,0.32-0.01,0.49-0.01c0.39-0.01,0.79-0.01,1.2-0.02c0.11,0,0.22,0,0.33,0c0.09,0,0.17,0,0.26,0c0.17,0,0.35,0,0.53,0
		c2.17-0.02,4.5,0,6.76,0.1c7.74,0.33,13.54,1.16,14.07-3.53c0.53-4.69-0.5-4.86-1.19-9.93
		C175.16,127.92,175.14,127.77,175.12,127.62z"/>
	<path class="st8" d="M149.25,119.47c-0.07,1.16-1.06,2.04-2.22,1.97c-1.16-0.07-2.04-1.06-1.97-2.22c0.07-1.16,1.07-2.04,2.22-1.97
		C148.44,117.32,149.32,118.31,149.25,119.47z"/>
	<path class="st1" d="M176.62,137.57c-0.03,0.88-0.19,1.84-0.81,2.51c-0.63,0.68-1.34,1.08-2.2,1.41
		c-3.85,1.48-8.51,0.89-12.53,0.79c-4.78-0.12-9.56-0.8-14.34-0.57c-0.14,0.01-0.27,0.01-0.37,0.02c-0.04,0-0.07,0-0.11,0.01
		c-0.04,0-0.07,0-0.1,0c-0.02,0-0.04,0-0.05,0c-0.06,0-0.09,0-0.09,0l-0.52,1.08l-4.35,9.07l-14.6-7.55l0.88-3.77
		c0,0-1.3-0.92-1.76-2.41c-0.3-0.98-0.03-2.37,0.19-3.2c0.12-0.43,0.22-0.72,0.22-0.72l-0.26-0.08l-24.97-7.66l0.01-0.04l3.42-9.22
		l29.65,10.13c-0.27,0.8-0.45,2.04,0.36,3.16c0.02,0.02,0.03,0.04,0.05,0.06c0.6,0.79,1.72,1.52,3.67,1.98
		c1.9,0.45,3.55,0.24,4.93-0.28c0.07-0.03,0.14-0.05,0.21-0.08c1.98-0.79,3.4-2.2,4.22-3.2c0.94,0.04,1.98,0.13,3.06,0.28
		c7.95,1.1,14.62,2.46,14.62,2.46l-1.26-4.56l-0.21-0.89l0.38-0.09l9.68-1.76c0.32-0.03,0.88-0.14,1.15-0.15
		c0.13,0,0.66,3.54,0.72,3.87c0.26,1.32,0.5,2.65,0.71,3.98C176.55,133.94,176.69,135.76,176.62,137.57z"/>
	<path class="st8" d="M109.52,184.92c0,0-0.39,9.21-0.88,13.93c-0.21,2.05-0.4,4.15-0.51,5.99c-0.14,2.4-0.14,4.33,0.14,5.06
		c0.08,0.21,0.14,0.44,0.2,0.7c0.67,3.01,0.09,9.28,0.09,9.28l-27.49-1.51c0,0-0.08-4.92,1.35-5.7c1.43-0.77,9.33-1.06,9.33-1.06
		l3.25-2.01l1.23-0.76l0.22-4l0.39-7.24l-0.33-11.79l12.2-3.15L109.52,184.92z"/>
	<path class="st5" d="M161.37,178.09H96.33c-0.25,0-0.47,0.27-0.51,0.8c-0.03,0.45,0.15,1.01,0.4,1.01h65.04
		c0.25,0,0.47-0.27,0.51-0.8C161.8,178.66,161.62,178.09,161.37,178.09z"/>
	<path class="st3" d="M141.16,151.9c0,0-2.33,8.64-3.53,15.5c-1.74,9.91-8.91,10.93-16.95,10.82c-7.9-0.1-7.9-0.1-7.9-0.1
		l0.08,17.95l-17.11-1.52c0,0,0-2.57,0-15.02c0-10.87-0.92-14.14,2.8-16.43c3.71-2.28,24.81-3.43,24.81-3.43l3.2-15.3L141.16,151.9z
		"/>
	<path class="st3" d="M89.13,159.58c-1.52,1.69-1.58,2.2-2.94,4.66c-0.58,1.05-1.61,1.91-2.73,2.59l-7.99-26.95
		c1.47-0.73,2.97-1.06,3.75-0.01c1.34,1.8,1.86,5.4,2.04,7.28c0.07,0.73,0.09,1.19,0.09,1.19l0.52,0.54l0.49,0.51l0.8,0.82l0.1-0.11
		l0.56-0.6c1.05,2.26,2.31,4.43,3.65,6.54c0.31,0.67,0.61,1.33,0.92,1.99C88.64,158.54,88.88,159.06,89.13,159.58z"/>
	<path class="st9" d="M81.79,167.71c-0.53,0.24-1.07,0.45-1.55,0.61c-0.97,0.33-2.01-0.22-2.28-1.2l-6.43-23.26
		c-0.2-0.72,0.07-1.49,0.68-1.92c0.48-0.34,1.09-0.76,1.71-1.17C75.65,147.16,79.66,160.63,81.79,167.71z"/>
	<path class="st8" d="M107.68,143.62c0,0-7.34,7.28-12.8,11.1c-0.6,0.42-1.18,0.8-1.72,1.12c-0.28,0.17-0.55,0.32-0.81,0.45
		c-0.07,0.04-0.14,0.07-0.21,0.11c-0.69,0.34-0.97,1.06-1.35,1.44c-0.71,0.71-1.24,1.27-1.66,1.74c-0.24-0.52-0.49-1.04-0.73-1.56
		c-0.31-0.66-0.61-1.33-0.92-1.99c-1.34-2.11-2.6-4.27-3.65-6.54l1.06-1.13l0.95-1.01l0.48-0.51l0.16-0.17l0.95-1.01l13.52-14.41
		L107.68,143.62z"/>
	<path class="st3" d="M123.48,147.44c0,0-0.37-7.18-2.13-14.55c-1.87-7.86-5.7-10.91-11.22-9.62c-3.22,0.75-9.38,7.64-12.61,11.08
		c-4.43,4.71-8.22,9.16-8.22,9.16s12.22,13.7,12.22,13.35c0-0.35,7.93-11.7,7.93-11.7s-1.63,24.18,10.77,26.4
		c4.59,0.82,9.69-10.54,9.69-10.54l-3.36-16.67L123.48,147.44z"/>
	<path class="st7" d="M147.76,119.44c-0.18-0.02-0.36-0.06-0.53-0.1c0.21-0.13,0.42-0.25,0.62-0.38c0.14-0.08,0.23-0.28,0.16-0.46
		c-0.06-0.16-0.24-0.28-0.39-0.19c-0.45,0.28-0.91,0.55-1.36,0.83c-0.11,0.07-0.18,0.18-0.18,0.33c0,0.13,0.07,0.29,0.18,0.32
		c0.46,0.16,0.94,0.28,1.42,0.35c0.15,0.02,0.32-0.12,0.33-0.31C148.03,119.65,147.92,119.47,147.76,119.44z"/>
	<path class="st3" d="M148.89,125.49c0.6,1.13-1.47,2.15-3.52,3.19c-1.57,0.79-2.25,5.07-4.08,5.32c-1.65,0.22-3.38-0.27-3.95-1.92
		c-0.61-1.78,1.31-3.94,2.43-5.13c1.16-1.24,2.72-1.93,4.24-2.67c0.64-0.31,0.83-0.77,1.19-1.38c0.36-0.61,0.64-1.21,1.25-1.62
		c0.29,0.11,0.58,1.76,0.79,1.99c0.37,0.4,0.38,0.98,0.72,1.4C148.25,125,148.7,125.14,148.89,125.49z"/>
	<path class="st1" d="M83.46,166.83c-0.55,0.34-1.12,0.63-1.67,0.88c-2.13-7.08-6.14-20.55-7.87-26.94c0.49-0.32,1.01-0.64,1.54-0.9
		L83.46,166.83z"/>
	<path class="st1" d="M94.88,154.72c-1,0.7-1.93,1.28-2.74,1.68c-0.69,0.34-0.97,1.06-1.35,1.44c-0.71,0.71-1.24,1.27-1.66,1.74
		c-0.24-0.52-0.49-1.04-0.73-1.56c-0.31-0.66-0.61-1.33-0.92-1.99c-1.34-2.11-2.6-4.27-3.65-6.54l1.06-1.13l1.43-1.52l1.11-1.18
		c0.32,0.39,0.64,0.78,0.96,1.16L94.88,154.72z"/>
	<path class="st10" d="M108.64,198.85c-0.03,0.31-0.06,0.61-0.1,0.92c-0.03,0.28-0.05,0.56-0.08,0.84c-0.39,4.15-0.62,8.16-0.2,9.29
		c0.08,0.21,0.14,0.44,0.2,0.7c-0.89-0.16-1.79-0.3-2.68-0.42c-2.13-0.29-4.26-0.48-6.41-0.56c-1.09-0.04-2.18-0.06-3.26-0.05
		c-0.38,0-0.75,0.01-1.13,0.02l1.23-0.76l0.52-9.67l0.05-0.85l0.04-0.72c0.1,0.01,0.21,0.03,0.31,0.04
		C100.96,198.11,104.8,198.52,108.64,198.85z"/>
	<path class="st11" d="M108.67,218.37c-0.02,0.28-0.03,0.69-0.05,1.13c-0.04,1.21-1.08,2.15-2.29,2.07l-24.68-1.59
		c-1.13-0.07-2.01-1-2.02-2.13c0-0.63,0.03-1.25,0.15-1.63L108.67,218.37z"/>
	<path class="st3" d="M108.13,204.84c-0.14,2.4-0.14,4.33,0.14,5.06c0.08,0.21,0.14,0.44,0.2,0.7c0.32,1.44,0.35,3.64,0.3,5.53
		c-0.02,0.83-1.64,0.89-1.68,1.52l-26.03-1.82c0.14-0.46-0.97-0.58-0.78-1.09c0.48-1.27,1.09-2.51,1.73-2.86
		c1.43-0.77,9.73-0.28,9.73-0.28l0.57-0.35l0.75-0.46l1.46-0.9l0.48-0.3l0.27-0.16l0.96-0.6l0.22-4c0.02,0,0.04,0.01,0.05,0.01
		C100.36,205.13,104.26,205.12,108.13,204.84z"/>
	<path class="st1" d="M108.77,216.13c-0.02,0.83-0.06,1.61-0.1,2.24l-28.89-2.15c0.14-0.46,0.31-0.97,0.51-1.47L108.77,216.13z"/>
	<path class="st1" d="M94.96,212.8c-0.27,0.25-0.64,0.15-0.9-0.05c-0.29-0.22-0.57-0.46-0.85-0.69c-0.31-0.26-0.61-0.53-0.91-0.8
		l0.75-0.46c0.21,0.19,0.42,0.38,0.64,0.57c0.16,0.14,0.33,0.28,0.49,0.41c0.07,0.05,0.14,0.13,0.22,0.2
		c0.14-0.05,0.3-0.05,0.43,0.03C95.13,212.16,95.22,212.56,94.96,212.8z"/>
	<path class="st1" d="M97.16,212.11c-0.92-0.69-1.81-1.43-2.65-2.22l0.48-0.3l0.27-0.16c0.75,0.69,1.54,1.35,2.36,1.97
		C98.05,211.72,97.6,212.44,97.16,212.11z"/>
	<path class="st1" d="M81.87,148.87c-0.18,0.94-0.35,1.87-0.53,2.8c-0.05,0.25-0.25,0.44-0.52,0.41c-0.24-0.03-0.45-0.27-0.41-0.52
		c0.28-1.47,0.55-2.95,0.83-4.42c0.07,0.73,0.09,1.19,0.09,1.19L81.87,148.87z"/>
	<path class="st1" d="M82.36,149.38c-0.06,1.55-0.13,3.1-0.19,4.65c-0.03,0.59,0.9,0.71,0.92,0.11c0.06-1.35,0.11-2.69,0.17-4.04
		L82.36,149.38z"/>
	<path class="st3" d="M144.63,116.83c-2.01-0.89-0.72-0.65-2.81-0.43c-0.19,0.02-0.32,0.21-0.3,0.39c0.03,0.19,0.21,0.32,0.39,0.3
		c0.84-0.09,1.68,0.05,2.46,0.39c0.17,0.08,0.38-0.03,0.45-0.2C144.9,117.1,144.8,116.91,144.63,116.83z"/>
	<path class="st3" d="M138.43,116.57c-0.74-0.46-1.69-0.45-2.42,0.03c-0.15,0.1-0.18,0.35-0.06,0.49c0.13,0.15,0.33,0.17,0.49,0.06
		c0.01-0.01,0.07-0.04,0.07-0.05c0.03-0.02,0.06-0.03,0.09-0.04c0.07-0.03,0.15-0.06,0.23-0.09c0.03-0.01,0.04-0.01,0.06-0.02
		c0.04-0.01,0.08-0.02,0.12-0.02c0.07-0.01,0.15-0.02,0.23-0.02c0.02,0,0.07,0,0.08,0c0.04,0,0.08,0.01,0.12,0.01
		c0.04,0,0.08,0.01,0.12,0.02c0.01,0,0.06,0.01,0.08,0.02c0.07,0.02,0.14,0.04,0.21,0.07c0.04,0.02,0.07,0.03,0.11,0.05
		c0.03,0.02,0.04,0.02,0.05,0.03c0.15,0.1,0.37,0.1,0.49-0.07C138.59,116.91,138.59,116.67,138.43,116.57z"/>
	<path class="st1" d="M114.54,136.28c-2.18,3.39-4.36,6.79-6.53,10.18c-0.32,0.5,0.42,1.06,0.74,0.56
		c2.18-3.39,4.36-6.79,6.53-10.18C115.6,136.34,114.87,135.78,114.54,136.28z"/>
	<path class="st1" d="M125.04,157.96c-3.55,0.55-7.1,1.09-10.65,1.64c-3.46,0.53-6.94,1-10.37,1.7c-1.89,0.38-3.76,0.85-5.59,1.45
		c-0.57,0.19-0.21,1.04,0.36,0.86c3.24-1.07,6.6-1.67,9.96-2.2c3.49-0.55,6.97-1.08,10.46-1.61l5.96-0.92
		C125.76,158.79,125.63,157.87,125.04,157.96z"/>
	<path class="st1" d="M108.55,199.77c-0.03,0.28-0.05,0.56-0.08,0.84c-3.92-0.4-7.83-0.89-11.73-1.45l0.05-0.85
		c0.78,0.11,1.56,0.22,2.35,0.33C102.26,199.06,105.4,199.44,108.55,199.77z"/>
	<path class="st5" d="M93.16,155.84c-0.28,0.17-0.55,0.32-0.81,0.45c-2.03-3.08-4.21-6.06-6.51-8.94l0.48-0.51l0.16-0.17
		c0.52,0.65,1.04,1.31,1.55,1.97c1.59,2.07,3.11,4.19,4.57,6.35C92.78,155.27,92.97,155.55,93.16,155.84z"/>
	<path class="st7" d="M141.23,120.64c-0.09-0.06-0.26-0.07-0.32,0.05c-0.03,0.06-0.07,0.11-0.11,0.16
		c-0.02,0.02-0.04,0.05-0.06,0.07c-0.01,0.01-0.02,0.02-0.03,0.04c-0.05,0.05-0.1,0.09-0.15,0.13c-0.02,0.02-0.05,0.04-0.08,0.05
		c-0.01,0.01-0.03,0.02-0.04,0.03c-0.06,0.03-0.12,0.06-0.18,0.08c-0.03,0.01-0.06,0.02-0.1,0.03c-0.01,0-0.03,0.01-0.04,0.01
		c0.04-0.01,0,0-0.01,0c-0.06,0.02-0.13,0.03-0.19,0.03c-0.03,0-0.07,0-0.1,0.01c-0.03,0-0.05,0-0.07,0
		c-0.12-0.01-0.25,0.07-0.26,0.2c-0.01,0.12,0.07,0.25,0.2,0.26c0.62,0.03,1.26-0.28,1.58-0.83
		C141.34,120.86,141.35,120.72,141.23,120.64z"/>
	<g class="st4">
		<defs>
			<path id="SVGID_00000157273860657291784910000016216901538514413188_" d="M123.48,147.44c0,0-0.37-7.18-2.13-14.55
				c-1.87-7.86-5.7-10.91-11.22-9.62c-3.22,0.75-9.38,7.64-12.61,11.08c-4.43,4.71-8.22,9.16-8.22,9.16s12.22,13.7,12.22,13.35
				c0-0.35,7.93-11.7,7.93-11.7s-1.63,24.18,10.77,26.4c4.59,0.82,9.69-10.54,9.69-10.54l-2.45-17.21L123.48,147.44z"/>
		</defs>
		<clipPath id="SVGID_00000070087748834881195960000007746683910621423788_">
			<use xlink:href="#SVGID_00000157273860657291784910000016216901538514413188_"  style="overflow:visible;"/>
		</clipPath>
	</g>
	<path class="st7" d="M174.67,104.61c-0.08-0.28-0.54-0.22-0.46,0.06c0.53,1.96,0.8,3.98,0.8,6.01c0,0.3,0.46,0.35,0.46,0.05
		C175.48,108.66,175.21,106.61,174.67,104.61z"/>
	<path class="st7" d="M78.37,109.89c-0.03-0.3-0.49-0.23-0.46,0.06c0.1,1-1.07,1.91-2.02,1.56c-0.28-0.1-0.45,0.33-0.17,0.43
		C77,112.42,78.5,111.24,78.37,109.89z"/>
	<path class="st10" d="M63.33,87.66h9.15c3.85,0,6.97,3.12,6.97,6.97c0,3.85-3.12,6.97-6.97,6.97h-9.15c-3.85,0-6.97-3.12-6.97-6.97
		C56.36,90.78,59.48,87.66,63.33,87.66z"/>
	<path class="st2" d="M63.55,89.11h8.71c3.05,0,5.51,2.47,5.51,5.51c0,3.05-2.47,5.51-5.51,5.51h-8.71c-3.05,0-5.51-2.47-5.51-5.51
		C58.03,91.58,60.5,89.11,63.55,89.11z"/>
	
		<ellipse transform="matrix(0.2298 -0.9732 0.9732 0.2298 -43.1369 134.7418)" class="st1" cx="63.56" cy="94.62" rx="4.64" ry="4.64"/>
	<path class="st9" d="M63.33,104.52h9.15c3.85,0,6.97,3.12,6.97,6.97c0,3.85-3.12,6.97-6.97,6.97h-9.15c-3.85,0-6.97-3.12-6.97-6.97
		C56.36,107.64,59.48,104.52,63.33,104.52z"/>
	<path class="st10" d="M63.55,105.97h8.71c3.05,0,5.51,2.47,5.51,5.51c0,3.05-2.47,5.51-5.51,5.51h-8.71
		c-3.05,0-5.51-2.47-5.51-5.51C58.03,108.44,60.5,105.97,63.55,105.97z"/>
	<path class="st6" d="M72.44,106.84c2.56,0,4.64,2.08,4.64,4.64c0,2.56-2.08,4.64-4.64,4.64c-2.56,0-4.64-2.08-4.64-4.64
		C67.8,108.92,69.88,106.84,72.44,106.84z"/>
	<path class="st3" d="M89.11,112.19c-0.12,0.31-0.24,0.62-0.36,0.93c-0.69,1.8-1.34,3.61-1.97,5.44c-0.15-0.04-0.3-0.09-0.45-0.13
		c0.74-2.17,1.53-4.32,2.36-6.46C88.83,112.04,88.97,112.11,89.11,112.19z"/>
	<path class="st8" d="M85.8,114.82c-0.23,2.24-2.69,2.94-4.57,3.1c-0.59,0.05-1.17,0.04-1.75-0.1c-0.57-0.14-1.12-0.36-1.67-0.54
		c-1.16-0.38-2.34-0.58-3.54-0.75c-0.77-0.1-1.76-0.43-1.7-1.39c0.07-1.08,1.27-1.44,2.16-1.59c1.2-0.2,2.43-0.18,3.63-0.4
		c0.66-0.12,1.31-0.29,1.95-0.5c0.22-0.3,0.49-0.55,0.8-0.75c-0.05-0.11-0.03-0.25,0.12-0.3c1.07-0.39,2.19-0.03,3.07,0.61
		C85.15,112.83,85.92,113.71,85.8,114.82z"/>
	<path class="st1" d="M139.5,119.48c0,1.36-0.93,2.49-2.16,2.71c-0.14,0.03-0.29,0.04-0.44,0.04c-0.29,0-0.56-0.05-0.82-0.14
		c-0.22-0.08-0.42-0.19-0.61-0.32c-0.58-0.41-1-1.07-1.12-1.83c-0.03-0.15-0.04-0.3-0.04-0.45c0-1.46,1.08-2.66,2.43-2.74
		c0.05,0,0.11-0.01,0.16-0.01c0.58,0,1.1,0.2,1.53,0.53c0.13,0.1,0.25,0.21,0.36,0.34c0.29,0.32,0.5,0.73,0.61,1.17
		C139.47,119,139.5,119.24,139.5,119.48z"/>
	<path class="st1" d="M146,118.29c0,1.5-1.26,2.71-2.82,2.75c-0.03,0-0.05,0-0.07,0c-0.67,0-1.29-0.22-1.77-0.58
		c-0.68-0.5-1.12-1.29-1.12-2.17c0-1.52,1.3-2.75,2.9-2.75c0.32,0,0.63,0.05,0.92,0.14c0.71,0.23,1.29,0.71,1.64,1.32
		C145.88,117.38,146,117.82,146,118.29z"/>
	<path class="st1" d="M141.1,118.69c-0.32-0.5-0.94-0.77-1.52-0.7c-0.63,0.07-1.24,0.61-1.16,1.29c0.04,0.3,0.5,0.23,0.46-0.06
		c-0.06-0.45,0.43-0.74,0.82-0.77c0.41-0.03,0.81,0.19,1.03,0.53c0.07,0.11,0.23,0.11,0.33,0.04
		C141.17,118.93,141.17,118.79,141.1,118.69z"/>
	<path class="st3" d="M173.18,117.59c-2.45,0.6-4.88,1.28-7.29,2.04c-0.03-0.15-0.05-0.3-0.07-0.46c2.4-0.75,4.82-1.42,7.26-2.03
		C173.11,117.29,173.14,117.44,173.18,117.59z"/>
	<path class="st11" d="M145.67,117c-0.32,0.52-0.65,1.04-0.97,1.57c-0.51,0.82-1.01,1.64-1.52,2.47c-0.03,0-0.05,0-0.07,0
		c-0.67,0-1.29-0.22-1.77-0.58l2.7-4.78C144.74,115.9,145.32,116.38,145.67,117z"/>
	<path class="st11" d="M139.41,118.77c-0.44,0.67-0.87,1.35-1.27,2.03c-0.27,0.46-0.51,0.94-0.8,1.39
		c-0.14,0.03-0.29,0.04-0.44,0.04c-0.29,0-0.56-0.05-0.82-0.14c0.98-1.45,1.88-2.95,2.72-4.49
		C139.09,117.93,139.3,118.33,139.41,118.77z"/>
	<path class="st11" d="M138.44,117.26c-0.98,1.51-1.97,3.01-2.97,4.51c-0.58-0.41-1-1.07-1.12-1.83c0.78-1.08,1.58-2.14,2.4-3.2
		c0.05,0,0.11-0.01,0.16-0.01C137.48,116.73,138.01,116.93,138.44,117.26z"/>
	<path class="st2" d="M176.62,137.57c-0.03,0.88-0.19,1.84-0.81,2.51c-0.63,0.68-1.34,1.08-2.2,1.41
		c-3.85,1.48-8.51,0.89-12.53,0.79c-4.78-0.12-9.56-0.8-14.34-0.57c-0.14,0.01-0.27,0.01-0.37,0.02c-0.04,0-0.07,0-0.11,0.01
		c-0.04,0-0.07,0-0.1,0c-0.02,0-0.04,0-0.05,0c-0.06,0-0.09,0-0.09,0l-0.52,1.08c-0.27-0.66-0.5-1.32-0.71-1.97
		c-0.94-2.79-1.48-5.71-1.61-8.64c1.98-0.79,3.4-2.2,4.22-3.2c0.94,0.04,1.98,0.13,3.06,0.28c7.95,1.1,14.62,2.46,14.62,2.46
		l-1.26-4.56l-0.21-0.89l0.38-0.09l9.68-1.76c0.32-0.03,0.88-0.14,1.15-0.15c0.13,0,0.66,3.54,0.72,3.87
		c0.26,1.32,0.5,2.65,0.71,3.98C176.55,133.94,176.69,135.76,176.62,137.57z"/>
	<path class="st2" d="M134.37,130.6c-0.59,0.34-1.24,0.58-1.89,0.76c-0.78,0.22-1.58,0.38-2.34,0.66c-0.69,0.25-1.37,0.57-1.99,0.97
		c-0.85,0.55-1.61,1.22-2.26,1.98c0.12-0.43,0.22-0.72,0.22-0.72l-0.26-0.08l-24.97-7.66l0.01-0.04l3.42-9.22l29.65,10.13
		c-0.27,0.8-0.45,2.04,0.36,3.16C134.33,130.55,134.35,130.58,134.37,130.6z"/>
	<path class="st1" d="M53.09,44.26v78.33h-16.8c-2.25,0-4.07-1.82-4.07-4.07v-70.2c0-2.25,1.82-4.07,4.07-4.07H53.09z"/>
	<path class="st12" d="M106.01,48.33v2.44H32.23v-2.44c0-2.25,1.82-4.07,4.07-4.07h65.65C104.19,44.26,106.01,46.08,106.01,48.33z"
		/>
	<path class="st1" d="M101.83,45.97c-0.98,0-1.77,0.79-1.77,1.77c0,0.98,0.79,1.77,1.77,1.77c0.98,0,1.77-0.79,1.77-1.77
		C103.6,46.76,102.81,45.97,101.83,45.97z"/>
	<path class="st1" d="M96.37,45.97c-0.98,0-1.77,0.79-1.77,1.77c0,0.98,0.79,1.77,1.77,1.77c0.98,0,1.77-0.79,1.77-1.77
		C98.14,46.76,97.35,45.97,96.37,45.97z"/>
	<path class="st1" d="M90.92,45.97c-0.98,0-1.77,0.79-1.77,1.77c0,0.98,0.79,1.77,1.77,1.77c0.98,0,1.77-0.79,1.77-1.77
		C92.69,46.76,91.9,45.97,90.92,45.97z"/>
	<path class="st12" d="M217.77,32.48v2.32h-73.21v-2.32c0-2.24,1.82-4.06,4.07-4.06h65.09C215.96,28.42,217.77,30.24,217.77,32.48z"
		/>
	<path class="st1" d="M213.35,29.63c-0.98,0-1.77,0.79-1.77,1.77c0,0.98,0.79,1.77,1.77,1.77c0.98,0,1.77-0.79,1.77-1.77
		C215.12,30.43,214.33,29.63,213.35,29.63z"/>
	<path class="st1" d="M207.9,29.63c-0.98,0-1.77,0.79-1.77,1.77c0,0.98,0.79,1.77,1.77,1.77c0.98,0,1.77-0.79,1.77-1.77
		C209.67,30.43,208.87,29.63,207.9,29.63z"/>
	<path class="st1" d="M202.44,29.63c-0.98,0-1.77,0.79-1.77,1.77c0,0.98,0.79,1.77,1.77,1.77c0.98,0,1.77-0.79,1.77-1.77
		C204.21,30.43,203.42,29.63,202.44,29.63z"/>
	<path class="st10" d="M207.64,58.32h-52.85c-3.72,0-6.73-3.01-6.73-6.73v-7.51c0-3.72,3.01-6.73,6.73-6.73h52.85
		c3.72,0,6.73,3.01,6.73,6.73v7.51C214.36,55.31,211.35,58.32,207.64,58.32z"/>
	<path class="st1" d="M154.88,56.01h-0.98c-1.88,0-3.41-1.53-3.41-3.41v0c0-1.88,1.53-3.41,3.41-3.41h0.98
		c1.88,0,3.41,1.53,3.41,3.41v0C158.3,54.48,156.77,56.01,154.88,56.01z"/>
	<path class="st1" d="M163.42,56.01L163.42,56.01c-2.15,0-3.9-1.75-3.9-3.9v-1.1c0-2.15,1.75-3.9,3.9-3.9h0c2.15,0,3.9,1.75,3.9,3.9
		v1.1C167.32,54.26,165.57,56.01,163.42,56.01z"/>
	<path class="st1" d="M172.44,56.01L172.44,56.01c-2.15,0-3.9-1.75-3.9-3.9v-4.39c0-2.15,1.75-3.9,3.9-3.9h0
		c2.15,0,3.9,1.75,3.9,3.9v4.39C176.34,54.26,174.59,56.01,172.44,56.01z"/>
	<path class="st1" d="M181.45,56.01L181.45,56.01c-2.15,0-3.9-1.75-3.9-3.9v-1.1c0-2.15,1.75-3.9,3.9-3.9l0,0
		c2.15,0,3.9,1.75,3.9,3.9v1.1C185.35,54.26,183.61,56.01,181.45,56.01z"/>
	<path class="st1" d="M190.47,56.01L190.47,56.01c-2.15,0-3.9-1.75-3.9-3.9v-6.95c0-2.15,1.75-3.9,3.9-3.9h0
		c2.15,0,3.9,1.75,3.9,3.9v6.95C194.37,54.26,192.63,56.01,190.47,56.01z"/>
	<path class="st1" d="M199.49,56.01L199.49,56.01c-2.15,0-3.9-1.75-3.9-3.9v-3.53c0-2.15,1.75-3.9,3.9-3.9h0
		c2.15,0,3.9,1.75,3.9,3.9v3.53C203.39,54.26,201.65,56.01,199.49,56.01z"/>
	<path class="st1" d="M208.51,56.01L208.51,56.01c-2.15,0-3.9-1.75-3.9-3.9v-7.92c0-2.15,1.75-3.9,3.9-3.9h0
		c2.15,0,3.9,1.75,3.9,3.9v7.92C212.41,54.26,210.67,56.01,208.51,56.01z"/>
	<path class="st10" d="M183.22,63.08h-32.91c-0.5,0-0.91-0.41-0.91-0.91c0-0.5,0.41-0.91,0.91-0.91h32.91c0.5,0,0.91,0.41,0.91,0.91
		C184.14,62.67,183.73,63.08,183.22,63.08z"/>
	<path class="st10" d="M212.6,63.08h-23.36c-0.5,0-0.91-0.41-0.91-0.91c0-0.5,0.41-0.91,0.91-0.91h23.36c0.5,0,0.91,0.41,0.91,0.91
		C213.51,62.67,213.1,63.08,212.6,63.08z"/>
	<path class="st10" d="M166.56,67.19h-16.25c-0.5,0-0.91-0.41-0.91-0.91c0-0.5,0.41-0.91,0.91-0.91h16.25c0.5,0,0.91,0.41,0.91,0.91
		C167.48,66.78,167.07,67.19,166.56,67.19z"/>
	<path class="st10" d="M212.6,67.19h-3.94c-0.5,0-0.91-0.41-0.91-0.91c0-0.5,0.41-0.91,0.91-0.91h3.94c0.5,0,0.91,0.41,0.91,0.91
		C213.51,66.78,213.1,67.19,212.6,67.19z"/>
	<path class="st10" d="M203.62,67.19H171.2c-0.5,0-0.91-0.41-0.91-0.91c0-0.5,0.41-0.91,0.91-0.91h32.42c0.5,0,0.91,0.41,0.91,0.91
		C204.53,66.78,204.12,67.19,203.62,67.19z"/>
	<path class="st10" d="M175.75,71.3h-25.43c-0.5,0-0.91-0.41-0.91-0.91c0-0.5,0.41-0.91,0.91-0.91h25.43c0.5,0,0.91,0.41,0.91,0.91
		C176.66,70.89,176.25,71.3,175.75,71.3z"/>
	<path class="st10" d="M194.11,71.3h-12.27c-0.5,0-0.91-0.41-0.91-0.91c0-0.5,0.41-0.91,0.91-0.91h12.27c0.5,0,0.91,0.41,0.91,0.91
		C195.02,70.89,194.61,71.3,194.11,71.3z"/>
	<path class="st10" d="M103.33,59.92v15.83c0,1.15-0.93,2.07-2.07,2.07H81.02c-1.14,0-2.07-0.93-2.07-2.07v-4.34
		c0.54-0.46,1.12-0.86,1.72-1.18c1.38-0.72,2.91-0.89,4.45-0.86c1.72,0.03,3.56,0.3,5.22-0.24c2.82-0.9,4.94-3.34,7.02-5.32
		C99.13,62.13,101.06,60.73,103.33,59.92z"/>
	<path class="st1" d="M103.33,55.52v4.4c-2.26,0.81-4.19,2.21-5.98,3.9c-2.08,1.98-4.19,4.42-7.02,5.32
		c-1.67,0.53-3.5,0.27-5.22,0.24c-1.53-0.03-3.06,0.14-4.45,0.86c-0.6,0.32-1.18,0.71-1.72,1.18v-15.9c0-1.15,0.93-2.07,2.07-2.07
		h20.24C102.4,53.45,103.33,54.38,103.33,55.52z"/>
	
		<ellipse transform="matrix(0.2177 -0.976 0.976 0.2177 8.1119 132.3721)" class="st10" cx="86.63" cy="61.13" rx="4.75" ry="4.75"/>
	<path class="st10" d="M76.12,58H56.67c-0.75,0-1.36-0.61-1.36-1.36c0-0.75,0.61-1.36,1.36-1.36h19.45c0.75,0,1.36,0.61,1.36,1.36
		C77.49,57.39,76.88,58,76.12,58z"/>
	<path class="st10" d="M76.12,62.87H56.67c-0.75,0-1.36-0.61-1.36-1.36s0.61-1.36,1.36-1.36h19.45c0.75,0,1.36,0.61,1.36,1.36
		S76.88,62.87,76.12,62.87z"/>
	<path class="st10" d="M76.12,67.73H56.67c-0.75,0-1.36-0.61-1.36-1.36c0-0.75,0.61-1.36,1.36-1.36h19.45
		c0.75,0,1.36,0.61,1.36,1.36C77.49,67.12,76.88,67.73,76.12,67.73z"/>
	<path class="st10" d="M76.12,72.59H56.67c-0.75,0-1.36-0.61-1.36-1.36c0-0.75,0.61-1.36,1.36-1.36h19.45
		c0.75,0,1.36,0.61,1.36,1.36C77.49,71.98,76.88,72.59,76.12,72.59z"/>
	<path class="st10" d="M76.12,77.46H56.67c-0.75,0-1.36-0.61-1.36-1.36c0-0.75,0.61-1.36,1.36-1.36h19.45
		c0.75,0,1.36,0.61,1.36,1.36C77.49,76.85,76.88,77.46,76.12,77.46z"/>
	<rect x="34.1" y="54.58" class="st1" width="3.41" height="3.41"/>
	<path class="st2" d="M49.87,57.66h-9.62c-0.71,0-1.29-0.58-1.29-1.29c0-0.71,0.58-1.29,1.29-1.29h9.62c0.71,0,1.29,0.58,1.29,1.29
		C51.16,57.08,50.58,57.66,49.87,57.66z"/>
	<path class="st2" d="M49.87,62.62h-9.62c-0.71,0-1.29-0.58-1.29-1.29c0-0.71,0.58-1.29,1.29-1.29h9.62c0.71,0,1.29,0.58,1.29,1.29
		C51.16,62.04,50.58,62.62,49.87,62.62z"/>
	<rect x="34.1" y="69.37" class="st1" width="3.41" height="3.41"/>
	<path class="st2" d="M49.87,72.45h-9.62c-0.71,0-1.29-0.58-1.29-1.29c0-0.71,0.58-1.29,1.29-1.29h9.62c0.71,0,1.29,0.58,1.29,1.29
		C51.16,71.87,50.58,72.45,49.87,72.45z"/>
	<path class="st2" d="M49.87,77.4h-9.62c-0.71,0-1.29-0.58-1.29-1.29c0-0.71,0.58-1.29,1.29-1.29h9.62c0.71,0,1.29,0.58,1.29,1.29
		C51.16,76.83,50.58,77.4,49.87,77.4z"/>
	<rect x="34.1" y="89.28" class="st1" width="3.41" height="3.41"/>
	<path class="st2" d="M49.87,92.36h-9.62c-0.71,0-1.29-0.58-1.29-1.29s0.58-1.29,1.29-1.29h9.62c0.71,0,1.29,0.58,1.29,1.29
		S50.58,92.36,49.87,92.36z"/>
	<path class="st2" d="M49.87,97.31h-9.62c-0.71,0-1.29-0.58-1.29-1.29c0-0.71,0.58-1.29,1.29-1.29h9.62c0.71,0,1.29,0.58,1.29,1.29
		C51.16,96.74,50.58,97.31,49.87,97.31z"/>
</g>
<g id="Layer_3" class="st0">
	<path class="st3" d="M164.35,99.96H75.09H46.4c-4.62,0-8.36,3.74-8.36,8.36v71.85c0,4.62,3.74,8.36,8.36,8.36h28.69h89.25
		c4.62,0,8.36-3.74,8.36-8.36v-71.85C172.71,103.7,168.96,99.96,164.35,99.96z"/>
	<path class="st10" d="M74.79,25.82v88.57H46.1c-4.62,0-8.36-3.74-8.36-8.36V34.17c0-4.62,3.74-8.36,8.36-8.36H74.79z"/>
	<path class="st1" d="M172.4,34.17v71.85c0,4.62-3.74,8.36-8.36,8.36H74.79V25.82h89.25C168.66,25.82,172.4,29.55,172.4,34.17z"/>
	<path class="st10" d="M104.96,44.27h-13.9c-1.43,0-2.6-1.16-2.6-2.6v-0.19c0-1.43,1.16-2.6,2.6-2.6h13.9c1.43,0,2.6,1.16,2.6,2.6
		v0.19C107.56,43.1,106.39,44.27,104.96,44.27z"/>
	<path class="st1" d="M61.35,44.27h-13.9c-1.43,0-2.6-1.16-2.6-2.6v-0.19c0-1.43,1.16-2.6,2.6-2.6h13.9c1.43,0,2.6,1.16,2.6,2.6
		v0.19C63.95,43.1,62.79,44.27,61.35,44.27z"/>
	<path class="st10" d="M161.79,44.27h-44.74c-1.43,0-2.6-1.16-2.6-2.6v-0.19c0-1.43,1.16-2.6,2.6-2.6h44.74c1.43,0,2.6,1.16,2.6,2.6
		v0.19C164.38,43.1,163.22,44.27,161.79,44.27z"/>
	<path class="st10" d="M132.41,54.89H108.8c-1.43,0-2.6-1.16-2.6-2.6V52.1c0-1.43,1.16-2.6,2.6-2.6h23.62c1.43,0,2.6,1.16,2.6,2.6
		v0.19C135.01,53.72,133.85,54.89,132.41,54.89z"/>
	<path class="st10" d="M161.67,54.89h-15.82c-1.43,0-2.6-1.16-2.6-2.6V52.1c0-1.43,1.16-2.6,2.6-2.6h15.82c1.43,0,2.6,1.16,2.6,2.6
		v0.19C164.27,53.72,163.11,54.89,161.67,54.89z"/>
	<path class="st10" d="M103.15,65.51H91.06c-1.43,0-2.6-1.16-2.6-2.6v-0.19c0-1.43,1.16-2.6,2.6-2.6h12.09c1.43,0,2.6,1.16,2.6,2.6
		v0.19C105.75,64.34,104.59,65.51,103.15,65.51z"/>
	<path class="st10" d="M161.79,65.51h-45.53c-1.43,0-2.6-1.16-2.6-2.6v-0.19c0-1.43,1.16-2.6,2.6-2.6h45.53c1.43,0,2.6,1.16,2.6,2.6
		v0.19C164.38,64.34,163.22,65.51,161.79,65.51z"/>
	<path class="st10" d="M114.34,76.12h-5.31c-1.43,0-2.6-1.16-2.6-2.6v-0.19c0-1.43,1.16-2.6,2.6-2.6h5.31c1.43,0,2.6,1.16,2.6,2.6
		v0.19C116.93,74.96,115.77,76.12,114.34,76.12z"/>
	<path class="st10" d="M161.79,76.12h-36.95c-1.43,0-2.6-1.16-2.6-2.6v-0.19c0-1.43,1.16-2.6,2.6-2.6h36.95c1.43,0,2.6,1.16,2.6,2.6
		v0.19C164.38,74.96,163.22,76.12,161.79,76.12z"/>
	<path class="st10" d="M122.02,86.74H108.8c-1.43,0-2.6-1.16-2.6-2.6v-0.19c0-1.43,1.16-2.6,2.6-2.6h13.22c1.43,0,2.6,1.16,2.6,2.6
		v0.19C124.62,85.58,123.45,86.74,122.02,86.74z"/>
	<path class="st10" d="M158.62,86.74h-23.62c-1.43,0-2.6-1.16-2.6-2.6v-0.19c0-1.43,1.16-2.6,2.6-2.6h23.62c1.43,0,2.6,1.16,2.6,2.6
		v0.19C161.22,85.58,160.06,86.74,158.62,86.74z"/>
	<path class="st10" d="M108.46,97.36h-17.4c-1.43,0-2.6-1.16-2.6-2.6v-0.19c0-1.43,1.16-2.6,2.6-2.6h17.4c1.43,0,2.6,1.16,2.6,2.6
		v0.19C111.06,96.2,109.9,97.36,108.46,97.36z"/>
	<path class="st10" d="M118.18,107.98H91.06c-1.43,0-2.6-1.16-2.6-2.6v-0.19c0-1.43,1.16-2.6,2.6-2.6h27.12c1.43,0,2.6,1.16,2.6,2.6
		v0.19C120.77,106.82,119.61,107.98,118.18,107.98z"/>
	<path class="st1" d="M59.32,65.51H47.23c-1.43,0-2.6-1.16-2.6-2.6v-0.19c0-1.43,1.16-2.6,2.6-2.6h12.09c1.43,0,2.6,1.16,2.6,2.6
		v0.19C61.91,64.34,60.75,65.51,59.32,65.51z"/>
	<path class="st1" d="M64.63,97.36h-17.4c-1.43,0-2.6-1.16-2.6-2.6v-0.19c0-1.43,1.16-2.6,2.6-2.6h17.4c1.43,0,2.6,1.16,2.6,2.6
		v0.19C67.22,96.2,66.06,97.36,64.63,97.36z"/>
	<path class="st1" d="M60.11,107.98H47.23c-1.43,0-2.6-1.16-2.6-2.6v-0.19c0-1.43,1.16-2.6,2.6-2.6h12.88c1.43,0,2.6,1.16,2.6,2.6
		v0.19C62.71,106.82,61.54,107.98,60.11,107.98z"/>
	<path class="st10" d="M134.11,97.36h-13.79c-1.43,0-2.6-1.16-2.6-2.6v-0.19c0-1.43,1.16-2.6,2.6-2.6h13.79c1.43,0,2.6,1.16,2.6,2.6
		v0.19C136.7,96.2,135.54,97.36,134.11,97.36z"/>
	<path class="st10" d="M155.8,97.36h-13.79c-1.43,0-2.6-1.16-2.6-2.6v-0.19c0-1.43,1.16-2.6,2.6-2.6h13.79c1.43,0,2.6,1.16,2.6,2.6
		v0.19C158.4,96.2,157.23,97.36,155.8,97.36z"/>
	<path class="st10" d="M142.13,107.98h-13.79c-1.43,0-2.6-1.16-2.6-2.6v-0.19c0-1.43,1.16-2.6,2.6-2.6h13.79
		c1.43,0,2.6,1.16,2.6,2.6v0.19C144.73,106.82,143.56,107.98,142.13,107.98z"/>
	<path class="st10" d="M80.56,44.27h-0.23c-1.43,0-2.6-1.16-2.6-2.6v-0.19c0-1.43,1.16-2.6,2.6-2.6h0.23c1.43,0,2.6,1.16,2.6,2.6
		v0.19C83.15,43.1,81.99,44.27,80.56,44.27z"/>
	<path class="st10" d="M80.56,54.89h-0.23c-1.43,0-2.6-1.16-2.6-2.6V52.1c0-1.43,1.16-2.6,2.6-2.6h0.23c1.43,0,2.6,1.16,2.6,2.6
		v0.19C83.15,53.72,81.99,54.89,80.56,54.89z"/>
	<path class="st10" d="M80.56,65.51h-0.23c-1.43,0-2.6-1.16-2.6-2.6v-0.19c0-1.43,1.16-2.6,2.6-2.6h0.23c1.43,0,2.6,1.16,2.6,2.6
		v0.19C83.15,64.34,81.99,65.51,80.56,65.51z"/>
	<path class="st10" d="M80.56,76.12h-0.23c-1.43,0-2.6-1.16-2.6-2.6v-0.19c0-1.43,1.16-2.6,2.6-2.6h0.23c1.43,0,2.6,1.16,2.6,2.6
		v0.19C83.15,74.96,81.99,76.12,80.56,76.12z"/>
	<path class="st10" d="M80.56,86.74h-0.23c-1.43,0-2.6-1.16-2.6-2.6v-0.19c0-1.43,1.16-2.6,2.6-2.6h0.23c1.43,0,2.6,1.16,2.6,2.6
		v0.19C83.15,85.58,81.99,86.74,80.56,86.74z"/>
	<path class="st10" d="M80.56,97.36h-0.23c-1.43,0-2.6-1.16-2.6-2.6v-0.19c0-1.43,1.16-2.6,2.6-2.6h0.23c1.43,0,2.6,1.16,2.6,2.6
		v0.19C83.15,96.2,81.99,97.36,80.56,97.36z"/>
	<path class="st10" d="M80.56,107.98h-0.23c-1.43,0-2.6-1.16-2.6-2.6v-0.19c0-1.43,1.16-2.6,2.6-2.6h0.23c1.43,0,2.6,1.16,2.6,2.6
		v0.19C83.15,106.82,81.99,107.98,80.56,107.98z"/>
	<path class="st2" d="M164.04,27.78c3.53,0,6.39,2.87,6.39,6.39v71.85c0,3.53-2.87,6.39-6.39,6.39H46.1c-3.53,0-6.39-2.87-6.39-6.39
		V34.17c0-3.53,2.87-6.39,6.39-6.39H164.04L164.04,27.78z M164.04,25.82H46.1c-4.62,0-8.36,3.74-8.36,8.36v71.85
		c0,4.62,3.74,8.36,8.36,8.36h117.95c4.61,0,8.36-3.74,8.36-8.36V34.17C172.4,29.55,168.66,25.82,164.04,25.82L164.04,25.82z"/>
	<path class="st12" d="M172.4,34.17v1.13H37.74v-1.13c0-4.62,3.74-8.36,8.36-8.36h117.95C168.66,25.82,172.4,29.55,172.4,34.17z"/>
	<g class="st4">
		<path class="st13" d="M165.55,28.53c-1.29,0-2.34,1.05-2.34,2.34c0,1.29,1.05,2.34,2.34,2.34c1.29,0,2.34-1.05,2.34-2.34
			C167.89,29.57,166.84,28.53,165.55,28.53z"/>
		<path class="st13" d="M157.99,28.53c-1.29,0-2.34,1.05-2.34,2.34c0,1.29,1.05,2.34,2.34,2.34c1.29,0,2.34-1.05,2.34-2.34
			C160.33,29.57,159.28,28.53,157.99,28.53z"/>
		
			<ellipse transform="matrix(0.9735 -0.2288 0.2288 0.9735 -3.0716 35.2323)" class="st13" cx="150.44" cy="30.87" rx="2.34" ry="2.34"/>
	</g>
	<rect x="80.44" y="40.92" class="st10" width="11.41" height="1.31"/>
	<polygon class="st10" points="107.9,52.68 85.78,52.68 85.78,41.74 87.09,41.74 87.09,51.37 107.9,51.37 	"/>
	<polygon class="st10" points="107.9,74.14 85.78,74.14 85.78,63.21 87.09,63.21 87.09,72.83 107.9,72.83 	"/>
	<polygon class="st10" points="107.9,84.88 85.78,84.88 85.78,73.94 87.09,73.94 87.09,83.57 107.9,83.57 	"/>
	<rect x="81.23" y="62.1" class="st10" width="9.6" height="1.31"/>
	<rect x="81.01" y="51.26" class="st10" width="5.42" height="1.31"/>
	<rect x="82.59" y="93.96" class="st10" width="7.8" height="1.31"/>
	<rect x="81.69" y="104.58" class="st10" width="7.8" height="1.31"/>
	<path class="st10" d="M179.17,177.76l-71.11,22.41l-23.15-75.76l76.27-24.05l21.98,69.72
		C184.17,173.31,182.39,176.74,179.17,177.76z"/>
	<path class="st1" d="M108.06,200.17l-24.53,7.74c-3.22,1.02-6.66-0.78-7.67-3.99l-21.98-69.73l31.03-9.78L108.06,200.17z"/>
	<path class="st3" d="M161.18,100.36l-76.27,24.05l-31.03,9.78c-0.19-0.61-0.28-1.24-0.28-1.84c0-2.59,1.67-5,4.28-5.82l25.25-7.96
		l70.39-22.19c2.08-0.65,4.25-0.14,5.79,1.17c0.13,0.1,0.24,0.21,0.35,0.32C160.34,98.53,160.87,99.38,161.18,100.36z"/>
	<g class="st4">
		<path class="st13" d="M146.32,101.02c-0.75-0.45-1.73-0.2-2.18,0.55c-0.45,0.75-0.2,1.73,0.55,2.18c0.75,0.45,1.73,0.2,2.18-0.55
			C147.32,102.45,147.08,101.47,146.32,101.02z"/>
		<path class="st13" d="M151.23,99.5c-0.76-0.45-1.73-0.2-2.18,0.55c-0.45,0.75-0.2,1.73,0.55,2.18c0.75,0.45,1.73,0.2,2.18-0.55
			C152.23,100.93,151.98,99.95,151.23,99.5z"/>
		<path class="st13" d="M156.21,97.95c-0.76-0.45-1.73-0.2-2.18,0.55c-0.45,0.75-0.2,1.73,0.55,2.18c0.75,0.45,1.73,0.2,2.18-0.55
			C157.21,99.38,156.97,98.4,156.21,97.95z"/>
	</g>
	<polygon class="st14" points="153.59,173.03 157.87,180.7 166.59,176.55 160.58,168.98 	"/>
	<path class="st14" d="M166.59,161.95c0,6.84-4.3,10.8-11.23,11.66c-2.27,0.28-5.59,0.11-7.42-0.98c-0.55-0.26-1.08-0.55-1.59-0.88
		c-2.02-1.33-3.67-3.21-4.65-5.43c-1.05-2.4-1.36-5.06-0.87-7.63c0.04-0.19,0.23-0.29,0.41-0.31c0.46-0.05,0.89-0.21,1.27-0.45
		c1.67-4.86,6.28-8.36,11.71-8.36C161.04,149.57,166.59,155.11,166.59,161.95z"/>
	<circle class="st15" cx="178.76" cy="181.81" r="12.38"/>
	<path class="st3" d="M162.86,149.45c-0.06-0.03-0.12-0.05-0.18-0.05c-0.13-0.45-0.37-0.87-0.72-1.2c-0.61-0.57-1.47-0.82-2.28-0.7
		c-0.28-0.72-0.81-1.32-1.54-1.61c-0.89-0.35-1.98-0.13-2.64,0.55c-0.23-0.35-0.42-0.73-0.68-1.06c-0.35-0.43-0.81-0.73-1.33-0.91
		c-1.08-0.38-2.32-0.19-3.34,0.3c-1.55,0.76-2.46,2.33-2.46,3.96c-1.54,0.56-2.84,2.13-3.11,3.65c-0.19,1.08,0.02,2.22,0.71,3.08
		c0.55,0.68,1.31,1.1,2.11,1.43c-0.81,0.88-1.17,2.17-0.77,3.33c0.42,1.26,1.61,2.17,2.92,2.29c0.54,1.69,1.18,3.39,2.18,4.87
		c0.54,0.79,1.17,1.5,1.93,2.08c0.88,0.67,1.89,1.05,2.87,1.55c1,0.5,1.99,1.23,2.16,2.42c0.03,0.23,0.32,0.35,0.52,0.3
		c0.57-0.15,1.14-0.31,1.7-0.48c0.71-0.13,1.41-0.29,2.11-0.47c0.31-0.08,0.4-0.48,0.19-0.71c-0.43-0.45-0.62-0.72-0.62-0.72
		s2.08-1.71,2.57-2.18c3.19-3.1,4-5.73,3.98-9.23C169.1,155.29,166.26,151.34,162.86,149.45z"/>
	<path class="st14" d="M153.96,165.67c0,1.52-1.23,2.76-2.76,2.76c-1.52,0-2.76-1.23-2.76-2.76s1.23-2.76,2.76-2.76
		C152.72,162.91,153.96,164.14,153.96,165.67z"/>
	<g class="st4">
		<path class="st16" d="M143.57,165.36C143.53,165.4,143.55,165.38,143.57,165.36L143.57,165.36z"/>
		<path class="st16" d="M144.32,164.95c-0.21-0.11-0.45-0.05-0.58,0.15c-0.05,0.08-0.1,0.16-0.16,0.24
			c-0.02,0.02-0.03,0.04-0.04,0.05c-0.03,0.04-0.06,0.07-0.09,0.11c-0.13,0.15-0.28,0.28-0.43,0.41c-0.02,0.01-0.04,0.03-0.06,0.04
			c-0.04,0.03-0.08,0.06-0.12,0.08c-0.08,0.05-0.17,0.1-0.25,0.15c-0.04,0.02-0.09,0.05-0.13,0.07c-0.02,0.01-0.04,0.02-0.07,0.03
			c-0.01,0.01-0.09,0.04-0.03,0.01c0.06-0.03-0.02,0.01-0.03,0.01c-0.02,0.01-0.05,0.02-0.07,0.03c-0.05,0.02-0.1,0.04-0.15,0.05
			c-0.21,0.07-0.37,0.3-0.29,0.52c0.07,0.21,0.29,0.37,0.52,0.29c0.89-0.29,1.65-0.88,2.14-1.68
			C144.59,165.34,144.52,165.06,144.32,164.95z"/>
	</g>
	<path class="st17" d="M151.71,165c-0.1-0.22-0.33-0.31-0.55-0.23c-0.78,0.27-1.53,0.6-2.25,1c-0.19,0.11-0.33,0.33-0.23,0.55
		c0.09,0.19,0.34,0.35,0.55,0.23c0.72-0.4,1.47-0.73,2.25-1C151.68,165.48,151.8,165.2,151.71,165z"/>
	<path class="st3" d="M145.43,160.88c0.22,0.51-0.01,1.11-0.53,1.34c-0.51,0.22-1.11-0.01-1.34-0.53c-0.22-0.51,0.01-1.11,0.53-1.34
		S145.21,160.37,145.43,160.88z"/>
	<path class="st3" d="M147.81,160.07c-0.14-0.91-0.58-1.77-1.13-2.49c-0.29-0.38-0.59-0.8-1.09-0.88c-0.52-0.09-1.14,0.19-1.21,0.76
		c-0.09,0.73,0.57,0.85,1.06,1.08c0.61,0.27,1.07,0.91,1.37,1.48c0.08,0.16,0.16,0.32,0.28,0.44c0.25,0.24,0.76,0.15,0.73-0.27
		C147.82,160.15,147.82,160.11,147.81,160.07z"/>
	<path class="st18" d="M198.72,221.74l-9.06-38.97l-6.38-13.03c-5.6,1.78-11.21,3.55-16.81,5.33c-8.61,2.73-14.7,4-23.31,6.74
		c-3.25,1.03-8.64,1.59-12.05,5.36c-2.83,3.12-4.07,6.54-5.43,10.29c-2.88,7.98-5.8,15.96-8.13,24.12c0,0.01,0,0.02-0.01,0.03
		c-0.39,1.28,0.57,2.57,1.91,2.57h20.56c0.89,0,1.67-0.58,1.91-1.44l2.54-8.7l2.62,8.72c0.25,0.84,1.03,1.42,1.91,1.42h47.78
		C198.06,224.18,199.01,222.99,198.72,221.74z"/>
	<path class="st9" d="M211.81,148.25c-2.2,8.7-23.7,47.96-23.7,47.25c0-0.52-3.88-6.69-7.95-15.39c-1.06,0.89-2.28,1.59-3.63,2.07
		c-2.64,0.94-5.52,0.96-8.22,0.32c-1.42-0.34-2.81-0.85-4.11-1.52c-0.51-0.26-1.02-0.65-1.1-1.26c-0.05-0.42,0.12-0.84,0.45-1.07
		c-0.01-0.11,0.02-0.23,0.12-0.33c1.66-1.72,3.36-3.4,5.12-5.02c3.23-2.98,18.72-25.4,18.72-25.4s-8.75-21.19-13.67-28.49l12-11.45
		c5.28,5.98,10.48,12.04,15.92,17.87c0.46,0.49,0.92,0.99,1.39,1.5C208.4,133.08,213.88,140.09,211.81,148.25z"/>
	<path class="st14" d="M104.15,209.91c-1.33-2.04-2.66-3.99-3.9-5.72C97.9,197.36,89,188,85.72,186.71
		c-1.31-0.52-2.88-1.11-4.28-0.81c-1.26,0.27-2.15,0.81-2.66,2.07c-0.51,1.25,0.43,2.35,1.32,3.22c1,0.97,2.24,1.67,3.29,2.58
		c0.34,0.3,0.63,0.99,0.34,1.6c-0.01,0.05-0.03,0.1-0.05,0.16c-0.14,0.37-0.53,0.6-0.85,0.81c-0.34,0.22-0.68,0.42-1.05,0.59
		c-0.58,0.27-1.18,0.46-1.8,0.59c-1.63-0.28-3.21-0.84-4.65-1.67c-0.71-0.41-1.43-0.88-1.94-1.53c-0.53-0.68-0.6-1.44-0.4-2.26
		c0.2-0.84,0.56-1.64,0.56-2.51c0-0.74-0.27-1.41-0.79-1.94c-1.11-1.12-2.81-1.24-4.15-0.48c-1.57,0.88-2.38,2.52-2.75,4.23
		c-0.36,1.67-0.45,3.49-0.06,5.16c0.39,1.67,1.29,3.08,2.64,4.14c0.76,0.6,1.6,1.08,2.46,1.53c0.14,0.07,0.27,0.14,0.4,0.21
		c-0.25,1.49,0.16,2.76,0.88,3.7c-0.05,0.09-0.06,0.21-0.01,0.33c0.46,1.21,1.22,2.27,2.16,3.13c-0.33,1.18,0.21,2.37,1.15,3.11
		c1.08,0.86,2.53,1.01,3.85,1.14c3.17,0.32,6.35,0.65,9.52,0.97c0.07,0.01,0.15,0.01,0.22,0.02l0.9,3.6L104.15,209.91z"/>
	<path class="st18" d="M109.48,224.18H92.99c-0.91,0-1.71-0.62-1.93-1.51l-1.07-4.29l14.17-8.47c2.47,3.79,4.98,7.85,7.03,11.25
		C111.99,222.49,111.03,224.18,109.48,224.18z"/>
	<path class="st14" d="M185.84,107.97l-12,11.45c-1.64-2.42-2.98-4.43-3.83-5.69c-0.12-0.02-0.24-0.04-0.36-0.06
		c-1.82-0.34-3.52-1.21-4.73-2.61c-1.97-1.55-3.99-3.08-6.25-4.17c-1.03-0.5-2.12-0.89-3.24-1.12c-0.58-0.12-1.16-0.19-1.75-0.23
		c-0.59-0.03-1.21-0.05-1.78-0.25c-1.8-0.64-2.08-2.72-1.37-4.28c0.89-1.97,3.19-2.5,5.16-2.49c1.06,0,2.16,0.16,3.25,0.24
		c0.02-0.13,0.05-0.26,0.07-0.39c0.01-0.03,0.02-0.06,0.03-0.08c-1.05-1.36-2.28-2.83-4.07-3.09c-0.77-0.12-1.64,0.01-2.24,0.54
		c-0.57,0.48-0.86,1.21-1.17,1.86c-0.6,1.24-1.48,2.42-3.03,2.27c-1.68-0.17-2.74-1.62-3.09-3.16c-0.66-2.87,0.58-5.99,2.82-7.84
		c2.37-1.96,5.59-2.16,8.49-1.42c0.29-0.23,0.62-0.41,0.83-0.53c0.79-0.43,1.68-0.68,2.57-0.73c0.34-0.02,0.68,0,1.02,0.05
		c0.5-0.35,1.05-0.64,1.62-0.86c-0.06-0.09-0.11-0.19-0.16-0.28c-0.76-0.08-3.22,0.47-3.98,0.43c-1.82-0.09-4.04-2.15-1.63-4.35
		c2.33-2.15,6.98-2.97,9.65-1.11c2.07,1.44,3.44,4.03,4.88,6.06c1.33,1.87,2.64,3.76,3.86,5.7c1.02,1.62,1.99,3.29,2.87,5
		c0.88,1.71,1.67,3.47,2.33,5.27c0.01,0,2.74,3.07,2.89,3.24C184.28,106.19,185.06,107.08,185.84,107.97z"/>
	<path class="st6" d="M171.14,151.33c-0.29,1.54-0.79,3.04-1.49,4.46c-0.21,0.43,0.22,0.85,0.67,0.64c2.01-0.94,3.74-2.37,5-4.12
		c0.1,0,0.19,0.01,0.29,0.01h6.49c2.79,0,5.32-1.07,7.15-2.81c1.83-1.74,2.96-4.13,2.96-6.78c0-5.29-4.53-9.58-10.11-9.58h-6.49
		c-2.79,0-5.32,1.07-7.15,2.81c-1.83,1.73-2.96,4.13-2.96,6.78C165.5,146.5,167.79,149.76,171.14,151.33z"/>
	<path class="st5" d="M122.44,162.51c1.27,2.28,2.97,4.32,5,5.98c0.61,0.5-0.07,1.34-0.7,1.21c-4.43-0.87-8.5-3.23-11.51-6.56H94.2
		c-3.97,0-7.57-1.61-10.17-4.21c-2.6-2.6-4.21-6.2-4.21-10.17c0-7.94,6.44-14.38,14.38-14.38h24.04c3.97,0,7.57,1.61,10.17,4.21
		c2.6,2.6,4.21,6.2,4.21,10.17C132.62,155.23,128.33,160.71,122.44,162.51z"/>
	<path class="st18" d="M178.94,175.39c-0.46,3.2-1.69,6.37-3.79,8.86c-1.03,1.22-2.3,2.26-3.73,2.99c-1.7,0.86-3.57,1.28-5.45,1.48
		c-3.92,0.4-7.98,0.03-11.83-0.76c-2.8-0.57-5.53-1.43-8.15-2.54c1.1,1.17,2.22,2.3,3.39,3.4c0.4,0.37-0.2,0.97-0.6,0.6
		c-0.74-0.7-1.47-1.41-2.18-2.13c-0.87-0.89-1.72-1.8-2.55-2.73c-0.38-0.18-0.76-0.37-1.13-0.56c-0.33-0.17-0.23-0.57,0.02-0.72
		c-0.17-0.2-0.35-0.4-0.52-0.61c-0.58-0.7-1.24-1.44-1.36-2.38c-0.13-0.96,0.46-1.66,1.01-2.36c2.1-2.65,4.57-5,7.29-7.02
		c5.43-4.03,11.89-6.7,18.59-7.65c1.68-0.24,3.38-0.37,5.08-0.39c0.83-0.01,1.66,0.01,2.5,0.06c0.89,0.05,1.79,0.06,2.26,0.95
		c0.43,0.82,0.61,1.81,0.81,2.71c0.23,1.02,0.39,2.06,0.49,3.1C179.26,171.57,179.22,173.5,178.94,175.39z"/>
	<path class="st1" d="M182.71,170.71c-0.46-1.65-1.13-3.26-2-4.74c-0.81-1.37-1.84-2.67-3.27-3.42c-0.48-0.25-0.91,0.48-0.43,0.73
		c1.21,0.64,2.09,1.69,2.8,2.83c0.76,1.24,1.37,2.57,1.82,3.95c0.9,2.75,1.2,5.7,0.82,8.57c-0.35,2.65-1.29,5.33-3.05,7.38
		c-1.71,1.98-4.07,3.11-6.61,3.57c-2.9,0.53-5.92,0.27-8.81-0.21c-0.53-0.09-0.76,0.73-0.22,0.81c5.26,0.86,11.54,1.08,15.64-2.93
		c2.03-1.98,3.21-4.71,3.73-7.47C183.68,176.78,183.53,173.65,182.71,170.71z"/>
	<path class="st9" d="M189.65,112.08c-0.26,1.19-1.11,2.11-1.98,2.9c-0.77,0.7-1.55,1.39-2.33,2.07c-1.9,2.03-3.8,4.06-5.7,6.09
		c-0.35,0.37-0.7,0.75-1.05,1.13c-0.25,0.26-0.51,0.52-0.85,0.66c-0.81,0.33-1.51-0.2-2-0.8c-0.85-1.04-1.68-2.1-2.51-3.16
		c-0.28-0.22-0.49-0.5-0.63-0.81c-0.19-0.23-0.37-0.47-0.55-0.71c-0.26-0.32,0.03-0.75,0.33-0.74c0.09-0.83,0.54-1.59,1.03-2.25
		c1.18-1.57,2.5-3.04,3.89-4.43c1.25-1.25,2.57-2.43,3.95-3.53c0.67-0.53,1.36-1.05,2.06-1.55c0.45-0.32,1.19-0.95,1.76-0.72
		c0.1,0,0.2,0.03,0.3,0.11c0.6,0.48,1.2,0.97,1.8,1.46c0.52,0.42,1.05,0.82,1.52,1.29C189.48,109.9,189.9,110.92,189.65,112.08z"/>
	<path class="st9" d="M106.48,213.94c-0.26,0.3-0.66,0.47-1.01,0.66c-0.4,0.22-0.8,0.43-1.2,0.65c-3.24,1.73-6.53,3.36-9.87,4.88
		c-0.83,0.38-1.66,0.76-2.51,1.11c-0.63,0.26-1.44,0.43-1.96-0.13c-0.27-0.29-0.39-0.7-0.52-1.06c-0.14-0.4-0.27-0.8-0.38-1.21
		c-0.01-0.04-0.02-0.08-0.03-0.12c-0.09-0.03-0.18-0.08-0.24-0.19c-0.42-0.73-0.81-1.53-0.84-2.39c-0.04-0.89,0.43-1.53,1.12-2.03
		c1.63-1.17,3.33-2.25,5.05-3.28c1.52-0.92,3.07-1.78,4.64-2.61c0.77-0.41,1.55-0.85,2.36-1.17c0.73-0.28,1.48-0.26,2.07,0.28
		c0.6,0.55,0.97,1.4,1.38,2.09c0.48,0.79,0.95,1.59,1.43,2.38C106.34,212.41,107.07,213.25,106.48,213.94z"/>
	<path class="st1" d="M185.26,141.91c-0.24,0.38-0.55,0.71-0.92,0.97c-0.17,0.12-0.36,0.23-0.55,0.32c0.04-0.19,0.06-0.43,0.1-0.59
		c0.06-0.24,0.13-0.48,0.2-0.71c0.15-0.53,0.29-1.07,0.35-1.62c0.08-0.87-0.5-1.77-1.49-1.4c-0.78,0.3-1.39,1.27-1.84,1.92
		c-0.98,1.39-1.7,3-2.97,4.18c-0.14,0.13-0.29,0.26-0.45,0.37c-0.07,0.05-0.19,0.11-0.25,0.17c-0.05,0.03-0.09,0.05-0.14,0.08
		c0,0.14,0,0.17-0.01,0.08c-0.14-0.3,0.15-1.01,0.24-1.31c0.28-1.01,0.73-1.96,1.31-2.84c0.43-0.64,1.18-1.53,0.53-2.29
		c-0.68-0.79-1.82-0.1-2.54,0.26c-0.53,0.26-1.04,0.56-1.53,0.88c-0.05-0.32-0.13-0.63-0.26-0.92c-0.39-0.87-1.2-1.54-2.21-1.37
		c-1,0.17-1.92,1.03-2.55,1.77c-0.7,0.83-1.2,1.8-1.49,2.85c-0.21,0.79,1.03,1.07,1.25,0.29c0.28-1.02,0.81-1.94,1.56-2.7
		c0.35-0.35,0.8-0.77,1.28-0.93c0.49-0.17,0.82,0.19,1,0.61c0.18,0.41,0.22,0.85,0.18,1.3c-0.63,0.51-1.23,1.07-1.76,1.67
		c-0.58,0.65-1.26,1.41-1.6,2.2c-0.27,0.63-0.25,1.6,0.54,1.83c0.5,0.15,0.79-0.15,1.12-0.48c0.39-0.38,0.77-0.78,1.13-1.19
		c0.66-0.78,1.22-1.63,1.56-2.6c0.09-0.24,0.15-0.5,0.21-0.76c0.44-0.33,0.9-0.64,1.38-0.92c0.49-0.28,0.99-0.55,1.51-0.76
		c0,0,0.03-0.01,0.06-0.02c-0.16,0.26-0.36,0.5-0.53,0.76c-0.71,1.09-1.23,2.32-1.51,3.58c-0.12,0.52-0.25,1.11-0.02,1.61
		c0.24,0.54,0.84,0.78,1.41,0.63c1.05-0.27,1.96-1.36,2.57-2.19c0.68-0.93,1.24-1.93,1.87-2.89c0.28-0.42,0.58-0.82,0.91-1.2
		c0.08-0.09,0.17-0.19,0.26-0.28c-0.03,0.23-0.09,0.47-0.14,0.7c-0.21,0.86-1.4,3.42,0.21,3.62c0.59,0.08,1.27-0.31,1.74-0.62
		c0.58-0.39,1.05-0.9,1.42-1.49C186.83,141.81,185.7,141.22,185.26,141.91z"/>
	<path class="st17" d="M75.83,203.49c-3.6-0.98-7.71-2.55-9.22-6.3c-0.2-0.5-1.02-0.28-0.81,0.22c1.63,4.06,5.87,5.82,9.81,6.89
		C76.13,204.45,76.35,203.63,75.83,203.49z"/>
	<path class="st17" d="M73.14,205.66c-0.92-0.63-1.54-1.73-1.62-2.82c-0.02-0.23-0.18-0.42-0.42-0.42c-0.22,0-0.44,0.19-0.42,0.42
		c0.11,1.43,0.86,2.74,2.04,3.55c0.19,0.13,0.47,0.04,0.58-0.15C73.41,206.03,73.33,205.79,73.14,205.66z"/>
	<path class="st17" d="M74.56,208.91c-1.26-0.43-2.1-1.76-2-3.08c0.02-0.23-0.21-0.42-0.42-0.42c-0.24,0-0.41,0.19-0.42,0.42
		c-0.13,1.7,1.02,3.35,2.62,3.89c0.22,0.07,0.46-0.08,0.52-0.29C74.92,209.2,74.78,208.99,74.56,208.91z"/>
	<path class="st17" d="M76.12,212.63c0,0-0.07-0.03-0.08-0.03c-0.03-0.01-0.06-0.03-0.08-0.04c-0.07-0.04-0.14-0.07-0.21-0.12
		c-0.15-0.1-0.2-0.13-0.33-0.26c-0.1-0.1-0.21-0.22-0.26-0.3c-0.09-0.13-0.18-0.27-0.25-0.41c-0.01-0.03-0.03-0.06-0.04-0.08
		c0-0.01-0.03-0.08-0.03-0.08c-0.03-0.07-0.05-0.14-0.07-0.21c-0.02-0.08-0.04-0.16-0.05-0.23c-0.01-0.03-0.01-0.06-0.01-0.09
		c0-0.01-0.01-0.08-0.01-0.08c-0.01-0.16-0.01-0.31,0.01-0.47c0-0.01,0.01-0.04,0.01-0.05c0.01-0.04,0.01-0.07,0.02-0.11
		c0.02-0.09,0.04-0.17,0.07-0.25c0.07-0.22-0.08-0.46-0.29-0.52c-0.23-0.06-0.45,0.08-0.52,0.29c-0.52,1.53,0.4,3.3,1.9,3.84
		c0.21,0.08,0.46-0.09,0.52-0.29C76.48,212.91,76.34,212.71,76.12,212.63z"/>
	<path class="st17" d="M160.76,91.09c-1.3-1.66-3.01-3.04-5.03-3.71c-2.04-0.68-4.37-0.56-6.24,0.53c-0.47,0.27-0.05,1,0.43,0.73
		c1.72-1,3.84-1.07,5.7-0.41c1.83,0.64,3.36,1.95,4.55,3.46C160.5,92.11,161.09,91.51,160.76,91.09z"/>
	<path class="st17" d="M163.34,88.93c-0.99-1.08-2.24-2.12-3.74-2.35c-1.34-0.21-2.73,0.2-3.56,1.31c-0.33,0.44,0.41,0.86,0.73,0.43
		c0.64-0.86,1.88-1.1,2.88-0.87c1.25,0.29,2.25,1.16,3.1,2.08C163.11,89.93,163.71,89.33,163.34,88.93z"/>
	<path class="st17" d="M166.14,87.7c-0.91-1.18-2.11-2.25-3.65-2.43c-1.28-0.15-2.72,0.44-3.28,1.65c-0.23,0.49,0.5,0.92,0.73,0.43
		c0.44-0.95,1.54-1.37,2.54-1.23c1.21,0.17,2.22,1.08,2.94,2.01c0.14,0.18,0.36,0.27,0.58,0.15
		C166.17,88.17,166.28,87.88,166.14,87.7z"/>
	<path class="st17" d="M164.02,85.4c-0.74-1.14-2.18-1.19-3.38-0.95c-0.77,0.16-1.56,0.43-2.35,0.32c-0.7-0.1-1.31-0.47-1.77-1
		c-0.35-0.41-0.95,0.19-0.6,0.6c0.97,1.13,2.38,1.42,3.79,1.15c1.05-0.2,2.83-0.86,3.58,0.31C163.58,86.29,164.31,85.86,164.02,85.4
		z"/>
	<path class="st1" d="M150.12,179.9c-2.95,0.63-5.91,1.24-8.86,1.88c-2.4,0.52-4.81,1.13-7.01,2.25c-1.08,0.55-2.1,1.22-2.99,2.04
		c-0.96,0.89-1.74,1.96-2.4,3.08c-0.7,1.2-1.28,2.47-1.88,3.72c-0.62,1.32-1.23,2.64-1.81,3.97c-1.31,3.02-2.47,6.11-3.23,9.31
		c-0.13,0.53,0.69,0.75,0.81,0.22c0.66-2.78,1.62-5.48,2.72-8.12c1.09-2.59,2.25-5.18,3.55-7.67c0.61-1.17,1.3-2.32,2.2-3.3
		c0.8-0.88,1.75-1.6,2.78-2.19c2.09-1.19,4.44-1.83,6.77-2.36c3.18-0.72,6.38-1.36,9.56-2.04
		C150.87,180.6,150.65,179.78,150.12,179.9z"/>
	<path class="st9" d="M163.79,120.87c-0.16-0.29-0.39-0.5-0.69-0.63c-0.27-0.12-0.6-0.14-0.89-0.06c-0.36,0.1-0.66,0.3-0.9,0.59
		c-0.2,0.25-0.33,0.59-0.31,0.91c0,0.03,0.01,0.06,0.01,0.08c0,0.03,0,0.05,0,0.08c0.06,0.57,0.57,1.05,1.11,1.2
		c0.27,0.08,0.58,0.1,0.85,0.01c0.31-0.1,0.58-0.28,0.76-0.56C164.05,122.02,164.06,121.36,163.79,120.87z M162.17,121.78
		c-0.01-0.02-0.03-0.05-0.04-0.07c0-0.02-0.01-0.03-0.01-0.05c0-0.02,0-0.04,0-0.06c0.01-0.03,0.02-0.06,0.03-0.08
		c0.02-0.03,0.03-0.05,0.05-0.08c0.03-0.03,0.07-0.07,0.1-0.1c0.05-0.03,0.09-0.05,0.14-0.08c0.02-0.01,0.04-0.01,0.07-0.01
		c0.03,0,0.06,0,0.09,0c0.02,0.01,0.04,0.01,0.06,0.02c0.01,0.01,0.03,0.02,0.04,0.03c0.02,0.02,0.03,0.04,0.05,0.06
		c0.02,0.03,0.04,0.07,0.06,0.11c0.01,0.04,0.02,0.08,0.03,0.13c0,0.05,0,0.1-0.01,0.14c-0.01,0.03-0.02,0.06-0.03,0.08
		c-0.02,0.03-0.03,0.05-0.05,0.08c-0.01,0.01-0.02,0.02-0.03,0.03c-0.02,0.01-0.04,0.02-0.05,0.03c-0.03,0.01-0.06,0.02-0.1,0.02
		c-0.03,0-0.06,0-0.09-0.01c-0.04-0.01-0.08-0.02-0.11-0.04c-0.05-0.03-0.09-0.06-0.14-0.09
		C162.22,121.83,162.2,121.81,162.17,121.78z"/>
	<path class="st5" d="M46.89,139.02c-1.16,0.51-2.32,1.02-3.47,1.53c-0.53,0.24-0.34,0.95,0.1,1.06c1,0.76,2.01,1.52,3.01,2.28
		c0.34,0.25,0.86,0.02,0.89-0.4c0.09-1.3,0.17-2.6,0.26-3.9C47.7,139.17,47.28,138.85,46.89,139.02z M44.79,141.18
		c0.57-0.25,1.13-0.5,1.7-0.75l-0.13,1.94C45.84,141.97,45.32,141.57,44.79,141.18z"/>
	<g class="st4">
		<path class="st19" d="M58.08,172.48C58.11,172.48,58.13,172.47,58.08,172.48L58.08,172.48z"/>
		<path class="st19" d="M58.29,170.52C58.36,170.57,58.34,170.55,58.29,170.52L58.29,170.52z"/>
		<path class="st19" d="M59.63,170.27c-0.25-0.37-0.59-0.67-1.02-0.83c-0.47-0.17-0.97-0.13-1.42,0.05
			c-0.97,0.39-1.66,1.52-1.39,2.56c0,0.02,0.01,0.03,0.02,0.05c0,0.01,0,0.02,0.01,0.03c0.15,0.43,0.4,0.78,0.77,1.05
			c0.33,0.24,0.73,0.37,1.13,0.42c0.8,0.1,1.68-0.27,2.05-1.01C60.16,171.86,60.1,170.95,59.63,170.27z M58.89,171.8
			c-0.01,0.04-0.02,0.07-0.03,0.11c-0.01,0.03-0.02,0.06-0.03,0.09c-0.02,0.04-0.04,0.08-0.05,0.09c-0.02,0.03-0.04,0.06-0.06,0.09
			c-0.02,0.02-0.02,0.03-0.03,0.04c-0.01,0.02-0.02,0.02-0.02,0.02c-0.04,0.04-0.06,0.06-0.08,0.08c-0.01,0-0.02,0.01-0.03,0.02
			c-0.05,0.03-0.1,0.06-0.15,0.08c-0.02,0.01-0.03,0.02-0.05,0.02c-0.01,0-0.03,0.01-0.04,0.01c-0.06,0.02-0.13,0.03-0.2,0.04
			c-0.03,0-0.06,0.01-0.09,0.01c0.03-0.01,0.04-0.01,0.06-0.01c-0.02,0-0.04,0.01-0.06,0.01c-0.08,0-0.16,0-0.23-0.01
			c-0.01,0-0.03,0-0.04-0.01c-0.02-0.01-0.05-0.01-0.07-0.02c-0.08-0.02-0.15-0.04-0.22-0.07c-0.01-0.01-0.03-0.01-0.04-0.02
			c-0.02-0.01-0.04-0.02-0.07-0.04c-0.07-0.04-0.13-0.09-0.19-0.13c-0.03-0.03-0.06-0.06-0.09-0.09c-0.02-0.02-0.03-0.04-0.05-0.06
			c-0.03-0.04-0.04-0.05-0.03-0.05c-0.01-0.03-0.03-0.05-0.04-0.08c-0.01-0.02-0.03-0.08-0.04-0.09c-0.01-0.05-0.02-0.09-0.03-0.14
			c0-0.01,0-0.02,0-0.03c0-0.02,0-0.08,0-0.09c0-0.04,0.01-0.08,0.01-0.13c0.01-0.05,0.02-0.08,0.03-0.12
			c0.01-0.03,0.02-0.07,0.04-0.1c0.01-0.02,0.02-0.04,0.03-0.07c0.03-0.06,0.1-0.16,0.11-0.17c0.02-0.04,0.05-0.07,0.08-0.1
			c0.07-0.07,0.13-0.13,0.19-0.18c0.01-0.01,0.02-0.02,0.04-0.03c0-0.01,0.01-0.01,0.03-0.02c0.03-0.02,0.05-0.03,0.06-0.04
			c0.07-0.04,0.14-0.07,0.2-0.1c0.01,0,0.03-0.01,0.03-0.01c0.04-0.01,0.08-0.02,0.12-0.03c0.02,0,0.09-0.01,0.11-0.02
			c0.04,0,0.08,0,0.11,0c0.02,0,0.03,0,0.05,0c0.04,0.03,0.15,0.04,0.19,0.05c0.02,0.01,0.06,0.03,0.09,0.05
			c0.05,0.03,0.09,0.07,0.14,0.1c0.03,0.03,0.06,0.06,0.09,0.09c0.02,0.03,0.05,0.06,0.07,0.08c0.03,0.06,0.07,0.11,0.1,0.17
			c0.02,0.03,0.03,0.07,0.05,0.1c0.02,0.07,0.04,0.13,0.06,0.19c0.01,0.06,0.02,0.13,0.03,0.19c0,0.04,0,0.08,0,0.11
			C58.9,171.67,58.9,171.74,58.89,171.8z"/>
		<path class="st19" d="M58.67,172.23c0.01-0.01,0.03-0.03,0.04-0.04C58.68,172.2,58.67,172.22,58.67,172.23z"/>
		<path class="st19" d="M57.42,170.64c-0.02,0.01-0.03,0.02-0.04,0.03C57.37,170.68,57.38,170.67,57.42,170.64z"/>
	</g>
	<g class="st4">
		<path class="st20" d="M49.25,152.81c-0.48,0.66-1.34,0.89-2.09,0.59c-0.72-0.28-1.27-0.93-1.3-1.72
			c-0.01-0.04-0.01-0.08-0.01-0.11c0.04-0.88,0.78-1.62,1.63-1.77c0.78-0.15,1.59,0.2,1.93,0.93
			C49.72,151.38,49.68,152.23,49.25,152.81z"/>
	</g>
	<g class="st4">
		<g>
			<path class="st13" d="M97.42,143.74v2.07c0,0.57-0.47,1.04-1.04,1.04h-1.04V151h1.04c0.57,0,1.04,0.47,1.04,1.04v2.07
				c0,1.71,1.4,3.11,3.11,3.11h3.11v-2.07h-3.11c-0.57,0-1.04-0.47-1.04-1.04v-2.07c0-1.35-0.87-2.51-2.07-2.93v-0.35
				c1.2-0.43,2.07-1.59,2.07-2.93v-2.07c0-0.57,0.47-1.04,1.04-1.04h3.11v-2.07h-3.11C98.82,140.63,97.42,142.03,97.42,143.74z"/>
			<path class="st13" d="M115.05,146.85c-0.57,0-1.04-0.47-1.04-1.04v-2.07c0-1.71-1.4-3.11-3.11-3.11h-3.11v2.07h3.11
				c0.57,0,1.04,0.47,1.04,1.04v2.07c0,1.35,0.87,2.51,2.07,2.93v0.35c-1.2,0.43-2.07,1.58-2.07,2.93v2.07
				c0,0.57-0.47,1.04-1.04,1.04h-3.11v2.07h3.11c1.71,0,3.11-1.4,3.11-3.11v-2.07c0-0.57,0.47-1.04,1.04-1.04h1.04v-4.15H115.05z"/>
		</g>
	</g>
</g>
<g id="Layer_4">
	<path class="st21" d="M206.89,112.8c-0.62-0.94-1.75-1.45-2.86-1.5c-2.66-0.11-4.69,2.27-5.94,4.34c-0.37,0.62-0.7,1.27-0.98,1.94
		c-2.52-1.33-4.35-3.92-5.47-6.61c-1.04-2.5-1.76-5.2-2.22-7.87c-0.51-2.95-0.55-6.01,0.66-8.8c0.29-0.67-0.76-1.08-1.05-0.41
		c-1.19,2.77-1.26,5.81-0.82,8.75c0.42,2.83,1.18,5.69,2.23,8.35c0.97,2.46,2.36,4.84,4.45,6.52c0.56,0.45,1.17,0.82,1.82,1.13
		c-0.51,1.53-0.79,3.14-0.8,4.75c-0.02,5.9,3.62,11.33,9.01,13.7c0.66,0.29,1.07-0.76,0.41-1.05c-4.08-1.79-7.21-5.59-8.05-9.99
		c-0.45-2.32-0.27-4.74,0.47-6.99c1.16,0.4,2.4,0.59,3.62,0.53c2.27-0.11,4.57-1.28,5.59-3.38
		C207.48,115.15,207.56,113.82,206.89,112.8z M206.11,115.31c-0.65,2.02-2.82,3.05-4.81,3.17c-1.14,0.07-2.2-0.1-3.16-0.45
		c0.77-1.86,1.94-3.71,3.57-4.86c0.92-0.65,2.07-0.98,3.17-0.57C206.03,113.04,206.48,114.16,206.11,115.31z"/>
	<path class="st13" d="M226.62,183.14h-56.68c-0.02,0-0.03-0.01-0.03-0.03V161.6c0-0.02-0.01-0.03-0.03-0.03h-3.85
		c-3.48,0-6.3-2.82-6.3-6.3v-7.77c0-3.48,2.82-6.3,6.3-6.3h3.85c0.02,0,0.03-0.01,0.03-0.03v-21.49c0-0.02,0.01-0.03,0.03-0.03
		h16.88c0.02,0,0.03,0.01,0.03,0.03c0.04,8.14,6.65,14.72,14.81,14.72c8.14,0,14.75-6.58,14.79-14.72c0-0.02,0.01-0.03,0.03-0.03
		h16.89c0.02,0,0.03,0.01,0.03,0.03v56.69C233.39,180.1,230.36,183.14,226.62,183.14z"/>
	<path class="st21" d="M182.06,161.46l-0.02-0.06c-2.66-10.04,3.39-20.51,13.43-23.21c4.42-1.19,9.12-0.74,13.23,1.26l-4.21,8.65
		c-1.99-1.04-4.36-1.37-6.7-0.74c-4.94,1.33-7.87,6.41-6.55,11.36c0.02,0.07,0.04,0.15,0.06,0.22l0.01,0.03L182.06,161.46z"/>
	<path class="st22" d="M185.49,163.95l-0.02-0.06l9.27-2.46l0.01,0.03c1.43,4.79,6.42,7.6,11.29,6.3c4.94-1.33,7.87-6.41,6.54-11.35
		c-0.24-0.88-0.6-1.7-1.05-2.45l8.16-5.37c1.11,1.69,1.95,3.55,2.47,5.51c2.7,10.06-3.35,20.56-13.41,23.26
		C198.69,180.06,188.19,174.01,185.49,163.95z"/>
	<path class="st21" d="M85.69,83.55c-0.18-3.17-1.22-6.5-3.88-8.45c-0.58-0.43-1.25,0.47-0.67,0.9c2.1,1.54,3.02,4.08,3.33,6.58
		c0.35,2.79,0.02,5.7-0.74,8.39c-0.78,2.72-2.03,5.31-3.72,7.58c-1.08,1.45-2.38,2.87-3.9,3.91c0.05-0.96-0.06-1.93-0.36-2.88
		c-0.82-2.64-3.1-4.62-5.94-4.47c-2.48,0.14-4.62,2.05-4.44,4.64c0.17,2.48,2.3,4.69,4.67,5.26c1.56,0.38,3.13,0.12,4.58-0.48
		c-0.33,1.1-0.83,2.16-1.43,3.12c-2.69,4.35-6.84,7.74-11.54,9.77c0.19,0.28,0.39,0.57,0.58,0.85c0.02,0.03,0.04,0.06,0.06,0.09
		c4.76-2.08,8.98-5.55,11.73-9.94c0.88-1.4,1.57-2.94,1.89-4.54c0.86-0.5,1.66-1.1,2.36-1.73c2.39-2.16,4.23-4.97,5.49-7.92
		C85.2,90.89,85.9,87.19,85.69,83.55z M74.92,103.17c-0.48,0.25-0.99,0.46-1.52,0.6c-2.4,0.7-4.9-0.02-6.25-2.19
		c-1.23-1.97-0.62-4.46,1.73-5.17c2.54-0.77,4.84,0.88,5.71,3.23C75.02,100.79,75.09,101.99,74.92,103.17z"/>
	<path class="st13" d="M80.58,99.14l-16.92,0.05c-0.02,0-0.03-0.01-0.03-0.03v-56.4h63.48v12.62c0.02,0.02,11.41,6.59,11.41,6.59
		c3.59,2.07,4.11,6.79,1.57,9.64c-0.06,0.07-0.12,0.14-0.19,0.21c-0.39,0.41-0.86,0.77-1.38,1.07l-11.39,6.57
		c-0.02,0.02-0.02,19.67-0.02,19.67c0.02,0,0.02,0.05,0.02,0.05h-16.92C110.19,99.19,80.58,99.14,80.58,99.14z"/>
	<path class="st23" d="M190.51,42.76v56.45c0,0.02-0.02,0.03-0.03,0.03h-16.92v0.05c-0.03,9.71-9.41,17.22-19.6,13.99
		c-6.03-1.91-10-7.69-10-14.02c0-0.02-0.01-0.03-0.03-0.03h-16.87c-0.02,0-0.03-0.02-0.03-0.03V79.6c0-0.01,0.01-0.02,0.02-0.03
		l0.07-0.05L138.42,73c0.57-0.33,1.07-0.73,1.48-1.18c0.07-0.07,0.13-0.14,0.19-0.21c2.43-2.86,1.88-7.48-1.67-9.53l-11.38-6.56
		c-0.01-0.01-0.02-0.02-0.02-0.03V42.76H190.51z"/>
	<path class="st23" d="M81.19,191.36H24.51c-4.36,0-7.9-3.55-7.9-7.9v-57.82l1.16-0.03H33.6c0.33-4.66,2.68-8.98,6.44-11.75
		c4.13-3.04,9.41-3.89,14.49-2.32c6.07,1.88,10.41,7.57,10.85,14.07h16.94l0.03,1.16v22.62l-1.16,0.03h-3.84
		c-2.85,0-5.17,2.32-5.17,5.17v7.77c0,2.85,2.32,5.17,5.17,5.17h4.97l0.03,1.16v22.63L81.19,191.36z M18.86,127.86v55.6
		c0,3.11,2.53,5.65,5.65,5.65h55.58v-19.32h-2.75c-4.1,0-7.43-3.33-7.43-7.43v-7.77c0-4.1,3.33-7.43,7.43-7.43h2.75v-19.3H63.19
		l-0.03-1.16c0-5.97-3.82-11.32-9.3-13.01c-4.39-1.36-8.94-0.63-12.48,1.98c-3.48,2.57-5.56,6.68-5.56,11.01v1.13l-1.13,0.05H18.86z
		"/>
	<path class="st21" d="M66.35,145.79c0,5.27-2.43,9.97-6.23,13.05c-2.88,2.33-6.56,3.73-10.55,3.73c-3.7,0-7.13-1.2-9.91-3.24
		c-4.17-3.05-6.87-7.98-6.87-13.54c0-9.27,7.51-16.78,16.78-16.78C58.83,129,66.35,136.52,66.35,145.79z"/>
	<circle class="st13" cx="49.57" cy="142.23" r="7.53"/>
	<path class="st13" d="M60.12,158.84c-2.88,2.33-6.56,3.73-10.55,3.73c-3.7,0-7.13-1.2-9.91-3.24l4.57-5.44
		c3.06-3.65,8.68-3.65,11.74,0L60.12,158.84z"/>
	<path class="st21" d="M64.07,169.54H33.9c-0.51,0-0.93-0.41-0.93-0.93c0-0.51,0.41-0.93,0.93-0.93h30.17
		c0.51,0,0.93,0.41,0.93,0.93C65,169.13,64.58,169.54,64.07,169.54z"/>
	<path class="st21" d="M42.74,173.8H33.9c-0.51,0-0.93-0.41-0.93-0.93s0.41-0.93,0.93-0.93h8.84c0.51,0,0.93,0.41,0.93,0.93
		S43.25,173.8,42.74,173.8z"/>
	<path class="st21" d="M64.07,173.8H47.21c-0.51,0-0.93-0.41-0.93-0.93c0-0.51,0.41-0.93,0.93-0.93h16.86
		c0.51,0,0.93,0.41,0.93,0.93C65,173.39,64.58,173.8,64.07,173.8z"/>
	<path class="st21" d="M48.56,177.91H33.9c-0.51,0-0.93-0.41-0.93-0.93c0-0.51,0.41-0.93,0.93-0.93h14.66
		c0.51,0,0.93,0.41,0.93,0.93C49.48,177.5,49.07,177.91,48.56,177.91z"/>
	<path class="st22" d="M190.51,42.53v0.24H63.63v-0.3c0-3.74,3.03-6.78,6.77-6.78c8.39,0,16.78,0,25.16,0
		c22.97,0,46.17,0.09,69.23,0.06c1.53,0,3.07,0,4.6,0c4.78,0,9.56,0,14.34,0C187.48,35.75,190.51,38.78,190.51,42.53z"/>
	<g>
		<path class="st13" d="M185.04,37.34c-1,0-1.81,0.81-1.81,1.81c0,1,0.81,1.81,1.81,1.81c1,0,1.81-0.81,1.81-1.81
			C186.85,38.14,186.04,37.34,185.04,37.34z"/>
		<path class="st13" d="M179.81,37.34c-1,0-1.81,0.81-1.81,1.81c0,1,0.81,1.81,1.81,1.81c1,0,1.81-0.81,1.81-1.81
			C181.62,38.14,180.81,37.34,179.81,37.34z"/>
		<path class="st13" d="M174.58,37.34c-1,0-1.81,0.81-1.81,1.81c0,1,0.81,1.81,1.81,1.81c1,0,1.81-0.81,1.81-1.81
			C176.39,38.14,175.58,37.34,174.58,37.34z"/>
	</g>
	<path class="st23" d="M121.69,53.64v16.18c0,0.96-0.88,1.74-1.96,1.74H71.15c-1.08,0-1.96-0.78-1.96-1.74v-6.91
		c0.51-0.32,1.07-0.59,1.65-0.81c2.41-0.91,4.86-0.67,7.32-0.06c2.31,0.58,4.68,1.43,7.12,1c1.99-0.35,3.68-1.45,5.26-2.51
		c1.58-1.06,3.15-2.2,4.99-2.92c2.11-0.82,4.36-0.84,6.56-0.29c1.26,0.32,2.43,0.83,3.6,1.33c1.16,0.5,2.38,1,3.7,0.98
		c2.26-0.04,4.1-1.52,5.76-2.73c1.85-1.36,3.81-2.51,6.13-3.15C121.41,53.72,121.55,53.68,121.69,53.64z"/>
	<path class="st21" d="M121.69,48.91v4.73c-0.14,0.04-0.28,0.07-0.42,0.11c-2.32,0.64-4.27,1.79-6.13,3.15
		c-1.65,1.21-3.49,2.69-5.76,2.73c-1.32,0.03-2.54-0.48-3.7-0.98c-1.17-0.51-2.34-1.02-3.6-1.33c-2.2-0.55-4.46-0.53-6.56,0.29
		c-1.83,0.72-3.4,1.85-4.99,2.92c-1.58,1.06-3.27,2.16-5.26,2.51c-2.44,0.43-4.81-0.42-7.12-1c-2.46-0.61-4.92-0.86-7.32,0.06
		c-0.58,0.22-1.13,0.5-1.65,0.81v-14c0-0.96,0.88-1.74,1.96-1.74h48.58C120.82,47.17,121.69,47.95,121.69,48.91z"/>
	<path class="st23" d="M120.7,76.12H70.74c-0.63,0-1.14-0.51-1.14-1.14s0.51-1.14,1.14-1.14h49.95c0.63,0,1.14,0.51,1.14,1.14
		S121.32,76.12,120.7,76.12z"/>
	<path class="st23" d="M83.41,80.67H70.74c-0.63,0-1.14-0.51-1.14-1.14c0-0.63,0.51-1.14,1.14-1.14h12.67
		c0.63,0,1.14,0.51,1.14,1.14C84.55,80.16,84.04,80.67,83.41,80.67z"/>
	<path class="st23" d="M120.7,80.67H89.58c-0.63,0-1.14-0.51-1.14-1.14c0-0.63,0.51-1.14,1.14-1.14h31.11
		c0.63,0,1.14,0.51,1.14,1.14C121.83,80.16,121.32,80.67,120.7,80.67z"/>
	<path class="st21" d="M181.04,87.07h-31.03c-0.63,0-1.14-0.51-1.14-1.14c0-0.63,0.51-1.14,1.14-1.14h31.03
		c0.63,0,1.14,0.51,1.14,1.14C182.18,86.57,181.67,87.07,181.04,87.07z"/>
	<path class="st21" d="M157.26,91.63h-7.25c-0.63,0-1.14-0.51-1.14-1.14c0-0.63,0.51-1.14,1.14-1.14h7.25
		c0.63,0,1.14,0.51,1.14,1.14C158.4,91.12,157.89,91.63,157.26,91.63z"/>
	<path class="st21" d="M181.04,91.63h-19.01c-0.63,0-1.14-0.51-1.14-1.14c0-0.63,0.51-1.14,1.14-1.14h19.01
		c0.63,0,1.14,0.51,1.14,1.14C182.18,91.12,181.67,91.63,181.04,91.63z"/>
	<path class="st13" d="M179.12,81.52h-27.75c-1.92,0-3.48-1.56-3.48-3.48V50.29c0-1.92,1.56-3.48,3.48-3.48h27.75
		c1.92,0,3.48,1.56,3.48,3.48v27.75C182.6,79.96,181.04,81.52,179.12,81.52z M151.37,47.93c-1.3,0-2.35,1.06-2.35,2.35v27.75
		c0,1.3,1.06,2.35,2.35,2.35h27.75c1.3,0,2.35-1.06,2.35-2.35V50.29c0-1.3-1.06-2.35-2.35-2.35H151.37z"/>
	<path class="st13" d="M182.03,57.25v1.12c-0.72,0.11-1.44,0.25-2.15,0.44c-3.28,0.86-6.11,2.52-8.73,4.64
		c-2.6,2.11-5.17,4.47-8.44,5.48c-1.53,0.47-3.07,0.57-4.65,0.36c-1.68-0.23-3.32-0.61-5.03-0.3c-1.73,0.32-3.33,1.17-4.59,2.39
		v-1.49c1.28-1.01,2.79-1.72,4.42-2.02c1.67-0.3,3.28-0.01,4.93,0.24c1.87,0.28,3.62,0.16,5.38-0.54c3.43-1.37,5.98-4.13,8.91-6.26
		C175.04,59.14,178.47,57.77,182.03,57.25z"/>
	<path class="st13" d="M158.62,64.58c-3.49,0-6.33-2.84-6.33-6.33c0-3.49,2.84-6.33,6.33-6.33c3.49,0,6.33,2.84,6.33,6.33
		C164.95,61.74,162.11,64.58,158.62,64.58z M158.62,53.05c-2.87,0-5.2,2.33-5.2,5.2c0,2.87,2.33,5.2,5.2,5.2
		c2.87,0,5.2-2.33,5.2-5.2C163.82,55.39,161.49,53.05,158.62,53.05z"/>
	<path class="st24" d="M146.93,143.48c-0.17,17.56-10.8,52.38-28.36,52.21c-14.5-0.14-30.37-30.69-34.06-44
		c4.73-11.9,10.27-15,23.98-14.12c0.13,0.01,0.27,0.02,0.4,0.03c0.41,2.34,2.3,8.16,11.07,8.24c6.9,0.07,10.07-4.72,11.18-7.01
		c7.14,0.33,12.04,0.82,15.77,2.99C146.93,142.37,146.94,142.92,146.93,143.48z"/>
	<path class="st24" d="M135.56,116.87c-0.61,0.28-1.25,0.46-1.9,0.55c1.12-0.15,1.16,5.71-0.41,9.64c-2.16,5.42-6.22,8.34-12.49,8.1
		c-2.1-0.08-4.3-0.76-5.92-2.13c-1.33-1.13-2.23-2.74-2.28-4.46c-1.62-1.79-2.86-3.86-3.99-5.99c-0.27,0.1-0.66-0.01-0.76-0.29
		c-0.63-1.81-0.63-3.76,0-5.57c-0.3-0.31-0.54-0.69-0.7-1.08c-0.52-1.29-0.26-2.76,0.8-3.74c0.58-0.54,1.36-0.87,2.16-0.95
		c-0.02-1.92,1.38-3.79,3.32-4.29c1.42-0.36,2.87,0.1,3.91,1.01c0.68-1.58,2.67-2.45,4.4-2.09c1.98,0.41,3.31,1.83,4.23,3.47
		c2.78,1.18,5.18,3.25,6.64,5.84c0.02-0.02,0.03-0.04,0.05-0.06c0.19-0.23,0.39-0.46,0.66-0.6c0.36-0.2,0.82-0.18,1.12,0.13
		c0.33,0.35,0.3,0.8,0.15,1.22c0.37,0.03,0.75,0.13,1.07,0.32C135.99,116.1,135.93,116.7,135.56,116.87z"/>
	<path class="st25" d="M128.86,138.73c-1.12,1.78-3.94,5.05-9.5,5.07c-5.76,0.03-7.59-4.05-8.15-6.06c0.03,0,0.07,0,0.1,0.01
		c2.12,0.14,3.81,0.24,5.21,0.33l0.02-1.94l0.01-1.14l0.03-3.62l7.42-0.32l-0.11,7.46c1.06,0.05,2.26,0.09,4.5,0.18
		c0.08,0,0.16,0.01,0.23,0.01C128.7,138.73,128.78,138.73,128.86,138.73z"/>
	<path class="st16" d="M113.28,123.3c0.44,1.96-0.79,3.9-2.75,4.34c-1.96,0.44-3.9-0.79-4.34-2.75c-0.44-1.96,0.79-3.9,2.75-4.34
		C110.89,120.11,112.84,121.34,113.28,123.3z"/>
	<path class="st25" d="M130.71,127.64c0.4,1.8-0.73,3.59-2.53,4c-1.8,0.4-3.59-0.73-4-2.53c-0.4-1.8,0.73-3.59,2.53-4
		C128.52,124.7,130.31,125.84,130.71,127.64z"/>
	<path class="st25" d="M126.57,123.66c1.13,5.05-2.04,10.06-7.09,11.19c-5.05,1.13-10.06-2.04-11.19-7.09
		c-1.13-5.05,2.04-10.06,7.09-11.19C120.43,115.43,125.44,118.61,126.57,123.66z"/>
	<path class="st25" d="M127.99,117.25c1.13,5.05-2.88,12.24-7.93,13.37c-5.05,1.13-10.06-2.04-11.19-7.09
		c-1.13-5.05,2.04-10.06,7.09-11.19C121.01,111.2,126.86,112.2,127.99,117.25z"/>
	<path class="st16" d="M129.03,127.12c-1.09,0.07-2.17,0.22-3.24,0.47c-0.29,0.07-0.52,0.37-0.44,0.67
		c0.08,0.29,0.36,0.51,0.67,0.44c0.5-0.12,1-0.21,1.5-0.29c0.25-0.04,0.5-0.07,0.74-0.1c0.12-0.01,0.24-0.03,0.36-0.04
		c0.06-0.01,0.12-0.01,0.18-0.02c0.04,0,0.06,0,0.06,0c0.03,0,0.06,0,0.09-0.01c0.3-0.02,0.6-0.2,0.6-0.53
		C129.57,127.44,129.35,127.1,129.03,127.12z"/>
	<path class="st24" d="M129.61,122.89c-0.42,2.13-0.89,2.63-3.02,4.81c-0.4,0.41-1.05,0.73-0.9,0.18c1.06-3.88,2.86-6.79,1.28-11.13
		c-4.16-0.15-11.24-1.61-15.08-3.25c-0.5-0.21-0.61-0.56-0.25-0.76c0.14-1.1,1-0.73,1.96-1.23c1.27-0.66,2.82-0.78,4.22-0.96
		c2.41-0.31,4.94-0.4,7.25,0.51c2.09,0.82,3.74,2.41,4.43,4.57C130.23,117.89,130.06,120.59,129.61,122.89z"/>
	<path class="st24" d="M113.47,121.57c0.09-0.58,0.64-0.97,1.21-0.87c0.58,0.09,0.97,0.64,0.87,1.21s-0.64,0.97-1.21,0.87
		C113.76,122.69,113.37,122.15,113.47,121.57z"/>
	<path class="st24" d="M121.68,123.51c0.09-0.58,0.64-0.97,1.21-0.87c0.58,0.09,0.97,0.64,0.87,1.21c-0.09,0.58-0.64,0.97-1.21,0.87
		C121.98,124.63,121.59,124.09,121.68,123.51z"/>
	<path class="st16" d="M116.94,119.22c-0.16-0.26-0.57-0.28-0.8-0.11c-0.26,0.2-0.27,0.53-0.11,0.8c0.66,1.06,0.53,2.54-0.24,3.51
		c-0.45,0.58-1.19,0.92-1.45,1.64c-0.24,0.66-0.02,1.55,0.7,1.8c0.69,0.24,1.14-0.81,0.45-1.04c-0.11-0.04-0.14-0.15-0.11-0.31
		c0.07-0.3,0.42-0.54,0.64-0.72c0.53-0.45,0.96-0.98,1.22-1.63C117.79,121.86,117.67,120.4,116.94,119.22z"/>
	<path class="st16" d="M120.81,127.97c-0.12-0.27-0.48-0.42-0.75-0.28c-1.13,0.57-2.39,0.87-3.63,0.83
		c-0.31-0.01-0.59,0.19-0.62,0.51c-0.03,0.29,0.2,0.61,0.51,0.62c1.46,0.05,2.91-0.26,4.22-0.92
		C120.8,128.58,120.94,128.26,120.81,127.97z"/>
	<path class="st24" d="M122.87,118.4c-0.56-0.19-1.16-0.25-1.74-0.13c-0.4,0.08-0.77,0.29-0.94,0.68c-0.14,0.35-0.08,0.73,0.16,1.01
		c0.24,0.6,1.37,0.69,1.9,0.79c0.85,0.16,1.68,0.38,2.52,0.6c0.41,0.11,0.78-0.41,0.61-0.77
		C124.9,119.61,123.95,118.77,122.87,118.4z"/>
	<path class="st24" d="M117.15,119.18c-0.17,0.42-0.56,0.76-1.03,0.68c-0.42-0.06-0.67-0.42-0.96-0.66
		c-0.28-0.24-0.58-0.45-0.9-0.62c-0.56-0.32-1.26-0.55-1.88-0.63c-0.3-0.04-0.55-0.28-0.53-0.6c0-0.05,0.01-0.09,0.03-0.13
		c0-0.26,0.2-0.47,0.45-0.55c0.94-0.3,1.95-0.31,2.91-0.09c0.76,0.18,1.55,0.62,1.85,1.38C117.24,118.34,117.3,118.79,117.15,119.18
		z"/>
	<path class="st13" d="M131.13,138.83c-1.12,2.3-4.28,7.08-11.18,7.01c-8.76-0.08-10.66-5.9-11.07-8.24
		c0.43,0.03,0.83,0.05,1.23,0.08c0.38,0.02,0.75,0.05,1.1,0.07c0.56,2.01,2.39,6.09,8.15,6.06c5.56-0.03,8.37-3.29,9.5-5.07
		c0.36,0.01,0.72,0.03,1.06,0.04C130.34,138.8,130.74,138.81,131.13,138.83z"/>
	<path class="st24" d="M144.54,180.07c-7.41-13.54-0.17-15.59-1.04-20.06c-0.75-3.83-7.21-11.4-1.74-19.79
		c5.46-8.39,16.68-10.54,24.42-6.09c7.74,4.46,7.38,15.64,9.72,20.49c2.35,4.85,23.75,5.9,26.83,15.75
		c3.08,9.86-6.75,21.22-28.05,21.56S151.95,193.61,144.54,180.07z"/>
	<path class="st26" d="M202.78,214.19l-12.62-0.03l-1.23,0l-43.26-0.1l-1.16,0L124.81,214c-4.14-0.01-7.08-4.27-5.83-8.45
		c2.32-7.82,5.92-19.47,8.76-27.89c2.34-6.9,8.82-11.51,16.07-11.44l37.86,0.36c6.68,0.06,12.68,4.09,15.3,10.25l11.47,28.27
		C210.18,209.41,207.2,214.2,202.78,214.19z"/>
	<path class="st27" d="M181.25,192.79c-0.31,0.23-0.63,0.47-0.94,0.68c-0.39,0.27-0.77,0.51-1.17,0.71
		c-1.14,0.57-2.41,0.78-3.64,0.37c-1.01-0.34-1.85-1.01-2.64-1.7c-1.31-1.16-2.86-3.03-4.83-2.59c-0.97,0.22-1.76,0.92-2.49,1.56
		c-0.8,0.7-1.59,1.45-2.56,1.91c-0.94,0.44-1.99,0.53-2.99,0.21c-0.92-0.29-1.73-0.88-2.46-1.5c-0.77-0.65-1.5-1.35-2.31-1.95
		c-0.7-0.51-1.49-0.93-2.37-0.93c-1.84,0.01-3.13,1.91-4.26,3.11c-0.63,0.67-1.31,1.34-2.15,1.74c-0.9,0.43-1.96,0.49-2.89,0.1
		c-1.06-0.45-1.85-1.32-2.64-2.13c-0.72-0.74-1.52-1.54-2.59-1.71c-1.92-0.3-4.11,1.11-4.3,3.11c-0.07,0.73-1.2,0.66-1.13-0.07
		c0.05-0.56,0.21-1.09,0.48-1.6c1.03-1.97,3.58-3.09,5.71-2.43c1.14,0.36,2.01,1.25,2.82,2.08c0.71,0.74,1.49,1.64,2.56,1.84
		c1.84,0.36,3.23-1.62,4.34-2.83c0.66-0.72,1.38-1.42,2.25-1.88c0.9-0.47,1.92-0.58,2.9-0.32c1.96,0.53,3.31,2.29,4.88,3.45
		c0.72,0.53,1.53,0.98,2.45,0.97c1-0.01,1.86-0.62,2.6-1.24c0.85-0.71,1.63-1.5,2.59-2.07c0.95-0.56,2.03-0.77,3.12-0.51
		c2.07,0.5,3.38,2.47,5.05,3.64c0.87,0.61,1.84,0.97,2.91,0.73c0.85-0.18,1.61-0.63,2.33-1.14c0.32-0.22,0.63-0.46,0.94-0.69
		C180.95,192.08,181.1,192.44,181.25,192.79z"/>
	<path class="st24" d="M145.68,214.05l-1.16,0c-0.65-3.06-1.3-6.12-1.94-9.18c-0.02-0.08-0.02-0.16,0-0.22
		c-1.78-0.75-3.4-1.85-4.76-3.22c-2.85-2.86-4.47-6.82-4.28-10.87c0.19-3.99,2.03-7.88,5.05-10.5c-0.36-0.79-0.73-1.58-1.09-2.37
		c-0.31-0.66,0.71-1.18,1.01-0.51c0.43,0.93,0.85,1.85,1.28,2.78c0.1,0.23,0.07,0.52-0.13,0.68c-1.67,1.36-2.99,3.13-3.84,5.11
		c-1.51,3.5-1.56,7.5,0.06,10.97c1.57,3.34,4.47,6.02,7.97,7.21c0.59,0.2,0.41,1-0.08,1.09L145.68,214.05z"/>
	<path class="st28" d="M137.4,208.63c-0.3,0.82-0.72,1.6-1.31,2.34c-2.57,3.22-6.03,3.23-9.76,3.24
		c-5.48,0.02-10.95,0.03-16.43,0.04c-0.38,0-0.76,0-1.13,0c-11.7,0.02-23.39,0.04-35.09,0.04c-3.56,0-7.12,0-10.68-0.01
		c-3.39,0-6.82,0.15-10.19-0.15c-3.43-0.31-7.17-1.26-9.51-3.96c-2.86-3.29-2.66-6.85-1.03-10.59c2.65-6.11,5.02-12.44,8.39-18.22
		c1.79-3.06,3.97-5.84,6.77-7.87c0.28-0.2,0.56-0.39,0.85-0.58c0.19-0.12,0.39-0.24,0.59-0.36c0.86-0.51,1.77-0.94,2.73-1.3
		c1.58-0.59,3.24-0.97,4.91-1.2c7.41-1.03,18.94-2.65,28.88-2.41c7.37,0.18,13.86,1.38,17.12,4.61c1.96,1.95,4.11,5.25,6.2,9.13
		c1.52-0.76,3.15-1.29,4.84-1.47c2.98-0.33,6.28,0.34,8.43,2.57c1.09,1.13,1.72,2.6,2.12,4.1c0.44,1.63,0.68,3.32,0.96,4.99
		C135.92,196.67,139.31,203.38,137.4,208.63z"/>
	<path class="st28" d="M95.56,168.86c-0.21,1.78-1.1,3.26-2.58,4.2c-0.78,0.49-1.65,0.81-2.5,1.13c-0.93,0.35-1.87,0.68-2.82,0.98
		c-8.8,2.84-28.92,8.48-33.38-2.02c-0.12-0.28-0.23-0.56-0.32-0.86c-0.05-0.16-0.1-0.34-0.15-0.51c-1.39-5.28,1.8-11.79,6.17-14.75
		c5.41-3.66,16.3-3.68,22.48-1.85c3.06,0.91,5.98,2.46,8.41,4.6c1.9,1.67,3.83,3.85,4.5,6.4C95.6,167.04,95.68,167.93,95.56,168.86z
		"/>
	<path class="st24" d="M94.13,149.04c0.25,1.02-0.1,2.11-0.72,2.93c-1.21,1.61-3.22,2.27-4.9,3.25c-1.69,0.98-3.26,2.15-4.7,3.47
		c-1.39,1.28-2.58,2.71-3.72,4.21c-0.83,1.09-1.79,2.19-3.08,2.61c0.04,0.14,0.02,0.3-0.08,0.44c-0.16,0.24-0.55,0.35-0.79,0.16
		c-0.84-0.71-1.83-1.56-3.01-1.47c-0.64,0.05-1.26,0.29-1.9,0.37c-0.63,0.07-1.26,0.07-1.88-0.04c-1.15-0.2-2.43-0.68-3.2-1.61
		c-0.47-0.56-0.68-1.3-0.55-1.98c-1.47-0.1-2.89-1-3.49-2.38c-0.43-1.01-0.4-2.18,0.02-3.18c-1.36-0.57-2.44-1.81-2.64-3.3
		c-0.24-1.71,0.64-3.47,2.12-4.33c-0.61-1.91-0.32-4.09,0.9-5.71c1.16-1.54,3.02-2.48,4.93-2.52c0.05-1.67,0.99-3.27,2.53-4.02
		c1.46-0.7,3.21-0.51,4.53,0.37c0.28-0.73,0.7-1.41,1.22-2c1.26-1.43,3.08-2.27,5-2.22c1.78,0.05,3.53,0.85,4.73,2.17
		c0.77-0.39,1.65-0.56,2.52-0.52c1.8,0.09,3.51,1.14,4.25,2.82c0.63,1.43,0.58,3.15-0.16,4.52c1.21,0.52,2.16,1.68,2.33,2.99
		c0.17,1.27-0.32,2.53-1.23,3.38C93.63,147.85,93.98,148.42,94.13,149.04z"/>
	
		<ellipse transform="matrix(0.9981 -0.0614 0.0614 0.9981 -9.4338 5.4236)" class="st29" cx="83.53" cy="156.21" rx="10.67" ry="10.67"/>
	
		<ellipse transform="matrix(0.0648 -0.9979 0.9979 0.0648 -91.8031 221.7354)" class="st29" cx="72.4" cy="159.85" rx="4.17" ry="4.17"/>
	
		<ellipse transform="matrix(9.497256e-03 -1 1 9.497256e-03 -72.0349 231.1296)" class="st29" cx="80.65" cy="151.93" rx="10.67" ry="11.26"/>
	<polygon class="st29" points="86.43,160.32 85.07,166.61 84.83,167.74 83.5,173.9 74.71,173.72 76.86,161.12 	"/>
	<path class="st28" d="M86.24,177.28c-0.85,0.41-1.81,0.63-2.72,0.85c-1.03,0.25-2.07,0.43-3.12,0.56
		c-2.15,0.26-4.33,0.28-6.49,0.05c-1.2-0.13-2.46-0.33-3.56-0.85c-1.43-0.28-2.81-0.86-3.94-1.78c-1.4-1.14-2.45-2.77-2.72-4.57
		c-0.25-1.67,0.19-3.43,1.27-4.75c3.98-4.85,13.83-0.62,17.94,2.1C85.05,170.32,90.51,175.21,86.24,177.28z"/>
	<path class="st13" d="M89.4,173.54c-4.33-4.65-10.18-7.74-16.43-8.83c-1.76-0.3-3.54-0.44-5.32-0.4c-0.73,0.02-0.8,1.15-0.07,1.13
		c6.1-0.13,12.16,1.81,17.09,5.4c1.4,1.02,2.7,2.17,3.88,3.44C89.05,174.83,89.9,174.08,89.4,173.54z"/>
	<path class="st13" d="M96.26,167.58c-0.02-0.31-0.2-0.58-0.53-0.6c-0.28-0.02-0.62,0.22-0.6,0.53c0.12,2.28-1.02,4.55-2.99,5.73
		c-0.62,0.37-0.12,1.39,0.51,1.01C94.94,172.88,96.4,170.27,96.26,167.58z"/>
	<path class="st24" d="M91.56,152.14c-0.01,0.67-0.55,1.2-1.22,1.19c-0.67-0.01-1.2-0.55-1.19-1.22c0.01-0.67,0.55-1.2,1.22-1.19
		C91.03,150.93,91.57,151.48,91.56,152.14z"/>
	<path class="st30" d="M90.73,154.23c-0.35-0.55-0.93-0.79-1.47-1.11c-1.11-0.66-0.88-2.03-0.69-3.11c0.05-0.3-0.25-0.58-0.53-0.6
		c-0.33-0.02-0.55,0.23-0.6,0.53c-0.21,1.2-0.33,2.5,0.47,3.52c0.36,0.45,0.87,0.67,1.35,0.95c0.27,0.16,0.78,0.5,0.49,0.84
		c-0.2,0.24-0.08,0.63,0.16,0.79c0.28,0.19,0.59,0.08,0.79-0.16C91.09,155.42,91.05,154.72,90.73,154.23z"/>
	<path class="st30" d="M88.45,158.05c-0.07-0.29-0.36-0.52-0.67-0.44c-0.14,0.03-0.28,0.06-0.42,0.08
		c-0.06,0.01-0.12,0.01-0.18,0.02c-0.02,0-0.13,0.01-0.15,0.01c-0.14,0-0.28,0-0.42-0.02c-0.07-0.01-0.14-0.02-0.21-0.03
		c-0.03,0-0.06-0.01-0.09-0.02c-0.27-0.06-0.52-0.14-0.77-0.25c-0.02-0.01-0.05-0.02-0.07-0.03c-0.01,0-0.02-0.01-0.03-0.02
		c-0.06-0.03-0.12-0.07-0.18-0.1c-0.12-0.07-0.24-0.15-0.35-0.24c-0.24-0.18-0.64-0.09-0.79,0.16c-0.17,0.28-0.1,0.59,0.16,0.79
		c1.04,0.8,2.47,1.09,3.74,0.76C88.3,158.65,88.53,158.35,88.45,158.05z"/>
	<path class="st30" d="M85.07,166.61l-0.24,1.13c-1.44-0.03-2.85-0.4-4.14-1.08c-0.27-0.14-0.31-0.56-0.16-0.79
		c0.18-0.28,0.52-0.3,0.79-0.16C82.47,166.32,83.77,166.62,85.07,166.61z"/>
	<path class="st30" d="M74.48,160.17c-0.08-0.31-0.36-0.49-0.67-0.44c-1.01,0.16-2.03,0.32-3.04,0.48
		c-0.29,0.05-0.51,0.39-0.44,0.67c0.08,0.31,0.36,0.49,0.67,0.44c1.01-0.16,2.03-0.32,3.04-0.48
		C74.34,160.8,74.55,160.46,74.48,160.17z"/>
	<path class="st16" d="M122.69,134.79c-1.89,0.99-4.02,1.46-6.15,1.36l0.01-1.14c1.94,0.1,3.88-0.32,5.63-1.24
		C122.82,133.43,123.33,134.45,122.69,134.79z"/>
	<path class="st25" d="M161.7,150.63c-0.02,4.71-3.85,8.51-8.56,8.49c-4.71-0.02-8.51-3.85-8.49-8.56c0.02-4.71,3.85-8.51,8.56-8.49
		C157.92,142.09,161.72,145.92,161.7,150.63z"/>
	<path class="st25" d="M167.9,151.31c-0.01,1.96-1.6,3.54-3.56,3.54c-1.96-0.01-3.54-1.6-3.54-3.56c0.01-1.96,1.6-3.54,3.56-3.54
		C166.33,147.76,167.91,149.35,167.9,151.31z"/>
	<path class="st25" d="M163.86,147.94c-0.86,4.63-5.74,7.6-10.91,6.65c-5.17-0.96-8.66-5.49-7.8-10.11
		c0.86-4.63,5.74-7.6,10.91-6.65C161.22,138.78,164.71,143.31,163.86,147.94z"/>
	<path class="st24" d="M149.45,147.47c-0.03-0.04-0.05-0.08-0.08-0.12c-0.07-0.07-0.15-0.13-0.24-0.16
		c-0.59-0.28-1.28-0.34-1.92-0.21c-0.29,0.06-0.51,0.38-0.43,0.68c0.08,0.3,0.36,0.5,0.68,0.43c0.08-0.02,0.17-0.03,0.26-0.04
		c0.18-0.01,0.35,0,0.52,0.03c0.19,0.04,0.37,0.1,0.54,0.18c0.12,0.06,0.32,0.03,0.44-0.03c0.12-0.06,0.24-0.19,0.28-0.32
		C149.52,147.76,149.52,147.6,149.45,147.47z"/>
	<path class="st25" d="M163.83,163.15l-7.55,0.37c0,0-0.37-1.94-0.75-3.88c-0.08-0.41-0.16-0.81-0.24-1.2
		c-0.26-1.28-0.49-2.37-0.57-2.61l6.8-3.69L163.83,163.15z"/>
	<path class="st26" d="M168.61,167.25l-15.24-0.06l-0.59-3.42c-0.3-1.77,0.88-3.2,2.65-3.2l8.84,0.04c1.77,0.01,3.45,1.45,3.75,3.22
		L168.61,167.25z"/>
	<path class="st16" d="M150.47,146.2c-0.02-0.1-0.07-0.18-0.13-0.25c-0.07-0.55-0.25-1.1-0.52-1.58c-0.15-0.26-0.49-0.4-0.76-0.25
		c-0.26,0.15-0.4,0.49-0.25,0.76c0.1,0.17,0.18,0.35,0.25,0.53c0.02,0.06,0.03,0.11,0.05,0.16c0.03,0.09,0.05,0.18,0.07,0.27
		c0.02,0.09,0.03,0.18,0.05,0.27c0.01,0.05,0.01,0.1,0.02,0.15c0.01,0.2,0.01,0.4-0.01,0.59c-0.01,0.11,0.02,0.21,0.07,0.31
		c0,0.01,0,0.02,0,0.03c0,0.01-0.01,0.05-0.01,0.08c-0.02,0.09-0.05,0.19-0.08,0.28c-0.13,0.38-0.32,0.66-0.63,0.94
		c-0.39,0.34-0.76,0.69-0.83,1.23c-0.07,0.54,0.2,1.04,0.7,1.25c0.3,0.12,0.69-0.08,0.77-0.38c0.08-0.29-0.03-0.56-0.27-0.71
		c0.01-0.01,0.02-0.04,0.03-0.06c0.02-0.02,0.04-0.06,0.05-0.07c0.01-0.01,0.01-0.02,0.02-0.02c0.31-0.31,0.65-0.57,0.9-0.93
		C150.46,148.03,150.65,147.08,150.47,146.2z"/>
	<path class="st16" d="M165.38,150.44c-0.08-0.3-0.4-0.56-0.73-0.47c-0.42,0.12-0.85,0.19-1.28,0.24c-0.02,0-0.05,0-0.07,0
		c-0.05,0-0.1,0-0.15,0.01c-0.11,0-0.22,0-0.32,0c-0.22,0-0.45-0.02-0.67-0.04c-0.32-0.03-0.64,0.26-0.64,0.58
		c0,0.35,0.24,0.61,0.58,0.64c0.94,0.1,1.91,0.02,2.82-0.23C165.22,151.08,165.47,150.77,165.38,150.44z"/>
	<path class="st24" d="M142.64,144.2c0.25-0.63,1-1.06,1.62-1.25c0.61-0.19,1.28-0.21,1.9-0.07c0.76,0.17,1.4,0.57,1.9,1.16
		c0.75,0.88-0.37,0.61-0.84,0.69c-0.96,0.15-3.57,1.43-4.34,0.73C142.52,145.14,142.47,144.62,142.64,144.2z"/>
	<path class="st24" d="M156.98,142.87c-0.09-0.35-0.38-0.5-0.73-0.47c-0.13,0.01-0.26,0.03-0.38,0.04c0.06-0.09,0.09-0.18,0.09-0.29
		c0-0.33-0.23-0.62-0.58-0.64c-0.7-0.04-1.39,0.08-2.05,0.34c-0.63,0.25-1.61,0.84-1.16,1.66c0.23,0.42,0.68,0.48,1.12,0.43
		c0.36-0.04,0.71-0.08,1.07-0.12c0.71-0.08,1.43-0.16,2.14-0.23C156.83,143.56,157.06,143.17,156.98,142.87z"/>
	<path class="st24" d="M156.52,145.46c-0.07-0.28-0.37-0.53-0.68-0.43l-2.05,0.63c-0.14,0.04-0.27,0.11-0.35,0.24
		c-0.08,0.12-0.12,0.29-0.08,0.43c0.07,0.28,0.37,0.53,0.68,0.43c0.68-0.21,1.37-0.42,2.05-0.63c0.14-0.04,0.27-0.11,0.35-0.24
		C156.51,145.78,156.55,145.6,156.52,145.46z"/>
	<path class="st13" d="M149.49,152.58c0,0-0.21-0.31,1.84-0.96c2.05-0.65,4.35-0.88,4.35-0.88s-0.01,1.06-2.85,2.34
		C150.83,153.97,149.49,152.58,149.49,152.58z"/>
	<path class="st24" d="M167.32,149.47c-0.04,0.31-0.28,0.54-0.6,0.53c-1.64-0.03-3.27-0.31-4.83-0.81
		c-5.57-1.76-10.21-6.18-12.05-11.74c-0.09-0.27,0.12-0.56,0.36-0.65c1.28-1.37,3.05-2.23,4.9-2.5c3.6-0.53,7.07,1.14,9.32,3.91
		C166.97,141.36,167.74,145.53,167.32,149.47z"/>
	<path class="st24" d="M83.12,151.81c-0.01,0.67-0.55,1.2-1.22,1.19c-0.67-0.01-1.2-0.55-1.19-1.22c0.01-0.67,0.55-1.2,1.22-1.19
		C82.6,150.6,83.13,151.14,83.12,151.81z"/>
	<path class="st24" d="M89.6,143.18c-0.08,0.22-0.24,0.33-0.41,0.36c-0.38,0.5-0.99,0.83-1.62,0.95c-1.03,0.2-2.06-0.26-2.97-0.7
		c-0.44,0.69-1.09,1.24-1.87,1.52c-0.95,0.34-2.01,0.26-2.91-0.16c-0.28,1.04-0.98,1.97-1.91,2.51c-0.78,0.44-1.69,0.61-2.57,0.5
		c0.28,1.26,0.01,2.64-0.74,3.7c0.96,0.48,1.65,1.49,1.59,2.61c-0.08,1.45-1.26,2.42-2.65,2.57c-1.63,0.18-3.1-0.98-4.64-1.38
		c-0.31-0.08-0.43-0.44-0.35-0.72c0.02-0.06,0.05-0.12,0.09-0.16c-0.81-1-1.3-2.22-1.38-3.5c-0.11-1.53,0.41-3.01,0.99-4.4
		c0.51-1.23,1.03-2.49,1.74-3.62c0.64-1.01,1.47-1.88,2.44-2.57c1.91-1.35,4.16-2.05,6.4-2.62c2.5-0.64,5.25-1.38,7.76-0.41
		c1.1,0.42,2.05,1.15,2.65,2.17C89.82,140.84,89.99,142.07,89.6,143.18z"/>
	<path class="st24" d="M83.64,147.98c-0.24-0.35-0.65-0.56-1.03-0.74c-0.73-0.33-1.59-0.4-2.36-0.2c-0.87,0.23-1.62,0.76-2.13,1.49
		c-0.09,0.13-0.12,0.26-0.1,0.39c-0.13,0.19-0.16,0.44-0.01,0.65c0.18,0.25,0.45,0.29,0.72,0.19c0.75-0.27,1.57-0.43,2.37-0.45
		c0.42-0.01,0.83,0.01,1.25,0.06c0.39,0.05,0.82,0.09,1.15-0.17C83.88,148.9,83.91,148.38,83.64,147.98z"/>
	<path class="st24" d="M92.4,148.81c-0.67-0.86-1.58-1.79-2.77-1.74c-0.15,0.01-0.29,0.03-0.43,0.07c-0.07,0.01-0.14,0.02-0.21,0.05
		c-0.85,0.32-1.35,1.35-1.12,2.22c0.1,0.37,0.46,0.54,0.81,0.39c0.07-0.03,0.15-0.06,0.22-0.09c0.03-0.01,0.04-0.02,0.05-0.02
		c0,0,0.01,0,0.04-0.01c0.14-0.04,0.27-0.08,0.41-0.11c0.14-0.03,0.28-0.06,0.42-0.07c0.07-0.01,0.15-0.02,0.22-0.02
		c0.02,0,0.12,0,0.14,0c0.61-0.01,1.05,0.06,1.6,0.27c0.23,0.08,0.53-0.01,0.66-0.22C92.58,149.28,92.56,149.02,92.4,148.81z"/>
	<path class="st13" d="M80.93,178.09c-6.21-3.11-13.23-4.53-20.16-4.03c-1.95,0.14-3.89,0.42-5.8,0.85
		c-0.71,0.16-0.48,1.27,0.24,1.11c6.54-1.48,13.44-1.17,19.83,0.88c1.81,0.58,3.58,1.29,5.27,2.14c0.27,0.14,0.6,0.12,0.79-0.16
		C81.24,178.65,81.2,178.23,80.93,178.09z"/>
	<path class="st29" d="M139.91,167c-1.26,2.69-3.44,4.81-6.11,6.89c-0.09,0.41-0.18,0.82-0.27,1.24c-0.43,1.96-0.8,3.95-1.31,5.88
		c-0.22,0.83-0.55,1.64-1.16,2.26c-0.58,0.6-1.35,0.95-2.14,1.2c-0.87,0.28-1.77,0.48-2.66,0.67c-0.99,0.21-1.99,0.37-3.01,0.37
		c-1.72,0.01-3.43-0.5-4.7-1.69c-0.28-0.26-0.18-0.59,0.06-0.78c0-0.02-0.01-0.04-0.01-0.06l0.06-5.96
		c-0.61-1.51-0.52-3.28,0.09-4.82c0.76-1.93,2.15-3.44,3.66-4.82c-0.22-1.42-0.44-2.84-0.67-4.26c-0.16-1-0.31-2-0.47-3
		c-0.12-0.78-0.27-1.58-0.1-2.37c0.16-0.73,0.65-1.35,1.39-1.55c0.74-0.21,1.59,0.03,2.18,0.51c0.66,0.55,1.05,1.33,1.37,2.12
		c0.2,0.49,0.38,0.99,0.56,1.49c-0.05-0.32-0.1-0.65-0.15-0.97c-0.17-1.11-0.36-2.22-0.49-3.34c-0.12-1.01-0.11-2.09,0.54-2.93
		c0.56-0.73,1.45-1.07,2.35-0.8c0.44,0.13,0.81,0.39,1.12,0.72c0.2-0.63,0.71-1.16,1.4-1.36c1.27-0.36,2.52,0.47,3.19,1.5
		c0.38,0.57,0.61,1.22,0.82,1.87c0.21,0.64,0.41,1.28,0.59,1.93l0.07-1.72c0.03-0.65,0.01-1.33,0.11-1.97
		c0.16-0.99,0.82-1.81,1.9-1.74c1.03,0.07,1.78,0.83,2.12,1.77c0.38,1.06,0.42,2.26,0.53,3.37c0.13,1.25,0.23,2.5,0.3,3.75
		C141.22,162.99,140.79,165.13,139.91,167z"/>
	<path class="st30" d="M134.48,165.83c-0.52-1.99-1.04-3.98-1.56-5.97c-0.26-0.99-0.52-1.99-0.78-2.98
		c-0.22-0.86-0.43-1.74-0.79-2.55c-0.64-1.45-2.06-2.75-3.76-2.44c-0.83,0.15-1.47,0.75-1.83,1.49c-0.39,0.81-0.4,1.72-0.29,2.6
		c0.12,0.96,0.32,1.91,0.51,2.85c-0.31-0.65-0.64-1.3-1.1-1.85c-0.96-1.14-2.98-1.67-3.93-0.2c-0.84,1.29-0.2,3.14,0.1,4.5
		c0.46,2.11,0.98,4.2,1.56,6.27c0.2,0.7,1.31,0.47,1.11-0.24c-0.46-1.63-0.88-3.28-1.26-4.93c-0.19-0.83-0.37-1.66-0.55-2.49
		c-0.13-0.62-0.29-1.26-0.21-1.9c0.06-0.49,0.32-0.94,0.86-0.99c0.61-0.06,1.13,0.32,1.5,0.77c0.46,0.56,0.76,1.26,1.07,1.91
		c0.35,0.72,0.68,1.46,1,2.19c0.75,1.72,1.42,3.47,2.01,5.24c0.1,0.29,0.35,0.51,0.67,0.44c0.27-0.06,0.54-0.38,0.44-0.67
		c-0.44-1.33-0.93-2.65-1.45-3.95c0.09-0.11,0.14-0.27,0.1-0.46c-0.39-1.77-0.76-3.55-1.08-5.33c-0.16-0.85-0.38-1.76-0.24-2.63
		c0.1-0.6,0.42-1.25,1.03-1.47c0.57-0.2,1.21,0.02,1.68,0.36c0.57,0.41,0.91,1.06,1.16,1.7c0.29,0.74,0.45,1.52,0.65,2.28
		c0.24,0.9,0.47,1.81,0.71,2.71c0.52,1.99,1.04,3.98,1.56,5.97C133.56,166.77,134.67,166.54,134.48,165.83z"/>
	<path class="st30" d="M138.33,165.08c-0.52-2.81-1.04-5.63-1.79-8.39c-0.6-2.2-1.38-5.43-4.14-5.69c-1.28-0.12-2.49,0.76-2.69,2.03
		c-0.05,0.3,0.25,0.58,0.53,0.6c0.33,0.02,0.55-0.23,0.6-0.53c0.13-0.8,1.13-1.11,1.81-0.9c0.98,0.3,1.57,1.19,1.94,2.08
		c0.45,1.06,0.72,2.2,1.01,3.31c0.31,1.2,0.58,2.4,0.83,3.61c0.28,1.37,0.54,2.74,0.79,4.12
		C137.35,166.04,138.46,165.8,138.33,165.08z"/>
	<path class="st30" d="M141.11,157.64c-0.1-1.27-0.27-2.59-0.66-3.81c-0.31-0.95-0.81-1.92-1.77-2.34c-1.16-0.5-2.42,0.18-3.02,1.22
		c-0.75,1.31-0.39,2.83,0,4.19c0.2,0.7,1.31,0.47,1.11-0.24c-0.29-1.01-0.7-2.26-0.19-3.27c0.33-0.67,1.12-1.23,1.84-0.76
		c0.7,0.46,0.95,1.44,1.13,2.2c0.27,1.17,0.42,2.37,0.49,3.56c0.14,2.3,0.15,4.7-0.48,6.94c-0.55,1.95-1.63,3.69-2.98,5.19
		c-1.55,1.72-3.37,3.17-5.19,4.6c-0.58,0.45,0.18,1.3,0.75,0.85c3.57-2.81,7.36-5.93,8.55-10.52
		C141.35,162.91,141.32,160.23,141.11,157.64z"/>
	<path class="st13" d="M190.16,214.16l-1.23,0c-0.49-1.17-0.98-2.34-1.46-3.51c-2.39-5.73-4.78-11.45-7.17-17.18
		c-0.14-0.35-0.29-0.7-0.44-1.05c-0.65-1.56-1.3-3.11-1.95-4.67c-0.28-0.67,0.73-1.19,1.01-0.51c0.62,1.5,1.25,2.99,1.87,4.49
		c0.15,0.35,0.29,0.7,0.44,1.06c0.13,0.3,0.25,0.61,0.38,0.91L190.16,214.16z"/>
	<path class="st24" d="M118.44,182.72c-0.02,0.33-0.3,0.51-0.6,0.53c-2.34,0.14-3.7,2.49-4.31,4.48c-0.34,1.11-0.56,2.25-0.79,3.38
		c-0.25,1.2-0.48,2.4-0.69,3.6c-0.44,2.47-0.82,4.94-1.13,7.42c-0.51,4.02-0.85,8.06-1.03,12.1c-0.38,0-0.76,0-1.13,0
		c0.09-2.03,0.21-4.06,0.39-6.09c0.44-5.17,1.15-10.32,2.13-15.42c0.24-1.26,0.49-2.51,0.77-3.75c0.25-1.13,0.55-2.25,1.06-3.29
		c0.93-1.9,2.61-3.45,4.8-3.58C118.22,182.1,118.46,182.44,118.44,182.72z"/>
	<g>
		<path class="st31" d="M98.57,113.07l-16.67-0.16c-6.76-0.06-12.19-5.6-12.12-12.36c0.06-6.76,5.6-12.19,12.36-12.12l16.67,0.16
			c6.76,0.06,12.19,5.6,12.12,12.36C110.86,107.71,105.33,113.13,98.57,113.07z"/>
		<path class="st31" d="M98.83,121.06c-2.71-1.54-4.66-3.89-6.1-6.63c-0.8-1.52-1.42-3.13-1.99-4.76c-0.28-0.79-0.73-1.75-0.83-2.68
			c-0.25,0.08-0.5,0.15-0.75,0.23c-1.13,0.34-1.84-1.36-0.7-1.71c2.76-0.83,5.52-1.67,8.28-2.51c0.6-0.18,1.42,0.23,1.26,0.97
			c-1.08,5.39-0.37,10.95,2.03,15.89C100.35,120.52,99.52,121.46,98.83,121.06z"/>
	</g>
	<path class="st13" d="M97.34,100.09l-4.28-4.29l1.32-1.32l5.61,5.61l-3.36,3.36l-1.32-1.33L97.34,100.09z M80.72,92.81l3.92,3.92
		l-3.35,3.36l5.61,5.61l1.32-1.32l-4.28-4.29l2.03-2.03L97.91,110l1.32-1.32L82.05,91.5L80.72,92.81z"/>
	<path class="st21" d="M209.45,144.94l4.24-8.63c1.51,0.74,2.91,1.68,4.18,2.79c1.26,1.11,2.37,2.39,3.3,3.79l-8.14,5.39
		C212.14,146.84,210.9,145.7,209.45,144.94z"/>
</g>
</svg>
