<?xml version="1.0" encoding="utf-8"?>
<!-- Generator: Adobe Illustrator 26.1.0, SVG Export Plug-In . SVG Version: 6.00 Build 0)  -->
<svg version="1.1" id="Layer_1" xmlns="http://www.w3.org/2000/svg" xmlns:xlink="http://www.w3.org/1999/xlink" x="0px" y="0px"
	 viewBox="0 0 331.43 285.35" style="enable-background:new 0 0 331.43 285.35;" xml:space="preserve">
<style type="text/css">
	.st0{fill:#D9D9D9;}
	
		.st1{clip-path:url(#SVGID_00000038409097362800217050000010970499960331094174_);fill:none;stroke:#FFFFFF;stroke-width:2;stroke-miterlimit:10;}
	.st2{clip-path:url(#SVGID_00000038409097362800217050000010970499960331094174_);fill:none;stroke:#FFFFFF;stroke-miterlimit:10;}
	.st3{fill:#242630;}
	.st4{fill:#FDD835;}
	.st5{fill:#FFFFFF;}
	.st6{fill:#FFA895;}
	.st7{fill:#7CCB73;}
	.st8{fill:#FB5151;}
	.st9{fill:none;stroke:#242630;stroke-width:2;stroke-miterlimit:10;}
	.st10{fill:none;stroke:#F76D6D;stroke-linecap:round;stroke-linejoin:round;stroke-miterlimit:10;}
	.st11{fill:#7E57C2;}
	.st12{fill:none;stroke:#FFFFFF;stroke-width:2;stroke-miterlimit:10;}
	.st13{fill:none;stroke:#242630;stroke-width:2;stroke-linecap:round;stroke-linejoin:round;stroke-miterlimit:10;}
	.st14{fill:none;stroke:#FFFFFF;stroke-width:2;stroke-linecap:round;stroke-linejoin:round;stroke-miterlimit:10;}
	.st15{fill:none;stroke:#FFFFFF;stroke-linecap:round;stroke-linejoin:round;stroke-miterlimit:10;}
	.st16{font-family:'Rancho-Regular';}
	.st17{font-size:60px;}
	.st18{fill:none;stroke:#242630;stroke-linecap:round;stroke-linejoin:round;stroke-miterlimit:10;}
	.st19{opacity:0.5;}
	.st20{fill:none;stroke:#FFFFFF;stroke-miterlimit:10;}
	.st21{opacity:0.2;fill:none;stroke:#FFFFFF;stroke-width:2;stroke-miterlimit:10;}
	.st22{opacity:0.2;fill:none;stroke:#FFFFFF;stroke-miterlimit:10;}
</style>
<g>
	<g>
		<rect x="71.12" y="63.79" class="st0" width="74.64" height="124.75"/>
	</g>
	<g>
		<defs>
			<rect id="SVGID_1_" x="71.12" y="63.79" width="74.64" height="124.75"/>
		</defs>
		<clipPath id="SVGID_00000009561490760125705760000003473841364748910522_">
			<use xlink:href="#SVGID_1_"  style="overflow:visible;"/>
		</clipPath>
		
			<path style="clip-path:url(#SVGID_00000009561490760125705760000003473841364748910522_);fill:none;stroke:#FFFFFF;stroke-width:2;stroke-miterlimit:10;" d="
			M159.09,153.19c-4.86-0.68-9.74,1.39-13.67,4.32c-3.93,2.93-7.13,6.71-10.65,10.12c-1.23,1.19-1.2,1.34-2.88,1.67
			c-5.02,5-11.85,8.01-18.87,8.75c-5.12,0.54-15.56,0.6-18.38-4.77c-3.28-6.24,6.64-11.97,10.8-14.61
			c8.09-5.14,16.65-9.7,25.47-13.44c5.16-2.19,8.31-3.66,12.57-7.29c2.81-2.39,5.33-5.18,8.55-6.99"/>
		
			<path style="clip-path:url(#SVGID_00000009561490760125705760000003473841364748910522_);fill:none;stroke:#FFFFFF;stroke-width:2;stroke-miterlimit:10;" d="
			M156.39,107.31c-10.36,1.47-19.33,12.16-28,17.32c-4.3,2.56-9.5,5.26-14.69,4.53c-4.35-0.61-9.52-4.17-10.32-8.74
			c-1.18-6.69,6.39-11.07,11.11-14.09c4.75-3.04,9.48-6.1,14.23-9.15c9.32-5.99,17.98-11.57,21.32-22.13"/>
		
			<path style="clip-path:url(#SVGID_00000009561490760125705760000003473841364748910522_);fill:none;stroke:#FFFFFF;stroke-miterlimit:10;" d="
			M67.55,207.81c3.79-1.15,8.12-1.14,10.64-4.65c2.21-3.07,2.44-7.37,5.32-10c3.16-2.88,7.79-1.18,9.75,2.29
			c3.07,5.42-12.77,10.72-3.51,15.69"/>
		
			<path style="clip-path:url(#SVGID_00000009561490760125705760000003473841364748910522_);fill:none;stroke:#FFFFFF;stroke-width:2;stroke-miterlimit:10;" d="
			M104.61,211.14c6.66-0.3,3.33-9.27,2.69-13.19c-0.32-1.94-0.9-5.26,0.32-7c2.02-2.87,5.49,0.59,7.01,2.29
			c4.28,4.81,8.66,9.52,13.15,14.13"/>
		
			<path style="clip-path:url(#SVGID_00000009561490760125705760000003473841364748910522_);fill:none;stroke:#FFFFFF;stroke-width:2;stroke-miterlimit:10;" d="
			M56.8,90.64c7.14-1.15,13.84-4.73,18.87-9.9c4.25-4.36,6.49-10.05,9.25-15.37c1.71-3.29,3.69-8.79,7.67-9.98
			c3.83-1.15,6.13,2.88,6.86,6.03c3.02,12.96-9.1,21.47-18.95,26.71c-6.51,3.47-13.37,6.79-18.17,12.39
			c-0.73,0.85-1.43,1.79-1.64,2.89c-0.32,1.63,0.49,3.31,1.64,4.52c4.86,5.15,13.82,2.77,18.99-2.07
			c4.32-4.03,7.04-9.42,11.27-13.51c3.99-3.87,9.21-6.27,12.87-10.51c5.06-5.86,3.13-15.36,6.43-22.09
			c5.01-10.21,15.77-3.6,17.68,5.04c1.4,6.34,2.85,14.76-1.39,20.39c-3.65,4.84-10.3,5.29-15.39,7.81
			c-13.24,6.56-19.97,20.38-30.53,30.03c-5.16,4.71-11.19,8.33-16.61,12.72c-3.73,3.02-8.57,6.73-9.76,11.65
			c-1.3,5.44,3.79,10.22,9.02,9.79c4.95-0.41,9.69-4.07,12.59-7.91c3.49-4.62,7.29-17.45,14.77-16.6c4.91,0.56,7.2,6.69,7.07,10.92
			c-0.6,20.12-28.13,22.61-37.04,37.64c-0.72,1.22-1.36,2.48-1.91,3.79c-1.44,3.39-2.22,9.49,2.27,11.09
			c7.73,2.75,12.72-4.75,17.58-9.34c3.14-2.97,7.64-6.33,12.25-5.53c5.21,0.91,8.09,6.94,8.24,11.75
			c0.18,5.64-2.14,11.02-3.64,16.46c-1.5,5.44-2.05,11.73,1.22,16.33"/>
		
			<path style="clip-path:url(#SVGID_00000009561490760125705760000003473841364748910522_);fill:none;stroke:#FFFFFF;stroke-width:2;stroke-miterlimit:10;" d="
			M150.43,171.84c-4.46,1.28-7.54,5.32-11.96,6.58c-5.14,1.47-13.67,1.6-14.96,8.4c-1.45,7.65,8.45,9.06,12.6,13.15
			c3.62,3.57,3.72,9.27,3.59,14.35"/>
		
			<path style="clip-path:url(#SVGID_00000009561490760125705760000003473841364748910522_);fill:none;stroke:#FFFFFF;stroke-miterlimit:10;" d="
			M148.03,185.98c-3.58,1.31-15.89-2.24-15.3,4.48c0.33,3.84,6.73,5.34,9.28,7.22c5.09,3.74,7.29,10.67,13.3,13.3"/>
		
			<path style="clip-path:url(#SVGID_00000009561490760125705760000003473841364748910522_);fill:none;stroke:#FFFFFF;stroke-width:2;stroke-miterlimit:10;" d="
			M148.8,117.22c-4.17,5.36-9.93,9.23-15.73,12.76c-4.62,2.81-10.54,3.26-15.58,5.41c-5.06,2.16-11.6,9.78-2.23,10.44
			c10.14,0.71,18.15-9.54,27.42-12.13c5.55-1.55,11.43-1.25,17.19-0.95"/>
		
			<path style="clip-path:url(#SVGID_00000009561490760125705760000003473841364748910522_);fill:none;stroke:#FFFFFF;stroke-miterlimit:10;" d="
			M150.53,94.19c-3.93,3.94-8.75,6.98-13.99,8.85c-2.6,0.92-5.29,1.56-7.9,2.44c-2.9,0.98-5.7,2.26-8.34,3.83
			c-2.76,1.63-5.63,4.18-5.32,7.37c6.03,1.73,12.47-0.77,17.84-4.01c5.37-3.24,10.37-7.32,16.35-9.21
			c5.14-1.62,10.81-1.47,15.87,0.4"/>
		
			<path style="clip-path:url(#SVGID_00000009561490760125705760000003473841364748910522_);fill:none;stroke:#FFFFFF;stroke-miterlimit:10;" d="
			M150.5,144.22c-8.51,6.55-18.17,11.6-28.41,14.85c-4.68,1.48-9.87,2.86-12.71,6.86c-0.45,0.63-0.84,1.37-0.74,2.14
			c0.14,1.2,1.36,1.95,2.51,2.32c3.28,1.06,6.91,0.48,10.07-0.89c3.16-1.37,5.94-3.46,8.69-5.53c4.37-3.3,8.79-6.6,13.73-8.98
			s10.48-3.79,15.91-3.07"/>
		
			<path style="clip-path:url(#SVGID_00000009561490760125705760000003473841364748910522_);fill:none;stroke:#FFFFFF;stroke-miterlimit:10;" d="
			M57.58,170.07c7.36-3.16,14.15-7.64,19.98-13.14c2.2-2.08,15.23-20.54,16.44-9.42c0.34,3.16-2.26,5.97-4.31,8.02
			c-7.24,7.24-22.42,10.97-24.17,22.5"/>
		
			<path style="clip-path:url(#SVGID_00000009561490760125705760000003473841364748910522_);fill:none;stroke:#FFFFFF;stroke-miterlimit:10;" d="
			M114.86,83.24c4.4,1.82,6.23-6.22,5.11-9.06c-0.86-2.2-3.47-2.63-5.2-1.04C112.56,75.16,111.39,81.8,114.86,83.24z"/>
		
			<path style="clip-path:url(#SVGID_00000009561490760125705760000003473841364748910522_);fill:none;stroke:#FFFFFF;stroke-miterlimit:10;" d="
			M86.74,176.03c0.1-0.46,0.01-0.94-0.42-1.38c-1.01-1.04-3.16-0.65-4.43-0.53c-2.56,0.23-6.25,0.71-6.88,3.78
			c-0.39,1.86,1.59,2.77,3.15,2.57c2.33-0.3,5.11-1.09,7.05-2.47C85.83,177.54,86.56,176.81,86.74,176.03z"/>
		
			<path style="clip-path:url(#SVGID_00000009561490760125705760000003473841364748910522_);fill:none;stroke:#FFFFFF;stroke-miterlimit:10;" d="
			M97.56,129.31c2.14-1.57,0.56-4.35-1.46-5.13c-2.39-0.93-4.85,1.76-2.81,3.8c0.78,0.78,2.67,1.89,3.82,1.55
			C97.28,129.48,97.43,129.41,97.56,129.31z"/>
		
			<path style="clip-path:url(#SVGID_00000009561490760125705760000003473841364748910522_);fill:none;stroke:#FFFFFF;stroke-miterlimit:10;" d="
			M76.57,120.78c3.3-1.18,2.35-5.76-1.08-3.7C73.3,118.39,73.41,121.91,76.57,120.78z"/>
		
			<path style="clip-path:url(#SVGID_00000009561490760125705760000003473841364748910522_);fill:none;stroke:#FFFFFF;stroke-miterlimit:10;" d="
			M112.93,182.62c-1.47,0.34-2.56,1.15-2.22,2.52c0.58,2.36,10.73,2.61,7.69-1.47C117.59,182.58,114.91,182.16,112.93,182.62z"/>
	</g>
</g>
<g>
	<defs>
		<rect id="SVGID_00000102536998953924863260000001150231614233658771_" x="70.6" y="63.27" width="188.97" height="124.43"/>
	</defs>
	<clipPath id="SVGID_00000098904262300334802720000016786198223154186630_">
		<use xlink:href="#SVGID_00000102536998953924863260000001150231614233658771_"  style="overflow:visible;"/>
	</clipPath>
</g>
<g>
	<rect x="70.6" y="63.27" class="st3" width="73.67" height="11.24"/>
</g>
<g>
	<circle class="st4" cx="180.1" cy="99.04" r="49.09"/>
</g>
<path class="st5" d="M173.26,120.05h-56.88c-2.76,0-5-2.24-5-5v-39.4c0-2.76,2.24-5,5-5h56.88c2.76,0,5,2.24,5,5v39.4
	C178.26,117.81,176.02,120.05,173.26,120.05z"/>
<g>
	<path class="st6" d="M243.9,105.05c-2.71,0.98-6.1,5.54-8.74,6.44c-2.54,0.87-5.14,1.65-7.74,2.28c-2.69,0.66-5.41,1.03-8.16,0.93
		c-5.49-0.19-10.81-2-15.86-4.21c-0.51-0.23-0.36-0.94,0.12-1.07c4.19-1.13,8.46-1.9,12.76-2.33c-0.7-2.23-1.75-4.3-3.12-6.13
		c-1.68,1.85-3.81,3.81-6.33,3.55c-2.37-0.24-3.85-2.46-4.98-4.49c-0.77-1.37-1.53-2.76-2.29-4.14c-0.58-1.04-1.49-2.32-1.15-3.61
		c0.18-0.67,0.67-0.92,1.11-1.36c0.39-0.38,0.65-0.96,0.54-1.49c-1.72-8.38,2.91-11.51,2.91-11.51s4.51,4.39,5.46,5.86
		c1.08,1.67,2.05,3.44,3.23,5.03c1.59,2.15,3.84,2.51,5.96,3.88c2.44,1.57,8.34-0.04,10.04,2.35c1.75,2.46,1.91,7.08,4.6,8.43
		c2.46,1.24,3.91,0.94,5.75,0.98C244.55,104.63,245.88,104.33,243.9,105.05z"/>
</g>
<g>
	<path class="st6" d="M172.06,98.08c-0.32,0.85-0.94,1.57-1.39,2.35c-0.42,0.71-0.76,1.46-1.06,2.22c-1.24,3.1-1.78,6.46-3.28,9.46
		c-0.72,1.46-1.67,2.8-2.93,3.86c-1.34,1.12-2.96,1.85-4.28,2.99c-1.58,1.37-1.89,3.31-2.21,5.27c-0.22,1.38-0.44,2.76-0.66,4.14
		c-4.46-3.14-10.09-4.25-15.53-3.72c-2.41,0.23-4.77,0.77-7.02,1.59c0.44-1.26,0.86-2.53,1.27-3.8c1.26-3.96,2.38-7.96,3.49-11.97
		c-1.57-3.02-3.53-5.82-5.24-8.76c-0.87-1.5-1.93-3.26-1.56-5.08c0.2-1.01,0.8-1.9,1.64-2.39c-0.47-0.7-0.93-1.41-1.36-2.14
		c-0.47-0.8-0.87-1.67-0.65-2.61c0.27-1.17,1.26-1.89,2.33-2.37c-0.35-0.71-0.58-1.47-0.54-2.3c0.07-1.33,0.92-2.46,2.23-2.78
		c1.3-0.32,2.63,0.17,3.64,0.98c1.22,0.99,2.17,2.34,3.17,3.54c1.12,1.34,2.23,2.68,3.35,4.02c1.12,1.34,2.23,2.68,3.35,4.03
		c0.28,0.34,0.55,0.68,0.83,1.01c0.12,0.14,0.31,0.43,0.53,0.42c-0.01-0.37-0.03-0.73-0.05-1.09c-0.11-2.35-0.21-4.7-0.31-7.06
		c-0.1-2.16-0.3-4.36-0.25-6.52c0.04-1.65,0.52-3.58,2.14-4.37c0.82-0.4,1.78-0.33,2.46,0.3c0.64,0.6,0.89,1.44,1.09,2.26
		c1.05,4.31,1.45,8.3,1.67,12.69c0.1,2.15,0.52,3.54,1.08,5.62c0.23,0.83,0.63,1.59,1.49,1.86c0.72,0.23,1.52,0.1,2.21-0.17
		c1.74-0.67,1.89-0.97,3.04-2.34c1.21-1.44,2.8-2.94,4.82-2.84C171.44,94.51,172.74,96.29,172.06,98.08z"/>
</g>
<g>
	<path class="st3" d="M234.27,96.48c-1.74,2.42-3.89,4.44-8.16,4.89c-3.84,0.41-7.47-0.89-10.7-2.9c-1.71-1.06-3.3-2.3-4.84-3.59
		c-1.6-1.33-3.16-2.74-4.43-4.4c-2.06-2.66-3.62-5.85-4.25-9.16c-0.62-3.28,1.14-5.39,3.44-7.66c1.33-1.31,2.82-2.46,4.43-3.41
		c3.2-1.89,6.85-3.07,10.58-3.18c5.44-0.15,10.51,1.9,15.27,4.34c7,3.6,12,7.93,15.54,15c0.53,1.06,1.08,2.26,0.74,3.4
		c0.23-0.77-4.14-1.84-4.67-1.9C240.51,87.18,237.67,91.75,234.27,96.48z"/>
</g>
<path class="st3" d="M327.84,100.12c-6.38-0.03-12.34-2.89-18.31-5.14c-3-1.14-6.11-2.01-9.29-2.49c-3-0.45-6.19-0.42-9.21-0.27
	c-3.71,0.18-7.13,1.24-10.89,0.96c-3.82-0.28-7.6-1.23-11.08-2.85c-4.97-2.3-8.93-5.92-13.81-8.34c-0.78-0.38-1.58-0.74-2.39-1.06
	c0.5,0.01,1.02,0.02,1.53,0.03c3.06,1.16,6.07,2.43,8.83,4.08c1.64,0.98,3.18,2.09,4.9,2.98c1.33,0.69,2.74,1.27,4.21,1.71
	c2.96,0.9,6.1,1.26,9.23,1.16c5.42-0.19,9.44-3.14,14.54-3.59c5.64-0.5,11.73,2.27,17.03,3.81c6.74,1.94,14.86,2.69,20.14-1.67
	V49.98c-0.28,0.02-0.56,0.06-0.84,0.1c-3.37,0.53-6.62,1.79-9.46,3.67c-2.05,1.36-3.9,3.02-6.01,4.29
	c-4.66,2.79-9.33,2.57-14.02,1.78c-6.3-1.06-12.64-3.14-19.08-0.28c-2.74,1.21-4.81,3.17-6.88,5.1c-2.05,1.9-4.22,3.85-7.13,4.71
	c-1.69,0.5-3.53,0.58-5.28,0.3c-1.68-0.27-3.21-0.98-4.67-1.73c-1.43-0.75-2.83-1.55-4.37-2.12c-1.73-0.64-3.58-0.89-5.45-0.85
	c-3.25,0.07-6.52,0.88-9.48,2c-5.86,2.22-13.88,7.06-15.94,12.58c-0.17,0.45-0.39,1.47-0.56,2.69c-0.36,0.18-0.36,0.67-0.14,0.93
	c0.03,0.04,0.06,0.06,0.09,0.09c-0.07,1.19-0.03,2.44,0.22,3.41c-0.06,0.06-0.12,0.11-0.19,0.18c-0.51,0.5,0.14,1.1,0.75,1.02
	c0.3,0.37,0.72,0.58,1.25,0.54c1.13-0.08,2.38-1.79,3.49-3.49c3.13-1.22,6.8-1.44,10.14-0.84c5.68,1.02,10.45,4.45,14.14,8.19
	c1.98,2.01,3.59,4.35,5.91,6.09c2.28,1.7,5.21,2.54,8.12,3.02c3.36,0.54,6.83,0.74,10.25,0.85c7.21,0.23,14.6,0.36,21.19,3.68
	c1.88,0.95,3.62,2.13,5.45,3.17c8.6,4.91,18.59,6.49,28.48,7.64V98.3C331.99,99.68,329.8,100.13,327.84,100.12z"/>
<g>
	<path class="st6" d="M214.17,89.74c0,2.37-1.92,4.29-4.29,4.29c-2.37,0-4.29-1.92-4.29-4.29c0-2.37,1.92-4.29,4.29-4.29
		C212.25,85.45,214.17,87.37,214.17,89.74z"/>
</g>
<g>
	<path class="st6" d="M317.18,151.45c-0.45,1.72-0.89,3.52-1.33,5.4c-3.9,16.71-7.62,31.51-7.62,31.51l-24.29-11.13l5.77-27.42
		c1.48,0.03,2.95,0.08,4.43,0.13C301.83,150.24,309.52,150.74,317.18,151.45z"/>
</g>
<g>
	<path class="st7" d="M317.18,151.45c-7.67-0.71-15.35-1.21-23.05-1.5c-1.47-0.06-2.95-0.1-4.43-0.13l3.69-15.93l-67.09-4.42
		l-4.78-19.24c6.55-4.4,22.11-14.72,38.04-13.11c15.24,1.54,57.8,8.52,62.52,19.71C325.7,125.38,321.53,134.62,317.18,151.45z"/>
</g>
<g>
	<path class="st8" d="M278.95,178.95l46.72-19.07l-11.63-28.49c-3.31-8.1-12.55-11.98-20.65-8.68l-46.72,19.07l11.63,28.49
		C261.6,178.38,270.85,182.26,278.95,178.95z"/>
</g>
<g>
	<polygon class="st5" points="275.05,139.68 286.85,167.77 305.11,144.68 	"/>
</g>
<g>
	<g>
		<path class="st9" d="M52.29,216.27h86.95v-76.95H52.29V216.27z"/>
	</g>
	<g>
		<g>
			<rect x="47.04" y="133.63" class="st7" width="9.25" height="9.25"/>
		</g>
		<g>
			<rect x="135.54" y="133.63" class="st7" width="9.25" height="9.25"/>
		</g>
		<g>
			<rect x="47.04" y="212.54" class="st7" width="9.25" height="9.25"/>
		</g>
		<g>
			<rect x="135.54" y="212.54" class="st7" width="9.25" height="9.25"/>
		</g>
	</g>
</g>
<g>
	<g>
		<path class="st3" d="M304,268.43c0,0,3.74-8.91,7.8-25.06c3.68-14.63,8.04-33.61,2.37-47.92c-9.02-22.76-30.74-30.26-40.26-40.44
			c-1.65-1.76-2.73-4.74-2.73-4.74s-6.01,0.7-12.18,3.24c-5.18-4.2-9.55-6.25-9.29-6.05c0.47,0.34-22.66,19.76-22.66,19.76
			s8.53,15.45,8.82,16.54c0.29,1.09,1.28,12.1,1.28,12.1s-23.12,21.49-45.07,40.07c-21.95,18.58-21.5,32.13-13.25,41.72
			c2.35,2.73,4.8,5.4,7.09,7.81h62.46l-16.95-17.85c0,0,14.85-8.41,29.89-19.96c-2.61,9.6-5.16,18.42-3.07,26.5
			c1.02,3.96,3.59,7.78,6.85,11.31h59.99L304,268.43z"/>
	</g>
</g>
<g>
	<path class="st7" d="M270.61,150.8c-6.91,4.43-14.58,7.46-22.26,10.26c-3.84,1.4-7.68,2.87-11.56,4.17c-2.88,0.96-9.74,2-9.74,2
		s-0.89-1.42-2.9-3.38c-1.26-1.23-2.52-2.45-3.78-3.68c-0.52-0.5-1.04-1.06-1.67-1.42c-0.69-0.39-1.49-0.45-2.26-0.42
		c-1.54,0.05-3.06,0.18-4.6,0.08c-1.52-0.1-3.03-0.35-4.5-0.76c-4.32-1.2-8.23-4.06-10.2-8.05c-0.68,0.48-1.37,0.96-2.06,1.44
		c-8.38,5.78-16.96,11.27-25.73,16.44c-7.85,4.63-16.4,9.96-25.86,9.75c-3.8-0.08-7.63-1.1-10.85-3.15c-3.41-2.17-5.71-5.5-6.7-9.41
		c-1.11-4.41-0.65-9.08-0.15-13.54c0.28-2.51,0.64-5.02,1.29-7.47c0.64-2.43,1.6-4.76,2.59-7.07c1.46-3.41,2.8-6.86,4.01-10.35
		c2.25-0.82,4.61-1.36,7.02-1.59c5.44-0.53,11.07,0.58,15.53,3.72c-0.15,0.94-0.3,1.87-0.45,2.8l-1.33,8.25
		c4.24-3.37,8.51-6.72,12.84-9.97c6.21-4.65,12.53-9.25,19.2-13.22c3.17-1.89,6.46-3.6,9.92-4.88c12.74-4.69,32.79-5.41,45.75-8.78
		c4.35-1.13,7.98-0.11,13.66,2.85c5.22,2.72,5.9,8.15,8.09,13.51c2.55,6.27,2.75,12.24,4.02,18.74c1.14,5.88,0.79,7.11,3.22,12.6
		C271.22,150.36,271.02,150.54,270.61,150.8z"/>
</g>
<g>
	<g>
		<path class="st3" d="M200.17,85.48c0.01,0,0.04-0.02,0.05-0.02C200.17,85.48,200.17,85.48,200.17,85.48z"/>
	</g>
</g>
<g>
	<path class="st10" d="M202.86,96.25c0.03,0.15,0.05,0.3,0.07,0.45c0.01,0.07,0.01,0.15,0.01,0.23c0,0.05,0,0.08,0,0.11
		c0,0.15-0.02,0.3-0.04,0.45c-0.01,0.07-0.02,0.15-0.04,0.22c-0.01,0.04-0.02,0.07-0.02,0.11c-0.1,0.31-0.2,0.59-0.34,0.86
		c0,0.01-0.02,0.04-0.03,0.06c-0.06,0.1-0.1,0.16-0.14,0.22c-0.09,0.13-0.19,0.26-0.3,0.38"/>
</g>
<g>
	<path class="st10" d="M210.65,86.96c-1.44-0.99-3.26,3.4-3.63,4.29"/>
</g>
<g>
	<path class="st3" d="M201.94,88.6c-0.03-0.18-0.06-0.3-0.11-0.42l-0.09-0.15c-0.04-0.04-0.08-0.08-0.13-0.12
		c-0.05-0.03-0.1-0.06-0.15-0.09c-0.08-0.04-0.16-0.05-0.25-0.04c-0.06-0.01-0.11,0-0.17,0.02c-0.06,0.01-0.11,0.03-0.16,0.07
		c-0.06,0.02-0.1,0.06-0.14,0.11c-0.07,0.06-0.12,0.13-0.15,0.22c-0.03,0.05-0.05,0.11-0.07,0.17c-0.03,0.1-0.06,0.21-0.08,0.32
		c-0.03,0.17-0.02,0.34,0.01,0.51c0.02,0.1,0.06,0.18,0.11,0.26c0.02,0.08,0.05,0.15,0.11,0.22c0.04,0.04,0.08,0.08,0.13,0.12
		c0.02,0.01,0.04,0.02,0.06,0.03c0.05,0.06,0.11,0.12,0.19,0.15c0.05,0.04,0.1,0.06,0.16,0.06c0.08,0.03,0.17,0.03,0.25,0.02
		c0.11-0.02,0.22-0.06,0.31-0.13c0.07-0.05,0.13-0.12,0.17-0.2c0.05-0.07,0.08-0.15,0.09-0.24
		C202.05,89.19,202.02,88.89,201.94,88.6z"/>
</g>
<g>
	<polygon class="st11" points="189.07,72.73 217.88,44.32 178.87,33.57 	"/>
</g>
<g>
	<path class="st12" d="M148.78,87.15c-0.14-2.48-0.63-5.04-0.04-7.47c0.38-1.57,1.18-3.3,2.9-3.72c2.08-0.52,3.81,1.26,4.4,3.09
		c0.34,1.09,0.45,2.24,0.58,3.37l0.45,3.8l0.89,7.48c0.14,1.16,0.23,2.34,0.44,3.49c0.17,0.9,0.53,1.84,1.47,2.15
		c2,0.66,3.67-1.22,4.83-2.56c1.3-1.5,2.87-3.19,5.01-3.23c1.59-0.03,3.22,1.17,3.36,2.76c0.01,0.03,0.02,0.06,0.03,0.1
		c0.59,3.4-2.48,5.95-3.65,8.85c-0.61,1.52-0.97,3.13-1.49,4.69c-0.48,1.44-1.14,2.82-1.97,4.1c-0.83,1.28-1.83,2.45-2.96,3.49
		c-1.84,1.69-3.73,2.66-4.93,4.95c-2.39,4.58-3.25,10.23-3.17,15.34c0.01,0.55,0.02,1.1,0.05,1.64"/>
</g>
<g>
	<path class="st13" d="M216.65,107.16c-5.95,1.22-11.85,2.67-17.68,4.35c-2.79,0.8-5.58,1.65-8.28,2.72
		c-2.69,1.07-5.25,2.4-7.69,3.95c-2.45,1.56-4.79,3.29-7.14,4.99c-2.49,1.81-4.97,3.63-7.45,5.46c-4.86,3.6-9.68,7.25-14.47,10.95
		c-5.41,4.18-10.77,8.42-16.09,12.72"/>
</g>
<g>
	<defs>
		<path id="SVGID_00000062903739650504098350000004232900094202956215_" d="M304,268.43c0,0,3.74-8.91,7.8-25.06
			c3.68-14.63,8.04-33.61,2.37-47.92c-9.02-22.76-30.74-30.26-40.26-40.44c-1.65-1.76-2.73-4.74-2.73-4.74s-6.01,0.7-12.18,3.24
			c-5.18-4.2-9.55-6.25-9.29-6.05c0.47,0.34-22.66,19.76-22.66,19.76s8.53,15.45,8.82,16.54c0.29,1.09,1.28,12.1,1.28,12.1
			s-23.12,21.49-45.07,40.07c-21.95,18.58-21.5,32.13-13.25,41.72c2.35,2.73,4.8,5.4,7.09,7.81h62.46l-16.71-18.1
			c0,0,13.96-8.49,29-20.04c-2.61,9.6-4.51,18.76-2.42,26.83c1.02,3.96,3.59,7.78,6.85,11.31h59.99L304,268.43z"/>
	</defs>
	<clipPath id="SVGID_00000133513566680161230120000014748609199561879463_">
		<use xlink:href="#SVGID_00000062903739650504098350000004232900094202956215_"  style="overflow:visible;"/>
	</clipPath>
</g>
<g>
	<defs>
		<path id="SVGID_00000065779323157409025100000009392394708740946366_" d="M270.61,150.8c-6.91,4.43-14.58,7.46-22.26,10.26
			c-3.84,1.4-7.68,2.87-11.56,4.17c-2.88,0.96-9.74,2-9.74,2s-0.89-1.42-2.9-3.38c-1.26-1.23-2.52-2.45-3.78-3.68
			c-0.52-0.5-1.04-1.06-1.67-1.42c-0.69-0.39-1.49-0.45-2.26-0.42c-1.54,0.05-3.06,0.18-4.6,0.08c-1.52-0.1-3.03-0.35-4.5-0.76
			c-4.32-1.2-8.23-4.06-10.2-8.05c-0.68,0.48-1.37,0.96-2.06,1.44c-8.38,5.78-16.96,11.27-25.73,16.44
			c-7.85,4.63-16.4,9.96-25.86,9.75c-3.8-0.08-7.63-1.1-10.85-3.15c-3.41-2.17-5.71-5.5-6.7-9.41c-1.11-4.41-0.65-9.08-0.15-13.54
			c0.28-2.51,0.64-5.02,1.29-7.47c0.64-2.43,1.6-4.76,2.59-7.07c1.46-3.41,2.8-6.86,4.01-10.35c2.25-0.82,4.61-1.36,7.02-1.59
			c5.44-0.53,11.07,0.58,15.53,3.72c-0.15,0.94-0.3,1.87-0.45,2.8l-1.33,8.25c4.24-3.37,8.51-6.72,12.84-9.97
			c6.21-4.65,12.53-9.25,19.2-13.22c3.17-1.89,6.46-3.6,9.92-4.88c12.74-4.69,32.79-5.41,45.75-8.78c4.35-1.13,7.98-0.11,13.66,2.85
			c5.22,2.72,5.9,8.15,8.09,13.51c2.55,6.27,2.75,12.24,4.02,18.74c1.14,5.88,0.79,7.11,3.22,12.6
			C271.22,150.36,271.02,150.54,270.61,150.8z"/>
	</defs>
	<clipPath id="SVGID_00000047055104107255773730000009749339140227385788_">
		<use xlink:href="#SVGID_00000065779323157409025100000009392394708740946366_"  style="overflow:visible;"/>
	</clipPath>
</g>
<g>
	<path class="st14" d="M293.79,218.32c-1.48,2.11-3.04,4.17-4.81,6.04c-1.77,1.87-3.73,3.54-5.73,5.15
		c-4.05,3.27-8.17,6.45-12.29,9.63c-8.26,6.38-16.66,12.61-25.36,18.38c-4.93,3.27-9.96,6.39-15.1,9.29"/>
</g>
<g>
	<path class="st15" d="M235.68,282.4c-5.5-6.28-11.36-12.24-17.56-17.83"/>
</g>
<g>
	<path class="st5" d="M143.56,176.73c-0.84,0-1.01,1.32-0.15,1.32C144.24,178.04,144.41,176.73,143.56,176.73z"/>
</g>
<g>
	<path class="st14" d="M204.88,143.86c-7.63,5.3-15.27,10.6-23.08,15.63c-7.78,5.01-15.74,9.77-24,13.95
		c-4.49,2.28-9.49,4.59-14.64,3.58"/>
</g>
<g>
	<path class="st10" d="M143.63,97.5c-3.17-3.75-6.34-7.5-9.52-11.25"/>
</g>
<g>
	<defs>
		<path id="SVGID_00000112591775795968853570000008242053884359180703_" d="M304,268.43c0,0,3.74-8.91,7.8-25.06
			c3.68-14.63,8.04-33.61,2.37-47.92c-9.02-22.76-30.74-30.26-40.26-40.44c-1.65-1.76-2.73-4.74-2.73-4.74s-6.01,0.7-12.18,3.24
			c-5.18-4.2-9.55-6.25-9.29-6.05c0.47,0.34-22.66,19.76-22.66,19.76s8.53,15.45,8.82,16.54c0.29,1.09,1.28,12.1,1.28,12.1
			s-23.12,21.49-45.07,40.07c-21.95,18.58-21.5,32.13-13.25,41.72c2.35,2.73,4.8,5.4,7.09,7.81h62.46l-16.95-17.85
			c0,0,14.85-8.41,29.89-19.96c-2.61,9.6-5.16,18.42-3.07,26.5c1.02,3.96,3.59,7.78,6.85,11.31h59.99L304,268.43z"/>
	</defs>
	<clipPath id="SVGID_00000132084068749774852220000005881476248795648647_">
		<use xlink:href="#SVGID_00000112591775795968853570000008242053884359180703_"  style="overflow:visible;"/>
	</clipPath>
</g>
<text transform="matrix(0.9907 -0.1358 0.1358 0.9907 174.0381 221.7608)" class="st5 st16 st17">Aa</text>
<g>
	<path class="st5" d="M134.37,262.03c8.85-6.88,18.34-8.68,28.69-3.54c7.14,3.54,12.02,9.75,18.36,14.36l1.27,5.3
		c-0.1,0-0.21-0.01-0.32,0.02c-0.53,0.12-0.94,0.79-0.75,1.32c0.18,0.48,0.33,0.97,0.47,1.46c-8.83-10.61-27.45-7.38-39.35-5.93
		c-11.72,1.42-23.31,3.9-34.58,7.39C116.9,275.61,125.64,268.82,134.37,262.03z"/>
	<path class="st18" d="M181.43,272.85c-6.66-4.98-11.66-10.98-19.66-14.98c-22-10-37,14-53.6,24.53c11.9-3.69,5.73-4.46,0,0
		c19.6-6.53,39.6-9.53,60.6-8.53c4,0,9,2,12.25,5.87"/>
	<path class="st18" d="M109.68,281.9c11.07-6.93,22.94-14.67,36.13-16.56c6.53-0.94,13.19,0.12,19.28,2.59
		c8.35,3.38,14.72,8.17,24.21,7.55"/>
</g>
<g class="st19">
	<path class="st15" d="M156.89,249.96c-2.97-1.09-5.6,1.14-8.56,0.81c-4.55-0.51-8.21-3.52-9.3-7.65
		c-1.36-5.13-4.35-7.96-7.75-11.73c2.47,0.49,4.75,1.78,7.37,1.82c3.92,0.06,7.73-2.06,11.55-0.18c4.39,2.17,7.38,6.92,7.43,11.81"
		/>
	<path class="st20" d="M132.86,232.61c1.48,0.95,2.49,1.76,4.24,2.25c2.48,0.69,5.63,1.33,7.71,2.86c2.4,1.75,4.56,3.92,6.65,6.03
		c1.22,1.23,2.44,2.49,3.96,3.34c1.24,0.7,2.64,1.08,3.95,1.62c3.41,1.4,6.36,3.92,8.28,7.07c1.71,2.81,3.24,4.91,5.92,6.82"/>
</g>
<path class="st21" d="M246.32,12.71c-6.71,3.09-7.09,9.69-3.51,15.46c2.97,4.8,7.06,7.75,12.6,8.76c5.1,0.93,10.26,1.66,14.93,4.06
	c2.72,1.39,8.23,4.17,10.47,0.76c3.32-5.08-3.13-11.32-6.31-14.61C267.68,20.1,257.57,7.53,246.32,12.71z"/>
<path class="st22" d="M248.43,21.42c0.01,0.15,0.03,0.3,0.06,0.46c0.73,4.25,12.85,10.84,15.5,5.86c2.52-4.74-5.53-8.67-8.69-9.77
	C252.41,16.98,248.11,17.62,248.43,21.42z"/>
<path class="st15" d="M123.37,251.6c1.4,0.33,2.57-0.6,2.67-2.01c0.16-2.22-2.43-3.17-4.09-2.06c-2.39,1.59-2.62,5.83,0.13,7.23
	c3.22,1.64,6.84-2.18,6.44-5.34"/>
<path class="st18" d="M225.07,77.62c3.92-6.13,8.53-12.05,15.82-14.15c4.23-1.22,8.91-1.33,13.22-0.43
	c3.98,0.83,7.76,2.84,11.87,3.07c7.37,0.41,12.16-5.65,18.24-8.65c7.66-3.79,16.29-0.84,24.35-2.51c8.56-1.77,15.39-8.04,23.97-9.79
	"/>
</svg>
