<svg width="40" height="40" viewBox="0 0 40 40" fill="none" xmlns="http://www.w3.org/2000/svg">
<path fill-rule="evenodd" clip-rule="evenodd" d="M5.54351 9.23356C5.46148 9.48506 1.33398 30.7791 1.33398 30.951C1.33398 31.008 3.48574 31.0321 6.11564 31.0046L10.8973 30.9548L15.4581 20.0486C17.9665 14.0502 20.0189 9.11024 20.0189 9.07119C20.0189 9.03195 16.7791 9 12.8194 9C7.22496 9 5.60274 9.05213 5.54351 9.23356ZM24.223 9.23356C24.1314 9.49571 20.0189 30.7096 20.0189 30.92C20.0189 30.994 22.1708 31.0321 24.8011 31.0046L29.5833 30.9548L34.1435 20.0243C36.6516 14.0126 38.7038 9.07269 38.7038 9.0469C38.7038 9.02112 35.464 9 31.5043 9C25.9127 9 24.2865 9.05213 24.223 9.23356Z" fill="#66843A"/>
</svg>
