<?xml version="1.0" encoding="utf-8"?>
<!-- Generator: Adobe Illustrator 26.1.0, SVG Export Plug-In . SVG Version: 6.00 Build 0)  -->
<svg version="1.1" id="Layer_1" xmlns="http://www.w3.org/2000/svg" xmlns:xlink="http://www.w3.org/1999/xlink" x="0px" y="0px"
	 viewBox="0 0 23 23" style="enable-background:new 0 0 23 23;" xml:space="preserve">
<style type="text/css">
	.st0{fill-rule:evenodd;clip-rule:evenodd;fill:#4373B9;}
	.st1{fill-rule:evenodd;clip-rule:evenodd;fill:#FFFFFF;}
</style>
<g>
	
		<ellipse id="XMLID_2_" transform="matrix(0.1026 -0.9947 0.9947 0.1026 -0.954 21.6094)" class="st0" cx="11.5" cy="11.3" rx="11" ry="11"/>
	<path id="XMLID_1_" class="st1" d="M9.3,18.5c0-1.3,0-2.6,0-4c0-0.2-0.1-0.3-0.3-0.3c-0.4,0-0.8,0-1.2,0c-0.2,0-0.2,0-0.2-0.2
		c0-0.8,0-1.7,0-2.5c0-0.2,0-0.2,0.2-0.2c0.4,0,0.8,0,1.3,0c0.2,0,0.3-0.1,0.3-0.3c0-0.6,0-1.3,0-1.9C9.3,8.4,9.5,7.6,10,7
		c0.6-0.8,1.4-1.2,2.4-1.2c1,0,2,0,2.9,0c0.1,0,0.2,0,0.2,0.2c0,0.8,0,1.7,0,2.5c0,0.1,0,0.2-0.2,0.2c-0.5,0-0.9,0-1.4,0
		c-0.6,0-1,0.3-1,0.9c0,0.5,0,1,0,1.5c0,0.2,0.1,0.2,0.2,0.2c0.7,0,1.4,0,2.1,0c0.2,0,0.3,0,0.3,0.3c-0.1,0.8-0.2,1.7-0.2,2.5
		c0,0.2-0.1,0.2-0.3,0.2c-0.6,0-1.1,0-1.7,0c-0.4,0-0.4-0.1-0.4,0.4c0,2.6,0,5.2,0,7.8c0,0.3-0.1,0.3-0.3,0.3c-1,0-1.9,0-2.9,0
		c-0.3,0-0.3-0.1-0.3-0.3C9.3,21.1,9.3,19.8,9.3,18.5z"/>
</g>
</svg>
