<?xml version="1.0" encoding="utf-8"?>
<!-- Generator: Adobe Illustrator 26.1.0, SVG Export Plug-In . SVG Version: 6.00 Build 0)  -->
<svg version="1.1" id="Layer_1" xmlns="http://www.w3.org/2000/svg" xmlns:xlink="http://www.w3.org/1999/xlink" x="0px" y="0px"
	 viewBox="0 0 78.8 77.6" style="enable-background:new 0 0 78.8 77.6;" xml:space="preserve">
<style type="text/css">
	.st0{opacity:0.5;fill:#3E2823;}
	.st1{fill:#FFFFFF;}
	.st2{fill:#F37021;}
</style>
<circle class="st0" cx="39.2" cy="39.6" r="37"/>
<path class="st1" d="M39.6,69.9c16.7,0,30.3-13.6,30.3-30.3S56.3,9.2,39.6,9.2S9.2,22.8,9.2,39.6S22.8,69.9,39.6,69.9z M39.6,15.3
	c13.4,0,24.3,10.9,24.3,24.3S52.9,63.8,39.6,63.8S15.3,52.9,15.3,39.6S26.2,15.3,39.6,15.3z M33.5,25.9v27.3l18.2-13.7L33.5,25.9z"
	/>
<g>
	<g>
		<g>
			<path class="st2" d="M75,24.1c0.4,0.8,0.8,2.2,1.3,3.7c0.2,0.8,0.4,1.7,0.6,2.5c0.1,0.4,0.2,0.9,0.3,1.3c0,0.4,0.1,0.9,0.1,1.3
				c0.1,0.9,0.1,1.7,0.1,2.5c0,0.8-0.1,1.5-0.2,2.1c-0.2,1.2-0.5,1.9-1,1.9s-0.8-0.7-1.2-1.8c-0.2-0.6-0.3-1.2-0.5-1.9
				c-0.2-0.7-0.4-1.5-0.6-2.2c-0.1-0.4-0.2-0.8-0.3-1.2c-0.1-0.4-0.3-0.8-0.4-1.2c-0.2-0.8-0.5-1.5-0.7-2.2c-0.6-1.4-1-2.6-1.3-3.3
				C68,17.8,61.6,11.2,53.8,7.5c-7.8-3.7-17-4.3-25.3-1.8C20.2,8.2,12.9,14,8.4,21.5C3.9,29,2.3,38.2,3.9,46.8
				c1.7,8.7,6.7,16.6,13.8,21.9c7.1,5.4,16.2,7.9,25.1,7.1c8.9-0.8,17.5-5.1,23.5-11.7c6.1-6.6,9.7-15.5,9.8-24.6
				c0.1,9.1-3.3,18.1-9.4,24.9c-6,6.8-14.7,11.4-23.8,12.4c-4.6,0.5-9.2,0.1-13.7-1c-4.5-1.2-8.7-3.2-12.4-5.9
				c-7.5-5.4-13-13.6-14.9-22.7c-1.9-9.1-0.4-18.9,4.3-27c4.6-8.1,12.4-14.5,21.4-17.4c9-2.9,19-2.4,27.7,1.5
				C64,8.2,71.2,15.3,75,24.1z"/>
		</g>
	</g>
</g>
</svg>
