<?xml version="1.0" encoding="utf-8"?>
<!-- Generator: Adobe Illustrator 26.1.0, SVG Export Plug-In . SVG Version: 6.00 Build 0)  -->
<svg version="1.1" id="Layer_1" xmlns="http://www.w3.org/2000/svg" xmlns:xlink="http://www.w3.org/1999/xlink" x="0px" y="0px"
	 viewBox="0 0 60 60" style="enable-background:new 0 0 60 60;" xml:space="preserve">
<style type="text/css">
	.st0{fill:#301111;}
	.st1{fill:#F89A1C;}
</style>
<g>
	<path class="st0" d="M10.62,0.75h38.75C55.25,0.75,60,5.5,60,11.38v37.25c0,5.88-4.75,10.62-10.62,10.62H10.62
		C4.75,59.25,0,54.5,0,48.62V11.38C0,5.5,4.75,0.75,10.62,0.75z"/>
	<path class="st1" d="M29,35.75h-9.3l-1.9,5.88c-0.05,0.22-0.25,0.38-0.48,0.35h-4.7c-0.27,0-0.35-0.15-0.27-0.45l8.05-23.17
		c0.08-0.25,0.15-0.52,0.25-0.83c0.1-0.52,0.15-1.07,0.15-1.62c-0.02-0.12,0.08-0.25,0.2-0.27h6.48c0.2,0,0.3,0.07,0.33,0.2
		l9.12,25.75c0.08,0.28,0,0.4-0.25,0.4h-5.23c-0.17,0.03-0.35-0.1-0.4-0.28L29,35.75z M21.15,30.67h6.35
		c-0.15-0.52-0.35-1.15-0.58-1.8c-0.23-0.67-0.45-1.4-0.67-2.15c-0.25-0.77-0.48-1.52-0.73-2.3s-0.48-1.5-0.67-2.23
		c-0.2-0.7-0.38-1.35-0.55-1.95h-0.05c-0.23,1.08-0.5,2.15-0.85,3.23c-0.38,1.2-0.75,2.45-1.15,3.7
		C21.9,28.45,21.52,29.63,21.15,30.67z M42.5,20c-0.83,0.02-1.62-0.3-2.22-0.88c-0.58-0.62-0.88-1.45-0.85-2.3
		c-0.03-0.85,0.3-1.65,0.9-2.23s1.4-0.88,2.22-0.88c0.97,0,1.72,0.3,2.28,0.88c0.55,0.6,0.85,1.4,0.83,2.23
		c0.03,0.85-0.28,1.67-0.88,2.3C44.2,19.73,43.35,20.05,42.5,20L42.5,20z M39.7,41.7V22.45c0-0.25,0.1-0.35,0.33-0.35h4.95
		c0.22,0,0.33,0.12,0.33,0.35V41.7c0,0.28-0.1,0.4-0.33,0.4h-4.9C39.83,42.1,39.7,41.95,39.7,41.7z"/>
</g>
</svg>
