<?xml version="1.0" encoding="utf-8"?>
<!-- Generator: Adobe Illustrator 26.1.0, SVG Export Plug-In . SVG Version: 6.00 Build 0)  -->
<svg version="1.1" id="Layer_1" xmlns="http://www.w3.org/2000/svg" xmlns:xlink="http://www.w3.org/1999/xlink" x="0px" y="0px"
	 viewBox="0 0 60 60" style="enable-background:new 0 0 60 60;" xml:space="preserve">
<style type="text/css">
	.st0{fill:#262F3E;}
	.st1{fill-rule:evenodd;clip-rule:evenodd;fill:#F8991D;}
</style>
<g>
	<path class="st0" d="M21.8,17.5c-0.5,0.5-0.9,1-1.1,1.4c-0.2,0.4-0.4,0.9-0.6,1.5c0,0.2-0.1,0.3-0.2,0.4C19.7,21,19.5,21,19.2,21
		l-1.5-0.3c-0.2,0-0.4-0.1-0.5-0.2C17,20.3,17,20.1,17,19.8c0-0.4,0.1-0.8,0.2-1.2c0.1-0.4,0.2-0.8,0.4-1.3
		c-2.4,0.2-4.5-0.5-6.2-2.2c-1.2-1.2-1.8-2.5-1.8-3.9c0-1.4,0.5-2.7,1.7-3.8c1.2-1.2,2.6-1.8,4.2-1.6c1.6,0.1,3.1,0.9,4.6,2.4
		c0.5,0.5,0.9,1,1.4,1.6s0.9,1.3,1.3,2l1-1c1.1-1.1,1.6-2.1,1.6-3c0-0.9-0.6-1.9-1.7-3c-0.5-0.5-1.1-1-1.7-1.4s-1.3-0.8-2-1.1
		c-0.3-0.1-0.6-0.2-0.7-0.3c-0.1-0.1-0.2-0.1-0.3-0.2c-0.2-0.2-0.2-0.4,0.1-0.7l0.7-0.7C20.1,0.2,20.3,0,20.5,0c0.2,0,0.4,0,0.7,0.1
		c0.8,0.2,1.6,0.6,2.4,1.2c0.9,0.5,1.7,1.2,2.5,2c1.7,1.7,2.6,3.3,2.6,4.9c0,1.6-0.8,3.1-2.3,4.7L21.8,17.5
		C21.8,17.4,21.8,17.5,21.8,17.5z M13.8,13.9c0.5,0.5,1,0.9,1.7,1.2c0.7,0.3,1.5,0.5,2.3,0.4c0.5,0,1-0.2,1.4-0.4
		c0.4-0.3,0.9-0.6,1.4-1.1l0.6-0.6c-0.3-0.5-0.7-1-1.1-1.6c-0.4-0.5-0.8-1-1.3-1.4c-1-1-1.8-1.5-2.7-1.6c-0.9-0.1-1.6,0.2-2.3,0.9
		c-0.7,0.7-1,1.3-1,2C12.9,12.5,13.2,13.2,13.8,13.9L13.8,13.9z M23.8,26.9c-0.3-0.3-0.4-0.5-0.4-0.7c0-0.2,0.1-0.5,0.3-0.9
		l7.7-14.4c0.2-0.4,0.3-0.6,0.4-0.7c0.2-0.2,0.5-0.2,0.7,0l1.4,1.4c0.3,0.3,0.4,0.5,0.4,0.7c0,0.2-0.1,0.5-0.3,0.8L26.9,25l11.7-7.2
		c0.4-0.2,0.6-0.3,0.8-0.3s0.5,0.2,0.7,0.4l1.1,1.1c0.3,0.3,0.4,0.5,0.4,0.7c0,0.2-0.1,0.5-0.3,0.8l-7.3,11.8l12-7.1
		c0.4-0.2,0.7-0.3,0.8-0.3c0.2,0,0.4,0.2,0.7,0.4l1.3,1.3c0.2,0.2,0.2,0.5,0,0.7c-0.1,0.1-0.2,0.1-0.3,0.2s-0.2,0.2-0.5,0.3
		l-14.5,7.6c-0.4,0.2-0.7,0.3-0.9,0.3c-0.2,0-0.4-0.2-0.7-0.4l-1.2-1.2c-0.3-0.3-0.4-0.5-0.4-0.7c0-0.2,0.1-0.5,0.3-0.8l7-11.4
		l-11.4,7c-0.4,0.2-0.6,0.3-0.8,0.3c-0.2,0-0.5-0.2-0.7-0.4L23.8,26.9z M41.7,45.6c-0.7-0.7-1.4-1.6-1.9-2.5
		c-0.5-0.9-0.9-1.6-1.1-2.2c-0.1-0.4-0.1-0.7,0-0.8s0.2-0.4,0.3-0.5l0.7-0.7c0.3-0.3,0.6-0.3,0.8-0.1c0.1,0.1,0.2,0.2,0.2,0.3
		c0.1,0.1,0.1,0.3,0.2,0.5c0.3,0.7,0.6,1.4,1.1,2.1c0.5,0.7,1,1.3,1.5,1.9c0.9,0.9,1.8,1.4,2.6,1.6c0.8,0.2,1.5,0,2.1-0.6
		c0.4-0.4,0.6-0.9,0.6-1.4c0-0.5-0.2-1.3-0.7-2.2l-1.4-2.7c-0.7-1.4-1-2.6-0.8-3.7c0.2-1.1,0.6-2,1.4-2.8c0.6-0.6,1.3-1,2-1.2
		c0.7-0.2,1.5-0.3,2.2-0.1c0.8,0.1,1.5,0.3,2.2,0.7c0.7,0.4,1.4,0.9,2,1.6c0.3,0.3,0.6,0.7,0.9,1c0.3,0.4,0.5,0.7,0.8,1.1
		c0.2,0.4,0.4,0.7,0.6,1c0.2,0.3,0.3,0.6,0.3,0.9c0.1,0.3,0.1,0.6,0.1,0.8c0,0.2-0.1,0.4-0.3,0.6l-0.7,0.7c-0.3,0.3-0.6,0.3-0.8,0.1
		c-0.1-0.1-0.2-0.4-0.4-0.7c-0.4-1.2-1.2-2.3-2.2-3.3c-0.8-0.8-1.6-1.3-2.3-1.5c-0.7-0.2-1.4,0-1.9,0.6c-0.4,0.4-0.6,0.9-0.6,1.4
		c0,0.6,0.3,1.4,0.8,2.4l1.4,2.7c0.7,1.4,1,2.6,0.8,3.6c-0.1,1-0.6,1.9-1.3,2.7c-0.6,0.6-1.3,1-2,1.3c-0.7,0.2-1.5,0.3-2.3,0.2
		c-0.8-0.1-1.6-0.4-2.4-0.8C43.2,46.9,42.5,46.4,41.7,45.6L41.7,45.6z"/>
	<path class="st1" d="M37.5,55.3c-8.2-1.2-16.8-6.2-22.7-12.1C6.5,35,2.2,24.5,1.6,13.8c0-0.8,0.9-1,1.1-0.1
		c2.5,9.6,7.9,19.2,15.6,26.9c5.2,5.2,12,9.9,19.5,12.9C39,53.9,38.8,55.5,37.5,55.3z"/>
	<path class="st1" d="M41.7,55c0.2-1.4-3.6-4.3-5.3-5.7c-0.5-0.4-0.2-0.9,0.5-0.8c4.6,0.8,8.5,5.8,8.3,6.9c-0.1,1.2-5.2,4.9-9.8,4.5
		c-0.7-0.1-0.9-0.6-0.3-0.9C37.1,58.3,41.5,56.4,41.7,55z"/>
</g>
</svg>
