<?xml version="1.0" encoding="utf-8"?>
<!-- Generator: Adobe Illustrator 26.1.0, SVG Export Plug-In . SVG Version: 6.00 Build 0)  -->
<svg version="1.1" id="Layer_1" xmlns="http://www.w3.org/2000/svg" xmlns:xlink="http://www.w3.org/1999/xlink" x="0px" y="0px"
	 viewBox="0 0 60 60" style="enable-background:new 0 0 60 60;" xml:space="preserve">
<style type="text/css">
	.st0{fill:#435BA9;}
	.st1{fill:#4767B0;}
	.st2{fill:#EBEBEB;}
	.st3{fill:#FFFFFF;}
</style>
<g>
	<path class="st0" d="M56.45,0l-4.82,53.99L29.97,60L8.36,54L3.55,0H56.45z"/>
	<path class="st1" d="M47.51,50.56l4.12-46.14H30v50.99L47.51,50.56z"/>
	<path class="st2" d="M14.59,24.44l0.59,6.62H30v-6.62H14.59z M30,11.04H13.39l0.6,6.62H30V11.04z M30,48.54v-6.89l-0.03,0.01
		l-7.38-1.99l-0.47-5.28h-6.65l0.93,10.4l13.57,3.77L30,48.54z"/>
	<path class="st3" d="M38.13,31.07l-0.77,8.59l-7.39,1.99v6.89l13.58-3.76l0.1-1.12l1.56-17.44l0.16-1.78l1.2-13.41H29.98v6.62h9.33
		l-0.6,6.78h-8.73v6.62L38.13,31.07z"/>
</g>
</svg>
