<?xml version="1.0" encoding="utf-8"?>
<!-- Generator: Adobe Illustrator 26.1.0, SVG Export Plug-In . SVG Version: 6.00 Build 0)  -->
<svg version="1.1" id="Layer_1" xmlns="http://www.w3.org/2000/svg" xmlns:xlink="http://www.w3.org/1999/xlink" x="0px" y="0px"
	 viewBox="0 0 60 60" style="enable-background:new 0 0 60 60;" xml:space="preserve">
<style type="text/css">
	.st0{clip-path:url(#SVGID_00000012474304576624055060000011560530691064781972_);}
	.st1{fill:#FFFFFF;}
	.st2{fill:#FEC618;}
	.st3{fill:#20BBB1;}
	.st4{fill:#EF5098;}
	.st5{fill:#42A4DC;}
	.st6{fill:#94C93D;}
	.st7{fill:#2676BC;}
	.st8{fill:#1C1E23;}
</style>
<g>
	<defs>
		<rect id="SVGID_1_" y="19.72" width="60" height="20.57"/>
	</defs>
	<clipPath id="SVGID_00000070083954018173256820000000349894842983849383_">
		<use xlink:href="#SVGID_1_"  style="overflow:visible;"/>
	</clipPath>
	<g style="clip-path:url(#SVGID_00000070083954018173256820000000349894842983849383_);">
		<path class="st1" d="M20.65,30.49c0-1.72-1.07-3.25-2.69-3.83c0.07-0.37,0.11-0.74,0.11-1.11c0-3.22-2.61-5.83-5.83-5.83
			c-1.87,0-3.64,0.9-4.73,2.42c-1.35-1.05-3.3-0.8-4.35,0.55c-0.66,0.85-0.83,1.97-0.45,2.98c-1.62,0.59-2.7,2.12-2.71,3.85
			c0,1.72,1.08,3.26,2.7,3.84c-0.07,0.37-0.11,0.74-0.11,1.11c0,2.53,1.63,4.77,4.03,5.54c2.41,0.77,5.04-0.1,6.51-2.15
			c1.35,1.05,3.29,0.81,4.34-0.54c0.23-0.3,0.41-0.64,0.52-1.01c0.19-0.64,0.17-1.33-0.06-1.97C19.56,33.75,20.64,32.21,20.65,30.49
			"/>
		<path class="st2" d="M8.12,28.57l4.52,2.06l4.56-3.99c0.07-0.33,0.1-0.66,0.1-1c0-2.23-1.45-4.21-3.59-4.87
			c-2.13-0.66-4.45,0.14-5.71,1.99l-0.76,3.93L8.12,28.57z"/>
		<path class="st3" d="M3.44,33.36c-0.07,0.33-0.1,0.68-0.1,1.02c0,2.82,2.29,5.11,5.11,5.11c0.58,0,1.15-0.1,1.69-0.29
			c1.03-0.36,1.92-1.04,2.53-1.95l0.75-3.92l-1-1.92l-4.53-2.07L3.44,33.36z"/>
		<path class="st4" d="M3.41,25.54l3.1,0.73l0.68-3.52c-1.08-0.82-2.61-0.61-3.43,0.47C3.26,23.89,3.13,24.76,3.41,25.54z"/>
		<path class="st5" d="M3.14,26.28c-1.39,0.47-2.33,1.77-2.35,3.24c0,1.42,0.88,2.69,2.2,3.19l4.34-3.93l-0.8-1.7L3.14,26.28z"/>
		<path class="st6" d="M13.47,37.25c0.86,0.65,2.05,0.66,2.92,0.02c0.87-0.64,1.21-1.78,0.84-2.8l-3.09-0.72L13.47,37.25z"/>
		<path class="st7" d="M14.1,32.93l3.41,0.8c1.39-0.47,2.34-1.77,2.35-3.24c0-1.42-0.88-2.68-2.2-3.18l-4.45,3.9L14.1,32.93
			L14.1,32.93z"/>
		<path class="st8" d="M28.87,34.17l0.41-0.04l0.03,0.84c-0.92,0.14-1.85,0.21-2.77,0.23c-1.02,0-1.75-0.3-2.18-0.89
			s-0.64-1.52-0.64-2.77c0-2.49,0.99-3.74,2.97-3.74c0.96,0,1.68,0.27,2.15,0.8c0.47,0.54,0.71,1.38,0.71,2.52l-0.06,0.81H24.8
			c0,0.79,0.14,1.37,0.43,1.75c0.28,0.38,0.78,0.57,1.49,0.57C27.42,34.25,28.14,34.22,28.87,34.17z M28.48,31.08
			c0-0.87-0.14-1.49-0.42-1.85c-0.28-0.36-0.73-0.54-1.37-0.54c-0.63,0-1.11,0.19-1.42,0.57c-0.32,0.38-0.48,0.99-0.49,1.82H28.48
			L28.48,31.08z M31.04,35.13v-9.36h1.07v9.36H31.04z M38.82,30.08v3.59c0,0.36,0.89,0.34,0.89,0.34l-0.05,0.94
			c-0.75,0-1.37,0.06-1.74-0.3c-0.81,0.36-1.68,0.54-2.56,0.53c-0.65,0-1.15-0.19-1.49-0.56c-0.34-0.37-0.51-0.9-0.51-1.6
			c0-0.69,0.18-1.2,0.53-1.53c0.35-0.33,0.9-0.53,1.65-0.6l2.23-0.21v-0.61c0-0.48-0.1-0.83-0.31-1.04
			c-0.23-0.22-0.54-0.33-0.85-0.31h-2.8v-0.94h2.73c0.81,0,1.39,0.19,1.76,0.56C38.64,28.72,38.82,29.3,38.82,30.08L38.82,30.08z
			 M34.44,32.98c0,0.87,0.36,1.31,1.08,1.31c0.65,0,1.29-0.11,1.91-0.33l0.33-0.11V31.5l-2.1,0.2c-0.43,0.04-0.74,0.16-0.93,0.37
			C34.54,32.28,34.44,32.59,34.44,32.98L34.44,32.98z M42.99,28.75c-1.03,0-1.55,0.36-1.55,1.08c0,0.33,0.12,0.57,0.36,0.7
			c0.24,0.14,0.78,0.28,1.62,0.43c0.84,0.15,1.44,0.35,1.79,0.62c0.35,0.26,0.53,0.76,0.53,1.49c0,0.73-0.23,1.27-0.7,1.61
			c-0.47,0.34-1.15,0.51-2.06,0.51c-0.59,0-2.55-0.22-2.55-0.22l0.06-0.92c1.13,0.11,1.94,0.19,2.49,0.19
			c0.55,0,0.97-0.09,1.26-0.26c0.29-0.18,0.43-0.47,0.43-0.88c0-0.41-0.12-0.69-0.37-0.84c-0.25-0.15-0.79-0.29-1.62-0.42
			c-0.83-0.13-1.43-0.33-1.78-0.58c-0.35-0.26-0.53-0.73-0.53-1.42s0.24-1.2,0.73-1.54s1.1-0.5,1.83-0.5c0.58,0,2.59,0.15,2.59,0.15
			v0.93C44.46,28.82,43.59,28.75,42.99,28.75L42.99,28.75z M50.88,28.86h-2.26v3.4c0,0.82,0.06,1.35,0.18,1.61
			c0.12,0.26,0.4,0.38,0.85,0.38l1.27-0.09l0.07,0.88c-0.48,0.09-0.96,0.14-1.45,0.16c-0.74,0-1.25-0.18-1.54-0.54
			c-0.28-0.36-0.43-1.05-0.43-2.06v-3.74h-1.01v-0.92h1.01v-2.18h1.05v2.18h2.26V28.86z M52.36,27.03v-1.24h1.07v1.24H52.36z
			 M52.36,35.13v-7.2h1.07v7.2H52.36z M58.05,27.79c0.53,0.02,1.06,0.08,1.59,0.17l0.34,0.04l-0.04,0.87
			c-0.56-0.07-1.12-0.11-1.68-0.13c-0.81,0-1.35,0.19-1.64,0.58s-0.43,1.1-0.43,2.13c0,1.04,0.14,1.76,0.41,2.17
			c0.27,0.41,0.83,0.61,1.69,0.61l1.68-0.13L60,34.99c-0.65,0.11-1.31,0.18-1.98,0.2c-1.11,0-1.87-0.28-2.3-0.85
			c-0.42-0.57-0.63-1.53-0.63-2.88c0-1.35,0.23-2.3,0.68-2.85C56.23,28.07,56.99,27.79,58.05,27.79L58.05,27.79z"/>
	</g>
</g>
</svg>
