<?xml version="1.0" encoding="utf-8"?>
<!-- Generator: Adobe Illustrator 26.1.0, SVG Export Plug-In . SVG Version: 6.00 Build 0)  -->
<svg version="1.1" id="Layer_1" xmlns="http://www.w3.org/2000/svg" xmlns:xlink="http://www.w3.org/1999/xlink" x="0px" y="0px"
	 viewBox="0 0 60 60" style="enable-background:new 0 0 60 60;" xml:space="preserve">
<style type="text/css">
	.st0{fill:#EA4535;}
	.st1{fill:#557EBF;}
	.st2{fill:#36A852;}
	.st3{fill:#F9BC15;}
	.st4{fill:#606469;}
</style>
<g>
	<g>
		<path class="st0" d="M34.88,15.61h1.11l3.15-3.15l0.15-1.34c-5.87-5.18-14.83-4.62-20.01,1.25c-1.44,1.63-2.48,3.57-3.05,5.67
			c0.35-0.14,0.74-0.17,1.11-0.07l6.31-1.04c0,0,0.32-0.53,0.49-0.5c2.81-3.08,7.53-3.44,10.77-0.82L34.88,15.61z"/>
		<path class="st1" d="M43.64,18.04c-0.72-2.67-2.21-5.07-4.28-6.91l-4.43,4.43c1.87,1.53,2.93,3.83,2.89,6.24v0.79
			c2.18,0,3.94,1.76,3.94,3.94s-1.76,3.94-3.94,3.94h-7.88l-0.79,0.8v4.73l0.79,0.79h7.88c5.66,0.04,10.28-4.51,10.33-10.17
			C48.17,23.17,46.48,19.96,43.64,18.04z"/>
		<path class="st2" d="M22.04,36.73h7.88v-6.31h-7.88c-0.56,0-1.12-0.12-1.63-0.35l-1.11,0.34l-3.18,3.15l-0.28,1.11
			C17.64,36.02,19.81,36.74,22.04,36.73z"/>
		<path class="st3" d="M22.04,16.27c-5.66,0.03-10.22,4.65-10.19,10.31c0.02,3.16,1.49,6.14,4,8.06l4.57-4.57
			c-1.98-0.9-2.86-3.23-1.97-5.21c0.9-1.98,3.23-2.86,5.21-1.97c0.87,0.39,1.57,1.09,1.97,1.97l4.57-4.57
			C28.27,17.74,25.25,16.25,22.04,16.27z"/>
	</g>
	<g>
		<path class="st4" d="M4.18,50.04c-1.1,0.01-2.17-0.42-2.94-1.21c-0.8-0.75-1.25-1.81-1.24-2.91c-0.01-1.1,0.43-2.15,1.24-2.91
			c0.77-0.79,1.84-1.24,2.94-1.23c1.06-0.01,2.07,0.4,2.82,1.14l-0.79,0.81c-0.54-0.53-1.27-0.81-2.03-0.8
			c-0.79-0.01-1.55,0.31-2.1,0.89c-0.56,0.56-0.87,1.32-0.86,2.12c-0.01,0.78,0.3,1.54,0.86,2.09c1.15,1.14,3,1.17,4.18,0.05
			c0.35-0.38,0.56-0.87,0.61-1.39H4.19v-1.14h3.79c0.04,0.23,0.05,0.46,0.04,0.7c0.05,0.97-0.31,1.92-0.98,2.63
			C6.3,49.66,5.26,50.08,4.18,50.04z M12.99,49.29c-1.06,1.01-2.72,1.01-3.78,0c-0.51-0.5-0.79-1.18-0.77-1.9
			c-0.02-0.71,0.26-1.4,0.77-1.9c1.06-1.01,2.72-1.01,3.78,0c0.51,0.5,0.79,1.18,0.77,1.9C13.78,48.1,13.49,48.79,12.99,49.29
			L12.99,49.29z M10.04,48.54c0.55,0.58,1.46,0.61,2.04,0.07c0.02-0.02,0.05-0.04,0.07-0.07c0.3-0.31,0.46-0.72,0.45-1.15
			c0.01-0.43-0.15-0.85-0.45-1.16c-0.56-0.59-1.49-0.6-2.08-0.04c-0.01,0.01-0.03,0.03-0.04,0.04c-0.3,0.31-0.46,0.73-0.45,1.16
			C9.58,47.82,9.74,48.23,10.04,48.54L10.04,48.54z M18.79,49.29c-1.06,1.01-2.72,1.01-3.78,0c-0.51-0.5-0.79-1.18-0.77-1.9
			c-0.02-0.71,0.26-1.4,0.77-1.9c1.06-1.01,2.72-1.01,3.78,0c0.51,0.5,0.79,1.18,0.77,1.9C19.59,48.1,19.31,48.79,18.79,49.29z
			 M15.85,48.54c0.55,0.58,1.46,0.61,2.04,0.07c0.02-0.02,0.05-0.04,0.07-0.07c0.3-0.31,0.46-0.72,0.45-1.15
			c0.01-0.43-0.15-0.85-0.45-1.16c-0.56-0.59-1.49-0.6-2.08-0.04c-0.01,0.01-0.03,0.03-0.04,0.04c-0.3,0.31-0.46,0.73-0.45,1.16
			C15.38,47.82,15.55,48.23,15.85,48.54L15.85,48.54z M22.61,52.43c-0.53,0.02-1.06-0.15-1.49-0.47c-0.38-0.28-0.68-0.66-0.87-1.1
			l1.02-0.42c0.11,0.26,0.28,0.49,0.5,0.66c0.24,0.19,0.53,0.29,0.83,0.28c0.39,0.02,0.77-0.12,1.04-0.4
			c0.27-0.32,0.4-0.74,0.37-1.16v-0.38h-0.04c-0.34,0.41-0.86,0.63-1.4,0.6c-0.68,0-1.32-0.28-1.78-0.78
			c-0.5-0.49-0.77-1.17-0.76-1.87c-0.01-0.71,0.26-1.38,0.76-1.88c0.46-0.5,1.11-0.78,1.78-0.78c0.28,0,0.56,0.06,0.82,0.18
			c0.22,0.1,0.42,0.24,0.58,0.42h0.04v-0.42h1.11v4.75c0.06,0.76-0.2,1.51-0.71,2.07C23.94,52.2,23.29,52.45,22.61,52.43z M22.69,49
			c0.39,0.01,0.76-0.15,1.01-0.45c0.28-0.32,0.42-0.72,0.41-1.14c0.02-0.43-0.13-0.84-0.41-1.16c-0.25-0.29-0.62-0.46-1.01-0.45
			c-0.4-0.01-0.78,0.15-1.04,0.45c-0.3,0.31-0.46,0.73-0.45,1.16c-0.01,0.42,0.15,0.84,0.45,1.14C21.92,48.84,22.3,49.01,22.69,49z
			 M27.11,42.09v7.8h-1.16v-7.8L27.11,42.09z M30.3,50.04c-0.7,0.02-1.39-0.26-1.88-0.76c-0.5-0.5-0.77-1.18-0.75-1.89
			c-0.03-0.71,0.24-1.4,0.73-1.91c0.46-0.49,1.11-0.76,1.78-0.74c0.31,0,0.61,0.06,0.89,0.17c0.25,0.1,0.49,0.25,0.68,0.45
			c0.17,0.16,0.32,0.34,0.45,0.54c0.1,0.17,0.19,0.34,0.26,0.52l0.12,0.3l-3.57,1.47c0.22,0.51,0.73,0.83,1.28,0.8
			c0.53,0,1.03-0.28,1.31-0.74l0.89,0.6c-0.23,0.33-0.52,0.6-0.86,0.81C31.24,49.92,30.77,50.05,30.3,50.04L30.3,50.04z
			 M28.81,47.31l2.37-0.99c-0.07-0.17-0.2-0.32-0.37-0.41c-0.19-0.11-0.4-0.16-0.61-0.16c-0.36,0.01-0.71,0.16-0.96,0.42
			C28.94,46.48,28.78,46.89,28.81,47.31z M38.68,50.04c-2.03,0.04-3.7-1.58-3.74-3.61c0-0.05,0-0.1,0-0.15
			c-0.05-2.03,1.56-3.71,3.59-3.76c0.05,0,0.1,0,0.15,0c1.02-0.03,1.99,0.4,2.65,1.18l-0.64,0.62c-0.48-0.61-1.22-0.95-2-0.91
			c-0.74-0.02-1.46,0.27-1.99,0.79c-0.55,0.55-0.84,1.3-0.81,2.08c-0.03,0.78,0.26,1.53,0.81,2.08c0.53,0.52,1.24,0.81,1.99,0.79
			c0.86,0.01,1.68-0.37,2.23-1.04l0.64,0.64c-0.34,0.4-0.76,0.72-1.24,0.94C39.81,49.93,39.25,50.05,38.68,50.04z M43.28,49.88
			h-0.92v-7.2h0.92V49.88z M44.79,45.55c1.01-1,2.63-1,3.64,0c0.48,0.5,0.73,1.18,0.71,1.87c0.02,0.69-0.24,1.37-0.71,1.87
			c-1.01,1-2.63,1-3.64,0c-0.48-0.5-0.73-1.18-0.71-1.87C44.06,46.73,44.31,46.05,44.79,45.55z M45.48,48.72
			c0.59,0.62,1.58,0.65,2.2,0.06c0.02-0.02,0.04-0.04,0.06-0.06c0.33-0.35,0.5-0.82,0.48-1.29c0.02-0.48-0.15-0.94-0.48-1.29
			c-0.59-0.62-1.58-0.65-2.2-0.06c-0.02,0.02-0.04,0.04-0.06,0.06c-0.33,0.35-0.5,0.82-0.48,1.29
			C44.98,47.9,45.16,48.36,45.48,48.72L45.48,48.72z M54.26,49.88h-0.89V49.2h-0.03c-0.16,0.26-0.38,0.47-0.65,0.62
			c-0.28,0.16-0.59,0.25-0.91,0.25c-0.53,0.04-1.04-0.17-1.4-0.56c-0.34-0.43-0.51-0.96-0.48-1.51v-3.03h0.92v2.86
			c0,0.92,0.41,1.38,1.22,1.38c0.37,0.01,0.71-0.15,0.94-0.45c0.24-0.3,0.37-0.68,0.36-1.07v-2.73h0.92V49.88z M57.4,50.04
			c-0.63,0-1.24-0.27-1.65-0.75c-0.46-0.51-0.71-1.18-0.69-1.87c-0.02-0.69,0.23-1.36,0.69-1.87c0.41-0.48,1.02-0.76,1.65-0.75
			c0.35-0.01,0.7,0.08,1.01,0.24c0.27,0.14,0.5,0.35,0.67,0.6h0.04l-0.04-0.68v-2.28H60v7.2h-0.89V49.2h-0.04
			c-0.17,0.26-0.4,0.46-0.67,0.6C58.09,49.97,57.75,50.05,57.4,50.04z M57.55,49.2c0.42,0.01,0.83-0.17,1.11-0.48
			c0.31-0.36,0.47-0.82,0.45-1.3c0.03-0.47-0.13-0.94-0.45-1.3c-0.56-0.62-1.51-0.66-2.13-0.1c-0.04,0.03-0.07,0.07-0.1,0.1
			c-0.31,0.35-0.48,0.82-0.45,1.29c-0.03,0.47,0.13,0.94,0.45,1.29C56.72,49.03,57.12,49.21,57.55,49.2z"/>
	</g>
</g>
</svg>
