<?xml version="1.0" encoding="utf-8"?>
<!-- Generator: Adobe Illustrator 26.1.0, SVG Export Plug-In . SVG Version: 6.00 Build 0)  -->
<svg version="1.1" id="Layer_1" xmlns="http://www.w3.org/2000/svg" xmlns:xlink="http://www.w3.org/1999/xlink" x="0px" y="0px"
	 viewBox="0 0 60 60" style="enable-background:new 0 0 60 60;" xml:space="preserve">
<style type="text/css">
	.st0{fill:#010101;}
	.st1{fill:#356892;}
	.st2{fill:#FFFFFF;}
	.st3{fill:none;stroke:#FFFFFF;stroke-width:3;stroke-linecap:round;stroke-linejoin:round;}
</style>
<g>
	<path class="st0" d="M40.78,35.42c0.31-2.58,0.22-2.96,2.14-2.54l0.49,0.04c1.48,0.07,3.41-0.24,4.55-0.77
		c2.45-1.13,3.9-3.03,1.48-2.53c-5.5,1.13-5.88-0.73-5.88-0.73c5.81-8.62,8.24-19.56,6.14-22.24c-5.72-7.3-15.61-3.85-15.78-3.76
		l-0.05,0.01c-1.09-0.23-2.3-0.36-3.67-0.38c-2.49-0.04-4.38,0.65-5.81,1.74c0,0-17.65-7.27-16.83,9.15
		c0.17,3.49,5.01,26.43,10.77,19.5c2.11-2.53,4.14-4.67,4.14-4.67c1.01,0.67,2.22,1.01,3.49,0.89l0.1-0.08
		c-0.03,0.31-0.02,0.62,0.04,0.99c-1.48,1.66-1.05,1.95-4.02,2.56c-3,0.62-1.24,1.72-0.09,2.01c1.4,0.35,4.63,0.84,6.81-2.21
		l-0.09,0.35c0.58,0.47,0.54,3.35,0.63,5.41c0.08,2.06,0.22,3.98,0.64,5.12c0.42,1.13,0.92,4.05,4.82,3.22
		C38.07,45.78,40.56,44.78,40.78,35.42"/>
	<path class="st0" d="M33.54,48.52c-1.73,0-2.85-0.67-3.53-1.31c-1.03-0.97-1.44-2.22-1.68-2.97l-0.11-0.31
		c-0.49-1.33-0.66-3.24-0.76-5.7c-0.01-0.37-0.03-0.75-0.04-1.15c-0.01-0.29-0.02-0.66-0.03-1.05c-0.61,0.29-1.27,0.5-1.96,0.62
		c-1.22,0.21-2.52,0.14-3.89-0.2c-0.96-0.24-1.96-0.74-2.53-1.51c-1.66,1.45-3.24,1.26-4.11,0.97c-1.52-0.51-2.88-1.93-4.16-4.36
		c-0.91-1.73-1.79-3.98-2.62-6.69c-1.44-4.72-2.36-9.7-2.44-11.33C5.42,8.4,6.8,4.74,9.77,2.64c4.69-3.31,11.79-1.36,14.37-0.48
		c1.74-1.05,3.78-1.56,6.1-1.52c1.24,0.02,2.42,0.13,3.52,0.32c1.15-0.36,3.41-0.88,6-0.85c4.77,0.06,8.73,1.92,11.44,5.38
		c1.93,2.47,0.98,7.66,0.24,10.53c-1.04,4.04-2.87,8.34-5.12,12.08c0.61,0,1.49-0.07,2.75-0.33c2.48-0.51,3.2,0.82,3.4,1.41
		c0.79,2.39-2.64,4.19-3.71,4.69c-1.37,0.64-3.6,1.02-5.43,0.94l-0.08-0.01l-0.48-0.04l-0.05,0.4l-0.05,0.39
		c-0.12,4.74-0.8,7.74-2.19,9.73c-1.46,2.08-3.49,2.66-5.28,3.05C34.59,48.46,34.04,48.52,33.54,48.52L33.54,48.52z M29.9,31.27
		c1.11,0.89,1.21,2.57,1.3,5.7c0.01,0.39,0.02,0.76,0.03,1.11c0.04,1.05,0.14,3.5,0.52,4.53c0.05,0.15,0.1,0.3,0.15,0.45
		c0.43,1.31,0.64,1.97,2.49,1.57c1.55-0.33,2.35-0.63,2.98-1.52c0.91-1.29,1.42-3.89,1.51-7.73l1.89,0.05l-1.88-0.23l0.05-0.47
		c0.18-1.54,0.31-2.66,1.34-3.4c0.83-0.59,1.77-0.53,2.52-0.4c-0.83-0.62-1.05-1.36-1.12-1.66l-0.16-0.78L42,27.84
		c2.55-3.78,4.65-8.44,5.77-12.76c1.15-4.44,0.8-6.81,0.45-7.25c-4.63-5.92-12.67-3.48-13.51-3.2l-0.14,0.08l-0.71,0.13l-0.36-0.08
		c-1-0.21-2.12-0.32-3.32-0.34c-1.88-0.03-3.39,0.41-4.64,1.36l-0.86,0.65l-1-0.41c-2.14-0.87-8.42-2.63-11.73-0.28
		c-1.84,1.3-2.68,3.86-2.49,7.59c0.06,1.23,0.9,5.9,2.28,10.42c1.91,6.25,3.64,8.33,4.37,8.57c0.13,0.04,0.45-0.21,0.78-0.6
		c2.12-2.55,4.14-4.68,4.22-4.77l1.09-1.15l1.32,0.88c0.53,0.35,1.12,0.56,1.73,0.59l3.16-2.69l-0.46,4.66
		c-0.01,0.1-0.02,0.25,0.03,0.51l0.14,0.88l-0.59,0.67l-0.07,0.08l1.73,0.8L29.9,31.27z"/>
	<path class="st1" d="M49.45,29.63c-5.5,1.13-5.88-0.73-5.88-0.73c5.81-8.62,8.24-19.56,6.14-22.24c-5.72-7.3-15.61-3.85-15.78-3.76
		l-0.05,0.01c-1.09-0.23-2.3-0.36-3.67-0.38c-2.49-0.04-4.38,0.65-5.81,1.74c0,0-17.65-7.27-16.83,9.15
		c0.17,3.49,5.01,26.43,10.77,19.5c2.11-2.53,4.14-4.67,4.14-4.67c1.01,0.67,2.22,1.01,3.49,0.89l0.1-0.08
		c-0.03,0.31-0.02,0.62,0.04,0.99c-1.48,1.66-1.05,1.95-4.02,2.56c-3,0.62-1.24,1.72-0.09,2.01c1.4,0.35,4.63,0.84,6.81-2.21
		l-0.09,0.35c0.58,0.47,0.99,3.03,0.92,5.36c-0.07,2.32-0.11,3.92,0.34,5.17c0.46,1.25,0.92,4.05,4.82,3.22
		c3.26-0.7,4.95-2.51,5.18-5.53c0.17-2.15,0.54-1.83,0.57-3.75l0.3-0.91c0.35-2.91,0.06-3.85,2.06-3.41l0.49,0.04
		c1.48,0.07,3.41-0.24,4.55-0.77C50.41,31.03,51.86,29.13,49.45,29.63z"/>
	<path class="st2" d="M33.73,47.35c-3.25,0-4.28-2.58-4.7-3.63c-0.62-1.54-0.75-7.53-0.61-12.44c0.01-0.35,0.3-0.62,0.65-0.61
		c0.35,0.01,0.62,0.3,0.61,0.65c-0.16,5.67,0.07,10.8,0.52,11.94c0.71,1.78,1.79,3.34,4.85,2.69c2.9-0.62,3.99-1.72,4.47-4.53
		c0.37-2.15,1.11-8.28,1.2-9.48c0.03-0.35,0.33-0.61,0.68-0.58c0.35,0.03,0.61,0.33,0.58,0.68c-0.09,1.26-0.82,7.37-1.21,9.61
		c-0.57,3.31-2.05,4.82-5.45,5.55C34.74,47.3,34.21,47.35,33.73,47.35z M16.1,34.77c-0.31,0-0.59-0.06-0.84-0.14
		c-2.11-0.7-4.12-4.15-5.98-10.23c-1.41-4.63-2.31-9.46-2.39-11.03c-0.23-4.65,0.97-7.95,3.56-9.79c5.14-3.64,13.78-0.17,14.15-0.02
		c0.32,0.13,0.48,0.5,0.34,0.82c-0.13,0.32-0.5,0.48-0.82,0.34v0c-0.08-0.03-8.37-3.35-12.94-0.11c-2.22,1.57-3.24,4.5-3.03,8.7
		c0.07,1.32,0.9,6.04,2.33,10.73c1.66,5.43,3.54,8.85,5.17,9.4c0.26,0.09,1.03,0.35,2.15-0.99c2.1-2.52,4.02-4.53,4.04-4.55
		c0.24-0.25,0.64-0.26,0.89-0.02c0.25,0.24,0.26,0.64,0.02,0.89c-0.02,0.02-1.91,2-3.98,4.49C17.8,34.43,16.86,34.77,16.1,34.77z
		 M43.53,29.46c-0.12,0-0.24-0.03-0.35-0.11c-0.29-0.19-0.37-0.59-0.17-0.88c5.87-8.71,7.93-19.24,6.17-21.5
		c-2.22-2.84-5.36-4.32-9.32-4.41c-2.94-0.06-5.27,0.69-5.65,0.82l-0.1,0.04c-0.38,0.12-0.68-0.09-0.79-0.34
		c-0.13-0.29-0.02-0.63,0.25-0.8l0.17-0.07l-0.01,0l0.01,0c0.65-0.24,3.02-0.95,5.95-0.91c4.39,0.05,8.01,1.74,10.48,4.89
		c1.17,1.49,1.17,4.93,0.01,9.44c-1.19,4.59-3.42,9.53-6.12,13.54C43.93,29.37,43.73,29.46,43.53,29.46z M43.83,33.5
		c-1,0-1.9-0.14-2.44-0.46c-0.55-0.33-0.66-0.78-0.67-1.02c-0.15-2.65,1.31-3.11,2.06-3.32c-0.1-0.16-0.25-0.34-0.4-0.53
		c-0.44-0.54-1.03-1.29-1.49-2.4c-0.07-0.17-0.3-0.58-0.56-1.05c-1.41-2.54-4.36-7.81-2.47-10.51c0.88-1.25,2.62-1.74,5.18-1.47
		c-0.75-2.3-4.35-9.49-12.88-9.63c-2.57-0.04-4.67,0.75-6.25,2.34c-3.54,3.58-3.41,10.04-3.41,10.11c0.01,0.35-0.27,0.64-0.61,0.65
		c-0.35,0.01-0.64-0.27-0.65-0.61c-0.01-0.29-0.14-7.07,3.77-11.03c1.83-1.85,4.24-2.76,7.17-2.72c5.46,0.09,8.97,2.86,10.96,5.18
		c2.16,2.52,3.23,5.3,3.31,6.23c0.07,0.69-0.43,0.83-0.53,0.85l-0.23,0.01c-2.52-0.4-4.13-0.12-4.8,0.83
		c-1.44,2.05,1.35,7.04,2.53,9.18c0.3,0.54,0.52,0.94,0.62,1.18c0.39,0.95,0.9,1.58,1.31,2.09c0.36,0.45,0.67,0.84,0.78,1.3
		c0.05,0.09,0.79,1.18,5.14,0.28c1.09-0.23,1.75-0.03,1.95,0.57c0.39,1.19-1.82,2.58-3.04,3.15C47.09,33.17,45.34,33.5,43.83,33.5z
		 M41.97,31.91c0.14,0.14,0.83,0.38,2.26,0.32c1.27-0.05,2.62-0.33,3.42-0.71c1.03-0.48,1.72-1.01,2.08-1.38l-0.2,0.04
		c-2.79,0.58-4.76,0.5-5.86-0.23c-0.08-0.05-0.15-0.11-0.21-0.16c-0.12,0.05-0.23,0.08-0.31,0.1
		C42.53,30.07,41.89,30.25,41.97,31.91z M23.97,35.43c-0.69,0-1.42-0.09-2.16-0.28c-0.77-0.19-2.07-0.77-2.05-1.73
		c0.02-1.07,1.58-1.39,2.16-1.51c2.11-0.44,2.25-0.61,2.91-1.45c0.19-0.24,0.43-0.55,0.76-0.91c0.49-0.54,1.02-0.82,1.58-0.82
		c0.39,0,0.71,0.13,0.92,0.22c0.67,0.28,1.24,0.96,1.47,1.76c0.21,0.73,0.11,1.43-0.28,1.98C28,34.48,26.17,35.43,23.97,35.43z
		 M21.12,33.48c0.19,0.15,0.57,0.34,0.99,0.45c0.64,0.16,1.27,0.24,1.86,0.24c1.8,0,3.24-0.74,4.29-2.21
		c0.22-0.31,0.15-0.69,0.09-0.9c-0.12-0.43-0.43-0.82-0.74-0.95c-0.17-0.07-0.31-0.12-0.44-0.12c-0.07,0-0.28,0-0.64,0.4
		c-0.3,0.34-0.52,0.61-0.71,0.85c-0.82,1.05-1.2,1.4-3.65,1.9C21.58,33.27,21.27,33.39,21.12,33.48L21.12,33.48z M25.97,30.57
		c-0.31,0-0.57-0.22-0.62-0.53c-0.02-0.1-0.03-0.21-0.03-0.32c-1.61-0.03-3.15-0.72-4.33-1.95c-1.49-1.55-2.16-3.7-1.86-5.9
		c0.33-2.38,0.21-4.49,0.14-5.62c-0.02-0.31-0.03-0.54-0.03-0.7c0-0.2,0-0.73,1.77-1.62c0.63-0.32,1.89-0.88,3.27-1.02
		c2.28-0.24,3.79,0.78,4.24,2.86c1.22,5.62,0.1,8.11-0.72,9.92c-0.15,0.34-0.3,0.66-0.41,0.97l-0.1,0.27
		c-0.43,1.16-0.8,2.16-0.69,2.91c0.05,0.34-0.18,0.67-0.53,0.72L25.97,30.57z M20.5,15.73l0.03,0.45c0.07,1.17,0.2,3.36-0.15,5.87
		c-0.25,1.81,0.3,3.58,1.52,4.85c0.96,1,2.23,1.56,3.53,1.56h0.03c0.15-0.61,0.39-1.26,0.65-1.96l0.1-0.27
		c0.13-0.35,0.28-0.69,0.44-1.04c0.79-1.75,1.77-3.92,0.64-9.14c-0.22-1.03-0.77-1.63-1.66-1.83C23.8,13.81,21.07,15.19,20.5,15.73z
		 M24.31,15.46c-0.03,0.22,0.41,0.82,0.98,0.9c0.57,0.08,1.06-0.39,1.09-0.61c0.03-0.22-0.41-0.47-0.98-0.55
		C24.83,15.12,24.34,15.24,24.31,15.46z M25.42,16.58l-0.16-0.01c-0.36-0.05-0.72-0.27-0.96-0.6c-0.09-0.11-0.23-0.34-0.2-0.54
		c0.04-0.29,0.39-0.46,0.95-0.46c0.12,0,0.25,0.01,0.38,0.03c0.3,0.04,0.58,0.13,0.79,0.25c0.36,0.2,0.39,0.42,0.37,0.54
		C26.54,16.1,26.03,16.58,25.42,16.58z M24.51,15.5c0.02,0.14,0.36,0.59,0.8,0.65l0.1,0.01c0.41,0,0.72-0.32,0.75-0.43
		c-0.04-0.07-0.3-0.25-0.8-0.32c-0.11-0.02-0.22-0.02-0.32-0.02C24.73,15.39,24.55,15.46,24.51,15.5z M41.74,15.01
		c0.03,0.22-0.41,0.82-0.98,0.9c-0.57,0.08-1.06-0.39-1.09-0.61c-0.03-0.22,0.41-0.47,0.98-0.55
		C41.22,14.67,41.71,14.79,41.74,15.01z M40.63,16.02c-0.55,0-1.03-0.43-1.07-0.71c-0.05-0.33,0.5-0.59,1.07-0.67
		c0.12-0.02,0.25-0.03,0.37-0.03c0.49,0,0.81,0.14,0.85,0.37c0.02,0.15-0.09,0.38-0.29,0.59c-0.13,0.14-0.41,0.38-0.78,0.43
		L40.63,16.02z M41,14.83c-0.11,0-0.22,0.01-0.34,0.02c-0.57,0.08-0.91,0.31-0.89,0.43c0.02,0.13,0.38,0.53,0.86,0.53l0.12-0.01
		c0.31-0.04,0.54-0.25,0.66-0.36c0.17-0.18,0.24-0.36,0.24-0.42C41.63,14.95,41.42,14.83,41,14.83z M42.57,27.8
		c-0.12,0-0.24-0.03-0.35-0.11c-0.29-0.19-0.37-0.59-0.17-0.87c1.34-2,1.1-4.05,0.86-6.03c-0.1-0.84-0.21-1.71-0.18-2.55
		c0.03-0.86,0.14-1.57,0.24-2.26c0.13-0.81,0.24-1.58,0.19-2.49c-0.02-0.35,0.25-0.64,0.6-0.66c0.35-0.02,0.64,0.25,0.66,0.6
		c0.06,1.04-0.08,1.91-0.21,2.75c-0.1,0.65-0.2,1.32-0.23,2.1c-0.02,0.74,0.07,1.53,0.17,2.36c0.25,2.1,0.54,4.49-1.06,6.88
		C42.97,27.71,42.77,27.8,42.57,27.8z"/>
	<path class="st3" d="M5.44,6.55"/>
	<path class="st0" d="M0,48.72c0.54-0.09,1.24-0.17,2.13-0.17c1.1,0,1.9,0.26,2.41,0.71c0.47,0.41,0.75,1.03,0.75,1.8
		c0,0.78-0.23,1.39-0.66,1.84C4.04,53.53,3.09,53.85,2,53.85c-0.33,0-0.64-0.01-0.89-0.08v3.44H0L0,48.72L0,48.72z M1.11,52.87
		c0.24,0.06,0.55,0.09,0.92,0.09c1.34,0,2.16-0.65,2.16-1.84c0-1.13-0.8-1.68-2.03-1.68c-0.48,0-0.85,0.04-1.05,0.09L1.11,52.87z
		 M12.01,54.08c0,2.28-1.58,3.28-3.07,3.28c-1.67,0-2.96-1.22-2.96-3.18c0-2.07,1.35-3.28,3.06-3.28
		C10.81,50.9,12.01,52.19,12.01,54.08z M7.12,54.14c0,1.35,0.78,2.37,1.87,2.37c1.07,0,1.87-1.01,1.87-2.4
		c0-1.05-0.52-2.37-1.85-2.37S7.12,52.97,7.12,54.14z M13.28,56.07c0.33,0.22,0.92,0.45,1.48,0.45c0.82,0,1.2-0.41,1.2-0.92
		c0-0.54-0.32-0.83-1.15-1.13c-1.11-0.4-1.63-1.01-1.63-1.75c0-0.99,0.8-1.81,2.13-1.81c0.62,0,1.17,0.18,1.52,0.38l-0.28,0.82
		c-0.24-0.15-0.69-0.36-1.26-0.36c-0.66,0-1.03,0.38-1.03,0.84c0,0.51,0.37,0.74,1.17,1.05c1.07,0.41,1.62,0.94,1.62,1.86
		c0,1.08-0.84,1.85-2.31,1.85c-0.68,0-1.3-0.17-1.73-0.42L13.28,56.07z M19.83,49.27v1.77h1.61v0.85h-1.61v3.33
		c0,0.77,0.22,1.2,0.84,1.2c0.29,0,0.51-0.04,0.65-0.08l0.05,0.84c-0.22,0.09-0.56,0.15-0.99,0.15c-0.52,0-0.94-0.17-1.21-0.47
		c-0.32-0.33-0.43-0.88-0.43-1.61V51.9h-0.96v-0.85h0.96v-1.48L19.83,49.27z M27.94,51.04c-0.03,0.45-0.05,0.94-0.05,1.7v3.58
		c0,1.42-0.28,2.28-0.88,2.82c-0.6,0.56-1.47,0.74-2.24,0.74c-0.74,0-1.56-0.18-2.05-0.51l0.28-0.85C23.4,58.77,24.04,59,24.8,59
		c1.15,0,1.99-0.6,1.99-2.16v-0.69h-0.03c-0.34,0.57-1.01,1.03-1.96,1.03c-1.53,0-2.63-1.3-2.63-3.01c0-2.09,1.36-3.28,2.78-3.28
		c1.07,0,1.66,0.56,1.93,1.07h0.03l0.05-0.93L27.94,51.04z M26.78,53.48c0-0.19-0.01-0.36-0.06-0.51c-0.2-0.65-0.75-1.19-1.57-1.19
		c-1.07,0-1.84,0.91-1.84,2.33c0,1.21,0.61,2.22,1.82,2.22c0.69,0,1.31-0.43,1.56-1.15c0.06-0.19,0.09-0.41,0.09-0.6L26.78,53.48
		L26.78,53.48z M29.67,52.97c0-0.73-0.01-1.35-0.05-1.93h0.98l0.04,1.21h0.05c0.28-0.83,0.96-1.35,1.71-1.35
		c0.13,0,0.22,0.01,0.32,0.04V52c-0.11-0.03-0.23-0.04-0.38-0.04c-0.79,0-1.35,0.6-1.5,1.44c-0.03,0.15-0.05,0.33-0.05,0.52v3.29
		h-1.11L29.67,52.97z M34.34,54.33c0.03,1.52,0.99,2.14,2.12,2.14c0.8,0,1.29-0.14,1.71-0.32l0.19,0.8
		c-0.4,0.18-1.07,0.38-2.05,0.38c-1.9,0-3.04-1.25-3.04-3.11c0-1.86,1.1-3.33,2.89-3.33c2.01,0,2.55,1.77,2.55,2.91
		c0,0.23-0.03,0.41-0.04,0.52L34.34,54.33L34.34,54.33z M37.63,53.53c0.01-0.71-0.29-1.82-1.56-1.82c-1.13,0-1.63,1.05-1.72,1.82
		H37.63z"/>
	<path class="st1" d="M39.99,55.86c0.5,0.31,1.22,0.56,1.99,0.56c1.13,0,1.8-0.6,1.8-1.47c0-0.8-0.46-1.26-1.62-1.71
		c-1.4-0.5-2.27-1.22-2.27-2.44c0-1.34,1.11-2.33,2.78-2.33c0.88,0,1.52,0.2,1.9,0.42l-0.31,0.91c-0.28-0.15-0.85-0.41-1.63-0.41
		c-1.17,0-1.62,0.7-1.62,1.29c0,0.8,0.52,1.2,1.71,1.66c1.45,0.56,2.19,1.26,2.19,2.52c0,1.33-0.98,2.47-3.01,2.47
		c-0.83,0-1.73-0.24-2.19-0.55L39.99,55.86z M53.52,58.48c-1.16-0.31-2.3-0.65-3.29-0.99c-0.18-0.06-0.36-0.13-0.52-0.13
		c-2.04-0.08-3.79-1.58-3.79-4.35c0-2.75,1.68-4.53,4-4.53c2.33,0,3.85,1.81,3.85,4.35c0,2.21-1.02,3.62-2.45,4.12V57
		c0.85,0.22,1.79,0.42,2.51,0.55L53.52,58.48z M52.6,52.88c0-1.72-0.89-3.49-2.72-3.49c-1.87,0-2.79,1.73-2.78,3.6
		c-0.01,1.82,0.99,3.47,2.73,3.47C51.61,56.45,52.6,54.84,52.6,52.88z M55.22,48.62h1.11v7.66H60v0.93h-4.78V48.62z"/>
</g>
</svg>
