<?xml version="1.0" encoding="utf-8"?>
<!-- Generator: Adobe Illustrator 26.1.0, SVG Export Plug-In . SVG Version: 6.00 Build 0)  -->
<svg version="1.1" id="Layer_1" xmlns="http://www.w3.org/2000/svg" xmlns:xlink="http://www.w3.org/1999/xlink" x="0px" y="0px"
	 viewBox="0 0 60 60" style="enable-background:new 0 0 60 60;" xml:space="preserve">
<style type="text/css">
	.st0{fill:#4478BC;}
	.st1{fill-rule:evenodd;clip-rule:evenodd;fill:#4478BC;}
</style>
<g id="XMLID_00000002367477623568393780000003393904109049949594_">
	<g id="XMLID_00000171684286163608655650000010251753193367981740_">
		<g id="XMLID_00000076594437939366031490000016948208287907839909_">
			<g id="XMLID_00000004523002152451174300000006427304620916007092_">
				<g id="XMLID_00000033369781100489609850000000689472773759479942_">
					<path id="XMLID_00000163770143341476307990000000894557092162664105_" class="st0" d="M30,37.59v-5.82
						c6.16,0,10.95-6.11,8.58-12.6c-0.87-2.38-2.79-4.31-5.19-5.18c-6.49-2.35-12.6,2.42-12.6,8.58h-5.81
						c0-9.82,9.5-17.49,19.8-14.27c4.49,1.41,8.09,4.99,9.48,9.48C47.49,28.09,39.82,37.59,30,37.59L30,37.59z"/>
				</g>
				<path id="XMLID_00000078766503354317393000000016831785000705281170_" class="st1" d="M30.02,31.8h-5.81V26h5.81V31.8z"/>
				<path id="XMLID_00000055666260084792170290000006100214510743603639_" class="st1" d="M24.21,36.25h-4.44V31.8h4.44V36.25z"/>
				<path id="XMLID_00000026856483252588977110000015489621907727191448_" class="st1" d="M19.77,31.8h-3.73v-3.73h3.73V31.8z"/>
			</g>
		</g>
	</g>
	<g id="XMLID_00000164506654158793535710000009119707874767345852_">
		<path id="XMLID_00000036253338269280932540000000570973958660259459_" class="st0" d="M5.18,43.48c-0.75-0.53-1.7-0.78-2.79-0.78
			H0v7.58h2.4c1.09,0,2.04-0.27,2.79-0.83c0.41-0.29,0.73-0.7,0.97-1.21c0.22-0.51,0.34-1.12,0.34-1.79s-0.12-1.26-0.34-1.77
			C5.93,44.16,5.6,43.75,5.18,43.48z M1.4,43.98h0.75c0.83,0,1.52,0.17,2.04,0.49c0.58,0.36,0.87,1.02,0.87,1.98
			c0,0.99-0.29,1.69-0.87,2.06C3.69,48.83,3.01,49,2.16,49H1.4V43.98z"/>
		<path id="XMLID_00000168822938877733411850000017903388831285398712_" class="st0" d="M8.16,42.6c-0.24,0-0.43,0.09-0.6,0.24
			c-0.15,0.15-0.24,0.34-0.24,0.58s0.09,0.43,0.24,0.6c0.15,0.15,0.36,0.24,0.6,0.24c0.22,0,0.43-0.09,0.6-0.24
			c0.15-0.15,0.24-0.36,0.24-0.6s-0.09-0.43-0.24-0.58C8.58,42.68,8.38,42.6,8.16,42.6z"/>
		<path id="XMLID_00000052088538898658347570000007560003214131521670_" class="st0" d="M7.47,44.93h1.35v5.35H7.47V44.93z"/>
		<path id="XMLID_00000067228060851541692540000011808348893619653527_" class="st0" d="M13.71,45.37
			c-0.41-0.36-0.85-0.58-1.35-0.58c-0.75,0-1.36,0.26-1.84,0.77c-0.48,0.49-0.73,1.14-0.73,1.92c0,0.75,0.24,1.4,0.72,1.91
			c0.48,0.49,1.11,0.75,1.84,0.75c0.51,0,0.97-0.14,1.33-0.43v0.12c0,0.44-0.12,0.78-0.36,1.02c-0.24,0.24-0.56,0.36-0.97,0.36
			c-0.61,0-1-0.24-1.48-0.89l-0.92,0.89l0.02,0.03c0.2,0.27,0.49,0.54,0.9,0.8c0.39,0.26,0.9,0.39,1.5,0.39
			c0.8,0,1.45-0.24,1.92-0.73c0.48-0.49,0.72-1.14,0.72-1.94v-4.85h-1.33v0.46L13.71,45.37z M13.35,48.54
			c-0.24,0.27-0.54,0.39-0.92,0.39c-0.39,0-0.68-0.14-0.92-0.39c-0.24-0.27-0.34-0.61-0.34-1.04c0-0.44,0.12-0.78,0.34-1.06
			c0.22-0.27,0.54-0.39,0.92-0.39c0.39,0,0.68,0.14,0.92,0.39c0.24,0.27,0.36,0.63,0.36,1.06C13.71,47.93,13.59,48.27,13.35,48.54z"
			/>
		<path id="XMLID_00000062163719864127022510000007690387675335275943_" class="st0" d="M16.17,44.93h1.35v5.35h-1.35V44.93z"/>
		<path id="XMLID_00000155140781579062439350000006782073398705311128_" class="st0" d="M16.86,42.6c-0.24,0-0.43,0.09-0.6,0.24
			c-0.15,0.15-0.24,0.34-0.24,0.58s0.09,0.43,0.24,0.6c0.15,0.15,0.36,0.24,0.6,0.24c0.22,0,0.43-0.09,0.6-0.24
			c0.15-0.15,0.24-0.36,0.24-0.6s-0.09-0.43-0.24-0.58C17.28,42.68,17.09,42.6,16.86,42.6z"/>
		<path id="XMLID_00000101804786875222819490000008707124779733597089_" class="st0" d="M20.47,43.48h-1.33v1.45h-0.77v1.23h0.77
			v2.21c0,0.7,0.14,1.19,0.41,1.48c0.27,0.29,0.77,0.43,1.45,0.43c0.22,0,0.44,0,0.65-0.02h0.07v-1.23l-0.46,0.02
			c-0.32,0-0.53-0.05-0.63-0.17c-0.1-0.12-0.15-0.36-0.15-0.72v-2.03h1.26v-1.23h-1.26V43.48z"/>
		<path id="XMLID_00000098204820149233186440000016274369679565423244_" class="st0" d="M28.02,42.68h1.35v7.59h-1.35V42.68z"/>
		<path id="XMLID_00000121971421938973371360000010938499753104919743_" class="st0" d="M42.96,48.37
			c-0.24,0.27-0.49,0.51-0.68,0.63c-0.19,0.12-0.43,0.19-0.7,0.19c-0.39,0-0.72-0.14-0.97-0.44c-0.26-0.29-0.39-0.68-0.39-1.12
			c0-0.46,0.14-0.83,0.39-1.12c0.26-0.29,0.58-0.44,0.97-0.44c0.43,0,0.89,0.27,1.28,0.73l0.89-0.85c-0.58-0.75-1.31-1.11-2.2-1.11
			c-0.73,0-1.38,0.27-1.91,0.8c-0.53,0.53-0.78,1.19-0.78,1.99s0.27,1.46,0.78,1.99c0.53,0.53,1.16,0.8,1.91,0.8
			c0.97,0,1.75-0.43,2.3-1.19L42.96,48.37L42.96,48.37z"/>
		<path id="XMLID_00000132089232551111357870000015666385125185547913_" class="st0" d="M48.49,45.68
			c-0.19-0.27-0.44-0.48-0.77-0.63c-0.32-0.15-0.7-0.24-1.11-0.24c-0.75,0-1.36,0.27-1.82,0.82c-0.44,0.54-0.68,1.21-0.68,2.01
			c0,0.82,0.26,1.48,0.73,1.99c0.49,0.51,1.14,0.77,1.94,0.77c0.9,0,1.65-0.37,2.21-1.09l0.03-0.03l-0.89-0.85
			c-0.09,0.1-0.2,0.2-0.31,0.31c-0.14,0.12-0.26,0.22-0.39,0.29c-0.2,0.1-0.43,0.15-0.68,0.15c-0.37,0-0.68-0.1-0.92-0.32
			c-0.22-0.2-0.36-0.48-0.39-0.82h3.56l0.02-0.49c0-0.34-0.05-0.68-0.14-0.99C48.81,46.24,48.68,45.95,48.49,45.68L48.49,45.68z
			 M45.54,46.94c0.07-0.26,0.19-0.48,0.36-0.63c0.19-0.19,0.43-0.27,0.7-0.27c0.32,0,0.58,0.09,0.75,0.27
			c0.15,0.17,0.26,0.37,0.27,0.63H45.54z"/>
		<path id="XMLID_00000029035913863910591810000004361378523562829729_" class="st0" d="M53.65,45.34
			c-0.41-0.34-0.97-0.53-1.67-0.53c-0.44,0-0.87,0.1-1.24,0.29c-0.36,0.17-0.7,0.48-0.92,0.85l0.02,0.02l0.87,0.82
			c0.36-0.56,0.75-0.77,1.28-0.77c0.29,0,0.51,0.07,0.7,0.22c0.17,0.15,0.27,0.34,0.27,0.58v0.26c-0.34-0.1-0.66-0.15-0.99-0.15
			c-0.66,0-1.21,0.15-1.62,0.46c-0.41,0.31-0.61,0.77-0.61,1.35c0,0.51,0.17,0.9,0.53,1.21c0.36,0.29,0.78,0.44,1.29,0.44
			s0.99-0.2,1.43-0.56v0.44h1.33v-3.44C54.26,46.19,54.06,45.68,53.65,45.34L53.65,45.34z M51.27,48.23
			c0.15-0.1,0.37-0.15,0.65-0.15c0.32,0,0.66,0.07,1.02,0.19v0.53c-0.29,0.27-0.68,0.41-1.16,0.41c-0.24,0-0.41-0.05-0.54-0.15
			c-0.12-0.1-0.19-0.22-0.19-0.39C51.04,48.47,51.11,48.33,51.27,48.23L51.27,48.23z"/>
		<path id="XMLID_00000152985919100936820120000003740523892419804548_" class="st0" d="M59.44,45.44c-0.37-0.43-0.9-0.63-1.57-0.63
			c-0.53,0-0.97,0.15-1.29,0.46v-0.32h-1.31v5.33h1.35v-2.95c0-0.41,0.1-0.73,0.29-0.95c0.19-0.22,0.44-0.34,0.8-0.34
			c0.31,0,0.53,0.1,0.7,0.31c0.17,0.2,0.26,0.49,0.26,0.83v3.1H60v-3.1C60,46.45,59.81,45.85,59.44,45.44L59.44,45.44z"/>
		<path id="XMLID_00000181791888412195524410000001872309345676361868_" class="st0" d="M26.34,45.34
			c-0.41-0.34-0.97-0.53-1.67-0.53c-0.44,0-0.87,0.1-1.24,0.29c-0.36,0.17-0.7,0.48-0.92,0.85l0.02,0.02l0.87,0.82
			c0.36-0.56,0.75-0.77,1.28-0.77c0.29,0,0.51,0.07,0.7,0.22c0.17,0.15,0.27,0.34,0.27,0.58v0.26c-0.34-0.1-0.66-0.15-0.99-0.15
			c-0.66,0-1.21,0.15-1.62,0.46c-0.41,0.31-0.61,0.77-0.61,1.35c0,0.51,0.17,0.9,0.53,1.21c0.36,0.29,0.78,0.44,1.29,0.44
			c0.51,0,0.99-0.2,1.43-0.56v0.44H27v-3.44C26.95,46.19,26.75,45.68,26.34,45.34L26.34,45.34z M23.96,48.23
			c0.15-0.1,0.37-0.15,0.65-0.15c0.32,0,0.66,0.07,1.02,0.19v0.53c-0.29,0.27-0.68,0.41-1.16,0.41c-0.24,0-0.41-0.05-0.54-0.15
			c-0.12-0.1-0.19-0.22-0.19-0.39C23.73,48.47,23.8,48.33,23.96,48.23L23.96,48.23z"/>
		<path id="XMLID_00000012438444462429382560000001057600096027173028_" class="st0" d="M34.26,50.4c-2.16,0-3.92-1.75-3.92-3.92
			c0-2.16,1.75-3.92,3.92-3.92s3.92,1.75,3.92,3.92C38.17,48.64,36.42,50.4,34.26,50.4z M34.26,43.94c-1.4,0-2.54,1.14-2.54,2.54
			s1.14,2.54,2.54,2.54c1.4,0,2.54-1.14,2.54-2.54S35.65,43.94,34.26,43.94z"/>
	</g>
</g>
</svg>
