<?xml version="1.0" encoding="utf-8"?>
<!-- Generator: Adobe Illustrator 26.1.0, SVG Export Plug-In . SVG Version: 6.00 Build 0)  -->
<svg version="1.1" id="Layer_1" xmlns="http://www.w3.org/2000/svg" xmlns:xlink="http://www.w3.org/1999/xlink" x="0px" y="0px"
	 viewBox="0 0 60 60" style="enable-background:new 0 0 60 60;" xml:space="preserve">
<style type="text/css">
	.st0{fill-rule:evenodd;clip-rule:evenodd;fill:#1F325F;}
	.st1{fill:#C1765B;}
	.st2{fill:#1F325F;}
	.st3{fill:#FFFFFF;}
</style>
<g>
	<g>
		<g>
			<path class="st0" d="M52.38,4.72c-0.72,0.02-0.51,0.35-2.07,0.73c-1.57,0.39-3.47,0.15-5.16,0.86
				c-4.42,1.85-5.14,9.02-10.41,11.79c-3.45,1.95-6.98,2.4-10.12,3.39c-2.53,1.01-4.1,1.68-5.95,3.28c-1.44,1.24-1.79,2.44-3.29,4
				c-1.52,2.07-7.3,0.23-8.79,2.83c0.78,0.51,1.24,0.65,2.61,0.47c-0.28,0.54-2.1,1.25-1.77,2.05c0,0,4.38,0.8,8.07-1.43
				c1.72-0.7,3.34-2.18,6.01-2.54c3.46-0.46,7.37,0.73,11.56,1.06c-0.87,1.71-1.76,2.72-2.71,4.13c-0.29,0.32,0.25,0.6,1.27,0.41
				c1.83-0.45,3.15-0.94,4.46-1.85c1.71-1.18,2.45-2.26,3.9-3.98c1.26,2.01,5.68,2.46,6.59,0.72c-1.69-0.72-2.05-4.44-1.47-6.05
				c0.68-1.53,1.18-3.7,1.73-5.71c0.5-1.81,0.81-4.58,1.4-6c0.71-1.76,2.09-2.31,3.13-3.25c1.04-0.93,2.07-1.71,2.04-3.85
				C53.4,5.08,53.04,4.7,52.38,4.72L52.38,4.72z"/>
			<path class="st1" d="M7.9,33.75c2.71,0.08,3.45,0.01,5.6-0.92c1.82-0.79,4.26-2.93,6.42-3.62c3.16-1.02,6.56-0.86,9.92-0.47
				c1.13,0.13,2.26,0.32,3.07,0.23c1.26-0.77,1.32-2.87,2.1-3.04c-0.21,4.06-1.96,6.66-3.7,9.02c3.67-0.65,6.13-2.94,7.61-5.78
				c0.45-0.86,1.2-2.27,1.54-3.24c0.27,0.64-0.35,1.05-0.06,1.75c2.36-1.95,3.48-4.17,4.44-7.43c1.11-3.76,2.25-7,2.97-8.11
				c0.7-1.09,1.78-1.76,2.78-2.45c1.13-0.79,2.13-1.62,2.31-3.12c-1.19-0.11-1.46-0.38-1.64-0.98C50.65,5.93,50.1,6,49.49,6.02
				c-0.54,0.02-1.13-0.01-1.85,0.07c-5.96,0.61-6.23,6.43-10.56,10.71c-0.28,0.27-0.76,0.67-1.07,0.91c-1.34,1-2.77,1.55-4.28,2.12
				c-2.44,0.93-4.76,1.2-7.05,2.01c-1.68,0.59-3.25,1.27-4.63,2.21c-0.34,0.24-0.81,0.66-1.11,0.9c-0.81,0.66-1.34,1.4-1.86,2.16
				c-0.53,0.78-1.04,1.58-1.82,2.35c-1.27,1.24-5.99,0.36-7.66,1.52c-0.18,0.13-0.33,0.28-0.43,0.47c0.91,0.41,1.52,0.16,2.56,0.27
				C9.85,32.7,7.56,33.29,7.9,33.75z"/>
			<path class="st0" d="M45.8,8.54c0.84,0.73,2.61,0.14,2.3-1.31C46.79,7.12,46.03,7.57,45.8,8.54z"/>
			<path class="st2" d="M51.59,6.84c-0.22,0.47-0.65,1.08-0.65,2.27c0,0.21-0.16,0.35-0.16,0.03c0.01-1.17,0.32-1.68,0.65-2.34
				C51.58,6.53,51.67,6.64,51.59,6.84z M51.33,6.66c-0.27,0.45-0.9,1.27-1.01,2.46c-0.02,0.21-0.19,0.33-0.16,0.02
				c0.12-1.16,0.62-1.89,1.01-2.53C51.35,6.35,51.43,6.47,51.33,6.66L51.33,6.66z M51.07,6.43c-0.3,0.42-1.28,1.41-1.49,2.59
				c-0.04,0.2-0.21,0.31-0.16,0c0.21-1.15,1.06-2.06,1.5-2.65C51.11,6.12,51.18,6.25,51.07,6.43z"/>
		</g>
		<path class="st2" d="M51.07,6.16c-0.36,0.38-1.53,1.63-1.9,2.77c-0.07,0.19-0.26,0.28-0.16-0.02c0.37-1.11,1.4-2.31,1.91-2.83
			C51.15,5.87,51.21,6,51.07,6.16z"/>
	</g>
	<g>
		<path class="st2" d="M40.61,42.78V51h-1.04v-1.41c-0.94,1.12-2.01,1.69-3.22,1.69c-1.21,0-2.23-0.43-3.06-1.28
			c-0.83-0.87-1.24-1.89-1.24-3.08c0-1.2,0.42-2.22,1.25-3.06c0.83-0.86,1.84-1.28,3-1.28c1.34,0,2.43,0.57,3.27,1.72v-1.5
			L40.61,42.78"/>
		<path class="st3" d="M39.63,46.93c0-0.94-0.32-1.73-0.94-2.37c-0.63-0.65-1.4-0.97-2.32-0.97c-0.91,0-1.68,0.33-2.31,1.01
			c-0.63,0.66-0.94,1.45-0.94,2.35c0,0.91,0.32,1.7,0.96,2.37c0.64,0.66,1.4,0.99,2.29,0.99c0.9,0,1.67-0.32,2.31-0.96
			C39.31,48.71,39.63,47.9,39.63,46.93"/>
		<path class="st2" d="M42.7,51V39.89H45c1.58,0,2.73,0.12,3.47,0.36c0.74,0.23,1.38,0.59,1.92,1.1c0.54,0.49,0.95,1.1,1.24,1.83
			c0.29,0.72,0.43,1.57,0.43,2.54c0,0.96-0.23,1.87-0.68,2.72c-0.44,0.84-1.05,1.48-1.83,1.92C48.79,50.79,47.69,51,46.24,51H42.7z"
			/>
		<path class="st3" d="M43.77,49.95h1.28c1.34,0,2.31-0.07,2.91-0.2c0.61-0.13,1.14-0.4,1.6-0.79c0.45-0.4,0.8-0.89,1.04-1.46
			c0.24-0.57,0.36-1.22,0.36-1.95c0-0.73-0.14-1.41-0.42-2.03c-0.27-0.62-0.66-1.13-1.16-1.53c-0.51-0.4-1.1-0.67-1.8-0.81
			c-0.68-0.14-1.69-0.22-3.02-0.22h-0.79V49.95z"/>
		<path class="st2" d="M28.9,40.49c0-0.24,0.08-0.44,0.25-0.62c0.18-0.18,0.38-0.26,0.62-0.26c0.25,0,0.45,0.09,0.62,0.26
			c0.18,0.17,0.26,0.37,0.26,0.62c0,0.24-0.09,0.44-0.26,0.62c-0.17,0.17-0.37,0.25-0.62,0.25c-0.24,0-0.44-0.09-0.62-0.26
			C28.99,40.92,28.9,40.72,28.9,40.49"/>
		<rect x="29.24" y="42.78" class="st2" width="1.07" height="8.22"/>
		<polyline class="st2" points="0,51 1.58,39.89 1.75,39.89 6.27,49 10.76,39.89 10.93,39.89 12.52,51 11.42,51 10.34,43.04 
			6.41,51 6.13,51 2.15,42.98 1.07,51 0,51 		"/>
		<path class="st2" d="M22.15,42.78V51h-1.04v-1.41c-0.94,1.12-2.01,1.69-3.22,1.69c-1.21,0-2.23-0.43-3.06-1.28
			c-0.83-0.87-1.24-1.89-1.24-3.08c0-1.2,0.42-2.22,1.25-3.06c0.83-0.86,1.84-1.28,3-1.28c1.34,0,2.43,0.57,3.27,1.72v-1.5
			L22.15,42.78"/>
		<path class="st3" d="M21.18,46.93c0-0.94-0.32-1.73-0.94-2.37c-0.63-0.65-1.4-0.97-2.32-0.97c-0.91,0-1.68,0.33-2.31,1.01
			c-0.63,0.66-0.94,1.45-0.94,2.35c0,0.91,0.32,1.7,0.96,2.37c0.64,0.66,1.4,0.99,2.29,0.99c0.9,0,1.67-0.32,2.31-0.96
			C20.86,48.71,21.18,47.9,21.18,46.93"/>
		<path class="st2" d="M23.95,42.78h1.08v1.19c0.29-0.48,0.57-0.84,0.83-1.07c0.28-0.23,0.58-0.34,0.91-0.34
			c0.34,0,0.68,0.09,1.02,0.28l-0.56,0.9c-0.16-0.09-0.32-0.14-0.48-0.14c-0.32,0-0.62,0.17-0.91,0.49
			c-0.28,0.33-0.48,0.76-0.62,1.28c-0.13,0.52-0.2,1.46-0.2,2.83V51h-1.08V42.78z"/>
		<path class="st2" d="M53.33,39.89h2.2c1.17,0,2.05,0.24,2.65,0.71c0.61,0.46,0.91,1.13,0.91,2.01c0,0.48-0.12,0.93-0.37,1.35
			c-0.24,0.4-0.59,0.73-1.05,0.97c0.76,0.25,1.34,0.62,1.73,1.11c0.4,0.49,0.6,1.08,0.6,1.76c0,0.92-0.33,1.68-1.01,2.29
			c-0.67,0.6-1.54,0.9-2.6,0.9h-3.06L53.33,39.89z"/>
		<path class="st3" d="M54.43,40.97v3.56h0.63c0.97,0,1.69-0.16,2.17-0.46c0.47-0.31,0.71-0.79,0.71-1.46
			c0-1.09-0.74-1.64-2.23-1.64H54.43z"/>
		<path class="st3" d="M54.43,45.65v4.27h1.38c0.79,0,1.38-0.08,1.75-0.23c0.38-0.17,0.69-0.41,0.93-0.74
			c0.24-0.34,0.36-0.69,0.36-1.04c0-0.35-0.07-0.66-0.2-0.93c-0.13-0.27-0.33-0.51-0.6-0.71c-0.26-0.21-0.57-0.36-0.94-0.46
			c-0.36-0.1-1.04-0.16-2.04-0.16L54.43,45.65z"/>
	</g>
</g>
</svg>
