<?xml version="1.0" encoding="utf-8"?>
<!-- Generator: Adobe Illustrator 26.1.0, SVG Export Plug-In . SVG Version: 6.00 Build 0)  -->
<svg version="1.1" id="Layer_1" xmlns="http://www.w3.org/2000/svg" xmlns:xlink="http://www.w3.org/1999/xlink" x="0px" y="0px"
	 viewBox="0 0 60 60" style="enable-background:new 0 0 60 60;" xml:space="preserve">
<style type="text/css">
	.st0{fill:#ED1C24;}
	.st1{fill:#FFFFFF;}
</style>
<g>
	<path class="st0" d="M50.94,28.49c-1.25,0-2.44,0.25-3.53,0.71c0.02-0.23,0.04-0.47,0.04-0.71c0-3.73-3.02-6.75-6.75-6.75
		c-1.26,0-2.43,0.35-3.44,0.95c-0.56-5.23-4.98-9.31-10.36-9.31c-5.61,0-10.17,4.43-10.4,9.98c-1.38-0.55-2.88-0.85-4.45-0.85
		C5.39,22.52,0,27.91,0,34.56c0,6.65,5.39,12.05,12.05,12.05h38.9c5,0,9.06-4.05,9.06-9.06S55.95,28.49,50.94,28.49z"/>
	<g>
		<path class="st1" d="M25.95,37.17h3.08l-1.63-2.62l-2.99,4.74h-1.36l3.64-5.7c0.16-0.23,0.42-0.37,0.71-0.37
			c0.28,0,0.55,0.13,0.7,0.36l3.65,5.71h-1.36l-0.64-1.06h-3.12L25.95,37.17L25.95,37.17z M40.1,38.23v-4.95h-1.16v5.43
			c0,0.15,0.06,0.29,0.17,0.4c0.11,0.11,0.26,0.17,0.42,0.17h5.27l0.68-1.06H40.1z M20.97,37.35c1.12,0,2.03-0.91,2.03-2.03
			c0-1.12-0.91-2.03-2.03-2.03h-5.06v6.01h1.16v-4.95h3.82c0.54,0,0.97,0.44,0.97,0.97c0,0.54-0.43,0.97-0.97,0.97l-3.26,0
			l3.45,3.01h1.68l-2.32-1.95H20.97L20.97,37.35z M8.8,39.29c-1.66,0-3.01-1.34-3.01-3c0-1.66,1.35-3.01,3.01-3.01h3.49
			c1.66,0,3,1.35,3,3.01c0,1.66-1.35,3-3,3H8.8L8.8,39.29z M12.22,38.23c1.07,0,1.95-0.87,1.95-1.94c0-1.07-0.87-1.95-1.95-1.95
			H8.88c-1.07,0-1.95,0.87-1.95,1.95c0,1.07,0.87,1.94,1.95,1.94L12.22,38.23L12.22,38.23z M34.17,39.29c-1.66,0-3.01-1.34-3.01-3
			c0-1.66,1.35-3.01,3.01-3.01h4.15l-0.68,1.06h-3.4c-1.07,0-1.95,0.87-1.95,1.95c0,1.07,0.87,1.94,1.95,1.94h4.17l-0.68,1.06H34.17
			L34.17,39.29z M48.3,38.23c-0.89,0-1.64-0.59-1.87-1.41h4.94l0.68-1.06h-5.62c0.23-0.82,0.98-1.41,1.87-1.41h3.39l0.69-1.06h-4.15
			c-1.66,0-3.01,1.35-3.01,3.01c0,1.66,1.35,3,3.01,3h3.56l0.68-1.06H48.3 M53,33.92c0-0.29,0.23-0.53,0.52-0.53c0,0,0,0,0,0
			c0.3,0,0.53,0.24,0.53,0.53c0,0.3-0.24,0.53-0.53,0.53C53.23,34.45,53,34.22,53,33.92z M53.53,34.6c0.37,0,0.68-0.3,0.68-0.67
			c0,0,0,0,0,0c0-0.37-0.3-0.68-0.67-0.68c0,0,0,0,0,0c-0.37,0-0.67,0.3-0.67,0.68S53.16,34.6,53.53,34.6z M53.46,33.52
			c0.11,0,0.15,0,0.2,0.02c0.13,0.04,0.15,0.16,0.15,0.21c0,0.01,0,0.03-0.01,0.06c0,0.03-0.02,0.09-0.09,0.13
			c-0.01,0-0.01,0.01-0.03,0.02l0.17,0.31h-0.17l-0.15-0.29h-0.11v0.29h-0.15v-0.76H53.46z M53.52,33.87c0.05,0,0.1,0,0.12-0.05
			c0.01-0.02,0.02-0.04,0.02-0.07c0-0.04-0.02-0.07-0.06-0.09c-0.03-0.01-0.07-0.01-0.14-0.01h-0.04v0.22H53.52"/>
	</g>
</g>
</svg>
