<?xml version="1.0" encoding="utf-8"?>
<!-- Generator: Adobe Illustrator 26.1.0, SVG Export Plug-In . SVG Version: 6.00 Build 0)  -->
<svg version="1.1" id="Layer_1" xmlns="http://www.w3.org/2000/svg" xmlns:xlink="http://www.w3.org/1999/xlink" x="0px" y="0px"
	 viewBox="0 0 60 60" style="enable-background:new 0 0 60 60;" xml:space="preserve">
<style type="text/css">
	.st0{fill:#F05339;}
	.st1{fill:#FFFFFF;}
	.st2{fill:#010101;}
</style>
<g>
	<path class="st0" d="M18.64,25.84c0-0.19,0-0.37-0.01-0.56c-0.01-0.41-0.04-0.82-0.11-1.22c-0.07-0.41-0.19-0.79-0.38-1.16
		c-0.38-0.74-0.97-1.34-1.71-1.71c-0.37-0.19-0.75-0.31-1.16-0.38c-0.4-0.07-0.82-0.1-1.22-0.11c-0.19,0-0.37-0.01-0.56-0.01
		c-0.22,0-0.45,0-0.67,0H5.83c-0.22,0-0.45,0-0.67,0c-0.19,0-0.38,0-0.56,0.01c-0.1,0-0.2,0.01-0.31,0.01
		c-0.31,0.01-0.61,0.04-0.92,0.1c-0.31,0.06-0.6,0.14-0.88,0.25c-0.48,0.2-0.91,0.49-1.27,0.85c-0.29,0.29-0.53,0.62-0.72,0.99
		c-0.19,0.37-0.31,0.75-0.38,1.16c-0.07,0.4-0.1,0.82-0.11,1.22C0,25.47,0,25.66,0,25.84c0,0.22,0,0.45,0,0.67v6.98
		c0,0.22,0,0.45,0,0.67c0,0.19,0,0.37,0.01,0.56c0.01,0.41,0.04,0.82,0.11,1.22c0.07,0.41,0.19,0.79,0.38,1.16
		c0.38,0.74,0.97,1.34,1.71,1.71c0.37,0.19,0.75,0.31,1.16,0.38c0.4,0.07,0.82,0.1,1.22,0.11c0.19,0.01,0.38,0.01,0.56,0.01
		c0.22,0,0.44,0,0.67,0h6.98c0.22,0,0.45,0,0.67,0c0.19,0,0.37,0,0.56-0.01c0.41-0.01,0.82-0.04,1.22-0.11
		c0.41-0.07,0.79-0.19,1.16-0.38c0.74-0.38,1.34-0.97,1.71-1.71c0.19-0.37,0.31-0.75,0.38-1.16c0.07-0.4,0.1-0.82,0.11-1.22
		c0.01-0.19,0.01-0.37,0.01-0.56c0-0.22,0-0.45,0-0.67v-6.98C18.64,26.29,18.64,26.07,18.64,25.84z"/>
	<path class="st1" d="M14.77,32.19L14.77,32.19c0.02-0.07,0.04-0.14,0.06-0.21c0.77-3.08-1.11-6.73-4.31-8.64
		c1.4,1.9,2.02,4.2,1.47,6.21c-0.05,0.18-0.11,0.35-0.17,0.52c-0.07-0.05-0.16-0.1-0.28-0.17c0,0-3.18-1.96-6.62-5.43
		c-0.09-0.09,1.84,2.75,4.02,5.07c-1.03-0.58-3.9-2.67-5.72-4.33C3.44,25.56,3.7,25.92,4,26.27c1.52,1.93,3.5,4.3,5.87,6.13
		c-1.67,1.02-4.02,1.1-6.37,0c-0.57-0.27-1.12-0.6-1.63-0.97c0.99,1.59,2.52,2.96,4.38,3.76c2.22,0.95,4.43,0.89,6.07,0.02l0,0
		c0.01-0.01,0.02-0.01,0.03-0.01c0.07-0.04,0.13-0.07,0.2-0.11c0.79-0.41,2.35-0.83,3.19,0.8C15.94,36.27,16.37,34.16,14.77,32.19
		L14.77,32.19z"/>
	<path class="st2" d="M25.71,32.78c0.15,1.29,1.38,2.14,3.09,2.14c1.63,0,2.8-0.85,2.8-2.02c0-1.01-0.71-1.63-2.35-2.04l-1.58-0.4
		c-2.28-0.57-3.31-1.59-3.31-3.29c0-2.09,1.82-3.54,4.42-3.54c2.52,0,4.31,1.46,4.37,3.55h-1.67c-0.13-1.28-1.17-2.07-2.74-2.07
		c-1.55,0-2.63,0.8-2.63,1.96c0,0.91,0.67,1.45,2.31,1.87l1.32,0.34c2.55,0.63,3.6,1.62,3.6,3.41c0,2.28-1.81,3.71-4.68,3.71
		c-2.67,0-4.5-1.42-4.63-3.62L25.71,32.78L25.71,32.78z M43.95,36.19h-1.68l-1.96-6.83h-0.03l-1.95,6.83h-1.68l-2.48-8.95h1.63
		l1.73,7.19h0.03l1.95-7.19h1.58l1.97,7.19h0.03l1.73-7.19h1.61L43.95,36.19L43.95,36.19z M47.51,24.84c0-0.54,0.45-0.98,0.98-0.98
		c0.55,0,0.99,0.44,0.99,0.98c0,0.54-0.45,0.99-0.99,0.99C47.95,25.82,47.51,25.38,47.51,24.84L47.51,24.84z M47.68,27.24h1.64v8.95
		h-1.64V27.24z M60,28.56v-1.32h-1.73V25.1h-1.63v2.14h-3.13v-0.79c0.01-0.8,0.32-1.13,1.05-1.13c0.24,0,0.48,0.03,0.68,0.06V24.1
		c-0.29-0.04-0.58-0.07-0.86-0.07c-1.75,0-2.48,0.73-2.48,2.4v0.81h-1.25v1.32h1.25v7.63h1.63v-7.63h3.12v5.28
		c0,1.73,0.66,2.4,2.37,2.4c0.37,0,0.79-0.03,0.98-0.07v-1.34c-0.11,0.02-0.44,0.04-0.62,0.04c-0.76,0-1.1-0.36-1.1-1.16v-5.16H60
		L60,28.56z"/>
</g>
</svg>
