<svg width="206" height="44" viewBox="0 0 206 44" fill="none" xmlns="http://www.w3.org/2000/svg">
<g clip-path="url(#clip0_3162_5)">
<path d="M21.1626 36.5869H14.6328V35.1123H21.1626C21.6892 35.1123 22.2158 34.691 22.2158 34.059C22.2158 33.4271 21.7945 33.0058 21.1626 33.0058H14.6328V31.5312H21.1626C22.5317 31.5312 23.6903 32.6898 23.6903 34.059C23.6903 35.4283 22.5317 36.5869 21.1626 36.5869Z" fill="#66843A"/>
<path d="M19.3731 43.6438H12.8433V42.1692H19.3731C19.8997 42.1692 20.4263 41.7479 20.4263 41.116C20.4263 40.484 20.005 40.0627 19.3731 40.0627H12.3167C10.9476 40.0627 9.78906 38.9041 9.78906 37.5349C9.78906 36.1656 10.9476 35.007 12.3167 35.007H14.7391V36.4816H12.3167C11.7901 36.4816 11.2635 36.9029 11.2635 37.5349C11.2635 38.1668 11.6848 38.5881 12.3167 38.5881H19.3731C20.7423 38.5881 21.9008 39.7467 21.9008 41.116C21.9008 42.4852 20.7423 43.6438 19.3731 43.6438Z" fill="#66843A"/>
<path d="M24.7447 26.6862C24.7447 26.6862 28.9574 21.5252 28.8521 14.8896C28.6415 8.25397 23.6915 4.4622 23.1649 4.25155C23.1649 4.25155 19.0574 0.881087 13.2649 1.82903C7.36702 2.56632 4.10213 6.77939 3.15426 8.67527C3.15426 8.67527 1.46915 11.6244 1.46915 15.5215C1.46915 19.4186 4.10213 23.6317 4.10213 23.6317L8.94681 31.4259H7.15638L2.94362 24.685C2.94362 24.685 -0.637232 19.3133 0.100002 13.2043C1.04787 7.2007 4.73404 4.35687 5.47128 3.61958C6.20851 2.77697 10.6319 -0.382836 16.4245 0.0384715C22.3223 0.565106 25.2713 3.93557 26.0085 4.67285C26.7457 5.41014 30.116 9.09658 30.2213 14.4683C30.2213 19.8399 28.9575 22.9997 25.9032 27.3181" fill="#66843A"/>
<path d="M5.1543 28.0554C6.10217 29.53 7.05004 31.1099 7.89259 32.6898L8.10323 33.1111H20.7415V31.6365H9.05111C8.20855 30.0566 7.15536 28.6874 6.31281 27.3181" fill="#66843A"/>
<path d="M9.15686 31.6365L8.20898 33.1111H20.742V31.6365H9.15686Z" fill="#66843A"/>
<path d="M16.0042 16.5748C16.5308 15.8375 16.7415 14.9949 16.6361 14.0469C16.6361 12.9937 16.1095 12.0457 15.5829 11.0978C15.0564 10.1498 14.5298 9.30721 14.3191 8.25394C13.7925 6.14741 15.3723 5.09414 15.4776 4.88348C14.6351 5.19946 13.8978 5.83143 13.4766 6.67404C13.0553 7.41133 12.8447 8.35927 13.0553 9.30721C13.2659 10.4658 14.0032 11.5191 14.6351 12.5723C15.267 13.6256 15.7936 14.7842 15.6883 15.9428C15.583 16.8907 14.951 17.8387 14.1085 18.26C14.951 17.944 15.6883 17.4174 16.1095 16.6801L16.0042 16.5748Z" fill="#F07624"/>
<path d="M19.3734 16.1534C19.9 15.4162 20.1106 14.5735 20.0053 13.6256C20.0053 12.5723 19.4787 11.6244 18.9521 10.6764C18.4255 9.7285 17.8989 8.88589 17.6883 7.83262C17.1617 5.72608 18.7415 4.67281 18.8468 4.46216C18.0042 4.77814 17.267 5.4101 16.8457 6.25272C16.4244 6.99 16.2138 7.93795 16.4244 8.88589C16.6351 10.0445 17.3723 11.0978 18.0042 12.151C18.6361 13.2043 19.1627 14.3629 19.0574 15.5215C18.9521 16.4694 18.3202 17.4174 17.4776 17.8387C18.3202 17.5227 19.0574 16.9961 19.4787 16.2588L19.3734 16.1534Z" fill="#F07624"/>
<path d="M13.5802 14.8896C13.4749 14.1523 13.0536 13.5203 12.5271 12.8883C12.1058 12.2564 11.5792 11.6244 11.3685 10.9925C11.2632 10.6765 11.1579 10.2552 11.1579 9.83386C10.9473 10.1498 10.9473 10.5711 10.9473 10.9925C10.9473 11.6244 11.2632 12.2564 11.5792 12.783C11.8951 13.3096 12.2111 13.8363 12.4217 14.4682C12.843 15.6268 13.0536 16.9961 11.8951 17.944C12.9483 17.4174 13.6856 16.1535 13.4749 14.8896H13.5802Z" fill="#F07624"/>
<path d="M26.0094 25.9489H20.2168V27.4234H26.0094V25.9489Z" fill="#66843A"/>
<path d="M11.1582 19.9453C10.421 19.9453 9.78906 20.5772 9.78906 21.3145V29.53H12.6327V21.3145C12.6327 20.5772 12.0008 19.9453 11.2635 19.9453H11.1582Z" fill="#66843A"/>
<path d="M15.793 19.9453C15.0557 19.9453 14.4238 20.5772 14.4238 21.3145V29.53H17.2674V21.3145C17.2674 20.5772 16.6355 19.9453 15.8983 19.9453H15.793Z" fill="#66843A"/>
<path d="M20.5313 19.9453C19.794 19.9453 19.1621 20.5772 19.1621 21.3145V29.53H22.0057V21.3145C22.0057 20.5772 21.3738 19.9453 20.6366 19.9453H20.5313Z" fill="#66843A"/>
<path d="M41.8967 20.7979H47.9627V23.0659H41.8967V20.7979ZM42.1127 25.9819H48.9707V28.3219H39.2147V15.7219H48.7367V18.0619H42.1127V25.9819ZM51.2909 28.3219V15.7219H53.7029L61.1369 24.7939H59.9669V15.7219H62.8469V28.3219H60.4529L53.0009 19.2499H54.1709V28.3219H51.2909ZM68.51 20.7979H74.576V23.0659H68.51V20.7979ZM68.726 25.9819H75.584V28.3219H65.828V15.7219H75.35V18.0619H68.726V25.9819ZM77.9042 28.3219V15.7219H83.3582C84.4862 15.7219 85.4582 15.9079 86.2742 16.2799C87.0902 16.6399 87.7202 17.1619 88.1642 17.8459C88.6082 18.5299 88.8302 19.3459 88.8302 20.2939C88.8302 21.2299 88.6082 22.0399 88.1642 22.7239C87.7202 23.3959 87.0902 23.9119 86.2742 24.2719C85.4582 24.6319 84.4862 24.8119 83.3582 24.8119H79.5242L80.8202 23.5339V28.3219H77.9042ZM85.9142 28.3219L82.7642 23.7499H85.8782L89.0642 28.3219H85.9142ZM80.8202 23.8579L79.5242 22.4899H83.1962C84.0962 22.4899 84.7682 22.2979 85.2122 21.9139C85.6562 21.5179 85.8782 20.9779 85.8782 20.2939C85.8782 19.5979 85.6562 19.0579 85.2122 18.6739C84.7682 18.2899 84.0962 18.0979 83.1962 18.0979H79.5242L80.8202 16.7119V23.8579ZM97.2245 28.5379C96.2285 28.5379 95.3105 28.3819 94.4705 28.0699C93.6425 27.7459 92.9165 27.2899 92.2925 26.7019C91.6805 26.1139 91.2005 25.4239 90.8525 24.6319C90.5165 23.8399 90.3485 22.9699 90.3485 22.0219C90.3485 21.0739 90.5165 20.2039 90.8525 19.4119C91.2005 18.6199 91.6865 17.9299 92.3105 17.3419C92.9345 16.7539 93.6665 16.3039 94.5065 15.9919C95.3465 15.6679 96.2705 15.5059 97.2785 15.5059C98.3945 15.5059 99.3965 15.6919 100.284 16.0639C101.184 16.4359 101.94 16.9759 102.552 17.6839L100.68 19.4119C100.224 18.9319 99.7265 18.5779 99.1865 18.3499C98.6465 18.1099 98.0585 17.9899 97.4225 17.9899C96.8105 17.9899 96.2525 18.0859 95.7485 18.2779C95.2445 18.4699 94.8065 18.7459 94.4345 19.1059C94.0745 19.4659 93.7925 19.8919 93.5885 20.3839C93.3965 20.8759 93.3005 21.4219 93.3005 22.0219C93.3005 22.6099 93.3965 23.1499 93.5885 23.6419C93.7925 24.1339 94.0745 24.5659 94.4345 24.9379C94.8065 25.2979 95.2385 25.5739 95.7305 25.7659C96.2345 25.9579 96.7865 26.0539 97.3865 26.0539C97.9625 26.0539 98.5205 25.9639 99.0605 25.7839C99.6125 25.5919 100.146 25.2739 100.662 24.8299L102.318 26.9359C101.634 27.4519 100.836 27.8479 99.9245 28.1239C99.0245 28.3999 98.1245 28.5379 97.2245 28.5379ZM99.6545 26.5579V21.8239H102.318V26.9359L99.6545 26.5579ZM108.159 28.3219V23.1739L108.825 24.9379L103.281 15.7219H106.377L110.625 22.7959H108.843L113.109 15.7219H115.971L110.427 24.9379L111.075 23.1739V28.3219H108.159Z" fill="#F07624"/>
<path d="M124.524 20.9599H130.788V22.8859H124.524V20.9599ZM124.704 26.3599H131.814V28.3219H122.364V15.7219H131.562V17.6839H124.704V26.3599ZM140.254 28.5019C139.294 28.5019 138.4 28.3459 137.572 28.0339C136.756 27.7099 136.042 27.2599 135.43 26.6839C134.83 26.0959 134.362 25.4059 134.026 24.6139C133.69 23.8219 133.522 22.9579 133.522 22.0219C133.522 21.0859 133.69 20.2219 134.026 19.4299C134.362 18.6379 134.836 17.9539 135.448 17.3779C136.06 16.7899 136.774 16.3399 137.59 16.0279C138.406 15.7039 139.3 15.5419 140.272 15.5419C141.304 15.5419 142.246 15.7219 143.098 16.0819C143.95 16.4299 144.67 16.9519 145.258 17.6479L143.746 19.0699C143.29 18.5779 142.78 18.2119 142.216 17.9719C141.652 17.7199 141.04 17.5939 140.38 17.5939C139.72 17.5939 139.114 17.7019 138.562 17.9179C138.022 18.1339 137.548 18.4399 137.14 18.8359C136.744 19.2319 136.432 19.6999 136.204 20.2399C135.988 20.7799 135.88 21.3739 135.88 22.0219C135.88 22.6699 135.988 23.2639 136.204 23.8039C136.432 24.3439 136.744 24.8119 137.14 25.2079C137.548 25.6039 138.022 25.9099 138.562 26.1259C139.114 26.3419 139.72 26.4499 140.38 26.4499C141.04 26.4499 141.652 26.3299 142.216 26.0899C142.78 25.8379 143.29 25.4599 143.746 24.9559L145.258 26.3959C144.67 27.0799 143.95 27.6019 143.098 27.9619C142.246 28.3219 141.298 28.5019 140.254 28.5019ZM153.141 28.5019C152.157 28.5019 151.251 28.3399 150.423 28.0159C149.595 27.6919 148.875 27.2419 148.263 26.6659C147.651 26.0779 147.177 25.3939 146.841 24.6139C146.505 23.8219 146.337 22.9579 146.337 22.0219C146.337 21.0859 146.505 20.2279 146.841 19.4479C147.177 18.6559 147.651 17.9719 148.263 17.3959C148.875 16.8079 149.595 16.3519 150.423 16.0279C151.251 15.7039 152.151 15.5419 153.123 15.5419C154.107 15.5419 155.007 15.7039 155.823 16.0279C156.651 16.3519 157.371 16.8079 157.983 17.3959C158.595 17.9719 159.069 18.6559 159.405 19.4479C159.741 20.2279 159.909 21.0859 159.909 22.0219C159.909 22.9579 159.741 23.8219 159.405 24.6139C159.069 25.4059 158.595 26.0899 157.983 26.6659C157.371 27.2419 156.651 27.6919 155.823 28.0159C155.007 28.3399 154.113 28.5019 153.141 28.5019ZM153.123 26.4499C153.759 26.4499 154.347 26.3419 154.887 26.1259C155.427 25.9099 155.895 25.6039 156.291 25.2079C156.687 24.7999 156.993 24.3319 157.209 23.8039C157.437 23.2639 157.551 22.6699 157.551 22.0219C157.551 21.3739 157.437 20.7859 157.209 20.2579C156.993 19.7179 156.687 19.2499 156.291 18.8539C155.895 18.4459 155.427 18.1339 154.887 17.9179C154.347 17.7019 153.759 17.5939 153.123 17.5939C152.487 17.5939 151.899 17.7019 151.359 17.9179C150.831 18.1339 150.363 18.4459 149.955 18.8539C149.559 19.2499 149.247 19.7179 149.019 20.2579C148.803 20.7859 148.695 21.3739 148.695 22.0219C148.695 22.6579 148.803 23.2459 149.019 23.7859C149.247 24.3259 149.559 24.7999 149.955 25.2079C150.351 25.6039 150.819 25.9099 151.359 26.1259C151.899 26.3419 152.487 26.4499 153.123 26.4499ZM162.389 28.3219V15.7219H164.729V26.3419H171.317V28.3219H162.389ZM173.165 28.3219V15.7219H175.505V28.3219H173.165ZM178.913 28.3219V15.7219H180.839L188.741 25.4239H187.787V15.7219H190.109V28.3219H188.183L180.281 18.6199H181.235V28.3219H178.913ZM195.573 25.3519L195.447 22.5799L202.053 15.7219H204.681L199.191 21.5539L197.895 22.9759L195.573 25.3519ZM193.485 28.3219V15.7219H195.825V28.3219H193.485ZM202.269 28.3219L197.445 22.5799L198.993 20.8699L205.005 28.3219H202.269Z" fill="#66843A"/>
</g>
<defs>
<clipPath id="clip0_3162_5">
<rect width="205.721" height="43.6438" fill="white"/>
</clipPath>
</defs>
</svg>
