<?xml version="1.0" encoding="utf-8"?>
<!-- Generator: Adobe Illustrator 26.1.0, SVG Export Plug-In . SVG Version: 6.00 Build 0)  -->
<svg version="1.1" id="Layer_1" xmlns="http://www.w3.org/2000/svg" xmlns:xlink="http://www.w3.org/1999/xlink" x="0px" y="0px"
	 viewBox="0 0 60 60" style="enable-background:new 0 0 60 60;" xml:space="preserve">
<style type="text/css">
	.st0{fill:#262F3E;}
	.st1{fill-rule:evenodd;clip-rule:evenodd;fill:#F8991D;}
</style>
<g>
	<path class="st0" d="M16.91,25.09c0,0.74,0.08,1.34,0.22,1.78c0.16,0.44,0.36,0.92,0.64,1.44c0.1,0.16,0.14,0.32,0.14,0.46
		c0,0.2-0.12,0.4-0.38,0.6l-1.26,0.84c-0.18,0.12-0.36,0.18-0.52,0.18c-0.2,0-0.4-0.1-0.6-0.28c-0.28-0.3-0.52-0.62-0.72-0.94
		c-0.2-0.34-0.4-0.72-0.62-1.18c-1.56,1.84-3.51,2.75-5.87,2.75c-1.68,0-3.01-0.48-3.99-1.44c-0.98-0.96-1.48-2.24-1.48-3.83
		c0-1.7,0.6-3.07,1.82-4.11c1.22-1.04,2.83-1.56,4.89-1.56c0.68,0,1.38,0.06,2.12,0.16c0.74,0.1,1.5,0.26,2.29,0.44v-1.46
		c0-1.52-0.32-2.57-0.94-3.19c-0.64-0.62-1.72-0.92-3.25-0.92c-0.7,0-1.42,0.08-2.16,0.26c-0.74,0.18-1.46,0.4-2.16,0.68
		c-0.32,0.14-0.56,0.22-0.7,0.26c-0.14,0.04-0.24,0.06-0.32,0.06c-0.28,0-0.42-0.2-0.42-0.62v-0.98c0-0.32,0.04-0.56,0.14-0.7
		c0.1-0.14,0.28-0.28,0.56-0.42c0.7-0.36,1.54-0.66,2.51-0.9c0.98-0.26,2.02-0.38,3.11-0.38c2.37,0,4.11,0.54,5.23,1.62
		c1.1,1.08,1.66,2.71,1.66,4.91v6.47H16.91z M8.81,28.12c0.66,0,1.34-0.12,2.06-0.36s1.36-0.68,1.9-1.28
		c0.32-0.38,0.56-0.8,0.68-1.28s0.2-1.06,0.2-1.74v-0.84c-0.58-0.14-1.2-0.26-1.84-0.34c-0.64-0.08-1.26-0.12-1.88-0.12
		c-1.34,0-2.31,0.26-2.97,0.8c-0.66,0.54-0.98,1.3-0.98,2.29c0,0.94,0.24,1.64,0.74,2.12C7.19,27.88,7.89,28.12,8.81,28.12
		L8.81,28.12z M24.83,30.28c-0.36,0-0.6-0.06-0.76-0.2c-0.16-0.12-0.3-0.4-0.42-0.78l-4.69-15.43c-0.12-0.4-0.18-0.66-0.18-0.8
		c0-0.32,0.16-0.5,0.48-0.5h1.96c0.38,0,0.64,0.06,0.78,0.2c0.16,0.12,0.28,0.4,0.4,0.78l3.35,13.21l3.11-13.21
		c0.1-0.4,0.22-0.66,0.38-0.78c0.16-0.12,0.44-0.2,0.8-0.2h1.6c0.38,0,0.64,0.06,0.8,0.2c0.16,0.12,0.3,0.4,0.38,0.78l3.15,13.37
		l3.45-13.37c0.12-0.4,0.26-0.66,0.4-0.78c0.16-0.12,0.42-0.2,0.78-0.2h1.86c0.32,0,0.5,0.16,0.5,0.5c0,0.1-0.02,0.2-0.04,0.32
		c-0.02,0.12-0.06,0.28-0.14,0.5l-4.81,15.43c-0.12,0.4-0.26,0.66-0.42,0.78s-0.42,0.2-0.76,0.2h-1.72c-0.38,0-0.64-0.06-0.8-0.2
		s-0.3-0.4-0.38-0.8L30.8,16.43l-3.07,12.85c-0.1,0.4-0.22,0.66-0.38,0.8c-0.16,0.14-0.44,0.2-0.8,0.2H24.83z M50.47,30.82
		c-1.04,0-2.08-0.12-3.07-0.36c-1-0.24-1.78-0.5-2.29-0.8c-0.32-0.18-0.54-0.38-0.62-0.56c-0.08-0.18-0.12-0.38-0.12-0.56v-1.02
		c0-0.42,0.16-0.62,0.46-0.62c0.12,0,0.24,0.02,0.36,0.06s0.3,0.12,0.5,0.2c0.68,0.3,1.42,0.54,2.2,0.7
		c0.8,0.16,1.58,0.24,2.37,0.24c1.26,0,2.24-0.22,2.91-0.66c0.68-0.44,1.04-1.08,1.04-1.9c0-0.56-0.18-1.02-0.54-1.4
		c-0.36-0.38-1.04-0.72-2.02-1.04l-2.89-0.9c-1.46-0.46-2.53-1.14-3.19-2.04c-0.66-0.88-1-1.86-1-2.89c0-0.84,0.18-1.58,0.54-2.22
		c0.36-0.64,0.84-1.2,1.44-1.64c0.6-0.46,1.28-0.8,2.08-1.04c0.8-0.24,1.64-0.34,2.51-0.34c0.44,0,0.9,0.02,1.34,0.08
		c0.46,0.06,0.88,0.14,1.3,0.22c0.4,0.1,0.78,0.2,1.14,0.32c0.36,0.12,0.64,0.24,0.84,0.36c0.28,0.16,0.48,0.32,0.6,0.5
		c0.12,0.16,0.18,0.38,0.18,0.66v0.94c0,0.42-0.16,0.64-0.46,0.64c-0.16,0-0.42-0.08-0.76-0.24c-1.14-0.52-2.41-0.78-3.83-0.78
		c-1.14,0-2.04,0.18-2.65,0.56c-0.62,0.38-0.94,0.96-0.94,1.78c0,0.56,0.2,1.04,0.6,1.42c0.4,0.38,1.14,0.76,2.2,1.1l2.83,0.9
		c1.44,0.46,2.47,1.1,3.09,1.92s0.92,1.76,0.92,2.79c0,0.86-0.18,1.64-0.52,2.31c-0.36,0.68-0.84,1.28-1.46,1.76
		c-0.62,0.5-1.36,0.86-2.22,1.12C52.43,30.68,51.49,30.82,50.47,30.82L50.47,30.82z"/>
	<path class="st1" d="M54.25,40.52c-6.57,4.85-16.1,7.42-24.31,7.42c-11.49,0-21.85-4.25-29.67-11.31
		c-0.62-0.56-0.06-1.32,0.68-0.88c8.46,4.91,18.9,7.88,29.69,7.88c7.28,0,15.29-1.52,22.65-4.63C54.38,38.5,55.32,39.72,54.25,40.52
		z"/>
	<path class="st1" d="M56.98,37.4c-0.84-1.08-5.55-0.52-7.68-0.26c-0.64,0.08-0.74-0.48-0.16-0.9c3.75-2.63,9.92-1.88,10.64-1
		c0.72,0.9-0.2,7.06-3.71,10.02c-0.54,0.46-1.06,0.22-0.82-0.38C56.04,42.91,57.82,38.46,56.98,37.4z"/>
</g>
</svg>
