<?xml version="1.0" encoding="utf-8"?>
<!-- Generator: Adobe Illustrator 26.1.0, SVG Export Plug-In . SVG Version: 6.00 Build 0)  -->
<svg version="1.1" id="Layer_1" xmlns="http://www.w3.org/2000/svg" xmlns:xlink="http://www.w3.org/1999/xlink" x="0px" y="0px"
	 viewBox="0 0 60 60" style="enable-background:new 0 0 60 60;" xml:space="preserve">
<style type="text/css">
	.st0{fill:#451022;}
	.st1{fill:#EE3A68;}
</style>
<g>
	<path class="st0" d="M10.62,0.75h38.75C55.25,0.75,60,5.5,60,11.38v37.25c0,5.88-4.75,10.62-10.62,10.62H10.62
		C4.75,59.25,0,54.5,0,48.62V11.38C0,5.5,4.75,0.75,10.62,0.75z"/>
	<g id="vlpa_00000139989771122711070840000003384277618189654463_">
		<g id="vlpb_00000023240722046462656960000016222211192810757286_">
			<path class="st1" d="M21.8,16.05V41.8c0,0.28-0.12,0.4-0.35,0.4h-4.9c-0.23,0-0.33-0.12-0.33-0.4V16.05
				c0-0.23,0.12-0.32,0.35-0.32h4.88c0.15-0.02,0.3,0.07,0.33,0.25C21.8,16,21.8,16.02,21.8,16.05z M36.25,42.5
				c-1.85,0.03-3.7-0.35-5.38-1.12c-1.58-0.72-2.88-1.92-3.77-3.4c-0.92-1.53-1.38-3.42-1.38-5.7C25.7,30.42,26.18,28.6,27.1,27
				c0.95-1.62,2.33-2.98,3.98-3.88c1.75-0.98,3.85-1.45,6.33-1.45c0.12,0,0.3,0,0.53,0.02s0.47,0.02,0.78,0.05v-7.9
				c0-0.18,0.08-0.27,0.25-0.27h5.08c0.12-0.02,0.22,0.07,0.25,0.18V37.6c0,0.45,0.03,0.95,0.05,1.5c0.05,0.53,0.08,1.03,0.1,1.45
				c0,0.17-0.08,0.33-0.25,0.4c-1.3,0.55-2.67,0.95-4.08,1.2C38.85,42.38,37.55,42.5,36.25,42.5L36.25,42.5z M38.7,37.5v-11
				c-0.22-0.05-0.45-0.1-0.67-0.12c-0.28-0.02-0.55-0.05-0.83-0.05c-0.97,0-1.95,0.2-2.83,0.65c-0.85,0.42-1.58,1.05-2.12,1.85
				S31.42,30.7,31.42,32c-0.02,0.88,0.12,1.75,0.42,2.58c0.25,0.67,0.62,1.28,1.12,1.78c0.47,0.45,1.05,0.8,1.7,1
				c0.67,0.22,1.38,0.33,2.08,0.33c0.38,0,0.72-0.03,1.05-0.05C38.12,37.65,38.42,37.6,38.7,37.5L38.7,37.5z"/>
		</g>
	</g>
</g>
</svg>
