<?xml version="1.0" encoding="utf-8"?>
<!-- Generator: Adobe Illustrator 26.1.0, SVG Export Plug-In . SVG Version: 6.00 Build 0)  -->
<svg version="1.1" id="Layer_1" xmlns="http://www.w3.org/2000/svg" xmlns:xlink="http://www.w3.org/1999/xlink" x="0px" y="0px"
	 viewBox="0 0 60 60" style="enable-background:new 0 0 60 60;" xml:space="preserve">
<style type="text/css">
	.st0{clip-path:url(#SVGID_00000067229057483234679220000003588861039207267506_);}
	.st1{fill:#A42523;}
	.st2{fill:#DD392B;}
	.st3{fill:#FFFFFF;}
	.st4{fill:#741314;}
	.st5{fill:#AD2625;}
	.st6{fill:#4A4D4E;}
</style>
<g id="Layer_2_00000045602251964598589180000013345859708438614941_">
	<g id="Layer_1-2_00000026869433467710834330000009804764582556831134_">
		<g>
			<defs>
				<rect id="SVGID_1_" y="19.79" width="23.83" height="20.42"/>
			</defs>
			<clipPath id="SVGID_00000101823914328152130050000006208103252215815574_">
				<use xlink:href="#SVGID_1_"  style="overflow:visible;"/>
			</clipPath>
			<g style="clip-path:url(#SVGID_00000101823914328152130050000006208103252215815574_);">
				<path class="st1" d="M22.89,35.53c-1.27,0.66-7.86,3.37-9.28,4.12s-2.18,0.72-3.29,0.19s-8.1-3.37-9.36-3.98
					C0.33,35.57,0,35.31,0,35.07v-2.41c0,0,9.13-1.98,10.6-2.51s1.98-0.55,3.23-0.09s8.75,1.81,9.99,2.26v2.38
					C23.83,34.94,23.54,35.19,22.89,35.53L22.89,35.53z"/>
				<path class="st2" d="M22.89,33.13c-1.27,0.66-7.86,3.37-9.28,4.1c-1.42,0.73-2.18,0.72-3.29,0.2c-1.11-0.53-8.1-3.37-9.36-3.97
					c-1.27-0.6-1.29-1.02-0.05-1.51c1.24-0.49,8.21-3.21,9.69-3.75c1.47-0.54,1.98-0.55,3.23-0.09s7.81,3.07,9.04,3.52
					c1.23,0.45,1.29,0.83,0.01,1.49V33.13z"/>
				<path class="st1" d="M22.89,31.61c-1.27,0.66-7.86,3.37-9.28,4.1c-1.42,0.73-2.17,0.72-3.28,0.19c-1.11-0.53-8.1-3.36-9.37-3.96
					C0.33,31.64,0,31.38,0,31.14v-2.4c0,0,9.13-1.99,10.6-2.52c1.47-0.53,1.98-0.55,3.23-0.08s8.75,1.81,9.99,2.26v2.38
					C23.83,31.02,23.54,31.27,22.89,31.61L22.89,31.61z"/>
				<path class="st2" d="M22.89,29.2c-1.27,0.66-7.86,3.37-9.28,4.1c-1.42,0.73-2.18,0.73-3.29,0.2s-8.1-3.36-9.36-3.97
					c-1.27-0.61-1.29-1.02-0.05-1.5s8.21-3.22,9.69-3.74c1.47-0.52,1.98-0.56,3.23-0.1s7.81,3.08,9.04,3.52
					C24.11,28.15,24.17,28.54,22.89,29.2L22.89,29.2z"/>
				<path class="st1" d="M22.89,27.53c-1.27,0.66-7.86,3.37-9.28,4.1s-2.17,0.72-3.28,0.2c-1.11-0.53-8.1-3.36-9.37-3.97
					C0.33,27.57,0,27.31,0,27.07v-2.41c0,0,9.13-1.98,10.6-2.51c1.47-0.53,1.98-0.55,3.23-0.09s8.75,1.81,9.99,2.27v2.38
					C23.83,26.95,23.54,27.19,22.89,27.53z"/>
				<path class="st2" d="M22.89,25.13c-1.27,0.65-7.86,3.38-9.28,4.1c-1.42,0.72-2.18,0.72-3.29,0.2s-8.1-3.36-9.36-3.97
					s-1.29-1.02-0.05-1.51s8.21-3.22,9.69-3.75s1.98-0.55,3.23-0.09s7.81,3.07,9.04,3.52C24.11,24.09,24.17,24.46,22.89,25.13
					L22.89,25.13z"/>
			</g>
		</g>
		<path class="st3" d="M12.29,21.7l1.57-0.52l-0.43,1.02l1.6,0.6l-2.06,0.21l-0.46,1.11l-0.75-1.24l-2.38-0.21l1.78-0.64l-0.54-0.99
			L12.29,21.7z M12.39,28.2l-3.85-1.6l5.52-0.85L12.39,28.2z"/>
		<path class="st3" d="M7.04,23.42c1.63,0,2.95,0.51,2.95,1.14S8.67,25.7,7.04,25.7s-2.95-0.51-2.95-1.14
			C4.09,23.94,5.41,23.42,7.04,23.42z"/>
		<path class="st4" d="M17.48,23.11l3.27,1.29l-3.26,1.29L17.48,23.11z"/>
		<path class="st5" d="M17.48,23.11l0,2.58l-0.35,0.14l-3.26-1.29L17.48,23.11z"/>
		<path class="st6" d="M31.41,26.53c0.28-0.31,0.63-0.55,1.01-0.71c0.38-0.16,0.78-0.25,1.19-0.26c0.3-0.03,0.59,0.07,0.81,0.26
			c0.17,0.16,0.26,0.39,0.25,0.62c0,0.23-0.09,0.45-0.25,0.62c-0.16,0.17-0.38,0.27-0.62,0.27c-1.02,0.09-2.43,1.1-2.43,2.48v3.12
			c-0.01,0.48-0.4,0.87-0.88,0.88c-0.24,0.01-0.47-0.09-0.63-0.27c-0.17-0.16-0.26-0.38-0.26-0.62V26.4c0-0.23,0.1-0.45,0.26-0.62
			c0.19-0.14,0.42-0.22,0.66-0.22c0.48,0.01,0.87,0.4,0.88,0.88L31.41,26.53z M42.11,29.39c0,0.21-0.08,0.42-0.22,0.58
			c-0.17,0.16-0.39,0.25-0.62,0.26h-5.21c0.05,0.41,0.25,0.79,0.56,1.07c0.4,0.43,0.95,0.7,1.54,0.74c0.6,0.1,1.22-0.04,1.72-0.4
			c0.17-0.18,0.41-0.27,0.66-0.27c0.21-0.01,0.42,0.07,0.57,0.22c0.29,0.27,0.31,0.72,0.04,1.01c0,0,0,0,0,0
			c-0.01,0.01-0.03,0.03-0.04,0.04c-0.78,0.72-1.81,1.1-2.86,1.06c-1.09,0.02-2.13-0.43-2.86-1.23c-0.75-0.79-1.17-1.83-1.19-2.91
			c-0.02-1.09,0.41-2.15,1.19-2.91c0.71-0.78,1.72-1.21,2.78-1.19c1.02-0.04,2.02,0.36,2.72,1.1c0.75,0.72,1.19,1.69,1.24,2.72v0.09
			L42.11,29.39z M38.18,27.06c-0.55,0.01-1.07,0.21-1.49,0.57c-0.35,0.29-0.6,0.69-0.7,1.14h4.63c-0.13-0.45-0.41-0.84-0.79-1.1
			c-0.46-0.37-1.03-0.59-1.63-0.62 M50.4,32.83c-0.01,0.48-0.4,0.87-0.88,0.88c-0.42-0.02-0.77-0.3-0.88-0.71
			c-0.66,0.47-1.44,0.72-2.25,0.71c-1.06,0.01-2.09-0.42-2.82-1.19c-0.77-0.77-1.18-1.82-1.15-2.91c-0.01-1.08,0.4-2.12,1.15-2.91
			c0.73-0.78,1.75-1.23,2.82-1.24c0.79-0.01,1.56,0.24,2.2,0.71v-3.08c-0.01-0.23,0.09-0.46,0.27-0.62
			c0.16-0.17,0.39-0.26,0.62-0.27c0.23-0.01,0.46,0.09,0.62,0.27c0.17,0.16,0.26,0.38,0.27,0.62v9.74H50.4z M46.44,31.95
			c0.59,0.01,1.16-0.25,1.54-0.7c0.88-0.91,0.88-2.35,0-3.26c-0.39-0.44-0.95-0.7-1.54-0.71c-0.6-0.02-1.17,0.24-1.54,0.71
			c-0.88,0.91-0.88,2.35,0,3.26C45.28,31.68,45.84,31.94,46.44,31.95 M53.01,23.09v0.35c0.01,0.25-0.09,0.5-0.27,0.67
			c-0.16,0.16-0.39,0.24-0.62,0.22c-0.23,0.01-0.46-0.09-0.62-0.26c-0.18-0.17-0.27-0.41-0.27-0.66v-0.33c0-0.23,0.1-0.46,0.27-0.62
			c0.16-0.17,0.38-0.26,0.62-0.27c0.23,0,0.46,0.09,0.62,0.27C52.91,22.63,53.01,22.85,53.01,23.09 M51.52,25.78
			c0.16-0.17,0.38-0.26,0.62-0.27c0.23-0.01,0.46,0.09,0.62,0.27c0.17,0.17,0.26,0.41,0.25,0.65v6.45c0.01,0.24-0.09,0.47-0.27,0.62
			c-0.16,0.17-0.38,0.26-0.62,0.27c-0.23,0.01-0.46-0.09-0.62-0.27c-0.17-0.16-0.26-0.38-0.27-0.62v-6.44
			c-0.01-0.24,0.09-0.48,0.27-0.65 M59.26,26.4c0.18,0.12,0.31,0.31,0.35,0.53c0.04,0.22,0.01,0.45-0.09,0.66
			c-0.13,0.18-0.31,0.3-0.53,0.35c-0.23,0.04-0.47,0-0.66-0.13c-0.62-0.4-1.1-0.62-1.5-0.62c-0.35-0.02-0.7,0.09-0.98,0.31
			c-0.18,0.13-0.26,0.22-0.26,0.31c-0.01,0.08,0,0.16,0.04,0.22c0.05,0.05,0.11,0.1,0.18,0.13c0.36,0.23,0.77,0.36,1.19,0.4
			c0.55,0.09,1.08,0.25,1.59,0.49c0.44,0.19,0.82,0.51,1.06,0.93c0.66,1.02,0.37,2.37-0.65,3.03c0,0-0.01,0.01-0.01,0.01
			c-0.62,0.44-1.36,0.67-2.12,0.66c-1.01,0-1.98-0.4-2.91-1.14c-0.17-0.15-0.28-0.35-0.31-0.57c-0.04-0.47,0.3-0.88,0.76-0.92
			c0.22-0.02,0.43,0.04,0.6,0.18c0.49,0.46,1.14,0.72,1.81,0.7c0.39,0.01,0.78-0.09,1.1-0.31c0.18-0.18,0.31-0.31,0.31-0.44
			s0-0.18-0.04-0.22c0-0.05-0.09-0.13-0.22-0.18c-0.4-0.25-0.85-0.41-1.32-0.47c-0.52-0.08-1.03-0.24-1.5-0.49
			c-0.43-0.21-0.79-0.53-1.06-0.92c-0.17-0.31-0.26-0.66-0.26-1.01c0-0.73,0.36-1.41,0.97-1.81c0.6-0.41,1.3-0.62,2.03-0.62
			c0.74,0.05,1.54,0.35,2.42,0.93"/>
	</g>
</g>
</svg>
