<?xml version="1.0" encoding="utf-8"?>
<!-- Generator: Adobe Illustrator 26.1.0, SVG Export Plug-In . SVG Version: 6.00 Build 0)  -->
<svg version="1.1" id="Layer_1" xmlns="http://www.w3.org/2000/svg" xmlns:xlink="http://www.w3.org/1999/xlink" x="0px" y="0px"
	 viewBox="0 0 60 60" style="enable-background:new 0 0 60 60;" xml:space="preserve">
<style type="text/css">
	.st0{fill:#3978BD;}
	.st1{fill-rule:evenodd;clip-rule:evenodd;fill:#FFFFFF;}
</style>
<g>
	<rect class="st0" width="60" height="60"/>
	<path class="st1" d="M37.15,47.7v5.86c0.95,0.49,2.11,0.86,3.4,1.1s2.7,0.36,4.1,0.36s2.7-0.13,3.98-0.4
		c1.29-0.27,2.34-0.71,3.28-1.29c0.95-0.62,1.76-1.41,2.23-2.46s0.83-2.23,0.83-3.75c0-1.07-0.16-1.99-0.48-2.81
		s-0.77-1.52-1.41-2.11c-0.6-0.62-1.29-1.17-2.11-1.64s-1.76-0.96-2.81-1.41c-0.77-0.32-1.41-0.62-2.11-0.93
		c-0.61-0.3-1.14-0.61-1.52-0.91c-0.43-0.32-0.76-0.64-1-0.98c-0.23-0.35-0.35-0.74-0.35-1.17c0-0.4,0.1-0.76,0.32-1.09
		c0.21-0.33,0.5-0.6,0.88-0.83c0.38-0.23,0.84-0.41,1.41-0.54c0.55-0.13,1.16-0.19,1.88-0.19c0.49,0,1.01,0.04,1.52,0.11
		c0.54,0.07,1.09,0.19,1.64,0.34c0.55,0.15,1.09,0.34,1.64,0.57c0.52,0.23,1,0.5,1.41,0.81v-5.51c-0.89-0.34-1.88-0.6-2.93-0.76
		s-2.23-0.25-3.63-0.25s-2.7,0.15-3.98,0.45s-2.34,0.76-3.28,1.41c-0.95,0.63-1.64,1.41-2.23,2.46C37.27,33.12,37,34.25,37,35.65
		c0,1.76,0.5,3.28,1.52,4.45c1.01,1.29,2.58,2.23,4.57,3.16c0.81,0.33,1.52,0.66,2.23,0.97c0.7,0.32,1.29,0.64,1.76,0.98
		c0.5,0.34,0.9,0.71,1.17,1.11c0.29,0.4,0.45,0.87,0.45,1.41c0,0.38-0.09,0.73-0.27,1.05s-0.46,0.61-0.83,0.84
		c-0.38,0.23-0.83,0.42-1.41,0.56c-0.55,0.13-1.17,0.2-1.99,0.2c-1.29,0-2.58-0.22-3.75-0.67c-1.29-0.45-2.46-1.11-3.52-1.99
		L37.15,47.7z M27.3,33.28h7.5v-4.8H13.83v4.8h7.5v21.45h5.98V33.28z"/>
</g>
</svg>
